<?xml version="1.0" encoding="utf-8"?>
<!-- Generator: Adobe Illustrator 25.2.0, SVG Export Plug-In . SVG Version: 6.00 Build 0)  -->
<svg version="1.1" id="Layer_1" xmlns="http://www.w3.org/2000/svg" xmlns:xlink="http://www.w3.org/1999/xlink" x="0px" y="0px"
	 viewBox="0 0 286.8 227.3" style="enable-background:new 0 0 286.8 227.3;" xml:space="preserve">
<style type="text/css">
	.st0{fill:#F0B90B;}
	.st1{opacity:0.1;}
	.st2{fill-rule:evenodd;clip-rule:evenodd;fill:#191326;}
	.st3{fill:#FFFFFF;}
	.st4{fill:#CC5D00;}
	.st5{fill:#FFF3C2;}
	.st6{fill:#FBD6A0;}
	.st7{fill:#0D131A;}
	.st8{fill:#F29739;}
	.st9{fill:#922F00;}
	.st10{fill:#ED8599;}
	.st11{fill:#F9BE00;}
	.st12{fill:url(#SVGID_1_);}
	.st13{fill-rule:evenodd;clip-rule:evenodd;fill:#606063;}
	.st14{fill:#BEBEBE;}
	.st15{fill:#F5F3F3;}
	.st16{fill-rule:evenodd;clip-rule:evenodd;fill:#612F01;}
	.st17{fill:#FEDC90;}
	.st18{fill:#D1884F;}
	.st19{fill-rule:evenodd;clip-rule:evenodd;fill:url(#SVGID_2_);}
	.st20{fill-rule:evenodd;clip-rule:evenodd;fill:#633001;}
	.st21{fill:#9E7200;}
	.st22{opacity:0.1;fill:none;stroke:#191326;stroke-width:3;enable-background:new    ;}
</style>
<g>
	<circle class="st0" cx="230.9" cy="76.9" r="55.9"/>
	<g transform="matrix(1.926664, 0, 0, 1.926664, -9.249554, -109.399118)" class="st1">
		<path class="st2" d="M124.7,122.7c14.4,0,26-11.6,26-26s-11.6-26-26-26s-26,11.6-26,26S110.3,122.7,124.7,122.7z M124.7,125.7
			c16,0,29-13,29-29s-13-29-29-29s-29,13-29,29S108.7,125.7,124.7,125.7z"/>
	</g>
	<g transform="matrix(0.546935, 0.106313, -0.106313, 0.546935, 64.390404, -99.369705)">
		<path class="st3" d="M318,222.8c8.9,1.2,15.8,3.3,20.6,6.3c1.2,0.7-2.6,6.8-11.2,18.2c-8.7,11.5-13.4,16.9-13.9,16.2
			c-3.1-4.1-6.1-10.7-8.8-19.7c-3.1-10.2-3.4-17-1.1-20.5C304.7,221.9,309.5,221.7,318,222.8"/>
		<path class="st3" d="M394.8,205.1c2.3,0.9,4.1,5.8,5.3,14.6c1.3,9.1,0.9,16.1-1.2,20.9c-0.7,1.6-7.1-0.5-19.2-6.2
			c-12.2-5.8-18-9.2-17.4-10c4.1-5.2,10.3-10.1,18.7-14.5C388.4,206,393,204.4,394.8,205.1"/>
		<path class="st0" d="M374.1,225.7c1.7-2.2,4.6-4.7,8.8-7.5c4.1-2.7,6.6-3.9,7.8-3.8c1.3,0.3,2.1,3.2,2.4,8.8
			c0.3,5.6-0.2,9.8-1.5,12.4c-0.4,0.8-3.6-0.4-9.6-3.6C375.9,228.9,373.3,226.8,374.1,225.7"/>
		<path class="st0" d="M323.2,233.1c6.5,1.6,9.8,2.9,9.9,3.8c0.1,1.1-1.8,4.6-5.6,10.5c-3.9,6.1-6.4,8.8-7.4,7.9
			c-1.5-1.3-3.4-5.1-5.6-11.3c-2.3-6.4-3-10.4-2.1-11.8C312.9,231.2,316.6,231.5,323.2,233.1"/>
		<path class="st3" d="M420.5,229.5c0.5-0.2,0.8-0.1,1,0.1c0.2,0.3,0.1,0.6-0.4,1l-22.2,14.4c-0.2,0.1-0.3,0.2-0.2,0.4
			c0.8,1.7,1.3,3.2,1.7,4.4c0.9,2.6,1.1,5.6,0.6,9.1l0.3,0.2l14,0.5l12.6,1.2c0.6,0.1,0.9,0.3,0.9,0.6c0,0.3-0.2,0.5-0.8,0.6
			l-28.2,2l-0.2,0.2c-2,5.6-5.4,10.6-10.2,14.9c-5.4,4.9-11.9,8.3-19.5,10.2c-13.2,3.3-24.7,3.7-34.6,1.2
			c-10.5-2.6-17-7.9-19.8-16.1c-3-9.1-1.1-18.5,5.8-28.2c6.8-9.6,16.1-16.4,28-20.2c9.5-3.1,18.6-3.1,27.3-0.2
			c8.2,2.7,14.7,7.6,19.4,14.6l0.7,0.1C400.5,238.7,408.5,235,420.5,229.5"/>
		<path class="st3" d="M276.1,270.8c-1,0.1-1.4-0.3-1.3-1c0.1-0.7,0.6-1.3,1.5-1.8c0.8-0.4,8.1-1.6,21.9-3.5l22.2-2.8
			c1.5-0.1,2.2,1,2,3.4c-0.2,2.4-0.8,3.7-1.8,3.8L276.1,270.8"/>
		<path class="st3" d="M325.6,277.6c1.6-0.6,2.8,0.2,3.6,2.5c0.8,2.2,0.8,3.5-0.1,4c-0.7,0.4-7.8,3.3-21.2,8.7l-21.1,8.2
			c-1.9,0.4-2.7-0.1-2.3-1.3c0.3-0.7,7.1-4.6,20.4-11.5C317.5,281.6,324.4,278.1,325.6,277.6"/>
		<path class="st3" d="M327.4,194.9c1.4-0.5,4.5,5.3,9.1,17.2c4.4,11.4,6.6,17.7,6.6,19.1c0,0.8-1.4,1.9-4.2,3.5
			c-2.7,1.5-4.2,2-4.5,1.3c-0.6-1.9-2.1-8.8-4.5-20.7C327.4,202,326.6,195.2,327.4,194.9"/>
		<path class="st3" d="M363.8,226.4c-0.4-0.9-0.9-7-1.7-18.4c-0.8-11.6-1-17.8-0.7-18.7c0.2-0.4,0.5-0.4,1.1-0.1
			c0.6,0.2,1,0.7,1.1,1.4l7.8,36.6c0.1,0.8-0.9,1.3-3.1,1.5C366,228.9,364.5,228.2,363.8,226.4"/>
		<path class="st3" d="M379.3,245.3c0.4,1.3,0.5,2,0.2,2.1c-0.3,0.1-0.7-0.5-1.1-1.8c-0.4-1.2-0.5-1.9-0.2-2.1
			C378.5,243.4,378.8,244,379.3,245.3"/>
		<path class="st3" d="M366.6,231.3c0.9,2.7,0.7,5.4-0.7,7.9c-1.3,2.6-3.4,4.3-6.1,5.2c-2.8,0.9-5.5,0.7-8.1-0.7
			c-2.6-1.3-4.4-3.4-5.2-6.2l-5.4-16.8c-0.9-2.8-0.7-5.4,0.6-8.1c1.3-2.6,3.4-4.4,6.1-5.3c2.8-0.9,5.5-0.7,8.1,0.7
			c2.6,1.3,4.4,3.4,5.2,6.2L366.6,231.3"/>
		<path class="st0" d="M363.5,233.3c0.5,2.6,0.1,5-1.2,7.2c-1.3,2.2-3.2,3.6-5.7,4.1c-2.7,0.5-5.1,0-7.1-1.7c-2-1.6-3.2-3.7-3.7-6.5
			l-3-15.6c-0.5-2.6-0.1-5,1.2-7.1c1.3-2.2,3.2-3.5,5.8-4s4.9,0,7,1.6c2.1,1.5,3.3,3.6,3.8,6.2L363.5,233.3"/>
		<path class="st3" d="M359.7,214.1c0.4-0.1,0.8,0.2,1,0.8c0.2,0.6,0.1,1-0.2,1.1l-18.2,3.8c-0.6,0.1-0.9-0.2-1-0.9
			c0-0.7,0.3-1.1,0.9-1.3L359.7,214.1"/>
		<path class="st3" d="M361,220.7c0.4-0.1,0.7,0.2,0.8,0.9c0.1,0.7,0,1.1-0.4,1.2l-18.4,3.8c-0.6,0.1-1-0.1-1-0.8
			c0-0.7,0.3-1.1,0.9-1.2l9.3-2.1L361,220.7"/>
		<path class="st3" d="M362.5,227.8c0.4-0.1,0.8,0.2,0.9,0.7c0.2,0.5,0.1,0.8-0.3,1l-8.8,2.1l-9.4,2.1c-0.6,0.2-1-0.1-1.2-0.8
			c-0.2-0.7,0.1-1.1,0.7-1.2C348.1,230.8,354.2,229.5,362.5,227.8"/>
		<path class="st3" d="M364,234.7c0.4-0.1,0.7,0.2,0.9,0.7c0.1,0.6,0,0.9-0.3,1l-18.2,3.8c-0.6,0.2-1-0.1-1.1-0.7
			c-0.1-0.6,0.1-0.9,0.7-1.1l9.3-2L364,234.7"/>
	</g>
</g>
<g transform="matrix(1.256746, 0, 0, 1.256746, -130.382937, -130.347353)">
	<path class="st4" d="M134.1,192.7c5,2,8,5.8,8.9,11.2c0.8,4.9,0,9-2.5,12.2c-2.3,2.9-4.9,4.8-7.8,5.6c-2.5,0.7-4.5,0.6-6-0.3
		c-1.1-0.7-1.8-0.5-2.1,0.6c-0.2,0.7-0.2,1.6-0.1,2.8l1.3,4.6c0.8,2.4,1.4,3.7,1.8,4.1c0.4,0.4,0.2,1.2-0.8,2.4
		c-0.9,1.2-1.9,2-2.9,2.4l-2.9,0.8c-1,0-1.9-0.4-2.9-1.4c-4.3-4.3-6.8-10.3-7.5-18.1c-0.7-7.7,0.7-14.2,4.1-19.6
		c1.9-2.9,4.4-5.2,7.6-6.7C126.2,191.3,130.2,191.1,134.1,192.7"/>
	<path class="st5" d="M146.3,241.6c6.3,0.3,11.5-1.3,15.4-4.8c0.8-0.7,1.9,0,3.3,2.2c1.4,2.2,1.7,3.6,0.8,4.4
		c-7.1,6-15.7,8.3-25.8,7c-9.7-1.2-17-5.1-21.7-11.7c0.6,0.2,1.8,0,3.7-0.6c1.7-0.6,2.8-1.1,3.2-1.6c1-0.9,1.9-2.1,2.8-3.5
		C133,238.5,139.1,241.3,146.3,241.6"/>
	<path class="st4" d="M126.7,230.8c-0.5-1.8-0.4-2,0.5-0.7c0.8,1.4,1.3,2.5,1.3,3.4c0.1,1.6-1.2,3.2-4.1,4.9
		c-3.1,1.8-5.7,1.7-7.6-0.4c-0.3-0.4-0.5-1-0.6-1.8c0-0.9,0.2-0.9,0.8-0.2c1.4,2,3.5,2.2,6.4,0.5S127.4,233,126.7,230.8"/>
	<path class="st5" d="M172.7,267l-4.7,4.3l-0.5-2.2c-0.3-0.8-0.9-1.7-1.8-2.6c-1.1-1.2-2.7-2.2-5-2.8c-2-0.6-3.9-0.8-5.6-0.7
		c4.6-2.9,8.6-5.1,11.9-6.8c2.2-1.1,4.3-1.4,6.3-0.8c2.5,0.7,3.6,2.8,3.4,6.2C176.7,262.5,175.3,264.3,172.7,267"/>
	<path class="st4" d="M143.1,280.4c-0.9-0.1-1.7-1.1-2.3-3c-0.6-1.8-0.7-3.3-0.5-4.5c0.4-1.8,2.1-3.7,5.3-5.7
		c2.5-1.6,5.1-2.9,7.6-3.6l4.9-0.5l3.4,0.5c2.9,0.9,4.8,2.4,5.7,4.6c0.8,1.9,0.8,3.7-0.2,5.2c-1.2,1.9-2.8,3.9-4.9,6
		c-2.1,2.2-3.7,3.4-4.8,3.8l-2.8,0.2c-0.8-0.2-1.3-0.6-1.5-1.1l-2.5,0.6l-2.9,0.2c-0.4,0-1.1-0.5-2.1-1.4
		C144.7,281,143.8,280.5,143.1,280.4"/>
	<path class="st4" d="M167.4,271.2c-0.6-3.8-3-6.2-7.2-7.2l-7.4-0.2c-0.6,0.1-0.5,0,0.2-0.2l1.6-0.6c3.1-0.7,5.9-0.4,8.6,0.9
		c2.9,1.4,4.6,3.7,5.1,6.8c0.2,0.9,0.1,1.4-0.2,1.5C167.7,272.3,167.5,272,167.4,271.2"/>
	<path class="st6" d="M173.1,252.6c2.9,1.5,4.2,2.2,3.9,2.2c-0.2,0-0.6,0.4-1.1,1.1c-0.5,0.8-0.9,1.5-0.9,2.1
		c-0.2,1.1-1.6,1.2-4.2,0.4c-2.7-0.8-3.7-1.5-2.9-2.2c1.5-1.4,2-2.9,1.5-4.8C169.1,250.9,170.4,251.3,173.1,252.6"/>
	<path class="st7" d="M176.7,254.6c0.7-0.4,1.2-0.5,1.6-0.3c0.3,0.2,0.2,0.4-0.4,0.8c-1.4,0.8-2.2,2.1-2.4,3.9c0,0.6-0.2,0.9-0.6,1
		c-0.4,0.1-0.6-0.2-0.6-0.8C174.2,257.1,175,255.6,176.7,254.6"/>
	<path class="st7" d="M175.1,265.3c-3.9,3.7-8.6,9.2-14.2,16.5c-1.8,2.4-4,3.2-6.5,2.4c-2-0.6-3.3-1.6-3.9-2.9
		c-0.7-1.7-0.6-3.4,0.2-5.1c0.8-1.6,1.8-2.6,3.1-3l1.4-0.1c0.1,0.2-0.1,0.4-0.7,0.8c-1.6,0.9-2.6,2.1-2.9,3.7
		c-0.3,1.4,0,2.7,0.8,3.9c0.8,1.2,1.9,1.8,3.2,1.9c1.5,0,2.9-0.8,4.3-2.4l6.7-8.3c3-3.8,5.4-6.6,7.4-8.5c1-0.9,1.6-1.8,1.9-2.8
		c0.5-1.4,0.2-2.7-0.9-3.9c-0.1-0.1,0-0.3,0.2-0.7l0.5-0.5c1.4,1.3,2,2.9,1.9,4.6C177.3,262.5,176.5,264,175.1,265.3"/>
	<path class="st7" d="M143.8,280.8c-1-1.7-1.3-3.6-0.7-5.8c0.7-2.7,2.6-4.7,5.8-5.9l1.1,0c0.3,0.1,0.1,0.4-0.4,0.6
		c-3.2,1.6-4.9,3.7-5.2,6.2c-0.2,1.9,0.2,3.5,1.4,5c0.7,0.9,1.7,1.5,2.9,1.6c0.9,0.1,1.9-0.1,3-0.6c0.5-0.2,0.8-0.2,1,0
		c0.2,0.2,0,0.4-0.5,0.8c-1.1,0.7-2.3,1-3.8,0.9C146.4,283.5,144.9,282.6,143.8,280.8"/>
	<path class="st7" d="M168.8,252c-0.1-0.5,0.1-0.8,0.6-0.8s0.8,0.4,0.8,1c0,1.9-0.9,3.5-2.7,4.9l-10.1,5c-6.8,3.4-10.9,5.6-12.3,6.6
		c-3.1,2.2-4.4,4.7-3.9,7.7c0.5,2.7,1.7,4,3.6,4c0.2,0,0.4,0.2,0.6,0.5c0.2,0.3,0.2,0.5,0,0.5c-1.9,0.1-3.4-0.5-4.5-1.6
		c-1-1.1-1.6-2.4-1.7-4.1c-0.3-4,1.6-6.9,5.5-8.6l21.1-10.7l2.3-1.8C168.7,253.9,168.9,253,168.8,252"/>
	<path class="st4" d="M220.2,261.3l6.4,1.1c3.4,0.5,5.9,1.1,7.3,1.9c2.4,1.2,3.8,2.8,4.1,4.6l-0.1,1.3c-0.1,0.4-0.1,0.8,0.1,1.3
		c0.4,1.6,0.1,3.2-1,5c-1.1,1.8-2.6,2.7-4.3,2.5l-2.1,1.4l-3.4,0.3c-2.2-0.5-5-1.7-8.6-3.5c-3.9-2.1-6.7-3.6-8.3-4.4
		c-0.7-0.3-1-1.6-0.7-3.8c0.4-2.3,1.2-4.1,2.7-5.4c0.9-0.8,2.2-1.5,3.9-2L220.2,261.3"/>
	<path class="st5" d="M211.2,265c-1.3,2.3-1.7,4.9-1.2,7.9c-1.6-1.1-5.6-2.9-12.1-5.2l-9.2-3.5c-2-3.1-1.1-6,2.8-8.7
		c1.4-1,2.7-1.6,4.1-1.9c1.4-0.3,2.1-0.2,2.1,0.4l-0.2,1.4c0,0.3,0.1,0.5,0.5,0.7c1.7,0.7,5.5,1.7,11.4,2.8c5.4,1,8.5,1.8,9.3,2.4
		c-0.7-0.2-2,0.2-3.8,1.1C212.9,263.2,211.7,264.1,211.2,265"/>
	<path class="st4" d="M220.4,261.6l-4.2,0.6c-2,0.6-3.4,1.4-4.3,2.6c-1.7,2.1-2.1,4.6-1.4,7.4c0.1,0.4-0.1,0.5-0.4,0.4
		c-0.4-0.1-0.7-0.4-0.8-0.9c-0.3-0.8-0.3-1.9-0.2-3.2c0.2-1.6,0.7-2.9,1.5-3.9c1.1-1.4,2.5-2.4,4.4-3c1.8-0.6,3.5-0.8,5.2-0.5
		l1.1,0.2L220.4,261.6"/>
	<path class="st6" d="M197.2,253.8c-0.1,1.5,0.1,2.5,0.7,3.1c0.3,0.3,0.2,0.6-0.1,0.9c-0.4,0.4-0.9,0.6-1.5,0.8l-3.9,0.1
		c-1.5-0.1-2.2-0.4-2.1-0.8l0.4-1.1c0.2-0.6,0.2-1,0-1.3c-0.2-0.4,0.8-0.9,3.1-1.5C196.1,253.5,197.3,253.4,197.2,253.8"/>
	<path class="st7" d="M191.3,255.9c0.4,0.1,0.4,0.2,0,0.4c-1.5,0.7-2.5,2-2.8,4c-0.3,2,0.2,3.2,1.8,3.6c4,1.1,9.4,3.3,16.1,6.4
		c3.9,1.8,9.3,4.4,16.4,8c3.4,1.7,6.3,1.8,8.8,0.2c2.5-1.7,2.2-4.2-0.9-7.6c-0.5-0.6-0.7-1-0.4-1c0.3-0.1,0.8,0.2,1.5,0.9
		c1.8,1.7,2.7,3.4,2.8,5.1c0.1,1.6-0.5,2.9-1.8,4c-1.3,1.1-2.9,1.6-4.9,1.7c-2.1,0.1-4.2-0.5-6.2-1.7c-14.6-7.4-25.2-12.1-31.9-14
		c-2.1-0.6-3-2.3-2.8-5.1c0.2-2.7,1.2-4.3,3.1-4.8L191.3,255.9"/>
	<path class="st7" d="M222.1,260.5c5.9,0.6,10.2,1.7,13.1,3.4c3.2,1.9,4.2,4.3,3.2,7.4c-0.2,0.7-0.5,0.9-0.8,0.7
		c-0.3-0.2-0.4-0.5-0.3-0.8c0.8-2.9-0.9-5.1-5-6.6c-1.8-0.7-5.3-1.4-10.4-2.2l-12.5-2.6c-5.9-1.4-9.7-2.4-11.5-3.1
		c-0.2-0.1-0.3-0.3-0.3-0.8c0-0.5,0-0.8,0.1-0.8c1.3,0.7,5.3,1.7,11.9,3.1L222.1,260.5"/>
	<path class="st7" d="M233.3,266.5c2.9,1,4.6,2.7,5.2,5c0.4,1.7,0.2,3.4-0.6,4.9c-0.7,1.3-1.7,2.1-2.9,2.6l-2.3,0.4
		c-0.3,0.1-0.6,0-0.7-0.2c-0.1-0.2,0-0.4,0.5-0.6c2.2-0.6,3.6-1.6,4.3-2.9c0.7-1.4,0.8-2.9,0.2-4.4c-0.6-1.5-1.7-2.8-3.4-3.8
		c-0.4-0.2-0.6-0.4-0.8-0.8C232.6,266.4,232.8,266.3,233.3,266.5"/>
	<path class="st7" d="M190.3,254c0.2,0.4,0.4,1,0.5,1.8c0.1,0.9,0,1.8-0.3,2.4l-0.9,0.9c-0.3,0.1-0.4-0.2-0.2-0.8
		c0.4-1.5,0.3-2.7-0.3-3.5c-0.2-0.4-0.1-0.7,0.2-1.1C189.8,253.4,190.1,253.5,190.3,254"/>
	<path class="st7" d="M199.4,251.2c-0.5,0.8-0.8,1.6-1,2.5c-0.2,1.2-0.1,2.1,0.4,2.8c0.4,0.6,0.4,0.9,0.1,1c-0.3,0.1-0.7-0.1-1-0.6
		c-0.4-0.5-0.7-1.2-0.8-2.1c-0.1-1.1,0.1-2,0.6-2.8c0.6-0.9,1.2-1.4,1.8-1.7C199.9,250,199.9,250.3,199.4,251.2"/>
	<path class="st5" d="M228.2,249.1l-4.1,1.4c-2.1,0.3-4.1-0.1-6-1.3c-0.9-0.6-1.8-1.5-2.8-2.9c-0.9-1.3-1.6-2.6-2-3.8
		c-3.7-2.1-6-4.3-7.1-6.5c-1.7-3.6-3.5-9.2-5.3-16.8c-1.7-7.1-2.4-10.8-2-11.1c0.7-0.8,1.7-1.4,2.9-1.9c1.7-0.7,2.6-0.3,2.8,1.2
		c0.4,3,2.8,8.1,7.1,15.4c4.3,7.2,7.1,10.9,8.4,11.1c3,0.5,5.6,1.4,7.6,2.5c2.3,1.3,3.7,3,4.1,4.9c0.5,2.2,0.4,4-0.3,5.2
		C231,247.6,229.9,248.5,228.2,249.1"/>
	<path class="st7" d="M213.8,242c0.6,1.5,0.6,2-0.1,1.7c-2.9-1.6-5.1-3.3-6.6-4.9c-3.1-3.5-4.6-8.1-4.6-13.7c0-0.4,0.1-0.7,0.3-0.9
		c0.2-0.3,0.4-0.2,0.4,0.2c0.6,3.6,1.4,6.6,2.6,9C207.7,237.4,210.4,240.2,213.8,242"/>
	<path class="st7" d="M228,248.7c1.5-0.2,2.5-1.4,3.1-3.5c0.6-2.3,0.1-4.2-1.4-5.9c-1.3-1.5-3.2-2.6-5.6-3.3
		c-2.7-0.8-4.7-1.7-5.9-2.7c-3.3-2.9-6.7-7.6-10-14.1c-2.7-5.3-4.2-9-4.6-11.2c-0.1-0.5,0-0.8,0.4-0.9c0.4-0.1,0.6,0.1,0.7,0.4
		c1.2,4.3,3.5,9.2,7,14.6c3,4.6,5.6,7.9,7.8,9.9c0.7,0.6,2.4,1.3,5.3,2.3c2.8,0.9,4.9,2,6.2,3.4c1.6,1.6,2.3,3.7,2.1,6.2
		c-0.2,2.9-2.1,4.8-5.6,5.7c-0.5,0.1-0.6,0-0.5-0.2C227.2,249,227.5,248.8,228,248.7"/>
	<path class="st5" d="M168.7,251c-4.3-3.5-6.6-7.7-6.9-12.7c-0.1-2,1.6-6.3,5.2-13.1c4-7.6,6.4-13.8,7.2-18.4
		c0.4-2.1,2.1-3.5,5.2-4.4c2-0.5,4.4-0.8,7.2-0.8c1.8,0,4.4,1.1,7.9,3.3c3.5,2.2,6,4.2,7.5,6.2c2.4,3.1,4.2,7.4,5.4,12.8
		c1.6,7.5,0.8,14.2-2.3,19.9c-3.1,5.6-6.7,9.3-10.9,10.9c-2.5,1-6.4,1.4-11.8,1.3C177.3,256.1,172.8,254.4,168.7,251"/>
	<path class="st6" d="M162.5,241.8c1.6,2.7,4.6,5.1,9,7.3c4.4,2.1,8.7,3.2,12.8,3.3c3.8,0.1,7.4-0.4,10.8-1.7c2.7-1,5.1-2.4,7.1-4.1
		c-5.4,7-11.5,10.3-18.2,10c-5.6-0.2-10.4-1.7-14.3-4.5C166,249.4,163.6,246,162.5,241.8"/>
	<path class="st7" d="M229.9,245c0.1,2.9-1.1,4.8-3.5,5.9c-2.5,1-5.1,0.8-7.8-0.7c-2.9-1.6-4.6-4-5.1-7.3c-0.1-0.5,0.1-0.9,0.4-1
		c0.3-0.1,0.4,0,0.4,0.5c-0.1,1.7,1.1,3.5,3.5,5.5c2.6,2.1,5.1,2.7,7.5,1.7c2.4-1,3.4-2.7,3-5.2c-0.4-2.4-1.9-4.2-4.5-5.2
		c-0.5-0.2-0.6-0.4-0.4-0.6c0.3-0.2,0.6-0.2,1.1,0C228,239.9,229.8,242,229.9,245"/>
	<path class="st6" d="M186.9,207.3l8.4-0.6c4.5,0,6.8,0.4,6.9,1.4c0.1,1.3-0.2,2.3-0.9,2.9c-0.7,0.6-2,1-3.8,1.1l-5.1-0.7l-5.8-1.5
		c-1.2-0.4-1.9-0.8-1.9-1.4S185.4,207.6,186.9,207.3"/>
	<path class="st7" d="M174.3,253.8c4.4,1.8,9,2.2,13.7,1.4c5.1-0.8,9.2-3,12.3-6.6c2.8-3.1,4.6-6.4,5.6-9.9
		c1.7-6.6,0.7-14.6-2.8-24.1c-0.7-2-0.9-3.1-0.6-3.2c0.3-0.3,0.9,0.4,1.7,2.2c3.2,6.9,4.7,13.7,4.5,20.3c-0.2,6.9-2.3,12.3-6.3,16.4
		c-3.6,3.7-8,5.9-13.1,6.8c-5.2,0.8-10.3,0-15.2-2.4c-0.7-0.3-1-0.6-0.9-0.8C173.3,253.5,173.7,253.5,174.3,253.8"/>
	<path class="st7" d="M171.3,252.2c0.3,0.2,0.4,0.4,0.4,0.7c-0.1,0.2-0.3,0.3-0.7,0.1c-2.9-1-5.2-2.7-7-4.9c-1.9-2.3-2.9-4.8-3-7.6
		c-0.2-4.6,1-9.1,3.6-13.6c3.7-6.5,6.4-12.7,8.1-18.7c0.3-1.2,0.7-1.6,1.1-1.1s0.5,1,0.4,1.6c-1.1,6-3.5,12-7,17.9
		c-2.9,4.8-4.2,9.3-3.9,13.5C163.5,245.5,166.2,249.5,171.3,252.2"/>
	<path class="st7" d="M161.6,235.8c0.8-0.7,1.1-0.6,1,0.4c-0.2,1-0.5,1.7-1.1,2c-4.9,3-9.8,4.6-14.9,4.7c-4.6,0.1-8.9-1-12.8-3.4
		c-3.7-2.3-6.5-5.3-8.3-9.1c-1.9-4-2.5-8.2-1.7-12.6c0.1-0.4,0.3-0.4,0.6,0.1c0.4,0.5,0.5,1.2,0.5,2.1c0,4.9,1.3,9.2,4.1,12.7
		c2.5,3.1,5.8,5.4,9.9,6.8c3.9,1.3,8,1.7,12.1,1C155.3,240,158.8,238.4,161.6,235.8"/>
	<path class="st7" d="M119.3,193.3c5.5-3.6,11-3.9,16.5-1.1c5.3,2.8,8.1,7.1,8.5,13.1c0.4,4.9-0.7,9-3.1,12.1
		c-1.8,2.4-3.9,4-6.4,4.9c-2.6,1-5.3,1.1-8.1,0.2c-3.3-1.1-4.9-3.7-4.9-7.8c0-4,1.4-7,4.1-9c0.6-0.5,1.1-0.7,1.4-0.7
		c0.3,0.1,0.1,0.5-0.7,1.4c-2.4,2.9-3.4,5.7-3,8.6c0.4,2.6,1.7,4.4,3.9,5.5c1.8,0.8,3.7,0.9,5.7,0.3c2.3-0.7,4.3-2.3,6.1-4.8
		c2.5-3.3,3.4-7.2,2.5-11.7c-0.8-4.6-3.1-7.9-6.8-10.2c-4.6-2.8-9.4-2.4-14.5,0.9c-5.4,3.6-8.3,9.4-8.8,17.3
		c-0.5,8.1,1,15.2,4.4,21.2c3.1,5.4,7.5,9.6,13.2,12.6c5.3,2.7,11,3.9,17.1,3.8c6.1-0.2,11.4-1.8,16-4.9c0.7-0.5,1.2-0.5,1.6,0
		c0.3,0.5,0.1,0.9-0.6,1.3c-6.2,3.8-12.7,5.6-19.6,5.6c-6.5-0.1-12.5-1.8-18-5.2c-5.6-3.5-9.8-8.1-12.8-14
		c-3.2-6.2-4.4-13.1-3.8-20.6C110,203.5,113.4,197.2,119.3,193.3"/>
	<path class="st7" d="M148.4,138.9c8.9,1.2,15.8,3.3,20.6,6.3c1.2,0.7-2.6,6.8-11.3,18.3c-8.7,11.5-13.3,16.9-13.8,16.2
		c-3.1-4.1-6.1-10.7-8.8-19.7c-3.1-10.2-3.4-17-1.1-20.4C135.1,137.9,139.9,137.7,148.4,138.9"/>
	<path class="st7" d="M225.3,121.1c2.3,0.9,4.1,5.8,5.3,14.7c1.3,9.1,0.9,16.1-1.2,20.9c-0.7,1.6-7.1-0.5-19.2-6.2
		c-12.2-5.8-18-9.2-17.3-10.1c4.1-5.2,10.3-10,18.6-14.4C218.9,122.1,223.5,120.4,225.3,121.1"/>
	<path class="st8" d="M204.6,141.8c1.7-2.2,4.6-4.7,8.8-7.5c4.1-2.7,6.7-3.9,7.8-3.8c1.3,0.3,2.1,3.2,2.4,8.8
		c0.3,5.6-0.2,9.8-1.6,12.4c-0.4,0.8-3.6-0.4-9.6-3.6C206.4,144.9,203.8,142.8,204.6,141.8"/>
	<path class="st8" d="M153.6,149.2c6.5,1.6,9.8,2.9,9.9,3.8c0.1,1.1-1.8,4.6-5.6,10.6c-3.9,6.1-6.4,8.8-7.4,7.9
		c-1.5-1.3-3.4-5.1-5.6-11.3c-2.3-6.4-3-10.4-2.1-11.8C143.4,147.3,147,147.6,153.6,149.2"/>
	<path class="st7" d="M240.6,148.5c5.5-2.4,8.9-3.8,10.2-4.2c1.3-0.5,2.2-0.2,2.7,0.7c0.5,0.9,0,1.9-1.4,2.8
		c-10.4,7.1-17.1,11.7-20.1,14l1.3,3.5c0.8,2.6,1.1,5.3,0.7,8.2l12.5,0.8c6.5,0.5,10.9,1.1,13.1,1.7c0.9,0.3,1.4,0.9,1.4,1.8
		c0,0.9-0.6,1.5-1.6,1.7l-27.9,2.7c-2.5,5.7-6.2,10.7-11.2,15c-5.7,4.8-12.3,8.2-20,10.1c-13.7,3.4-25.6,4-35.8,1.7
		c-11.2-2.5-18.3-8.3-21.2-17.2c-3.2-9.6-1.2-19.5,5.9-29.7c7.1-10.2,16.9-17.3,29.5-21.3c9.7-3.2,19.2-3.4,28.3-0.6
		c8.7,2.6,15.6,7.4,20.8,14.3C230.2,153.1,234.4,151.2,240.6,148.5"/>
	<path class="st5" d="M207,201.7c2-1.5,3.3-2.8,3.9-3.9c0.3-0.7,0.8-1,1.3-1.1c0.5,0,0.7,0.3,0.5,0.9c-1,3-2.7,5.6-5.1,7.7
		c-1.9,1.7-3.9,2.8-5.9,3.3c-3.3,0.9-6.7,1.1-10.2,0.6c-3.4-0.5-6.6-1.5-9.7-3.1c-0.6-0.3-0.6-0.7-0.1-1.2c0.5-0.5,1.1-0.7,1.7-0.5
		l6.6,1.4l9.4-0.4C202.2,204.7,204.7,203.4,207,201.7"/>
	<path class="st5" d="M251,145.6c0.5-0.2,0.8-0.2,1,0.1c0.2,0.3,0.1,0.6-0.4,0.9l-22.2,14.5c-0.2,0.1-0.3,0.2-0.2,0.4
		c0.8,1.7,1.3,3.2,1.7,4.4c0.9,2.6,1.1,5.6,0.6,9.1l0.3,0.2l14.1,0.6l12.6,1.2c0.6,0.1,0.9,0.3,0.9,0.6c0,0.3-0.2,0.5-0.8,0.5
		l-28.2,2.1l-0.2,0.2c-2,5.6-5.4,10.6-10.2,15c-5.4,4.9-12,8.3-19.6,10.2c-13.2,3.3-24.7,3.7-34.6,1.2c-10.5-2.6-17.1-7.9-19.8-16.1
		c-3-9.1-1.1-18.5,5.8-28.2c6.8-9.6,16.1-16.4,28.1-20.2c9.5-3.1,18.6-3.2,27.3-0.2c8.2,2.7,14.7,7.6,19.4,14.6l0.7,0.1
		C231,154.8,239,151.1,251,145.6"/>
	<path class="st7" d="M211.7,198.9c0.2-0.4,0.5-0.5,0.9-0.3s0.4,0.4,0.2,0.8c-2.4,4.8-6.1,8-11.2,9.6c-4.3,1.4-8.9,1.4-13.8,0.1
		l-1.2-0.6c-0.5-0.3-0.6-0.4-0.2-0.3c5.7,1.2,10.8,0.9,15.2-0.7C206,205.8,209.3,203,211.7,198.9"/>
	<path class="st3" d="M202,169.2c-0.7-2.2-0.6-5.2,0.3-8.8c1.1-4.4,3.1-6.9,5.9-7.7c2.7-0.7,5.4-0.1,8.1,1.9c3,2.2,5,5.3,5.8,9.3
		c0.5,2.6,0,5.2-1.5,7.7c-1.4,2.3-3,3.7-4.9,4.1c-2.6,0.6-5,0.7-7.1,0.2C205.4,175,203.2,172.8,202,169.2"/>
	<path class="st5" d="M106.6,186.8c-1,0.1-1.4-0.3-1.3-1c0.1-0.7,0.6-1.3,1.5-1.8c0.8-0.4,8.1-1.6,22-3.4l22.1-2.8
		c1.5-0.1,2.2,1.1,2,3.4c-0.2,2.4-0.8,3.7-1.8,3.8L106.6,186.8"/>
	<path class="st5" d="M156.1,193.6c1.6-0.6,2.8,0.2,3.6,2.4c0.8,2.2,0.8,3.5-0.1,4.1c-0.7,0.4-7.8,3.3-21.2,8.7l-21,8.2
		c-1.9,0.4-2.7-0.1-2.3-1.3c0.3-0.7,7.1-4.6,20.5-11.6C148,197.7,154.9,194.1,156.1,193.6"/>
	<path class="st9" d="M195.8,186.1c-1.6-0.4,0.7-1.3,6.8-2.8c6-1.4,9-1.7,8.9-0.7c-0.7,6.1-2.4,11.1-5.2,15
		c-0.2-3.5-1.8-6.4-4.8-8.7C199.7,187.6,197.8,186.6,195.8,186.1"/>
	<path class="st10" d="M185.4,189.7l8.6-3.1c2.2-0.6,4.7,0.3,7.5,2.7c2.9,2.5,4.5,5.2,4.8,8.4c0.1,1.3-0.6,2.5-1.9,3.6
		c-1.2,0.8-2.9,1.7-5.3,2.6c-3.7,1.3-8.2,0.6-13.6-2.2c-5-2.7-8.5-5.8-10.5-9.4c-0.6-1.1-0.2-1.5,1.1-1.2
		C178.2,191.5,181.3,191.1,185.4,189.7"/>
	<path class="st5" d="M154.9,113.2c1.4-0.6,5.1,4.7,11.1,16c5.8,10.7,8.7,16.8,8.9,18.1c0.1,0.8-1.1,2.1-3.7,4
		c-2.5,1.9-4,2.5-4.3,1.9c-0.9-1.8-3.2-8.5-6.9-20.1C155.8,120.3,154.1,113.6,154.9,113.2"/>
	<path class="st5" d="M194.3,142.5c-0.4-0.9-0.9-7-1.7-18.4c-0.8-11.6-1-17.8-0.6-18.7c0.2-0.4,0.5-0.4,1.1-0.2
		c0.6,0.2,0.9,0.7,1,1.3l7.8,36.7c0.1,0.8-0.9,1.3-3.1,1.5C196.5,145,195,144.2,194.3,142.5"/>
	<path class="st7" d="M191.6,125.3l-0.7-19.5c-0.1-1.2,0.4-1.9,1.6-2.1c1.1-0.2,1.8,0.4,2.2,1.8l4,17.1l4,17.7
		c0.3,1.4,0.1,2.2-0.6,2.3c-0.7,0.1-1.2-0.6-1.5-2l-6.6-31.2c-0.4-1.7-0.7-2.7-1-2.9c-0.3-0.2-0.4,0.5-0.3,2.2
		c0.5,14.5,0.9,24.8,1.4,30.9c0.1,1-0.3,1.3-1,0.9l-1-0.5L191.6,125.3"/>
	<path class="st7" d="M153.5,115.7c-0.5-2.2,0-3.5,1.2-4c1.2-0.5,2.4,0,3.5,1.5c1,1.5,4.4,7.5,10.2,18c5.5,10.1,8.8,16.3,9.8,18.4
		c0.4,0.8,0.2,1.5-0.4,1.9c-0.6,0.4-1.1,0.3-1.4-0.4c-9.9-19.3-16.5-31.2-19.7-35.6c-0.6-0.8-1.1-1.2-1.3-0.9
		c-0.2,0.2-0.2,0.6,0,1.3c2.2,7.2,6.2,19.3,11.9,36.2c0.5,1.5,0.4,2.4-0.3,2.4c-0.7,0.1-1.2-0.5-1.6-1.6l-6.1-18.5
		C155.7,122.9,153.7,116.6,153.5,115.7"/>
	<path class="st7" d="M106.2,187.7c-1.4,0-2.2-0.6-2.4-1.6c-0.2-1,0.3-1.8,1.4-2.4c2.4-1.2,9.8-2.7,22.2-4.4
		c12-1.7,19.1-2.4,21.3-2.1c1.1,0.1,1.6,0.4,1.6,0.9c0,0.4-0.5,0.7-1.5,0.7c-4.5,0.1-12.2,1-23.1,2.6c-10.8,1.5-17,2.7-18.6,3.4
		c-0.7,0.3-1.1,0.6-1.2,1c-0.2,0.4,0.3,0.6,1.4,0.6l18.8-0.9l22.5-1c1.1,0,1.8,0.3,1.9,0.9c0.1,0.6-0.5,0.9-1.9,1.1L106.2,187.7"/>
	<path class="st7" d="M156,200.8l1.6,0.1c0.2,0.4,0.1,0.7-0.5,1L116.4,218c-1,0.4-1.7,0.1-2.1-0.8c-0.4-0.9-0.2-1.8,0.6-2.6
		c1.8-1.6,8.2-5.3,19.1-11.1c10.3-5.5,16.6-8.6,18.7-9.3c0.8-0.3,1.3-0.2,1.5,0.2c0.2,0.5-0.1,0.8-0.8,1.1c-2.2,1-7.6,3.6-16,8
		c-9.6,4.9-16.3,8.6-20.1,10.9c-0.8,0.5-1.2,0.9-1.3,1.4l1.9-0.1l17.6-6.9C146.4,204.5,153.2,201.8,156,200.8"/>
	<path class="st7" d="M221.4,162.6c-0.2-0.8-0.1-1.1,0.4-1l0.8,0.6c1,3.6,0.6,6.8-1.2,9.6c-1.5,2.3-3.4,3.9-5.7,4.6
		c-2.7,0.9-5.4,0.7-8.1-0.4c-2.9-1.2-5-3.3-6.1-6.2c0-0.1,0-0.3,0.2-0.6c0.2-0.3,0.3-0.3,0.4-0.1c1.4,2.9,3.4,4.9,6.1,5.9
		c2.3,0.9,4.6,0.9,7.1,0.2c2.3-0.7,4-2.1,5.2-4.3C221.9,168.6,222.2,165.8,221.4,162.6"/>
	<path class="st7" d="M210.7,182.8c0.1-0.6,0.4-0.9,0.8-1c0.5,0,0.7,0.2,0.6,0.8c-0.8,6.3-2.3,11.4-4.7,15.3
		c-2.1,3.5-4.6,5.6-7.4,6.5c-4.3,1.3-9.1,0.6-14.4-2.1c-5.1-2.6-9.1-6.2-12.2-10.8c-0.2-0.3,0-0.4,0.5-0.3c0.5,0,0.9,0.2,1.1,0.6
		c2.1,3.4,5.6,6.4,10.4,8.9c5.5,3,10.3,3.8,14.3,2.4c3.7-1.4,6.5-4.5,8.4-9.6C209,191.5,209.8,187.9,210.7,182.8"/>
	<path class="st7" d="M215.3,153.1c3.5,2,5.9,5,7.2,9.1c0.1,0.4,0,0.7-0.3,0.9c-0.3,0.3-0.6,0.1-0.7-0.4c-0.9-3.3-2.8-5.9-5.9-7.8
		c-2.8-1.8-5.3-2.3-7.4-1.6c-2.3,0.8-4.1,2.8-5.1,6.1c-1.1,3.1-1.3,6.4-0.8,10.1c0.1,0.3,0,0.5-0.3,0.6c-0.2,0.1-0.4,0-0.4-0.3
		c-0.8-3.6-0.6-7.3,0.6-11.1c1.3-3.9,3.1-6.2,5.5-7.1C209.8,151,212.4,151.4,215.3,153.1"/>
	<path class="st7" d="M182.2,178.9c-3.1-4.2-6.8-6.7-11.1-7.4c-4.8-0.8-8.9,0.9-12.3,5.2c-0.3,0.3-0.5,0.4-0.7,0.1
		c-0.2-0.2-0.2-0.6,0.1-0.9c2.9-4.9,6.9-7.1,12.1-6.5c5.1,0.5,9.3,3.5,12.6,8.9c0.3,0.5,0.4,0.9,0.2,1
		C182.8,179.4,182.5,179.3,182.2,178.9"/>
	<path class="st7" d="M203,184.3c0.2-1.1,1.6-1.7,4.1-2c2.5-0.3,3.8,0,4.1,0.9c0.2,0.8-0.1,2-0.9,3.6c-0.8,1.6-1.5,2.4-2,2.4
		c-0.5,0.1-1.5-0.6-3.1-2.1C203.6,185.7,202.9,184.7,203,184.3"/>
	<path class="st3" d="M204.5,184.3c0.2-0.7,1.1-1.1,2.8-1.4c1.6-0.2,2.5,0,2.7,0.6c0.1,0.5-0.1,1.3-0.6,2.4s-1,1.6-1.3,1.7
		c-0.3,0-1-0.4-2-1.4C205,185.2,204.5,184.6,204.5,184.3"/>
	<path class="st7" d="M174.8,192.2c0-1,1.4-1.5,4-1.8c2.6-0.2,4-0.1,4.1,0.4c0.2,0.8-0.2,2-1.2,3.7c-1,1.5-1.7,2.3-2.2,2.4
		c-0.4,0.1-1.3-0.6-2.7-1.9C175.5,193.6,174.8,192.7,174.8,192.2"/>
	<path class="st3" d="M176.1,192.3c0-0.7,0.9-1.1,2.6-1.4c1.7-0.2,2.6,0,2.7,0.6c0.1,0.6-0.2,1.4-0.9,2.4c-0.7,1-1.2,1.5-1.5,1.5
		c-0.3,0.1-0.8-0.3-1.7-1.2C176.5,193.3,176.1,192.6,176.1,192.3"/>
	<path class="st7" d="M186.5,188.6l11.2-4.4c4.1-1.3,8.7-2.3,13.8-3c1.5-0.2,2.4-0.9,2.9-2.2c0.1-0.5,0.3-0.6,0.6-0.4
		c0.3,0.1,0.3,0.4,0.2,0.9c-0.2,1-0.8,1.8-1.6,2.5c-0.7,0.6-1.4,0.8-2,0.8l-6.1,1.1l-7.4,1.8c-3,1.5-6,2.8-9,3.9
		c-5.9,2.1-10.7,2.9-14.2,2.2c-0.6-0.1-1.2-0.4-2-0.9l-1.4-1.4c-0.3-0.4-0.3-0.7-0.1-0.8c0.2-0.2,0.5-0.2,0.9,0.1
		c1.2,0.8,2.1,1.2,2.8,1.4C178.3,190.6,182.1,190.1,186.5,188.6"/>
	<path class="st7" d="M212,165.5c0.7,2.2,1.2,4.1,1.4,5.7c0.2,1.6,0.2,2.5-0.2,2.7s-0.9-0.5-1.7-2s-1.5-3.3-2.2-5.4
		c-0.7-2.1-1.2-4-1.4-5.7c-0.2-1.6-0.2-2.5,0.2-2.6c0.4-0.1,0.9,0.5,1.7,2C210.6,161.5,211.3,163.3,212,165.5"/>
	<path class="st3" d="M209.7,161.3c0.4,1.3,0.5,2,0.2,2.1c-0.3,0.1-0.7-0.5-1.1-1.8c-0.4-1.2-0.4-1.9-0.1-2.1
		C209,159.5,209.3,160.1,209.7,161.3"/>
	<path class="st7" d="M201.3,189.2c-2.5-2-5.1-3-7.8-2.8c-0.3,0-0.2,0,0.1-0.2l1.1-0.4l2.9,0.4c1.7,0.4,3.1,1.1,4.3,2
		c1.7,1.3,3,3,3.9,5.1c0.9,1.9,1.2,3.5,0.9,4.6l-0.5,1.1c-0.2,0.2-0.3,0-0.2-0.4c0.1-1.4-0.2-2.9-0.9-4.6
		C204.1,192.1,202.9,190.5,201.3,189.2"/>
	<path class="st5" d="M183.8,177.4c-0.4-1.4-1.2-2.8-2.3-4.2c-1-1.2-2-2-2.9-2.3l-0.2-0.2c0.1-0.1,0.2-0.2,0.5-0.2
		c1.4,0.3,2.6,1.1,3.6,2.6c0.8,1.2,1.4,2.6,1.8,4.1l-0.1,0.5C184,177.8,183.9,177.7,183.8,177.4"/>
	<path class="st7" d="M197.1,147.3c0.9,2.7,0.7,5.4-0.7,7.9c-1.3,2.6-3.4,4.3-6.1,5.2c-2.8,0.9-5.5,0.7-8.1-0.6
		c-2.6-1.3-4.4-3.4-5.2-6.2l-5.4-16.8c-0.9-2.8-0.7-5.5,0.6-8.1c1.3-2.6,3.4-4.4,6.2-5.3c2.8-0.9,5.4-0.7,8,0.7
		c2.6,1.3,4.4,3.4,5.2,6.2L197.1,147.3"/>
	<path class="st11" d="M195.4,146.9c0.8,2.5,0.7,4.9-0.3,7.3c-1,2.4-2.8,3.9-5.2,4.8c-2.6,0.9-5,0.6-7.3-0.8
		c-2.2-1.3-3.7-3.3-4.5-5.9l-4.9-15.1c-0.8-2.6-0.7-5,0.3-7.2c1-2.3,2.8-3.9,5.2-4.7c2.5-0.8,4.8-0.6,7.1,0.7
		c2.2,1.2,3.8,3.1,4.6,5.7L195.4,146.9"/>
	<path class="st7" d="M189.3,128.3c0.4-0.1,0.8,0.1,1,0.7c0.3,0.6,0.2,1-0.1,1.1l-17.7,6c-0.6,0.2-0.9-0.1-1-0.8
		c-0.1-0.7,0.1-1.1,0.7-1.4L189.3,128.3"/>
	<path class="st7" d="M191.4,134.7c0.4-0.1,0.8,0.1,0.9,0.8c0.2,0.7,0.1,1.1-0.2,1.2l-17.8,6.1c-0.6,0.2-1,0-1.1-0.6
		c-0.1-0.7,0.1-1.1,0.7-1.3l8.9-3.2L191.4,134.7"/>
	<path class="st7" d="M193.7,141.6c0.4-0.1,0.8,0.1,1,0.6c0.2,0.5,0.2,0.8-0.2,1l-8.5,3.2l-9.1,3.2c-0.6,0.2-1,0-1.3-0.7
		c-0.2-0.6-0.1-1.1,0.5-1.3C179.9,146.3,185.7,144.3,193.7,141.6"/>
	<path class="st7" d="M196,148.2c0.4-0.1,0.7,0.1,0.9,0.6c0.2,0.5,0.1,0.9-0.2,1.1l-17.7,5.9c-0.6,0.2-1,0.1-1.1-0.6
		c-0.2-0.6,0-0.9,0.6-1.1l9-3.1L196,148.2"/>
	<path class="st5" d="M232.7,201.9c0.5,0.4,0.7,1.2,0.8,2.2c0.1,1.1-0.1,1.9-0.4,2.6c1.5,0.5,2.6,1.1,3.3,1.8c1,0.9,1.6,2.3,1.9,4.1
		c0.2,1.3-0.2,2.6-1.2,3.7c-0.8,0.9-1.6,1.5-2.6,1.9c-0.1,0-0.2,0.8-0.2,2.4c-0.1,1.7-0.5,2.9-1.3,3.6c-1.4,1.2-2.9,1.8-4.5,1.6
		c-1.8-0.2-3.6-1.3-5.2-3.3l-1.8,0.1l-3,1.3c-3.5,1.4-9.2,1.9-17.1,1.6c-3.5-0.2-7.9-1-13-2.6c-4.9-1.5-8.1-2.8-9.6-4
		c-1.4-1.1-0.5-2.8,2.7-5.1c3.1-2.4,5.6-3.4,7.5-3l5.8,0.7c3,0.2,5.3,0.2,6.8,0.1l11.7-1.6c4.4-1,7.5-2.6,9.3-4.8
		c1.7-2.1,3.4-3.5,5.1-4.2C229.4,200.4,231.1,200.6,232.7,201.9"/>
	<path class="st7" d="M233.4,218.7c-0.1-0.3,0-0.6,0.3-0.9c0.3-0.3,0.6-0.2,0.8,0.2c0.9,2.2,0.8,4.2-0.2,5.9c-1,1.6-2.3,2.5-4.1,2.8
		c-3.2,0.4-5.6-1-7.4-4.3c-0.2-0.4-0.3-0.7-0.1-0.8c0.2-0.2,0.4-0.1,0.8,0.3c2.3,2.4,4.5,3.3,6.5,2.7c1.4-0.4,2.5-1.2,3.1-2.3
		C233.9,221.2,233.9,220,233.4,218.7"/>
	<path class="st7" d="M231.7,202.5c-1.3-1-2.9-1-4.6-0.1c-1.2,0.7-2.3,1.7-3.4,3.2c-2.9,3.8-8.2,6.1-15.9,7.1
		c-7,0.8-14.1,0.2-21.1-1.7c-0.4-0.1-0.6-0.4-0.5-0.7c0.1-0.3,0.5-0.4,1.2-0.2c7.1,1.6,14.3,1.8,21.6,0.4c7.1-1.3,11.6-3.4,13.6-6.4
		c1.5-2.2,3.3-3.5,5.4-3.9c2-0.4,3.7,0.1,5.1,1.4c0.7,0.7,1.1,1.6,1.2,2.7c0.2,1.2-0.1,2.1-0.8,2.8c-0.3,0.4-0.8,0.5-1.3,0.4
		c-0.5-0.1-0.7-0.3-0.5-0.6c0.7-0.8,1-1.7,0.9-2.6C232.6,203.5,232.3,202.9,231.7,202.5"/>
	<path class="st7" d="M179,219.5l-0.8-1.1c-0.1-0.4,0.2-0.3,1,0.1c6,3.2,13.8,5.1,23.4,5.6c9.5,0.5,16.2-0.5,20-3
		c0.3-0.2,0.6,0,0.9,0.4c0.3,0.5,0.1,0.8-0.4,1.1c-6.6,3.4-14.9,4.5-24.8,3.5C189.1,225.2,182.6,223,179,219.5"/>
	<path class="st7" d="M236.3,207.5c1.4,0.8,2.3,2,2.7,3.5c0.4,1.7,0.3,3.4-0.5,4.9c-1,2-2.8,3-5.4,3c-0.6,0-0.9-0.1-1.1-0.5
		c-0.1-0.3,0.1-0.5,0.6-0.5c1,0,2-0.4,2.9-1.3c1.3-1.2,1.8-2.9,1.3-5.1c-0.2-1.1-0.7-1.9-1.5-2.6c-0.9-0.7-2.2-1-3.8-0.9
		c-0.6,0-0.9-0.1-0.9-0.4c0-0.3,0.3-0.5,0.7-0.6C233.1,206.4,234.8,206.6,236.3,207.5"/>
</g>
<g>
	
		<linearGradient id="SVGID_1_" gradientUnits="userSpaceOnUse" x1="230.7702" y1="120.8457" x2="230.7702" y2="9.0971" gradientTransform="matrix(1 0 0 -1 0 230)">
		<stop  offset="0" style="stop-color:#54DADE"/>
		<stop  offset="0.762" style="stop-color:#24C7D6"/>
	</linearGradient>
	<circle class="st12" cx="230.8" cy="165" r="55.9"/>
	<path class="st13" d="M194.5,171.2l0,0.6c0,0.8,0.1,1.6,0.2,2.4h-0.2v1.2c0,0.6,0,1.2,0.1,1.8c1.5,11.4,17.1,20.3,36.2,20.3
		s34.7-8.9,36.2-20.3c0.1-0.6,0.1-1.2,0.1-1.8v-1.2h-0.2c0.1-0.8,0.2-1.6,0.2-2.4c0-0.2,0-0.4,0-0.6c-0.5-11.9-16.6-21.4-36.3-21.4
		S195,159.3,194.5,171.2L194.5,171.2z M191.5,171.2c0.3-7.3,5.2-13.3,12.1-17.5c7.1-4.3,16.7-6.9,27.2-6.9c10.5,0,20.1,2.6,27.2,6.9
		c6.9,4.2,11.8,10.3,12.1,17.5h0v4.2c0,7.5-5,13.9-12.1,18.1c-7.1,4.3-16.7,6.9-27.2,6.9s-20.1-2.6-27.2-6.9
		c-7.1-4.3-12.1-10.6-12.1-18.1L191.5,171.2L191.5,171.2L191.5,171.2z"/>
	<path class="st14" d="M267.1,175.4c0,12.2-16.3,22-36.3,22s-36.3-9.9-36.3-22v-3.5h72.6L267.1,175.4L267.1,175.4z"/>
	<path class="st15" d="M267.1,171.8c0,12.2-16.3,22-36.3,22s-36.3-9.9-36.3-22c0-12.2,16.3-22,36.3-22S267.1,159.6,267.1,171.8
		L267.1,171.8z"/>
	<g>
		<path id="H" class="st16" d="M200,165.6L200,165.6c0,1,0.1,2,0.4,3H200v1.3c0,0.6,0,1.1,0.1,1.7c1.4,8.4,13,14.9,27,14.9
			c14.1,0,25.7-6.5,27-14.9c0.1-0.6,0.1-1.1,0.1-1.7v-1.3H254c0.3-0.9,0.4-1.9,0.4-2.9v-0.1v0c0-9.2-12.2-16.6-27.2-16.6
			C212.2,149,200.1,156.4,200,165.6z M197.1,165.6L197.1,165.6v4.3c0,6,4,11,9.4,14.3c5.5,3.3,12.8,5.3,20.8,5.3s15.3-2,20.8-5.3
			c5.4-3.3,9.4-8.3,9.4-14.3v-4.2c0-6-4-11-9.4-14.3c-5.5-3.3-12.8-5.3-20.8-5.3s-15.3,2-20.8,5.3
			C201.1,154.6,197.1,159.6,197.1,165.6z"/>
	</g>
	<g>
		<path id="I" class="st17" d="M254.4,169.8c0,9.2-12.2,16.6-27.2,16.6s-27.2-7.4-27.2-16.6v-3.9h54.4V169.8z"/>
	</g>
	<g>
		<path id="J" class="st18" d="M254.4,165.6c0,9.2-12.2,16.6-27.2,16.6s-27.2-7.4-27.2-16.6s12.2-16.6,27.2-16.6
			S254.4,156.4,254.4,165.6z"/>
	</g>
	<path class="st16" d="M208.2,156.6L208.2,156.6c0,1,0.1,2,0.4,3h-0.4v1.3c0,0.6,0,1.1,0.1,1.7c1.4,8.4,13,14.9,27,14.9
		s25.7-6.5,27-14.9c0.1-0.6,0.1-1.1,0.1-1.7v-1.3h-0.4c0.3-0.9,0.4-1.9,0.4-2.9v-0.1v0c0-9.2-12.2-16.6-27.2-16.6
		C220.4,140.1,208.3,147.5,208.2,156.6z M205.3,156.6L205.3,156.6v4.3c0,6,4,11,9.4,14.3c5.5,3.3,12.8,5.3,20.8,5.3s15.3-2,20.8-5.3
		c5.4-3.3,9.4-8.3,9.4-14.3v-4.2c0-6-4-11-9.4-14.3c-5.5-3.3-12.8-5.3-20.8-5.3s-15.3,2-20.8,5.3
		C209.3,145.7,205.3,150.6,205.3,156.6z"/>
	<g>
		<path id="I_1_" class="st17" d="M262.6,160.9c0,9.2-12.2,16.6-27.2,16.6s-27.2-7.4-27.2-16.6V157h54.4V160.9z"/>
	</g>
	<g>
		<path id="J_1_" class="st18" d="M262.6,156.7c0,9.2-12.2,16.6-27.2,16.6s-27.2-7.4-27.2-16.6s12.2-16.6,27.2-16.6
			S262.6,147.5,262.6,156.7z"/>
	</g>
	<g>
		<path id="H_1_" class="st16" d="M200,147.7L200,147.7c0,1,0.1,2,0.4,3H200v1.3c0,0.6,0,1.1,0.1,1.7c1.4,8.4,13,14.9,27,14.9
			c14.1,0,25.7-6.5,27-14.9c0.1-0.6,0.1-1.1,0.1-1.7v-1.3H254c0.3-0.9,0.4-1.9,0.4-2.9v-0.1v0c0-9.2-12.2-16.6-27.2-16.6
			C212.2,131.1,200.1,138.5,200,147.7z M197.1,147.7L197.1,147.7v4.3c0,6,4,11,9.4,14.3c5.5,3.3,12.8,5.3,20.8,5.3s15.3-2,20.8-5.3
			c5.4-3.3,9.4-8.3,9.4-14.3v-4.2c0-6-4-11-9.4-14.3c-5.5-3.3-12.8-5.3-20.8-5.3s-15.3,2-20.8,5.3
			C201.1,136.7,197.1,141.7,197.1,147.7z"/>
	</g>
	<g>
		<path id="I_2_" class="st17" d="M254.4,152c0,9.2-12.2,16.6-27.2,16.6s-27.2-7.4-27.2-16.6v-3.9h54.4V152z"/>
	</g>
	<g>
		<path id="J_2_" class="st18" d="M254.4,147.7c0,9.2-12.2,16.6-27.2,16.6s-27.2-7.4-27.2-16.6s12.2-16.6,27.2-16.6
			S254.4,138.6,254.4,147.7z"/>
	</g>
	<g>
		
			<linearGradient id="SVGID_2_" gradientUnits="userSpaceOnUse" x1="222.8476" y1="90.9587" x2="222.8476" y2="56.4111" gradientTransform="matrix(1 0 0 -1 0 230)">
			<stop  offset="0" style="stop-color:#9F4A08"/>
			<stop  offset="0.37" style="stop-color:#7D3900"/>
			<stop  offset="1" style="stop-color:#8D4104"/>
		</linearGradient>
		<path class="st19" d="M206.5,148.8c0,3.1,2.2,5.8,5.7,7.7l-2.4,4.2v10.7c0,1.4,1.1,2.6,2.6,2.6c1.4,0,2.6-1.1,2.6-2.6v-8.5
			l2.6-4.5c1.7,0.4,3.5,0.5,5.3,0.5c9,0,16.4-4.5,16.4-10.1c0-5.6-7.3-10.1-16.4-10.1S206.5,143.2,206.5,148.8z"/>
		<path class="st20" d="M212.2,156.4l-1.1-0.6c-2.9-1.8-4.6-4.3-4.6-7c0-5.6,7.3-10.1,16.4-10.1c9,0,16.4,4.5,16.4,10.1
			c0,5.6-7.3,10.1-16.4,10.1c-1.9,0-3.7-0.2-5.3-0.5l-2.6,4.5v8.5c0,1.4-1.1,2.6-2.6,2.6s-2.6-1.1-2.6-2.6v-10.7L212.2,156.4
			L212.2,156.4z M207.2,160.7v10.6c0,2.8,2.3,5.2,5.2,5.2c2.8,0,5.2-2.3,5.2-5.2v-7.8l1.4-2.4c1.3,0.2,2.7,0.3,4,0.3
			c4.9,0,9.5-1.2,12.9-3.3c3.4-2.1,6-5.3,6-9.3s-2.6-7.3-6-9.3c-3.4-2.1-8-3.3-12.9-3.3c-4.9,0-9.5,1.2-12.9,3.3
			c-3.4,2.1-6,5.3-6,9.3c0,3.5,2,6.4,4.8,8.5l-1.2,2c-0.1,0.2-0.2,0.4-0.3,0.6C207.2,160.2,207.2,160.4,207.2,160.7L207.2,160.7z"/>
	</g>
	<g>
		<g>
			<path id="K" class="st21" d="M211.6,144.5c0,2.9,3.7,5.2,8.2,5.2c4.5,0,8.2-2.3,8.2-5.2c0-2.9-3.7-5.2-8.2-5.2
				C215.3,139.3,211.6,141.7,211.6,144.5z"/>
		</g>
		<path class="st21" d="M211.6,142.3H228v2.2h-16.4V142.3z"/>
	</g>
	<g>
		<path id="K_1_" class="st0" d="M211.6,142.3c0,2.9,3.7,5.2,8.2,5.2c4.5,0,8.2-2.3,8.2-5.2c0-2.9-3.7-5.2-8.2-5.2
			C215.3,137.1,211.6,139.4,211.6,142.3z"/>
	</g>
	<path class="st21" d="M216.7,141.7l2.3-1.5c0.5-0.3,1.1-0.3,1.6,0l2.3,1.5c0.5,0.3,0.5,1,0,1.3l-2.3,1.5c-0.5,0.3-1.1,0.3-1.6,0
		l-2.3-1.5C216.2,142.6,216.2,142,216.7,141.7z"/>
	<path class="st20" d="M212.6,136.4c2-1.2,4.5-1.9,7.2-1.9s5.2,0.7,7.2,1.9c1.9,1.2,3.6,3.2,3.6,5.9v2.2c0,2.6-1.7,4.7-3.6,5.9
		c-2,1.2-4.5,1.9-7.2,1.9s-5.2-0.7-7.2-1.9c-1.9-1.2-3.6-3.2-3.6-5.9v-2.2C209,139.7,210.7,137.6,212.6,136.4z M219.8,137.1
		c-4.5,0-8.2,2.3-8.2,5.2v2.2c0,2.9,3.7,5.2,8.2,5.2c4.5,0,8.2-2.3,8.2-5.2v-2.2C228,139.4,224.3,137.1,219.8,137.1z"/>
	<circle class="st22" cx="230.8" cy="165" r="53"/>
</g>
</svg>
