<?xml version="1.0" encoding="utf-8"?>
<svg viewBox="-130.375 -130.382 286.822 227.293" width="286.822" height="227.293" xmlns="http://www.w3.org/2000/svg">
  <g transform="matrix(1, 0, 0, 1, -81, 4)">
    <circle cx="181.955" cy="-61.291" r="55.874" style="fill: rgb(214, 249, 255);"/>
    <g style="mix-blend-mode: multiply;" opacity=".1" transform="matrix(1.926664, 0, 0, 1.926664, 71.820717, -117.166321)">
      <g>
        <path fill-rule="evenodd" d="M 57 55 C 71.359 55 83 43.359 83 29 C 83 14.641 71.359 3 57 3 C 42.641 3 31 14.641 31 29 C 31 43.359 42.641 55 57 55 Z M 57 58 C 73.016 58 86 45.016 86 29 C 86 12.984 73.016 0 57 0 C 40.984 0 28 12.984 28 29 C 28 45.016 40.984 58 57 58 Z" fill="#191326"/>
      </g>
    </g>
  </g>
  <circle cx="100.395" cy="34.647" r="55.874" fill="#f0b90b" style=""/>
  <path fill="#fffdfa" d="M 79.557 34.647 L 71.009 43.255 L 62.401 34.647 L 71.009 26.041 L 79.557 34.647 Z M 100.395 13.81 L 115.118 28.534 L 123.73 19.927 L 109.002 5.262 L 100.395 -3.346 L 77.12 19.923 L 85.732 28.533 L 100.395 13.81 Z M 129.782 26.041 L 121.231 34.647 L 129.841 43.255 L 138.391 34.647 L 129.782 26.041 Z M 100.395 55.484 L 85.67 40.761 L 77.12 49.369 L 100.395 72.644 L 123.725 49.312 L 115.116 40.762 L 100.395 55.484 Z M 100.395 43.255 L 109.002 34.647 L 100.395 26.041 L 91.787 34.647 L 100.395 43.255 Z" style=""/>
  <g style="mix-blend-mode: multiply;" opacity=".1" transform="matrix(1.9267, 0, 0, 1.9267, -9.426678, -21.227829)">
    <path fill="#191326" fill-rule="evenodd" d="M57 55c14.359 0 26-11.641 26-26S71.359 3 57 3 31 14.641 31 29s11.641 26 26 26zm0 3c16.016 0 29-12.984 29-29S73.016 0 57 0 28 12.984 28 29s12.984 29 29 29z"/>
  </g>
  <g transform="matrix(0.546935, 0.106313, -0.106313, 0.546935, 64.390404, -99.369705)">
    <circle cx="100.573" cy="-53.524" r="100.281" style="" fill="#f0b90b" transform="matrix(0.981627, -0.190808, 0.190808, 0.981627, 21.707571, 297.073788)"/>
    <path fill-rule="evenodd" d="M 67.538 199.87 L 110.263 157.146 L 127.295 174.183 L 84.574 216.903 L 67.538 199.87 Z M 67.572 250.917 L 135.839 182.649 L 152.875 199.682 L 84.605 267.953 L 67.572 250.917 Z M 161.375 208.232 L 93.107 276.498 L 110.139 293.534 L 178.405 225.261 L 161.375 208.227 Z M 42.025 225.376 L 59.06 208.343 L 76.096 225.376 L 59.06 242.408 L 42.025 225.376 Z" fill="#fffdfa" style="" transform="matrix(0.981627, -0.190808, 0.190808, 0.981627, -40.97175, 25.170002)"/>
    <g style="mix-blend-mode: multiply;" opacity=".1" transform="matrix(3.394404, -0.659803, 0.659803, 3.394404, -102.400589, 164.511581)">
      <path fill-rule="evenodd" d="M57 55c14.359 0 26-11.641 26-26S71.359 3 57 3 31 14.641 31 29s11.641 26 26 26zm0 3c16.016 0 29-12.984 29-29S73.016 0 57 0 28 12.984 28 29s12.984 29 29 29z" fill="#191326"/>
    </g>
  </g>
  <g style="" transform="matrix(0.391663, 0, 0, 0.391663, 73.040039, -99.238785)">
    <path fill="#0d131a" d="M31.8 66.25 Q34.85 62.6 37.85 64.0 41.0 65.45 42.7 71.5 44.3 77.25 43.35 82.4 43.0 84.5 42.7 101.1 42.35 130.15 42.0 137.2 40.9 158.8 37.4 166.2 31.3 178.95 18.9 178.95 L9.05 178.35 Q2.3 177.1 0.55 173.35 -0.75 170.55 1.1 165.65 3.0 160.7 7.5 155.35 13.75 147.9 18.55 128.35 21.3 117.2 25.15 93.35 27.05 81.7 28.5 75.55 30.2 68.2 31.8 66.25"/>
    <path fill="#5dc1cf" d="M37.1 65.7 Q39.45 66.8 40.9 72.1 42.35 77.45 41.55 82.05 41.05 84.95 40.85 101.05 40.55 124.35 39.75 136.25 38.4 156.9 34.9 164.2 31.95 170.35 28.8 173.15 24.95 176.55 19.3 176.55 L10.7 175.95 Q4.7 174.85 3.3 171.8 1.15 167.15 9.1 157.8 15.6 150.1 20.6 129.65 23.5 117.9 27.45 93.65 29.5 81.15 30.45 76.6 32.0 68.95 33.25 67.4 35.35 64.9 37.1 65.7"/>
    <path fill="#50a8b4" d="M27.45 93.65 Q29.5 81.15 30.45 76.6 32.0 68.95 33.25 67.4 35.35 64.9 37.1 65.7 39.45 66.8 40.9 72.1 42.35 77.45 41.55 82.05 41.05 84.95 40.85 101.05 L40.35 123.7 Q39.9 137.55 38.8 146.7 L31.55 123.4 Q27.2 109.75 24.8 109.4 L27.45 93.65"/>
    <path fill="#0d131a" d="M163.45 99.8 Q166.05 106.4 165.3 115.9 164.35 128.15 158.25 140.1 151.55 153.25 140.6 161.8 125.9 173.4 114.7 176.85 108.9 178.65 100.25 178.45 L97.6 178.4 101.35 165.65 102.0 165.6 Q110.95 165.1 116.95 161.45 122.95 157.85 128.0 149.9 130.2 146.45 131.95 139.65 133.3 134.4 134.7 125.65 137.7 106.6 141.95 98.8 146.45 90.65 154.05 91.55 160.45 92.3 163.45 99.8"/>
    <path fill="#595757" d="M154.65 94.65 Q160.7 96.0 162.5 105.1 165.05 117.35 158.4 133.9 151.4 151.25 139.05 160.35 123.0 172.15 113.1 175.3 108.35 176.8 100.3 176.55 L100.1 176.55 102.8 167.4 Q111.85 166.75 118.15 162.9 124.45 159.05 129.6 150.95 131.85 147.4 133.75 140.25 L136.85 125.95 Q139.55 112.1 141.05 107.2 143.85 98.05 147.9 95.45 149.15 94.65 151.1 94.45 L154.65 94.65"/>
    <path fill="#3e3a39" d="M148.85 95.0 Q151.55 93.9 154.65 94.65 160.7 96.0 162.5 105.1 165.05 117.35 158.4 133.9 151.4 151.25 139.05 160.35 123.0 172.15 113.1 175.3 108.35 176.8 100.3 176.55 L100.1 176.55 Q100.2 176.25 104.65 175.9 109.75 175.5 111.55 174.9 125.8 170.25 137.5 158.0 147.95 147.0 153.75 133.0 159.3 119.5 158.2 109.0 157.05 97.85 148.85 95.0"/>
    <path fill="#0d131a" d="M44.45 160.05 Q48.8 153.5 55.1 153.1 60.05 152.7 64.3 156.5 67.5 159.3 69.45 163.8 71.45 168.25 71.75 173.35 72.3 181.95 68.4 187.9 64.5 193.85 58.05 194.2 49.55 194.75 44.85 188.8 40.9 183.75 40.5 175.5 40.1 166.65 44.45 160.05"/>
    <path fill="#5dc1cf" d="M67.8 164.6 Q69.6 168.7 69.9 173.45 70.4 181.35 67.35 186.45 64.25 191.65 58.65 192.0 55.7 192.2 52.95 191.4 50.25 190.6 48.4 189.0 43.4 184.55 43.0 175.2 42.65 167.05 46.2 161.15 49.75 155.3 55.25 154.95 59.4 154.65 63.1 157.9 66.0 160.45 67.8 164.6"/>
    <path fill="#50a8b4" d="M63.1 157.9 Q66.0 160.45 67.8 164.6 69.6 168.7 69.9 173.45 70.3 180.0 68.2 184.75 66.05 189.5 62.0 191.2 60.85 184.4 54.15 179.5 48.6 175.4 43.0 174.75 42.75 166.75 46.3 161.0 49.8 155.3 55.25 154.95 59.4 154.65 63.1 157.9"/>
    <path fill="#0d131a" d="M70.3 192.75 Q65.05 187.55 65.05 178.3 65.05 168.25 69.25 162.25 73.25 156.5 79.95 156.1 85.1 155.8 89.45 159.55 92.75 162.35 94.8 166.85 96.85 171.3 97.15 176.4 97.7 185.05 93.8 190.95 89.85 196.85 83.2 197.25 75.3 197.75 70.3 192.75"/>
    <path fill="#5dc1cf" d="M73.0 192.05 Q67.9 187.65 67.4 178.25 67.05 170.05 70.7 164.2 74.35 158.35 80.05 158.0 84.35 157.7 88.2 160.95 91.2 163.5 93.1 167.65 94.95 171.8 95.25 176.5 95.75 184.4 92.6 189.5 89.35 194.7 83.6 195.05 L77.7 194.45 Q74.85 193.65 73.0 192.05"/>
    <path fill="#50a8b4" d="M78.5 182.0 Q72.7 178.5 67.4 177.8 67.15 169.75 70.8 164.05 74.45 158.35 80.05 158.0 84.35 157.7 88.2 160.95 91.2 163.5 93.1 167.65 94.95 171.8 95.25 176.5 95.65 183.05 93.45 187.8 91.25 192.55 87.05 194.25 86.85 187.05 78.5 182.0"/>
    <path fill="#0d131a" d="M146.75 97.75 Q149.5 96.0 152.35 96.75 156.25 97.85 158.25 102.85 160.2 107.8 159.2 114.0 158.55 117.8 156.85 120.75 155.2 123.75 152.85 125.25 150.1 127.0 147.25 126.25 143.35 125.15 141.35 120.2 139.4 115.2 140.4 109.0 141.05 105.2 142.7 102.25 144.4 99.25 146.75 97.75"/>
    <path fill="#ffffff" d="M151.85 98.05 Q154.95 98.9 156.6 103.4 158.2 107.85 157.35 113.2 156.8 116.55 155.3 119.25 153.85 121.95 151.85 123.2 149.8 124.5 147.75 123.95 144.65 123.1 143.0 118.6 141.4 114.15 142.25 108.85 142.8 105.45 144.3 102.8 145.75 100.1 147.75 98.8 149.8 97.5 151.85 98.05"/>
    <path fill="#0d131a" d="M147.8 110.25 Q147.9 109.55 148.3 109.15 148.7 108.7 149.15 108.75 L149.8 109.4 149.9 110.6 149.35 111.75 Q148.95 112.2 148.55 112.1 148.1 112.05 147.9 111.5 147.7 110.95 147.8 110.25"/>
    <path fill="#0d131a" d="M56.0 127.35 Q62.15 124.85 71.35 124.75 79.65 124.6 86.3 126.3 94.7 128.5 100.15 142.5 103.2 150.3 106.2 165.6 L107.15 170.5 Q107.9 173.55 106.55 174.8 105.6 175.75 103.6 175.65 L99.4 174.9 96.15 174.2 Q94.95 174.0 93.4 175.45 L90.4 178.45 86.4 182.1 Q84.05 183.8 82.15 183.25 81.45 183.0 79.7 181.65 L75.75 178.25 73.3 175.9 Q71.9 174.55 71.45 174.55 71.1 174.7 66.9 176.95 L62.05 179.6 Q59.55 180.6 57.8 179.55 55.85 178.4 54.0 176.0 L51.5 172.5 Q50.05 170.45 48.15 170.2 L42.05 171.5 Q36.6 172.9 34.65 173.7 31.65 175.0 31.15 174.75 30.35 174.35 30.8 170.55 32.05 160.4 40.65 145.35 49.45 129.95 56.0 127.35"/>
    <path fill="#5dc1cf" d="M71.3 126.6 Q79.5 126.5 85.85 128.15 93.5 130.15 98.65 143.65 101.5 151.25 104.35 165.95 L105.35 170.9 Q105.8 172.85 105.25 173.5 L103.1 173.75 99.85 173.1 96.4 172.35 Q94.55 172.1 92.4 173.55 91.1 174.45 88.65 176.9 L85.5 179.7 Q83.8 180.85 82.6 180.5 81.7 180.25 76.95 176.05 L72.7 172.75 Q71.6 172.15 70.85 172.4 68.55 173.2 66.35 174.45 L62.1 176.8 Q59.8 177.8 58.75 177.0 56.1 175.0 53.25 170.95 L51.45 169.0 Q50.55 168.35 49.1 168.15 48.05 168.05 41.95 169.3 35.75 170.6 33.75 171.45 L33.65 171.5 33.55 170.8 Q33.55 169.2 34.45 166.2 37.4 156.3 44.4 144.15 51.9 131.0 56.7 129.05 62.45 126.75 71.3 126.6"/>
    <path fill="#50a8b4" d="M76.4 133.2 Q72.55 132.0 77.6 129.65 82.65 127.3 85.85 128.15 93.5 130.15 98.65 143.65 101.5 151.25 104.35 165.95 L105.35 170.9 Q105.8 172.85 105.25 173.5 L103.1 173.75 99.85 173.1 96.4 172.35 Q94.55 172.1 92.4 173.55 91.1 174.45 88.65 176.9 L86.9 178.55 Q89.35 166.3 85.0 149.95 80.9 134.6 76.4 133.2"/>
    <path fill="#5dc1cf" d="M91.5 42.35 Q109.7 49.75 117.35 67.9 125.0 86.0 117.6 104.15 113.65 113.7 105.95 120.95 98.45 127.9 89.45 130.9 82.1 133.3 70.65 132.75 L60.65 131.75 55.7 130.0 Q36.15 122.05 28.35 105.75 20.15 88.6 28.35 68.5 35.75 50.35 54.55 42.6 73.3 34.9 91.5 42.35"/>
    <path fill="#50a8b4" d="M119.45 74.0 Q121.45 81.4 121.0 88.95 120.6 96.8 117.6 104.15 113.65 113.7 105.95 120.95 98.45 127.9 89.45 130.9 L81.75 133.25 Q76.25 134.45 71.65 133.35 69.8 132.9 70.4 132.6 L73.95 131.55 Q82.75 128.95 89.6 123.5 96.8 117.85 105.15 106.9 118.35 89.45 119.45 74.0"/>
    <path fill="#0d131a" d="M91.7 41.5 Q110.35 49.1 118.45 67.35 126.6 85.75 119.1 104.1 115.4 113.2 106.5 121.25 98.3 128.65 89.75 131.75 86.2 133.1 86.0 132.15 85.85 131.25 89.15 130.0 95.15 127.7 102.8 120.5 111.25 112.6 115.55 104.3 124.1 87.9 116.55 69.2 109.05 50.5 91.15 43.2 73.35 35.95 55.0 43.65 36.65 51.3 29.35 69.1 21.05 89.45 30.15 107.15 39.2 124.7 60.9 131.05 62.05 131.4 62.05 132.25 62.1 133.05 60.35 132.65 38.85 127.1 28.7 109.3 17.9 90.4 26.95 68.2 34.65 49.4 54.95 41.75 74.3 34.4 91.7 41.5"/>
    <path fill="#0d131a" d="M39.2 65.8 Q38.85 66.05 38.2 65.25 37.55 64.45 37.9 64.2 L41.1 61.45 45.65 57.95 49.7 58.05 Q51.6 60.5 55.25 68.75 55.45 69.1 54.65 69.7 53.8 70.25 53.55 69.9 L51.05 65.3 47.9 60.05 Q47.4 59.6 43.25 62.65 L39.2 65.8"/>
    <path fill="#5dc1cf" d="M118.45 82.2 Q119.05 84.85 118.3 97.9 L116.7 125.1 Q114.8 164.1 119.8 174.25 126.05 187.05 123.7 191.45 121.75 195.15 108.85 198.7 103.85 200.1 100.7 196.75 97.85 193.75 93.4 183.25 90.1 175.45 96.35 134.25 L104.3 87.65 Q105.4 80.55 111.25 78.15 L115.65 78.05 Q117.8 79.1 118.45 82.2"/>
    <path fill="#50a8b4" d="M104.3 87.65 L104.55 85.65 Q104.7 84.5 105.25 84.45 105.95 84.35 106.4 85.7 106.95 87.15 106.75 89.75 106.05 101.05 103.65 118.05 L99.7 145.5 Q95.65 175.85 100.5 184.4 104.2 191.0 106.15 195.5 106.65 196.6 108.85 198.7 103.85 200.1 100.7 196.75 97.85 193.75 93.4 183.25 90.1 175.45 96.35 134.25 L104.3 87.65"/>
    <path fill="#0d131a" d="M117.55 82.3 Q117.6 79.7 118.55 79.75 119.45 79.85 119.4 82.15 L119.35 94.8 Q119.2 106.8 118.7 114.8 117.3 137.0 117.45 148.65 117.75 166.35 121.25 173.5 124.65 180.4 125.55 184.75 126.4 188.9 125.15 191.6 122.65 197.2 109.1 199.6 103.3 200.65 99.2 196.45 95.65 192.75 92.0 183.3 88.9 175.05 94.7 137.05 L103.4 87.45 Q103.95 84.35 104.8 84.65 105.6 85.0 105.25 87.85 101.1 110.35 97.9 132.05 91.5 175.0 94.7 182.45 99.0 192.6 101.9 195.4 104.55 197.95 109.2 197.0 114.95 195.75 117.95 194.45 121.45 192.9 122.45 190.75 123.5 188.45 122.8 184.85 122.0 180.85 118.95 174.65 115.35 167.3 115.2 149.1 115.1 138.4 116.6 114.7 L117.35 95.05 117.55 82.3"/>
    <path fill="#922f00" d="M82.3 88.8 L91.75 86.8 Q89.6 100.75 79.85 112.45 69.05 125.4 57.2 123.75 42.55 121.7 37.05 107.2 31.55 92.65 38.15 72.75 L43.9 80.15 53.05 75.5 59.6 84.25 72.75 80.0 82.3 88.8"/>
    <path fill="#0d131a" d="M90.65 87.2 L92.45 87.5 Q90.25 101.6 80.4 113.3 69.4 126.4 57.05 124.65 44.65 122.9 38.4 112.85 33.9 105.65 33.55 94.9 33.15 84.05 37.1 74.0 38.1 71.55 38.9 72.0 39.75 72.45 38.9 74.6 34.9 84.5 35.3 94.85 35.7 104.9 40.0 111.85 45.85 121.2 57.3 122.8 68.9 124.45 79.25 111.9 88.55 100.7 90.65 87.2"/>
    <path fill="#0d131a" d="M90.0 95.3 L90.4 95.7 90.2 96.25 Q85.6 109.05 77.0 117.4 67.45 126.7 57.3 125.5 46.95 124.3 40.55 116.2 34.25 108.3 33.65 96.35 L33.65 95.95 33.95 95.65 Q45.0 85.1 63.35 85.35 81.15 85.55 90.0 95.3"/>
    <path fill="#ed8599" d="M65.35 87.55 Q72.65 87.8 78.8 90.25 84.6 92.5 88.2 96.2 83.8 108.1 75.65 115.7 66.65 124.1 57.3 122.8 47.75 121.45 42.0 114.55 36.25 107.6 35.6 96.7 40.35 92.4 48.3 89.85 56.6 87.2 65.35 87.55"/>
    <path fill="#0d131a" d="M86.9 88.5 L82.0 89.6 77.75 85.45 73.5 81.15 Q73.0 80.85 66.4 83.0 L59.3 85.15 Q58.9 85.1 55.85 80.85 L52.65 76.55 Q52.5 76.5 48.1 78.9 43.75 81.25 43.3 81.1 42.85 80.95 40.65 77.2 L38.25 73.2 Q38.0 72.95 35.25 74.25 L31.4 76.05 Q30.3 76.4 30.25 75.75 30.25 75.1 31.0 74.55 31.95 73.9 34.85 72.6 38.1 71.2 38.8 71.35 39.4 71.5 41.7 75.2 L44.1 78.9 48.5 76.75 Q52.7 74.65 53.05 74.75 53.4 74.85 56.6 78.8 L60.0 82.85 66.8 80.9 Q73.45 78.9 74.0 79.05 74.55 79.15 78.45 83.3 L82.6 87.55 87.45 86.35 Q92.0 85.1 92.5 85.4 93.15 85.85 94.8 88.8 96.5 91.75 96.75 92.95 97.05 94.2 96.8 94.65 96.5 95.05 95.75 94.2 L93.5 90.55 91.65 87.5 86.9 88.5"/>
    <path fill="#0d131a" d="M84.3 65.35 Q85.1 64.9 86.05 65.0 87.15 65.15 87.8 65.95 L97.7 79.8 Q97.9 80.15 97.0 80.7 L95.9 80.8 91.05 74.8 85.6 68.5 Q85.15 68.2 79.7 71.5 L74.4 74.8 Q74.05 75.05 73.45 74.2 72.9 73.35 73.25 73.1 L84.3 65.35"/>
    <path fill="#5dc1cf" d="M82.5 32.2 Q87.9 40.05 89.85 45.45 88.3 50.25 82.95 53.2 72.2 59.05 53.15 49.65 43.55 44.9 36.35 37.8 29.4 30.95 26.6 23.8 23.75 16.4 26.3 10.85 29.05 4.8 37.7 2.3 51.25 -1.65 69.55 16.6 76.6 23.6 82.5 32.2"/>
    <path fill="#50a8b4" d="M38.35 39.65 Q32.7 34.4 29.65 28.45 37.1 37.6 54.25 44.85 63.8 48.85 75.2 51.8 83.3 53.8 74.65 55.35 71.6 55.95 65.9 54.5 59.8 52.95 53.15 49.65 44.55 45.4 38.35 39.65"/>
    <path fill="#0d131a" d="M90.7 45.15 Q91.65 47.2 90.7 47.45 89.75 47.65 88.95 45.75 85.45 37.55 74.25 24.4 60.2 7.9 48.55 3.85 39.95 0.85 33.55 4.75 27.6 8.35 27.1 15.15 26.4 24.6 34.75 34.6 42.5 43.95 53.6 48.85 58.65 51.05 57.15 51.4 55.6 51.7 52.7 50.45 41.05 45.6 32.7 36.05 23.3 25.35 24.5 14.9 25.35 7.2 31.3 3.0 37.95 -1.7 47.65 0.9 59.4 4.05 73.8 20.5 85.55 33.95 90.7 45.15"/>
  </g>
  <g style="" transform="matrix(1.256746, 0, 0, 1.256746, -130.382937, -130.347353)">
    <path fill="#cc5d00" d="M30.4 89.0 Q37.9 92.05 39.3 100.25 40.55 107.6 36.75 112.4 33.3 116.75 29.0 118.0 25.3 119.1 23.0 117.7 21.3 116.65 20.9 118.25 20.6 119.25 20.85 121.0 L22.15 125.55 Q23.35 129.1 23.9 129.65 24.5 130.25 23.15 132.05 21.8 133.9 20.25 134.45 L17.35 135.25 Q15.9 135.3 14.4 133.8 7.95 127.3 6.9 115.75 5.85 104.2 11.0 96.15 13.8 91.75 18.55 89.45 24.45 86.55 30.4 89.0"/>
    <path fill="#fff3c2" d="M42.55 137.9 Q52.05 138.3 57.95 133.15 59.2 132.1 61.3 135.3 63.4 138.55 62.1 139.65 51.5 148.6 36.25 146.65 21.65 144.8 14.55 135.0 15.5 135.3 18.2 134.35 20.75 133.45 21.4 132.8 22.85 131.45 24.2 129.3 31.8 137.45 42.55 137.9"/>
    <path fill="#cc5d00" d="M23.0 127.1 Q22.2 124.4 23.45 126.45 24.7 128.5 24.8 129.85 25.0 132.25 20.65 134.75 15.95 137.45 13.05 134.35 12.55 133.8 12.5 132.55 12.45 131.25 13.25 132.4 15.3 135.45 19.65 132.9 24.0 130.35 23.0 127.1"/>
    <path fill="#fff3c2" d="M69.0 163.25 L64.35 167.55 63.85 165.3 Q63.35 164.1 62.1 162.65 60.5 160.8 57.1 159.85 54.1 159.0 51.45 159.2 58.35 154.9 63.35 152.45 66.7 150.75 69.65 151.65 73.35 152.75 73.0 157.85 72.9 159.2 69.0 163.25"/>
    <path fill="#cc5d00" d="M39.4 176.7 Q38.05 176.6 37.1 173.65 36.25 170.95 36.6 169.2 37.15 166.5 41.9 163.5 45.7 161.05 49.55 159.85 L54.4 159.35 57.8 159.9 Q62.1 161.2 63.5 164.5 64.75 167.4 63.3 169.7 61.5 172.5 58.35 175.7 55.15 178.95 53.55 179.45 L50.8 179.6 Q49.65 179.3 49.25 178.55 L46.8 179.15 43.9 179.4 Q43.3 179.35 41.85 178.05 40.45 176.8 39.4 176.7"/>
    <path fill="#cc5d00" d="M63.65 167.5 Q62.7 161.75 56.45 160.3 L49.1 160.1 Q48.25 160.3 49.25 159.85 L50.85 159.25 Q55.45 158.2 59.45 160.1 63.8 162.2 64.55 166.9 64.8 168.25 64.3 168.4 63.8 168.6 63.65 167.5"/>
    <path fill="#fbd6a0" d="M69.4 148.9 Q73.8 151.1 73.25 151.15 72.9 151.2 72.15 152.3 71.35 153.45 71.2 154.4 70.95 156.0 66.95 154.8 62.85 153.6 64.0 152.6 66.2 150.55 65.5 147.85 65.25 146.85 69.4 148.9"/>
    <path fill="#0d131a" d="M72.95 150.85 Q73.95 150.3 74.5 150.55 75.0 150.8 74.05 151.4 71.9 152.65 71.7 155.3 71.65 156.15 71.05 156.25 70.45 156.4 70.45 155.5 70.45 152.3 72.95 150.85"/>
    <path fill="#0d131a" d="M71.4 161.6 Q65.6 167.2 57.2 178.15 54.45 181.7 50.7 180.55 47.7 179.6 46.85 177.6 45.85 175.1 47.05 172.55 48.2 170.2 50.1 169.5 L51.45 169.35 Q51.6 169.65 50.75 170.1 48.35 171.45 47.85 173.8 47.45 175.9 48.6 177.65 49.8 179.45 51.75 179.55 54.0 179.6 56.1 177.2 L62.75 168.85 Q67.2 163.2 70.2 160.4 71.65 159.05 72.1 157.6 72.8 155.5 71.15 153.7 71.0 153.55 71.35 153.0 L71.85 152.55 Q73.95 154.55 73.7 157.2 73.45 159.6 71.4 161.6"/>
    <path fill="#0d131a" d="M40.05 177.05 Q38.5 174.55 39.35 171.3 40.4 167.2 45.15 165.45 L46.3 165.4 Q46.7 165.6 45.85 166.05 41.1 168.5 40.65 172.3 40.3 175.1 42.05 177.3 43.15 178.7 44.95 178.85 46.35 178.95 47.95 178.25 48.65 177.95 48.95 178.25 49.25 178.5 48.45 179.05 46.85 180.05 44.65 179.9 41.7 179.7 40.05 177.05"/>
    <path fill="#0d131a" d="M65.05 148.25 Q64.95 147.45 65.7 147.5 66.45 147.55 66.45 148.5 66.45 151.3 63.75 153.35 L53.7 158.4 Q43.5 163.55 41.4 165.0 36.7 168.25 37.55 172.7 38.3 176.75 41.15 176.65 41.45 176.65 41.8 177.15 42.15 177.6 41.8 177.6 39.0 177.7 37.25 176.0 35.7 174.4 35.55 171.9 35.15 165.9 41.0 163.3 L62.1 152.6 64.4 150.85 Q65.2 149.75 65.05 148.25"/>
    <path fill="#cc5d00" d="M116.45 157.55 L122.85 158.7 Q128.0 159.45 130.15 160.55 133.75 162.4 134.2 165.1 L134.15 166.4 Q134.0 167.0 134.2 167.7 134.85 170.1 133.2 172.65 131.5 175.4 128.9 175.2 L126.85 176.55 123.45 176.85 Q120.2 176.1 114.85 173.35 109.0 170.15 106.5 168.95 105.4 168.45 105.85 165.15 106.4 161.65 108.5 159.75 109.9 158.5 112.4 157.75 L116.45 157.55"/>
    <path fill="#fff3c2" d="M107.45 161.25 Q105.5 164.7 106.25 169.1 103.85 167.4 94.2 163.9 L85.0 160.45 Q82.05 155.8 87.75 151.75 89.8 150.3 91.85 149.8 93.9 149.3 93.9 150.2 L93.7 151.55 Q93.65 152.0 94.2 152.25 96.75 153.35 105.55 155.05 113.65 156.6 114.9 157.45 113.85 157.15 111.1 158.55 108.2 159.95 107.45 161.25"/>
    <path fill="#cc5d00" d="M116.65 157.85 L112.45 158.45 Q109.45 159.3 108.15 161.0 105.65 164.15 106.75 168.45 106.85 169.0 106.3 168.85 105.7 168.7 105.5 168.0 105.1 166.8 105.35 164.8 105.65 162.4 106.8 160.85 108.4 158.75 111.25 157.85 113.9 156.95 116.5 157.4 L117.55 157.65 116.65 157.85"/>
    <path fill="#fbd6a0" d="M93.5 150.05 Q93.35 152.25 94.2 153.1 94.6 153.5 94.1 154.05 93.55 154.6 92.55 154.85 L88.7 155.0 Q86.4 154.8 86.6 154.25 L86.95 153.2 Q87.2 152.35 86.95 151.9 86.65 151.3 90.1 150.4 93.55 149.5 93.5 150.05"/>
    <path fill="#0d131a" d="M87.55 152.15 Q88.2 152.3 87.6 152.55 85.3 153.55 84.8 156.55 84.3 159.6 86.55 160.2 92.55 161.9 102.7 166.6 108.5 169.25 119.05 174.6 124.2 177.2 127.8 174.8 131.6 172.3 126.95 167.15 126.15 166.25 126.5 166.1 126.9 166.0 128.0 167.05 130.7 169.6 130.8 172.2 130.9 174.6 129.0 176.2 127.05 177.8 124.15 177.85 121.0 177.95 117.95 176.15 96.1 165.05 86.1 162.1 83.0 161.2 83.25 157.0 83.5 152.9 86.4 152.2 L87.55 152.15"/>
    <path fill="#0d131a" d="M118.35 156.8 Q127.2 157.7 131.4 160.15 136.15 162.95 134.65 167.55 134.3 168.55 133.9 168.25 133.5 167.95 133.6 167.45 134.8 163.1 128.65 160.8 125.95 159.8 118.25 158.6 L105.75 156.05 Q96.9 154.0 94.25 152.95 94.0 152.85 93.95 152.1 93.9 151.3 94.0 151.35 96.0 152.4 105.9 154.5 L118.35 156.8"/>
    <path fill="#0d131a" d="M129.6 162.75 Q133.95 164.25 134.85 167.75 135.5 170.35 134.25 172.6 133.2 174.5 131.3 175.2 L129.0 175.6 Q128.5 175.7 128.3 175.35 128.1 175.0 128.8 174.8 132.05 173.9 133.1 171.85 134.15 169.7 133.3 167.5 132.45 165.2 129.85 163.7 129.3 163.4 129.05 162.95 128.8 162.5 129.6 162.75"/>
    <path fill="#0d131a" d="M86.6 150.25 Q86.95 150.85 87.1 152.0 87.25 153.4 86.8 154.45 L85.95 155.3 Q85.5 155.4 85.7 154.55 86.25 152.3 85.4 151.0 85.05 150.45 85.65 149.95 86.2 149.5 86.6 150.25"/>
    <path fill="#0d131a" d="M95.65 147.45 Q94.9 148.65 94.65 149.95 94.3 151.7 95.0 152.75 95.6 153.65 95.1 153.75 94.6 153.85 94.05 153.2 93.45 152.45 93.25 151.1 93.05 149.45 93.85 148.3 94.7 147.0 95.6 146.6 96.45 146.15 95.65 147.45"/>
    <path fill="#fff3c2" d="M124.45 145.35 L120.3 146.75 Q117.2 147.25 114.3 145.45 113.0 144.6 111.55 142.5 110.15 140.5 109.55 138.75 104.05 135.55 102.45 132.3 99.85 126.9 97.15 115.5 94.6 104.9 95.15 104.35 96.2 103.2 98.05 102.4 100.6 101.3 100.9 103.6 101.5 108.05 108.0 119.0 114.4 129.75 116.45 130.15 121.0 130.95 124.05 132.65 127.55 134.65 128.2 137.55 128.95 140.9 127.9 142.8 126.95 144.4 124.45 145.35"/>
    <path fill="#0d131a" d="M110.1 138.3 Q111.0 140.5 110.0 140.0 105.6 137.55 103.45 135.1 98.8 129.8 98.8 121.45 98.8 120.9 99.15 120.55 99.5 120.15 99.55 120.8 100.4 126.15 102.15 129.8 104.9 135.55 110.1 138.3"/>
    <path fill="#0d131a" d="M124.25 145.0 Q126.5 144.7 127.3 141.5 128.15 138.1 125.9 135.6 123.95 133.35 120.25 132.3 116.15 131.15 114.4 129.65 109.4 125.3 104.4 115.55 100.4 107.65 99.8 104.3 99.65 103.6 100.25 103.45 100.8 103.35 100.95 103.8 102.7 110.25 107.95 118.45 112.45 125.4 115.75 128.35 116.75 129.2 121.05 130.65 125.25 132.0 127.25 134.0 129.7 136.45 129.4 140.15 129.05 144.55 123.8 145.8 123.1 146.0 123.3 145.55 123.5 145.1 124.25 145.0"/>
    <path fill="#fff3c2" d="M64.95 147.3 Q58.55 142.05 58.05 134.65 57.85 131.7 63.2 121.5 69.2 110.05 70.45 103.1 71.0 100.0 75.65 98.7 78.65 97.9 82.9 97.9 85.55 97.9 90.85 101.25 96.05 104.5 98.3 107.4 101.9 112.05 103.7 120.25 106.1 131.55 101.4 140.1 96.75 148.55 90.5 151.05 86.8 152.5 78.7 152.4 71.05 152.35 64.95 147.3"/>
    <path fill="#fbd6a0" d="M58.8 138.05 Q61.15 142.1 67.8 145.35 74.4 148.5 80.65 148.7 86.35 148.9 91.45 147.0 95.55 145.45 98.55 142.85 90.4 153.35 80.35 152.9 71.95 152.55 66.05 148.4 60.35 144.35 58.8 138.05"/>
    <path fill="#0d131a" d="M126.15 141.25 Q126.3 145.55 122.65 147.1 118.95 148.65 114.85 146.4 110.5 144.0 109.7 139.1 109.6 138.3 110.05 138.15 110.5 137.95 110.45 138.65 110.35 141.15 113.95 144.1 117.85 147.3 121.45 145.8 125.1 144.3 124.45 140.65 123.85 137.0 119.95 135.5 119.2 135.2 119.55 134.95 119.95 134.7 120.65 134.95 126.0 136.7 126.15 141.25"/>
    <path fill="#fbd6a0" d="M83.15 103.55 L91.5 103.0 Q98.3 102.95 98.4 104.35 98.55 106.35 97.5 107.3 96.4 108.25 93.7 108.35 L88.55 107.7 82.75 106.15 Q80.9 105.6 80.9 104.8 80.9 104.0 83.15 103.55"/>
    <path fill="#0d131a" d="M70.6 150.05 Q77.2 152.7 84.3 151.5 91.95 150.25 96.65 144.9 100.85 140.2 102.2 135.0 104.7 125.1 99.45 110.85 98.4 107.9 98.8 107.6 99.25 107.15 100.5 109.8 105.3 120.2 105.0 130.1 104.65 140.4 98.7 146.5 93.25 152.0 85.55 153.25 77.75 154.5 70.4 150.9 69.4 150.4 69.5 150.05 69.6 149.65 70.6 150.05"/>
    <path fill="#0d131a" d="M67.55 148.45 Q68.0 148.7 67.95 149.1 67.85 149.45 67.25 149.25 62.95 147.7 60.25 144.4 57.45 141.0 57.25 136.8 57.0 129.95 60.85 123.25 66.45 113.55 68.95 104.55 69.45 102.7 70.0 103.45 70.55 104.2 70.4 105.05 68.7 114.1 63.4 123.0 59.1 130.15 59.45 136.5 59.9 144.45 67.55 148.45"/>
    <path fill="#0d131a" d="M57.9 132.1 Q59.1 131.0 58.9 132.5 58.65 134.0 57.85 134.5 50.55 139.05 42.9 139.2 35.95 139.35 30.15 135.8 24.6 132.4 21.8 126.65 18.95 120.7 20.1 114.1 20.2 113.5 20.7 114.25 21.25 115.05 21.25 116.35 21.2 123.75 25.35 129.05 29.05 133.75 35.25 135.85 41.15 137.85 47.35 136.9 53.7 135.9 57.9 132.1"/>
    <path fill="#0d131a" d="M15.55 89.55 Q23.8 84.2 32.05 88.5 39.95 92.65 40.55 101.6 41.1 109.0 37.45 113.75 34.75 117.3 31.0 118.7 27.05 120.2 22.9 118.85 17.95 117.25 17.95 111.05 17.95 105.1 22.1 102.05 23.05 101.3 23.5 101.35 23.95 101.45 22.85 102.75 19.25 107.05 19.8 111.3 20.35 115.15 23.75 116.8 26.4 118.05 29.4 117.1 32.8 116.0 35.5 112.35 39.3 107.4 38.05 100.65 36.8 93.8 31.25 90.5 24.35 86.35 16.8 91.45 8.7 96.9 8.0 108.75 7.25 120.9 12.45 129.95 17.1 138.1 25.65 142.5 33.65 146.55 42.7 146.25 51.8 145.95 58.7 141.3 59.8 140.55 60.25 141.3 60.7 142.0 59.65 142.65 50.4 148.3 40.1 148.2 30.35 148.1 22.05 142.95 13.7 137.75 9.25 129.0 4.5 119.65 5.5 108.45 6.65 95.35 15.55 89.55"/>
    <path fill="#0d131a" d="M44.7 35.15 Q58.05 36.95 65.3 41.45 67.05 42.5 54.05 59.7 40.95 76.9 40.2 75.95 35.5 69.75 31.4 56.25 26.8 40.95 30.3 35.8 31.95 33.4 44.7 35.15"/>
    <path fill="#0d131a" d="M121.55 17.4 Q125.0 18.8 126.85 32.05 128.75 45.75 125.65 53.0 124.65 55.4 106.4 46.75 88.05 38.0 89.05 36.7 95.15 28.85 107.7 22.25 118.9 16.35 121.55 17.4"/>
    <path fill="#f29739" d="M100.85 38.05 Q103.4 34.75 109.6 30.55 115.7 26.5 117.35 26.8 119.3 27.2 119.75 35.55 120.2 44.0 118.2 47.9 117.6 49.15 108.65 44.35 99.65 39.6 100.85 38.05"/>
    <path fill="#f29739" d="M49.9 45.45 Q59.7 47.9 59.8 49.25 59.9 50.85 54.15 59.8 48.25 69.0 46.7 67.7 44.4 65.75 41.1 56.4 37.7 46.75 39.0 44.6 40.0 43.0 49.9 45.45"/>
    <path fill="#0d131a" d="M136.9 44.75 Q145.2 41.15 147.15 40.5 149.15 39.8 149.85 41.2 150.55 42.6 148.45 44.0 132.9 54.6 128.4 57.95 L129.7 61.5 Q130.95 65.35 130.35 69.7 L142.85 70.5 Q152.6 71.25 155.95 72.15 157.35 72.55 157.35 73.95 157.3 75.35 155.75 75.65 L127.9 78.35 Q124.2 86.9 116.65 93.35 108.15 100.55 96.65 103.45 76.1 108.6 60.85 105.15 44.0 101.35 39.6 87.95 34.8 73.6 45.55 58.25 56.2 43.0 75.05 36.9 89.65 32.15 103.35 36.3 116.35 40.25 124.1 50.6 127.6 48.75 136.9 44.75"/>
    <path fill="#fff3c2" d="M103.3 98.0 Q106.3 95.8 107.2 94.05 107.7 93.05 108.5 93.0 109.3 92.95 109.0 93.9 107.5 98.45 103.95 101.6 101.05 104.2 98.0 104.95 93.1 106.25 87.75 105.5 82.65 104.75 78.05 102.4 77.2 101.9 78.0 101.2 78.75 100.45 79.7 100.7 L86.3 102.05 95.75 101.65 Q99.75 100.55 103.3 98.0"/>
    <path fill="#fff3c2" d="M147.25 41.85 Q147.95 41.55 148.25 42.0 148.6 42.4 147.85 42.95 L125.65 57.4 Q125.35 57.55 125.45 57.8 126.6 60.35 127.15 62.2 128.45 66.1 127.7 71.35 L128.0 71.55 142.05 72.1 154.65 73.3 Q155.5 73.45 155.55 73.9 155.6 74.4 154.75 74.45 L126.5 76.5 126.25 76.7 Q123.25 85.15 116.05 91.65 107.9 99.0 96.5 101.85 76.75 106.75 61.9 103.1 46.2 99.25 42.15 87.0 37.65 73.3 47.9 58.8 58.05 44.35 75.95 38.55 90.2 33.95 103.25 38.3 115.6 42.4 122.65 52.9 L123.35 53.0 Q129.2 50.1 147.25 41.85"/>
    <path fill="#0d131a" d="M107.95 95.2 Q108.3 94.65 108.8 94.85 109.3 95.05 109.05 95.6 105.45 102.85 97.85 105.2 91.35 107.25 84.05 105.3 L82.85 104.7 Q82.1 104.25 82.65 104.35 91.25 106.1 97.9 103.65 104.4 101.25 107.95 95.2"/>
    <path fill="#ffffff" d="M98.3 65.5 Q97.25 62.15 98.65 56.65 100.3 50.1 104.5 48.95 108.5 47.9 112.65 50.9 117.2 54.15 118.45 60.25 119.25 64.15 116.95 67.95 114.85 71.4 112.1 72.0 108.2 72.95 105.0 72.15 100.05 70.85 98.3 65.5"/>
    <path fill="#fff3c2" d="M2.85 83.1 Q1.4 83.2 1.5 82.1 1.6 81.05 3.0 80.3 4.15 79.65 24.95 76.85 L47.1 74.05 Q49.4 73.9 49.1 77.5 48.85 81.15 47.3 81.3 L2.85 83.1"/>
    <path fill="#fff3c2" d="M52.35 89.9 Q54.75 89.05 55.95 92.35 57.15 95.6 55.85 96.4 54.85 97.05 34.6 105.1 L13.55 113.3 Q10.65 113.85 11.25 112.0 11.65 110.9 31.7 100.45 50.5 90.65 52.35 89.9"/>
    <path fill="#922f00" d="M92.05 82.4 Q89.7 81.8 98.9 79.6 107.95 77.45 107.8 78.95 106.75 88.05 102.65 93.95 102.4 88.7 97.8 85.25 95.05 83.15 92.05 82.4"/>
    <path fill="#ed8599" d="M81.7 86.0 L90.35 82.85 Q93.65 81.9 97.85 85.55 102.25 89.25 102.6 93.9 102.75 95.85 100.65 97.5 98.9 98.75 95.35 100.05 89.8 102.05 81.75 97.8 74.2 93.8 71.25 88.45 70.35 86.75 72.3 87.2 75.55 88.0 81.7 86.0"/>
    <path fill="#fff3c2" d="M51.2 9.45 Q53.25 8.5 62.3 25.4 70.95 41.5 71.15 43.55 71.3 44.7 67.45 47.55 63.65 50.35 63.15 49.4 61.85 46.75 56.2 29.35 49.95 10.1 51.2 9.45"/>
    <path fill="#fff3c2" d="M90.55 38.75 Q90.0 37.45 88.85 20.35 87.65 3.0 88.2 1.7 88.45 1.15 89.3 1.55 90.2 1.9 90.35 2.9 L98.1 39.55 Q98.25 40.75 95.0 41.05 91.65 41.35 90.55 38.75"/>
    <path fill="#0d131a" d="M87.85 21.55 L87.15 2.05 Q87.05 0.25 88.7 0.0 90.35 -0.25 90.9 1.8 L94.9 18.9 98.9 36.55 Q99.3 38.7 98.25 38.85 97.2 39.0 96.75 36.85 L90.15 5.7 Q89.55 3.1 89.15 2.8 88.65 2.5 88.85 5.05 89.6 26.8 90.2 35.95 90.3 37.45 89.2 36.8 L88.2 36.3 87.85 21.55"/>
    <path fill="#0d131a" d="M49.8 11.95 Q49.1 8.7 51.05 7.95 52.9 7.2 54.55 9.45 56.1 11.65 64.7 27.45 73.0 42.65 74.5 45.85 75.05 47.1 74.15 47.8 73.2 48.45 72.75 47.45 57.9 18.45 53.1 11.8 52.15 10.55 51.8 10.85 51.45 11.1 51.75 12.15 55.1 23.0 63.65 48.3 64.4 50.6 63.35 50.75 62.3 50.85 61.7 49.15 L55.65 30.65 Q50.1 13.35 49.8 11.95"/>
    <path fill="#0d131a" d="M2.5 83.95 Q0.35 83.9 0.05 82.35 -0.25 80.9 1.5 80.0 5.1 78.2 23.75 75.55 41.8 73.0 45.05 73.4 46.65 73.6 46.65 74.3 46.65 74.95 45.15 75.0 38.35 75.2 22.1 77.55 5.95 79.85 3.5 80.95 2.45 81.4 2.25 81.9 2.0 82.5 3.65 82.55 L22.5 81.6 45.0 80.6 Q46.7 80.6 46.9 81.55 47.05 82.45 45.0 82.6 L2.5 83.95"/>
    <path fill="#0d131a" d="M52.25 97.05 L53.9 97.15 Q54.25 97.75 53.4 98.15 L12.7 114.3 Q11.2 114.85 10.55 113.55 9.9 112.2 11.2 111.0 13.95 108.6 30.3 99.95 45.8 91.75 49.0 90.6 50.2 90.15 50.5 90.85 50.8 91.55 49.75 91.95 46.4 93.4 33.75 99.9 19.4 107.3 13.7 110.8 12.5 111.55 12.4 112.15 L14.35 112.1 31.9 105.15 Q48.0 98.6 52.25 97.05"/>
    <path fill="#0d131a" d="M117.65 58.85 Q117.35 57.65 118.0 57.85 L118.8 58.5 Q120.35 63.85 117.65 68.1 115.45 71.6 111.95 72.7 107.95 74.0 103.9 72.3 99.5 70.45 97.75 66.1 97.7 65.9 98.0 65.55 98.3 65.15 98.45 65.5 100.55 69.9 104.5 71.45 107.9 72.75 111.65 71.6 115.05 70.6 116.85 67.3 118.8 63.65 117.65 58.85"/>
    <path fill="#0d131a" d="M107.0 79.05 Q107.15 78.15 107.8 78.05 108.5 78.0 108.4 78.85 107.25 88.25 103.7 94.2 100.5 99.4 96.35 100.65 89.85 102.6 81.95 98.55 74.35 94.7 69.75 87.75 69.45 87.3 70.25 87.4 71.0 87.45 71.4 88.05 74.6 93.1 81.75 97.0 90.0 101.55 96.05 99.35 101.65 97.3 104.5 89.8 105.65 86.75 107.0 79.05"/>
    <path fill="#0d131a" d="M111.6 49.4 Q116.8 52.35 118.75 58.45 118.95 59.0 118.45 59.4 117.95 59.8 117.75 59.0 116.45 54.1 111.9 51.2 107.7 48.55 104.45 49.65 100.95 50.85 99.3 55.75 97.7 60.35 98.5 65.8 98.6 66.3 98.2 66.4 97.85 66.55 97.75 66.1 96.55 60.7 98.35 55.0 100.25 49.2 103.85 47.95 107.15 46.85 111.6 49.4"/>
    <path fill="#0d131a" d="M78.45 75.2 Q73.75 68.85 67.35 67.75 60.2 66.5 55.0 72.9 54.55 73.4 54.3 73.05 54.0 72.7 54.35 72.1 58.7 64.75 66.45 65.6 74.15 66.4 79.1 74.55 79.55 75.35 79.25 75.55 78.9 75.75 78.45 75.2"/>
    <path fill="#0d131a" d="M99.25 80.55 Q99.6 78.95 103.35 78.55 107.05 78.15 107.4 79.45 107.75 80.6 106.5 83.05 105.3 85.45 104.5 85.5 103.8 85.6 101.45 83.4 99.1 81.2 99.25 80.55"/>
    <path fill="#ffffff" d="M100.8 80.6 Q101.05 79.55 103.55 79.25 106.0 79.0 106.25 79.85 106.45 80.65 105.65 82.25 104.85 83.85 104.35 83.9 103.85 83.95 102.3 82.5 100.7 81.0 100.8 80.6"/>
    <path fill="#0d131a" d="M71.05 88.5 Q71.1 87.05 75.1 86.75 79.05 86.4 79.2 87.2 79.45 88.4 77.95 90.85 76.5 93.05 75.75 93.25 75.15 93.35 73.1 91.3 71.05 89.2 71.05 88.5"/>
    <path fill="#ffffff" d="M72.4 88.55 Q72.4 87.5 75.0 87.2 77.6 86.85 77.7 87.75 77.8 88.6 76.75 90.15 75.75 91.6 75.25 91.7 74.85 91.8 73.6 90.45 72.35 89.05 72.4 88.55"/>
    <path fill="#0d131a" d="M82.75 84.85 L93.95 80.45 Q100.15 78.45 107.7 77.45 109.9 77.15 110.6 75.2 110.8 74.5 111.2 74.75 111.6 74.95 111.45 75.7 111.1 77.15 109.85 78.15 108.75 79.0 107.85 79.0 L101.7 80.1 94.3 81.95 Q89.85 84.15 85.3 85.8 76.4 89.0 71.1 88.05 70.25 87.9 69.1 87.15 L67.65 85.75 Q67.25 85.15 67.55 84.9 67.8 84.6 68.45 85.05 70.25 86.25 71.25 86.4 76.2 87.15 82.75 84.85"/>
    <path fill="#0d131a" d="M108.25 61.75 Q109.3 65.0 109.65 67.45 110.0 69.9 109.45 70.1 108.9 70.3 107.75 68.1 106.6 65.9 105.55 62.65 104.5 59.45 104.15 56.95 103.8 54.5 104.35 54.35 104.9 54.15 106.05 56.35 107.2 58.5 108.25 61.75"/>
    <path fill="#ffffff" d="M106.0 57.6 Q106.65 59.5 106.2 59.7 105.75 59.8 105.1 57.9 104.5 56.05 104.95 55.85 105.35 55.7 106.0 57.6"/>
    <path fill="#0d131a" d="M97.6 85.5 Q93.9 82.45 89.75 82.7 89.35 82.75 89.85 82.5 L90.9 82.1 93.75 82.5 Q96.3 83.15 98.05 84.5 100.55 86.5 102.0 89.6 103.35 92.5 102.9 94.25 L102.4 95.35 Q102.1 95.6 102.15 94.95 102.35 92.85 101.2 90.3 99.95 87.4 97.6 85.5"/>
    <path fill="#fff3c2" d="M80.05 73.65 Q79.4 71.5 77.75 69.5 76.25 67.65 74.85 67.15 L74.6 66.9 Q74.7 66.7 75.1 66.75 77.2 67.15 78.7 69.35 79.95 71.15 80.5 73.5 L80.4 74.0 Q80.2 74.1 80.05 73.65"/>
    <path fill="#0d131a" d="M93.35 43.6 Q94.7 47.7 92.65 51.55 90.65 55.4 86.5 56.75 82.35 58.1 78.4 56.1 74.5 54.1 73.15 49.9 L67.75 33.15 Q66.4 29.0 68.4 25.1 70.35 21.2 74.55 19.8 78.7 18.45 82.6 20.45 86.5 22.45 87.85 26.65 L93.35 43.6"/>
    <path fill="#f9be00" d="M91.7 43.2 Q92.95 47.0 91.4 50.45 89.85 54.0 86.2 55.2 82.3 56.5 78.9 54.4 75.65 52.4 74.4 48.45 L69.5 33.35 Q68.25 29.5 69.8 26.15 71.35 22.7 75.05 21.5 78.75 20.3 82.15 22.2 85.5 24.05 86.7 27.9 L91.7 43.2"/>
    <path fill="#0d131a" d="M85.55 24.55 Q86.2 24.35 86.6 25.25 87.0 26.15 86.5 26.35 L68.85 32.35 Q67.95 32.65 67.8 31.6 67.65 30.6 68.5 30.25 L85.55 24.55"/>
    <path fill="#0d131a" d="M87.7 30.95 Q88.35 30.75 88.65 31.75 88.95 32.75 88.45 33.0 L70.65 39.05 Q69.75 39.35 69.55 38.4 69.4 37.4 70.25 37.1 L79.2 33.9 87.7 30.95"/>
    <path fill="#0d131a" d="M90.0 37.85 Q90.65 37.65 91.0 38.45 91.35 39.2 90.85 39.45 L82.35 42.6 73.25 45.85 Q72.35 46.2 71.95 45.2 71.6 44.25 72.45 43.9 77.95 41.85 90.0 37.85"/>
    <path fill="#0d131a" d="M92.3 44.5 Q92.95 44.3 93.25 45.1 93.55 45.9 93.05 46.15 L75.4 52.1 Q74.5 52.45 74.25 51.55 74.0 50.7 74.85 50.4 L83.8 47.3 92.3 44.5"/>
    <path fill="#fff3c2" d="M128.95 98.2 Q129.65 98.8 129.75 100.45 129.85 102.05 129.3 103.05 131.6 103.85 132.65 104.8 134.15 106.2 134.5 108.95 134.75 110.95 133.25 112.65 132.1 114.0 130.65 114.55 130.5 114.6 130.45 116.95 130.35 119.5 129.1 120.55 126.95 122.35 124.6 122.2 121.85 121.95 119.35 118.9 L117.5 119.05 114.5 120.35 Q109.2 122.45 97.45 121.9 92.15 121.65 84.45 119.3 77.15 117.05 74.85 115.3 72.8 113.7 77.55 110.15 82.25 106.6 85.05 107.2 L90.85 107.9 Q95.35 108.2 97.65 108.0 L109.3 106.45 Q115.9 104.9 118.6 101.7 121.2 98.6 123.65 97.5 126.6 96.2 128.95 98.2"/>
    <path fill="#0d131a" d="M129.65 114.95 Q129.45 114.45 129.95 114.0 130.45 113.6 130.75 114.25 132.15 117.5 130.5 120.2 129.0 122.55 126.45 122.95 121.7 123.6 119.05 118.65 118.7 118.05 119.0 117.85 119.25 117.6 119.8 118.2 123.25 121.85 126.3 120.9 128.45 120.25 129.45 118.6 130.45 116.9 129.65 114.95"/>
    <path fill="#0d131a" d="M128.0 98.75 Q126.0 97.25 123.45 98.7 121.7 99.7 120.05 101.85 115.65 107.55 104.2 108.9 93.7 110.1 83.05 107.2 82.4 107.0 82.6 106.5 82.8 106.05 83.75 106.25 94.35 108.7 105.35 106.65 115.95 104.7 118.95 100.25 121.2 97.0 124.35 96.35 127.4 95.7 129.4 97.8 130.45 98.9 130.65 100.5 130.9 102.25 129.9 103.25 129.4 103.8 128.6 103.65 127.8 103.5 128.15 103.1 129.2 101.9 129.0 100.5 128.8 99.35 128.0 98.75"/>
    <path fill="#0d131a" d="M75.25 115.8 L74.45 114.75 Q74.3 114.2 75.45 114.85 84.45 119.65 98.8 120.45 113.05 121.25 118.85 117.45 119.25 117.2 119.7 117.85 120.1 118.55 119.35 118.9 109.4 123.95 94.55 122.45 80.7 121.0 75.25 115.8"/>
    <path fill="#0d131a" d="M132.55 103.75 Q134.65 104.95 135.25 107.25 135.9 109.85 134.75 112.15 133.3 115.15 129.35 115.2 128.5 115.25 128.25 114.7 128.05 114.2 128.9 114.15 130.4 114.15 131.8 112.85 133.75 111.05 133.15 107.8 132.85 106.2 131.6 105.25 130.2 104.25 127.8 104.35 126.9 104.4 126.95 103.95 127.0 103.55 127.65 103.35 130.25 102.35 132.55 103.75"/>
  </g>
  <circle cx="100.161" cy="35.447" r="55.874" fill="#f0b90b" style=""/>
  <path fill="#fffdfa" d="M 79.323 35.447 L 70.775 44.055 L 62.167 35.447 L 70.775 26.841 L 79.323 35.447 Z M 100.161 14.61 L 114.884 29.334 L 123.496 20.727 L 108.768 6.062 L 100.161 -2.546 L 76.886 20.723 L 85.498 29.333 L 100.161 14.61 Z M 129.548 26.841 L 120.997 35.447 L 129.607 44.055 L 138.157 35.447 L 129.548 26.841 Z M 100.161 56.284 L 85.436 41.561 L 76.886 50.169 L 100.161 73.444 L 123.491 50.112 L 114.882 41.562 L 100.161 56.284 Z M 100.161 44.055 L 108.768 35.447 L 100.161 26.841 L 91.553 35.447 L 100.161 44.055 Z" style=""/>
  <g style="mix-blend-mode: multiply;" opacity=".1" transform="matrix(1.9267, 0, 0, 1.9267, -9.66073, -20.428007)">
    <path fill="#191326" fill-rule="evenodd" d="M57 55c14.359 0 26-11.641 26-26S71.359 3 57 3 31 14.641 31 29s11.641 26 26 26zm0 3c16.016 0 29-12.984 29-29S73.016 0 57 0 28 12.984 28 29s12.984 29 29 29z"/>
  </g>
</svg>