<?xml version="1.0" encoding="utf-8"?>
<svg viewBox="44.697 -109.399 111.75 111.749" width="111.75" height="111.749" xmlns="http://www.w3.org/2000/svg">
  <circle cx="100.573" cy="-53.524" r="55.874" style="" fill="#f0b90b"/>
  <g style="mix-blend-mode: multiply;" opacity=".1" transform="matrix(1.926664, 0, 0, 1.926664, -9.249554, -109.399118)">
    <path fill-rule="evenodd" d="M57 55c14.359 0 26-11.641 26-26S71.359 3 57 3 31 14.641 31 29s11.641 26 26 26zm0 3c16.016 0 29-12.984 29-29S73.016 0 57 0 28 12.984 28 29s12.984 29 29 29z" fill="#191326"/>
  </g>
  <g transform="matrix(0.546935, 0.106313, -0.106313, 0.546935, 64.390404, -97.369705)" style="">
    <path d="M 43.607 37.766 C 52.507 38.966 59.374 41.066 64.207 44.066 C 65.374 44.766 61.624 50.849 52.957 62.316 C 44.224 73.782 39.607 79.199 39.107 78.566 C 35.974 74.432 33.04 67.866 30.307 58.866 C 27.24 48.666 26.874 41.849 29.207 38.416 C 30.307 36.816 35.107 36.599 43.607 37.766" style="fill: rgb(255, 255, 255);"/>
    <path d="M 120.456 20.016 C 122.756 20.949 124.523 25.832 125.756 34.666 C 127.023 43.799 126.623 50.782 124.556 55.616 C 123.889 57.216 117.473 55.132 105.306 49.366 C 93.073 43.532 87.289 40.182 87.956 39.316 C 92.023 34.082 98.239 29.266 106.606 24.866 C 114.073 20.932 118.689 19.316 120.456 20.016" style="fill: rgb(255, 255, 255);"/>
    <path d="M 99.756 40.666 C 101.456 38.466 104.373 35.966 108.506 33.166 C 112.573 30.466 115.156 29.216 116.256 29.416 C 117.556 29.682 118.356 32.599 118.656 38.166 C 118.956 43.799 118.439 47.916 117.106 50.516 C 116.706 51.349 113.523 50.166 107.556 46.966 C 101.556 43.799 98.956 41.699 99.756 40.666" style="fill: rgb(240, 185, 11);"/>
    <path d="M 48.806 48.066 C 55.34 49.699 58.64 50.966 58.706 51.866 C 58.773 52.932 56.89 56.449 53.056 62.416 C 49.123 68.549 46.64 71.182 45.606 70.316 C 44.073 69.016 42.206 65.249 40.006 59.016 C 37.74 52.582 37.04 48.649 37.906 47.216 C 38.573 46.149 42.206 46.432 48.806 48.066" style="fill: rgb(240, 185, 11);"/>
    <path d="M 146.157 44.466 C 146.624 44.266 146.957 44.316 147.157 44.616 C 147.39 44.883 147.257 45.2 146.757 45.566 L 124.557 60.016 C 124.357 60.116 124.29 60.25 124.357 60.416 C 125.124 62.116 125.69 63.583 126.057 64.816 C 126.924 67.416 127.107 70.466 126.607 73.966 L 126.907 74.166 L 140.957 74.716 L 153.557 75.916 C 154.124 76.016 154.424 76.216 154.457 76.516 C 154.49 76.85 154.224 77.033 153.657 77.066 L 125.407 79.116 L 125.157 79.316 C 123.157 84.95 119.757 89.933 114.957 94.266 C 109.524 99.166 103.007 102.566 95.407 104.466 C 82.24 107.733 70.707 108.15 60.807 105.716 C 50.34 103.15 43.757 97.783 41.057 89.616 C 38.057 80.483 39.974 71.083 46.807 61.416 C 53.574 51.783 62.924 45.033 74.857 41.166 C 84.357 38.1 93.457 38.016 102.157 40.916 C 110.39 43.65 116.857 48.516 121.557 55.516 L 122.257 55.616 C 126.157 53.683 134.124 49.966 146.157 44.466" style="fill: rgb(255, 255, 255);"/>
    <path d="M 1.757 85.716 C 0.79 85.783 0.34 85.449 0.407 84.716 C 0.474 84.016 0.974 83.416 1.907 82.916 C 2.674 82.483 9.99 81.333 23.857 79.466 L 46.007 76.666 C 47.54 76.566 48.207 77.716 48.007 80.116 C 47.84 82.549 47.24 83.816 46.207 83.916 L 1.757 85.716" style="fill: rgb(255, 255, 255);"/>
    <path d="M 51.257 92.516 C 52.857 91.949 54.057 92.766 54.857 94.966 C 55.657 97.132 55.624 98.482 54.757 99.016 C 54.091 99.449 47.007 102.349 33.507 107.716 L 12.457 115.916 C 10.524 116.282 9.757 115.849 10.157 114.616 C 10.424 113.882 17.241 110.032 30.607 103.066 C 43.141 96.532 50.024 93.016 51.257 92.516" style="fill: rgb(255, 255, 255);"/>
    <path d="M 50.565 10.872 C 51.932 10.238 55.632 15.555 61.665 26.822 C 67.432 37.555 70.382 43.605 70.515 44.972 C 70.615 45.738 69.382 47.072 66.815 48.972 C 64.282 50.838 62.849 51.455 62.515 50.822 C 61.649 49.055 59.332 42.372 55.565 30.772 C 51.399 17.938 49.732 11.305 50.565 10.872" style="fill: rgb(255, 255, 255);" transform="matrix(0.992546, 0.121869, -0.121869, 0.992546, 4.221357, -7.134974)"/>
    <path d="M 89.457 41.366 C 89.091 40.499 88.524 34.366 87.757 22.966 C 86.957 11.399 86.741 5.183 87.107 4.316 C 87.274 3.949 87.641 3.899 88.207 4.166 C 88.807 4.399 89.157 4.849 89.257 5.516 L 97.007 42.166 C 97.107 42.966 96.074 43.466 93.907 43.666 C 91.674 43.866 90.191 43.099 89.457 41.366" style="fill: rgb(255, 255, 255);"/>
    <path fill="#ffffff" d="M 104.907 60.216 C 105.341 61.482 105.407 62.182 105.107 62.316 C 104.807 62.382 104.441 61.782 104.007 60.516 C 103.607 59.282 103.557 58.599 103.857 58.466 C 104.124 58.366 104.474 58.949 104.907 60.216"/>
    <path d="M 92.256 46.216 C 93.156 48.95 92.923 51.6 91.556 54.166 C 90.223 56.733 88.173 58.466 85.406 59.366 C 82.639 60.266 79.939 60.05 77.306 58.716 C 74.706 57.383 72.956 55.316 72.056 52.516 L 66.656 35.766 C 65.756 33 65.973 30.316 67.306 27.716 C 68.606 25.116 70.656 23.35 73.456 22.416 C 76.223 21.516 78.906 21.733 81.506 23.066 C 84.106 24.4 85.856 26.466 86.756 29.266 L 92.256 46.216" style="fill: rgb(255, 255, 255);"/>
    <path d="M 89.841 46.935 C 90.674 49.468 90.574 51.885 89.541 54.185 C 88.508 56.552 86.774 58.135 84.341 58.935 C 81.741 59.802 79.308 59.535 77.041 58.135 C 74.874 56.802 73.374 54.818 72.541 52.185 L 67.641 37.085 C 66.808 34.518 66.908 32.118 67.941 29.885 C 68.974 27.585 70.724 26.035 73.191 25.235 C 75.658 24.435 78.024 24.668 80.291 25.935 C 82.524 27.168 84.041 29.068 84.841 31.635 L 89.841 46.935" style="fill: rgb(240, 185, 11);" transform="matrix(0.992546, 0.121869, -0.121869, 0.992546, 5.717765, -9.282274)"/>
    <path d="M 84.923 27.954 C 85.357 27.821 85.707 28.054 85.973 28.654 C 86.24 29.254 86.207 29.621 85.873 29.754 L 68.223 35.754 C 67.623 35.954 67.273 35.704 67.173 35.004 C 67.073 34.338 67.307 33.888 67.873 33.654 L 84.923 27.954" style="fill: rgb(255, 255, 255);" transform="matrix(0.992546, 0.121869, -0.121869, 0.992546, 4.455211, -9.103816)"/>
    <path d="M 86.26 34.533 C 86.694 34.4 87.01 34.666 87.21 35.333 C 87.41 36 87.344 36.416 87.01 36.583 L 69.21 42.633 C 68.61 42.833 68.244 42.616 68.11 41.983 C 68.01 41.316 68.244 40.883 68.81 40.683 L 77.76 37.483 L 86.26 34.533" style="fill: rgb(255, 255, 255);" transform="matrix(0.992546, 0.121869, -0.121869, 0.992546, 5.283631, -9.182112)"/>
    <path d="M 87.706 41.669 C 88.14 41.536 88.473 41.736 88.706 42.269 C 88.94 42.769 88.89 43.102 88.556 43.269 L 80.056 46.419 L 70.956 49.669 C 70.356 49.902 69.923 49.686 69.656 49.019 C 69.423 48.386 69.59 47.952 70.156 47.719 C 73.823 46.352 79.673 44.336 87.706 41.669" style="fill: rgb(255, 255, 255);" transform="matrix(0.992546, 0.121869, -0.121869, 0.992546, 6.159092, -9.311722)"/>
    <path d="M 89.205 48.55 C 89.638 48.417 89.955 48.617 90.155 49.15 C 90.355 49.684 90.288 50.034 89.955 50.2 L 72.305 56.15 C 71.705 56.384 71.322 56.2 71.155 55.6 C 70.988 55.034 71.188 54.65 71.755 54.45 L 80.705 51.35 L 89.205 48.55" style="fill: rgb(255, 255, 255);" transform="matrix(0.992546, 0.121869, -0.121869, 0.992546, 6.984799, -9.442299)"/>
  </g>
</svg>