<?xml version="1.0" encoding="utf-8"?>
<svg width="64" height="64" fill="none" xmlns="http://www.w3.org/2000/svg">
  <g>
    <path fill="#e9eaeb" d="M 64 32 C 64 49.673 49.673 64 32 64 C 14.327 64 0 49.673 0 32 C 0 14.327 14.327 0 32 0 C 49.673 0 64 14.327 64 32 Z"/>
  </g>
  <mask id="A" width="58" height="58" x="3" y="3" mask-type="alpha" maskUnits="userSpaceOnUse">
    <path fill="#c4c4c4" d="M60.667 32c0 15.832-12.834 28.667-28.667 28.667S3.333 47.832 3.333 32 16.168 3.333 32 3.333 60.667 16.168 60.667 32z"/>
  </mask>
  <g>
    <g>
      <g mask="url(#A)">
        <g fill="#bdc2c4" transform="matrix(1, 0, 0, 1, -0.75637, 0.08404)">
          <path d="M 30.242 36.343 L 30.242 35.743 C 30.242 34.899 30.412 34.193 30.748 33.623 C 31.108 33.053 31.582 32.493 32.172 31.945 C 32.677 31.453 33.217 30.999 33.786 30.584 C 34.314 30.204 34.746 29.804 35.084 29.381 C 35.422 28.959 35.601 28.433 35.591 27.893 C 35.591 27.07 35.296 26.49 34.705 26.153 C 34.135 25.793 33.175 25.615 31.825 25.615 C 30.938 25.615 30.055 25.732 29.198 25.963 C 28.333 26.173 27.594 26.448 26.982 26.786 L 26.982 22.509 C 27.762 22.129 28.682 21.823 29.736 21.591 C 30.812 21.359 31.984 21.243 33.25 21.243 C 35.698 21.243 37.566 21.781 38.853 22.857 C 40.14 23.912 40.783 25.367 40.783 27.225 C 40.783 28.407 40.54 29.367 40.055 30.105 C 39.57 30.823 38.863 31.561 37.935 32.321 L 35.972 34.021 C 35.444 34.485 35.182 35.118 35.182 35.921 L 35.182 36.333 L 30.244 36.333 Z M 30.02 41.946 L 30.02 38.274 L 35.37 38.274 L 35.37 41.946 L 30.02 41.946 Z"/>
        </g>
      </g>
    </g>
  </g>
  <path fill="#bdc2c4" fill-rule="evenodd" d="M63.986 32.97l-2-.06L62 32l-.014-.91 2-.06L64 32l-.014.97zm-.115-3.867l-1.992.18-.216-1.8 1.978-.298.23 1.918zm-.577-3.82l-1.956.418-.432-1.76 1.927-.536.46 1.878zm-1.036-3.724l-1.89.652-.642-1.693 1.847-.766.686 1.807zm-1.48-3.57l-1.798.877-.843-1.604 1.74-.984.9 1.71zm-1.902-3.365l-1.678 1.087-1.03-1.49 1.6-1.187 1.1 1.6zm-2.293-3.11l-1.536 1.28-1.203-1.357 1.456-1.37 1.282 1.447zM53.934 8.7l-1.37 1.456-1.357-1.203 1.28-1.536L53.934 8.7zm-2.968-2.476l-1.187 1.6-1.49-1.03 1.087-1.68 1.6 1.1zm-3.243-2.1l-.984 1.74-1.604-.844.877-1.798 1.71.9zM44.25 2.428l-.766 1.847-1.693-.643.652-1.89 1.807.686zm-3.653-1.26l-.536 1.927-1.76-.432.418-1.956 1.878.46zM36.816.36l-.3 1.978-1.8-.216.18-1.992 1.918.23zM32.97.014L32 0l-.97.014.06 2L32 2l.91.014.06-2zM29.102.13l.18 1.992-1.8.216L27.184.36l1.918-.23zm-3.82.577l.418 1.956-1.76.432-.536-1.927 1.878-.46zm-3.724 1.036l.652 1.89-1.693.643-.766-1.847 1.807-.686zm-3.57 1.48l.877 1.798-1.604.844-.984-1.74 1.71-.9zm-3.365 1.902l1.087 1.68-1.49 1.03-1.187-1.6 1.6-1.1zm-3.11 2.293l1.28 1.536-1.357 1.203-1.37-1.456 1.447-1.282zM8.7 10.066l1.456 1.37-1.203 1.357-1.536-1.28L8.7 10.066zm-2.476 2.968l1.6 1.187-1.03 1.49-1.68-1.087 1.1-1.6zm-2.1 3.243l1.74.984-.844 1.604-1.798-.877.9-1.71zM2.428 19.75l1.847.766-.643 1.693-1.89-.652.686-1.807zm-1.26 3.653l1.927.536-.432 1.76-1.956-.418.46-1.878zm-.808 3.78l1.978.298-.216 1.8-1.992-.18.23-1.918zM.014 31.03L0 32l.014.97 2-.06L2 32l.014-.91-2-.06zm.115 3.867l1.992-.18.216 1.8-1.978.3-.23-1.918zm.577 3.82l1.956-.418.432 1.76-1.927.536-.46-1.878zm1.036 3.723l1.89-.652.643 1.693-1.847.766-.686-1.807zm1.48 3.57l1.798-.877.844 1.604-1.74.984-.9-1.71zm1.902 3.365l1.68-1.087 1.03 1.49-1.6 1.187-1.1-1.6zm2.293 3.11l1.536-1.28 1.203 1.357-1.456 1.37-1.282-1.447zm2.65 2.814l1.37-1.456 1.357 1.203-1.28 1.536-1.447-1.282zm2.968 2.476l1.187-1.6 1.49 1.03-1.087 1.678-1.6-1.1zm3.243 2.1l.984-1.74 1.604.843-.877 1.798-1.71-.9zm3.474 1.694l.766-1.847 1.693.642-.652 1.89-1.807-.686zm3.653 1.26l.536-1.927 1.76.432-.418 1.956-1.878-.46zm3.78.808l.298-1.978 1.8.216-.18 1.992-1.918-.23zm3.847.346l.06-2L32 62l.91-.014.06 2L32 64c-.324 0-.647-.005-.97-.014zm3.867-.115l-.18-1.992 1.8-.216.3 1.978-1.918.23zm3.82-.577l-.418-1.956 1.76-.432.536 1.927-1.878.46zm3.723-1.036l-.652-1.89 1.693-.642.766 1.847-1.807.686zm3.57-1.48l-.877-1.798 1.604-.843.984 1.74-1.71.9zm3.365-1.902l-1.087-1.678 1.49-1.03 1.187 1.6-1.6 1.1zm3.11-2.293l-1.28-1.536 1.357-1.203 1.37 1.456-1.447 1.282zm2.814-2.65l-1.456-1.37 1.203-1.357 1.536 1.28-1.282 1.447zm2.476-2.968l-1.6-1.187 1.03-1.49 1.678 1.087-1.1 1.6zm2.1-3.243l-1.74-.984.843-1.604 1.798.877-.9 1.71zm1.694-3.474l-1.847-.766.642-1.693 1.89.652-.686 1.807zm1.26-3.653l-1.927-.536.432-1.76 1.956.418-.46 1.878zm.808-3.78l-1.978-.3.216-1.8 1.992.18-.23 1.918z"/>
  <defs>
    <path id="C" d="M28.522 50.923c0 2.06-1.113 3.73-2.486 3.73s-2.486-1.67-2.486-3.73 1.113-3.73 2.486-3.73 2.486 1.67 2.486 3.73z"/>
    <path id="D" d="M25.68 48.03c.507.76.852 1.867.852 3.14 0 .55.445.994.994.994s.994-.445.994-.994c0-1.61-.433-3.114-1.186-4.243-.748-1.123-1.89-1.972-3.288-1.972s-2.54.85-3.288 1.972c-.753 1.13-1.186 2.633-1.186 4.243 0 .873.127 1.71.36 2.47.16.525.717.82 1.242.66s.82-.717.66-1.242c-.173-.566-.273-1.205-.273-1.887 0-1.273.346-2.38.852-3.14.51-.767 1.108-1.086 1.634-1.086s1.122.32 1.634 1.086z"/>
  </defs>
</svg>