<?xml version="1.0" encoding="utf-8"?>
<svg viewBox="148.649 70.962 61.756 73.886" width="61.756" height="73.886" xmlns="http://www.w3.org/2000/svg">
  <g transform="matrix(1.581899, 0.513992, -0.513992, 1.581899, -28.066487, -133.791842)" style="">
    <path fill="#0d131a" d="M 176.407 104.956 C 177.307 107.69 177.074 110.34 175.707 112.906 C 174.374 115.473 172.324 117.206 169.557 118.106 C 166.791 119.006 164.091 118.79 161.457 117.456 C 158.857 116.123 157.107 114.056 156.207 111.256 L 150.807 94.506 C 149.907 91.74 150.124 89.056 151.457 86.456 C 152.757 83.856 154.807 82.09 157.607 81.156 C 160.374 80.256 163.057 80.473 165.657 81.806 C 168.257 83.14 170.007 85.206 170.907 88.006 L 176.407 104.956"/>
    <path fill="#f9be00" d="M 174.757 104.556 C 175.591 107.09 175.491 109.506 174.457 111.806 C 173.424 114.173 171.691 115.756 169.257 116.556 C 166.657 117.423 164.224 117.156 161.957 115.756 C 159.791 114.423 158.291 112.44 157.457 109.806 L 152.557 94.706 C 151.724 92.14 151.824 89.74 152.857 87.506 C 153.891 85.206 155.641 83.656 158.107 82.856 C 160.574 82.056 162.941 82.29 165.207 83.556 C 167.441 84.79 168.957 86.69 169.757 89.256 L 174.757 104.556"/>
    <path fill="#0d131a" d="M 168.607 85.906 C 169.041 85.773 169.391 86.006 169.657 86.606 C 169.924 87.206 169.891 87.573 169.557 87.706 L 151.907 93.706 C 151.307 93.906 150.957 93.656 150.857 92.956 C 150.757 92.29 150.991 91.84 151.557 91.606 L 168.607 85.906"/>
    <path fill="#0d131a" d="M 170.757 92.306 C 171.191 92.173 171.507 92.44 171.707 93.106 C 171.907 93.773 171.841 94.19 171.507 94.356 L 153.707 100.406 C 153.107 100.606 152.741 100.39 152.607 99.756 C 152.507 99.09 152.741 98.656 153.307 98.456 L 162.257 95.256 L 170.757 92.306"/>
    <path fill="#0d131a" d="M 173.057 99.206 C 173.491 99.073 173.824 99.273 174.057 99.806 C 174.291 100.306 174.241 100.64 173.907 100.806 L 165.407 103.956 L 156.307 107.206 C 155.707 107.44 155.274 107.223 155.007 106.556 C 154.774 105.923 154.941 105.49 155.507 105.256 C 159.174 103.89 165.024 101.873 173.057 99.206"/>
    <path fill="#0d131a" d="M 175.357 105.856 C 175.791 105.723 176.107 105.923 176.307 106.456 C 176.507 106.99 176.441 107.34 176.107 107.506 L 158.457 113.456 C 157.857 113.69 157.474 113.506 157.307 112.906 C 157.141 112.34 157.341 111.956 157.907 111.756 L 166.857 108.656 L 175.357 105.856"/>
  </g>
</svg>