<svg width="230" height="230" xmlns="http://www.w3.org/2000/svg">
 <g>
  <title>background</title>
  <rect x="-1" y="-1" width="232" height="232" id="canvas_background" fill="none"/>
 </g>

 <g>
  <title>Layer 1</title>
  <g stroke="null" id="svg_1" opacity="0.3">
   <path stroke="null" fill="#cc5d00" d="m62.91119,113.5401q8.11966,3.302 9.63533,12.1795q1.35328,7.95727 -2.76069,13.15386q-3.73505,4.7094 -8.39032,6.06268q-4.0057,1.19088 -6.49573,-0.32478q-1.84046,-1.13675 -2.27351,0.59544q-0.32478,1.08263 -0.05413,2.97721l1.40741,4.92593q1.29915,3.8433 1.89459,4.43875q0.64958,0.64958 -0.81196,2.59829q-1.46154,2.00285 -3.1396,2.59829l-3.1396,0.8661q-1.5698,0.05413 -3.19374,-1.5698q-6.98291,-7.03704 -8.11966,-19.54132q-1.13675,-12.50428 4.43875,-21.21939q3.03134,-4.76353 8.1738,-7.25357q6.38747,-3.1396 12.82906,-0.48718" id="svg_2"/>
   <path stroke="null" fill="#fff3c2" d="m76.06505,166.4803q10.28491,0.43305 16.67238,-5.14245q1.35328,-1.13675 3.62678,2.32764q2.27351,3.51852 0.8661,4.7094q-11.47579,9.68946 -27.98577,7.57835q-15.80628,-2.00285 -23.49289,-12.61254q1.02849,0.32478 3.95157,-0.7037q2.76069,-0.97436 3.46439,-1.67806q1.5698,-1.46154 3.03134,-3.78918q8.22793,8.82336 19.86611,9.31054" id="svg_3"/>
   <path stroke="null" fill="#cc5d00" d="m54.89979,154.78798q-0.8661,-2.92307 0.48718,-0.7037q1.35328,2.21937 1.46154,3.68092q0.21653,2.59829 -4.49288,5.30484q-5.08832,2.92307 -8.22793,-0.43305q-0.54131,-0.59544 -0.59544,-1.94872q-0.05413,-1.40741 0.81196,-0.1624q2.21937,3.302 6.92877,0.54131q4.7094,-2.76069 3.62678,-6.27921" id="svg_4"/>
   <path stroke="null" fill="#fff3c2" d="m104.70039,193.92476l-5.03419,4.65528l-0.54131,-2.4359q-0.54131,-1.29915 -1.89459,-2.86895q-1.73219,-2.00285 -5.41311,-3.03134q-3.24787,-0.92023 -6.11681,-0.7037q7.47009,-4.65528 12.8832,-7.3077q3.62678,-1.84046 6.82052,-0.8661q4.0057,1.19088 3.62678,6.71225q-0.10826,1.46154 -4.33048,5.84616" id="svg_5"/>
   <path stroke="null" fill="#cc5d00" d="m72.65479,208.48602q-1.46154,-0.10826 -2.49003,-3.302q-0.92023,-2.92307 -0.54131,-4.81766q0.59544,-2.92307 5.73789,-6.17094q4.11396,-2.65242 8.28205,-3.95157l5.25071,-0.54131l3.68092,0.59544q4.65528,1.40741 6.17094,4.98006q1.35328,3.1396 -0.21653,5.62963q-1.94872,3.03134 -5.35898,6.49573q-3.46439,3.51852 -5.19658,4.05983l-2.97721,0.1624q-1.24501,-0.32478 -1.67806,-1.13675l-2.65242,0.64958l-3.1396,0.27065q-0.64958,-0.05413 -2.21937,-1.46154q-1.51567,-1.35328 -2.65242,-1.46154" id="svg_6"/>
   <path stroke="null" fill="#cc5d00" d="m98.90836,198.5259q-1.02849,-6.22507 -7.79488,-7.79488l-7.95727,-0.21653q-0.92023,0.21653 0.1624,-0.27065l1.73219,-0.64958q4.98006,-1.13675 9.31054,0.92023q4.7094,2.27351 5.52137,7.36183q0.27065,1.46154 -0.27065,1.62393q-0.54131,0.21653 -0.7037,-0.97436" id="svg_7"/>
   <path stroke="null" fill="#fbd6a0" d="m105.13344,178.38913q4.76353,2.38177 4.1681,2.4359q-0.37892,0.05413 -1.19088,1.24501q-0.8661,1.24501 -1.02849,2.27351q-0.27065,1.73219 -4.60114,0.43305q-4.43875,-1.29915 -3.19374,-2.38177q2.38177,-2.21937 1.62393,-5.14245q-0.27065,-1.08263 4.22223,1.13675" id="svg_8"/>
   <path stroke="null" fill="#0d131a" d="m108.97674,180.50025q1.08263,-0.59544 1.67806,-0.32478q0.54131,0.27065 -0.48718,0.92023q-2.32764,1.35328 -2.54416,4.22223q-0.05413,0.92023 -0.7037,1.02849q-0.64958,0.1624 -0.64958,-0.81196q0,-3.46439 2.70655,-5.03419" id="svg_9"/>
   <path stroke="null" fill="#0d131a" d="m107.29868,192.13843q-6.27921,6.06268 -15.37323,17.91739q-2.97721,3.8433 -7.03704,2.59829q-3.24787,-1.02849 -4.1681,-3.19374q-1.08263,-2.70655 0.21653,-5.46724q1.24501,-2.54416 3.302,-3.302l1.46154,-0.1624q0.1624,0.32478 -0.75783,0.81196q-2.59829,1.46154 -3.1396,4.0057q-0.43305,2.27351 0.81196,4.1681q1.29915,1.94872 3.41025,2.05698q2.4359,0.05413 4.7094,-2.54416l7.19943,-9.03989q4.81766,-6.11681 8.06553,-9.14816q1.5698,-1.46154 2.05698,-3.03134q0.75783,-2.27351 -1.02849,-4.22223q-0.1624,-0.1624 0.21653,-0.75783l0.54131,-0.48718q2.27351,2.16524 2.00285,5.03419q-0.27065,2.59829 -2.49003,4.76353" id="svg_10"/>
   <path stroke="null" fill="#0d131a" d="m73.35849,208.86493q-1.67806,-2.70655 -0.75783,-6.22507q1.13675,-4.43875 6.27921,-6.33334l1.24501,-0.05413q0.43305,0.21653 -0.48718,0.7037q-5.14245,2.65242 -5.62963,6.76639q-0.37892,3.03134 1.51567,5.41311q1.19088,1.51567 3.1396,1.67806q1.51567,0.10826 3.24787,-0.64958q0.75783,-0.32478 1.08263,0q0.32478,0.27065 -0.54131,0.8661q-1.73219,1.08263 -4.11396,0.92023q-3.19374,-0.21653 -4.98006,-3.08547" id="svg_11"/>
   <path stroke="null" fill="#0d131a" d="m100.42404,177.68543q-0.10826,-0.8661 0.7037,-0.81196q0.81196,0.05413 0.81196,1.08263q0,3.03134 -2.92307,5.25071l-10.88035,5.46724q-11.04274,5.57551 -13.31624,7.1453q-5.08832,3.51852 -4.1681,8.33618q0.81196,4.38462 3.89744,4.27635q0.32478,0 0.7037,0.54131q0.37892,0.48718 0,0.48718q-3.03134,0.10826 -4.92593,-1.73219q-1.67806,-1.73219 -1.84046,-4.43875q-0.43305,-6.49573 5.90029,-9.31054l22.84332,-11.58405l2.49003,-1.89459q0.8661,-1.19088 0.7037,-2.81482" id="svg_12"/>
   <path stroke="null" fill="#cc5d00" d="m156.07078,187.75381l6.92877,1.24501q5.57551,0.81196 7.90314,2.00285q3.89744,2.00285 4.38462,4.92593l-0.05413,1.40741q-0.1624,0.64958 0.05413,1.40741q0.7037,2.59829 -1.08263,5.35898q-1.84046,2.97721 -4.65528,2.76069l-2.21937,1.46154l-3.68092,0.32478q-3.51852,-0.81196 -9.31054,-3.78918q-6.33334,-3.46439 -9.03989,-4.76353q-1.19088,-0.54131 -0.7037,-4.11396q0.59544,-3.78918 2.86895,-5.84616q1.51567,-1.35328 4.22223,-2.16524l4.38462,-0.21653" id="svg_13"/>
   <path stroke="null" fill="#fff3c2" d="m146.32719,191.75951q-2.11111,3.73505 -1.29915,8.49858q-2.59829,-1.84046 -13.04559,-5.62963l-9.96012,-3.73505q-3.19374,-5.03419 2.97721,-9.41881q2.21937,-1.5698 4.43875,-2.11111q2.21937,-0.54131 2.21937,0.43305l-0.21653,1.46154q-0.05413,0.48718 0.54131,0.75783q2.76069,1.19088 12.28776,3.03134q8.76923,1.67806 10.12251,2.59829q-1.13675,-0.32478 -4.11396,1.19088q-3.1396,1.51567 -3.95157,2.92307" id="svg_14"/>
   <path stroke="null" fill="#cc5d00" d="m156.2873,188.0786l-4.54701,0.64958q-3.24787,0.92023 -4.65528,2.76069q-2.70655,3.41025 -1.51567,8.06553q0.10826,0.59544 -0.48718,0.43305q-0.64958,-0.1624 -0.8661,-0.92023q-0.43305,-1.29915 -0.1624,-3.46439q0.32478,-2.59829 1.5698,-4.27635q1.73219,-2.27351 4.81766,-3.24787q2.86895,-0.97436 5.68376,-0.48718l1.13675,0.27065l-0.97436,0.21653" id="svg_15"/>
   <path stroke="null" fill="#fbd6a0" d="m131.22462,179.63415q-0.1624,2.38177 0.75783,3.302q0.43305,0.43305 -0.10826,1.02849q-0.59544,0.59544 -1.67806,0.8661l-4.1681,0.1624q-2.49003,-0.21653 -2.27351,-0.81196l0.37892,-1.13675q0.27065,-0.92023 0,-1.40741q-0.32478,-0.64958 3.41025,-1.62393q3.73505,-0.97436 3.68092,-0.37892" id="svg_16"/>
   <path stroke="null" fill="#0d131a" d="m124.78302,181.90765q0.7037,0.1624 0.05413,0.43305q-2.49003,1.08263 -3.03134,4.33048q-0.54131,3.302 1.89459,3.95157q6.49573,1.84046 17.48434,6.92877q6.27921,2.86895 17.70086,8.66098q5.57551,2.81482 9.47294,0.21653q4.11396,-2.70655 -0.92023,-8.28205q-0.8661,-0.97436 -0.48718,-1.13675q0.43305,-0.10826 1.62393,1.02849q2.92307,2.76069 3.03134,5.57551q0.10826,2.59829 -1.94872,4.33048q-2.11111,1.73219 -5.25071,1.78633q-3.41025,0.10826 -6.71225,-1.84046q-23.65528,-12.0171 -34.4815,-15.21083q-3.35612,-0.97436 -3.08547,-5.52137q0.27065,-4.43875 3.41025,-5.19658l1.24501,-0.05413" id="svg_17"/>
   <path stroke="null" fill="#0d131a" d="m158.12776,186.94184q9.58121,0.97436 14.12821,3.62678q5.14245,3.03134 3.51852,8.0114q-0.37892,1.08263 -0.81196,0.75783q-0.43305,-0.32478 -0.32478,-0.8661q1.29915,-4.7094 -5.35898,-7.19943q-2.92307,-1.08263 -11.25927,-2.38177l-13.53277,-2.76069q-9.58121,-2.21937 -12.45015,-3.35612q-0.27065,-0.10826 -0.32478,-0.92023q-0.05413,-0.8661 0.05413,-0.81196q2.16524,1.13675 12.8832,3.41025l13.47864,2.49003" id="svg_18"/>
   <path stroke="null" fill="#0d131a" d="m170.30726,193.38345q4.7094,1.62393 5.68376,5.41311q0.7037,2.81482 -0.64958,5.25071q-1.13675,2.05698 -3.19374,2.81482l-2.49003,0.43305q-0.54131,0.10826 -0.75783,-0.27065q-0.21653,-0.37892 0.54131,-0.59544q3.51852,-0.97436 4.65528,-3.19374q1.13675,-2.32764 0.21653,-4.7094q-0.92023,-2.49003 -3.73505,-4.11396q-0.59544,-0.32478 -0.8661,-0.81196q-0.27065,-0.48718 0.59544,-0.21653" id="svg_19"/>
   <path stroke="null" fill="#0d131a" d="m123.75453,179.85067q0.37892,0.64958 0.54131,1.89459q0.1624,1.51567 -0.32478,2.65242l-0.92023,0.92023q-0.48718,0.10826 -0.27065,-0.81196q0.59544,-2.4359 -0.32478,-3.8433q-0.37892,-0.59544 0.27065,-1.13675q0.59544,-0.48718 1.02849,0.32478" id="svg_20"/>
   <path stroke="null" fill="#0d131a" d="m133.55225,176.81934q-0.81196,1.29915 -1.08263,2.70655q-0.37892,1.89459 0.37892,3.03134q0.64958,0.97436 0.10826,1.08263q-0.54131,0.10826 -1.13675,-0.59544q-0.64958,-0.81196 -0.8661,-2.27351q-0.21653,-1.78633 0.64958,-3.03134q0.92023,-1.40741 1.89459,-1.84046q0.92023,-0.48718 0.05413,0.92023" id="svg_21"/>
   <path stroke="null" fill="#fff3c2" d="m164.73176,174.54583l-4.49288,1.51567q-3.35612,0.54131 -6.49573,-1.40741q-1.40741,-0.92023 -2.97721,-3.19374q-1.51567,-2.16524 -2.16524,-4.05983q-5.95442,-3.46439 -7.68662,-6.98291q-2.81482,-5.84616 -5.73789,-18.18804q-2.76069,-11.47579 -2.16524,-12.07123q1.13675,-1.24501 3.1396,-2.11111q2.76069,-1.19088 3.08547,1.29915q0.64958,4.81766 7.68662,16.67238q6.92877,11.63818 9.14816,12.07123q4.92593,0.8661 8.22793,2.70655q3.78918,2.16524 4.49288,5.30484q0.81196,3.62678 -0.32478,5.68376q-1.02849,1.73219 -3.73505,2.76069" id="svg_22"/>
   <path stroke="null" fill="#0d131a" d="m149.19613,166.91335q0.97436,2.38177 -0.10826,1.84046q-4.76353,-2.65242 -7.09117,-5.30484q-5.03419,-5.73789 -5.03419,-14.77779q0,-0.59544 0.37892,-0.97436q0.37892,-0.43305 0.43305,0.27065q0.92023,5.79203 2.81482,9.74359q2.97721,6.22507 8.60684,9.20228" id="svg_23"/>
   <path stroke="null" fill="#0d131a" d="m164.51523,174.16691q2.4359,-0.32478 3.302,-3.78918q0.92023,-3.68092 -1.51567,-6.38747q-2.11111,-2.4359 -6.11681,-3.57265q-4.43875,-1.24501 -6.33334,-2.86895q-5.41311,-4.7094 -10.82622,-15.26497q-4.33048,-8.55271 -4.98006,-12.1795q-0.1624,-0.75783 0.48718,-0.92023q0.59544,-0.10826 0.75783,0.37892q1.89459,6.98291 7.57835,15.86041q4.8718,7.52422 8.44445,10.71795q1.08263,0.92023 5.73789,2.49003q4.54701,1.46154 6.71225,3.62678q2.65242,2.65242 2.32764,6.65812q-0.37892,4.76353 -6.06268,6.11681q-0.75783,0.21653 -0.54131,-0.27065q0.21653,-0.48718 1.02849,-0.59544" id="svg_24"/>
   <path stroke="null" fill="#fff3c2" d="m100.31577,176.65694q-6.92877,-5.68376 -7.47009,-13.69516q-0.21653,-3.19374 5.57551,-14.23647q6.49573,-12.39602 7.849,-19.92023q0.59544,-3.35612 5.62963,-4.76353q3.24787,-0.8661 7.849,-0.8661q2.86895,0 8.60684,3.62678q5.62963,3.51852 8.06553,6.65812q3.89744,5.03419 5.84616,13.91169q2.59829,12.23363 -2.49003,21.49004q-5.03419,9.14816 -11.80058,11.8547q-4.0057,1.5698 -12.77493,1.46154q-8.28205,-0.05413 -14.88605,-5.52137" id="svg_25"/>
   <path stroke="null" fill="#fbd6a0" d="m93.65765,166.64269q2.54416,4.38462 9.74359,7.90314q7.1453,3.41025 13.91169,3.62678q6.17094,0.21653 11.69231,-1.84046q4.43875,-1.67806 7.68662,-4.49288q-8.82336,11.36753 -19.70371,10.88035q-9.09402,-0.37892 -15.48149,-4.8718q-6.17094,-4.38462 -7.849,-11.20513" id="svg_26"/>
   <path stroke="null" fill="#0d131a" d="m166.57221,170.10708q0.1624,4.65528 -3.78918,6.33334q-4.0057,1.67806 -8.44445,-0.75783q-4.7094,-2.59829 -5.57551,-7.90314q-0.10826,-0.8661 0.37892,-1.02849q0.48718,-0.21653 0.43305,0.54131q-0.10826,2.70655 3.78918,5.90029q4.22223,3.46439 8.11966,1.84046q3.95157,-1.62393 3.24787,-5.57551q-0.64958,-3.95157 -4.8718,-5.57551q-0.81196,-0.32478 -0.43305,-0.59544q0.43305,-0.27065 1.19088,0q5.79203,1.89459 5.95442,6.82052" id="svg_27"/>
   <path stroke="null" fill="#fbd6a0" d="m120.01949,129.29224l9.03989,-0.59544q7.36183,-0.05413 7.47009,1.46154q0.1624,2.16524 -0.97436,3.19374q-1.19088,1.02849 -4.11396,1.13675l-5.57551,-0.7037l-6.27921,-1.67806q-2.00285,-0.59544 -2.00285,-1.46154q0,-0.8661 2.4359,-1.35328" id="svg_28"/>
   <path stroke="null" fill="#0d131a" d="m106.43258,179.63415q7.1453,2.86895 14.83192,1.5698q8.28205,-1.35328 13.37038,-7.1453q4.54701,-5.08832 6.00855,-10.71795q2.70655,-10.71795 -2.97721,-26.14531q-1.13675,-3.19374 -0.7037,-3.51852q0.48718,-0.48718 1.84046,2.38177q5.19658,11.25927 4.8718,21.97722q-0.37892,11.151 -6.82052,17.75499q-5.90029,5.95442 -14.23647,7.3077q-8.44445,1.35328 -16.40171,-2.54416q-1.08263,-0.54131 -0.97436,-0.92023q0.10826,-0.43305 1.19088,0" id="svg_29"/>
   <path stroke="null" fill="#0d131a" d="m103.13058,177.90195q0.48718,0.27065 0.43305,0.7037q-0.10826,0.37892 -0.75783,0.1624q-4.65528,-1.67806 -7.57835,-5.25071q-3.03134,-3.68092 -3.24787,-8.22793q-0.27065,-7.41595 3.89744,-14.66952q6.06268,-10.50143 8.76923,-20.24503q0.54131,-2.00285 1.13675,-1.19088q0.59544,0.81196 0.43305,1.73219q-1.84046,9.79772 -7.57835,19.43306q-4.65528,7.74075 -4.27635,14.61539q0.48718,8.60684 8.76923,12.93733" id="svg_30"/>
   <path stroke="null" fill="#0d131a" d="m92.68329,160.20109q1.29915,-1.19088 1.08263,0.43305q-0.27065,1.62393 -1.13675,2.16524q-7.90314,4.92593 -16.18519,5.08832q-7.52422,0.1624 -13.80342,-3.68092q-6.00855,-3.68092 -9.03989,-9.90599q-3.08547,-6.4416 -1.84046,-13.5869q0.10826,-0.64958 0.64958,0.1624q0.59544,0.8661 0.59544,2.27351q-0.05413,8.0114 4.43875,13.74929q4.0057,5.08832 10.71795,7.36183q6.38747,2.16524 13.09972,1.13675q6.87465,-1.08263 11.42165,-5.19658" id="svg_31"/>
   <path stroke="null" fill="#0d131a" d="m46.83426,114.13554q8.93163,-5.79203 17.86326,-1.13675q8.55271,4.49288 9.20228,14.18234q0.59544,8.0114 -3.35612,13.15386q-2.92307,3.8433 -6.98291,5.35898q-4.27635,1.62393 -8.76923,0.1624q-5.35898,-1.73219 -5.35898,-8.44445q0,-6.4416 4.49288,-9.74359q1.02849,-0.81196 1.51567,-0.75783q0.48718,0.10826 -0.7037,1.51567q-3.89744,4.65528 -3.302,9.25641q0.59544,4.1681 4.27635,5.95442q2.86895,1.35328 6.11681,0.32478q3.68092,-1.19088 6.60399,-5.14245q4.11396,-5.35898 2.76069,-12.66668q-1.35328,-7.41595 -7.36183,-10.98861q-7.47009,-4.49288 -15.64388,1.02849q-8.76923,5.90029 -9.52707,18.72935q-0.81196,13.15386 4.81766,22.95158q5.03419,8.82336 14.29061,13.5869q8.66098,4.38462 18.4587,4.05983q9.85186,-0.32478 17.32194,-5.35898q1.19088,-0.81196 1.67806,0q0.48718,0.75783 -0.64958,1.46154q-10.01425,6.11681 -21.16526,6.00855q-10.55556,-0.10826 -19.54132,-5.68376q-9.03989,-5.62963 -13.85756,-15.10257q-5.14245,-10.12251 -4.05983,-22.24787q1.24501,-14.18234 10.88035,-20.46155" id="svg_32"/>
   <path stroke="null" fill="#0d131a" d="m78.39269,55.24093q14.453,1.94872 22.302,6.82052q1.89459,1.13675 -12.1795,19.75785q-14.18234,18.62109 -14.99431,17.5926q-5.08832,-6.71225 -9.52707,-21.32764q-4.98006,-16.56411 -1.19088,-22.13961q1.78633,-2.59829 15.58975,-0.7037" id="svg_33"/>
   <path stroke="null" fill="#0d131a" d="m161.59216,36.02439q3.73505,1.51567 5.73789,15.86041q2.05698,14.83192 -1.29915,22.68092q-1.08263,2.59829 -20.84046,-6.76639q-19.86611,-9.47294 -18.78349,-10.88035q6.60399,-8.49858 20.19089,-15.64388q12.12536,-6.38747 14.99431,-5.25071" id="svg_34"/>
   <path stroke="null" fill="#f29739" d="m139.18189,58.38053q2.76069,-3.57265 9.47294,-8.11966q6.60399,-4.38462 8.39032,-4.05983q2.11111,0.43305 2.59829,9.47294q0.48718,9.14816 -1.67806,13.37038q-0.64958,1.35328 -10.33904,-3.8433q-9.74359,-5.14245 -8.44445,-6.82052" id="svg_35"/>
   <path stroke="null" fill="#f29739" d="m84.02231,66.39193q10.60969,2.65242 10.71795,4.11396q0.10826,1.73219 -6.11681,11.42165q-6.38747,9.96012 -8.06553,8.55271q-2.49003,-2.11111 -6.06268,-12.23363q-3.68092,-10.4473 -2.27351,-12.77493q1.08263,-1.73219 11.80058,0.92023" id="svg_36"/>
   <path stroke="null" fill="#0d131a" d="m178.21039,65.6341q8.98576,-3.89744 11.09687,-4.60114q2.16524,-0.75783 2.92307,0.75783q0.75783,1.51567 -1.51567,3.03134q-16.83476,11.47579 -21.70656,15.10257l1.40741,3.8433q1.35328,4.1681 0.7037,8.8775l13.53277,0.8661q10.55556,0.81196 14.18234,1.78633q1.51567,0.43305 1.51567,1.94872q-0.05413,1.51567 -1.73219,1.84046l-30.15102,2.92307q-4.0057,9.25641 -12.1795,16.23933q-9.20228,7.79488 -21.65244,10.93448q-22.24787,5.57551 -38.75785,1.84046q-18.24217,-4.11396 -23.00571,-18.62109q-5.19658,-15.53562 6.4416,-32.15386q11.52992,-16.50998 31.93734,-23.11397q15.80628,-5.14245 30.63819,-0.64958q14.07409,4.27635 22.4644,15.48149q3.78918,-2.00285 13.85756,-6.33334" id="svg_37"/>
   <path stroke="null" fill="#fff3c2" d="m141.83431,123.2837q3.24787,-2.38177 4.22223,-4.27635q0.54131,-1.08263 1.40741,-1.13675q0.8661,-0.05413 0.54131,0.97436q-1.62393,4.92593 -5.46724,8.33618q-3.1396,2.81482 -6.4416,3.62678q-5.30484,1.40741 -11.09687,0.59544q-5.52137,-0.81196 -10.50143,-3.35612q-0.92023,-0.54131 -0.05413,-1.29915q0.81196,-0.81196 1.84046,-0.54131l7.1453,1.46154l10.23077,-0.43305q4.33048,-1.19088 8.1738,-3.95157" id="svg_38"/>
   <path stroke="null" fill="#fff3c2" d="m189.41553,62.49449q0.75783,-0.32478 1.08263,0.1624q0.37892,0.43305 -0.43305,1.02849l-24.0342,15.64388q-0.32478,0.1624 -0.21653,0.43305q1.24501,2.76069 1.84046,4.76353q1.40741,4.22223 0.59544,9.90599l0.32478,0.21653l15.21083,0.59544l13.64103,1.29915q0.92023,0.1624 0.97436,0.64958q0.05413,0.54131 -0.8661,0.59544l-30.58406,2.21937l-0.27065,0.21653q-3.24787,9.14816 -11.04274,16.18519q-8.82336,7.95727 -21.16526,11.04274q-21.38178,5.30484 -37.45871,1.35328q-16.99716,-4.1681 -21.38178,-17.43021q-4.8718,-14.83192 6.22507,-30.52993q10.98861,-15.64388 30.36754,-21.92309q15.42735,-4.98006 29.55557,-0.27065q13.37038,4.43875 21.00286,15.80628l0.75783,0.10826q6.33334,-3.1396 25.87466,-12.07123" id="svg_39"/>
   <path stroke="null" fill="#0d131a" d="m146.8685,120.25235q0.37892,-0.59544 0.92023,-0.37892q0.54131,0.21653 0.27065,0.81196q-3.89744,7.849 -12.12536,10.39317q-7.03704,2.21937 -14.94018,0.10826l-1.29915,-0.64958q-0.81196,-0.48718 -0.21653,-0.37892q9.31054,1.89459 16.50998,-0.75783q7.03704,-2.59829 10.88035,-9.14816" id="svg_40"/>
   <path stroke="null" fill="#ffffff" d="m136.4212,88.09849q-1.13675,-3.62678 0.37892,-9.58121q1.78633,-7.09117 6.33334,-8.33618q4.33048,-1.13675 8.82336,2.11111q4.92593,3.51852 6.27921,10.12251q0.8661,4.22223 -1.62393,8.33618q-2.27351,3.73505 -5.25071,4.38462q-4.22223,1.02849 -7.68662,0.1624q-5.35898,-1.40741 -7.25357,-7.19943" id="svg_41"/>
   <path stroke="null" fill="#fff3c2" d="m33.08497,107.15264q-1.5698,0.10826 -1.46154,-1.08263q0.10826,-1.13675 1.62393,-1.94872q1.24501,-0.7037 23.76355,-3.73505l23.98007,-3.03134q2.49003,-0.1624 2.16524,3.73505q-0.27065,3.95157 -1.94872,4.11396l-48.12253,1.94872" id="svg_42"/>
   <path stroke="null" fill="#fff3c2" d="m86.67474,114.51446q2.59829,-0.92023 3.89744,2.65242q1.29915,3.51852 -0.10826,4.38462q-1.08263,0.7037 -23.00571,9.41881l-22.78918,8.8775q-3.1396,0.59544 -2.49003,-1.40741q0.43305,-1.19088 22.13961,-12.50428q20.35328,-10.60969 22.35614,-11.42165" id="svg_43"/>
   <path stroke="null" fill="#922f00" d="m129.65482,106.39479q-2.54416,-0.64958 7.41595,-3.03134q9.79772,-2.32764 9.63533,-0.7037q-1.13675,9.85186 -5.57551,16.23933q-0.27065,-5.68376 -5.25071,-9.41881q-2.97721,-2.27351 -6.22507,-3.08547" id="svg_44"/>
   <path stroke="null" fill="#ed8599" d="m118.44968,110.29224l9.36468,-3.41025q3.57265,-1.02849 8.11966,2.92307q4.76353,4.0057 5.14245,9.03989q0.1624,2.11111 -2.11111,3.89744q-1.89459,1.35328 -5.73789,2.76069q-6.00855,2.16524 -14.72365,-2.4359q-8.1738,-4.33048 -11.36753,-10.12251q-0.97436,-1.84046 1.13675,-1.35328q3.51852,0.8661 10.17664,-1.29915" id="svg_45"/>
   <path stroke="null" fill="#fff3c2" d="m85.42972,27.41755q2.21937,-1.02849 12.0171,17.26781q9.36468,17.43021 9.58121,19.64958q0.1624,1.24501 -4.0057,4.33048q-4.11396,3.03134 -4.65528,2.00285q-1.40741,-2.86895 -7.52422,-21.70656q-6.76639,-20.84046 -5.41311,-21.54417" id="svg_46"/>
   <path stroke="null" fill="#fff3c2" d="m128.03089,59.13836q-0.59544,-1.40741 -1.84046,-19.92023q-1.29915,-18.78349 -0.7037,-20.19089q0.27065,-0.59544 1.19088,-0.1624q0.97436,0.37892 1.13675,1.46154l8.39032,39.67808q0.1624,1.29915 -3.35612,1.62393q-3.62678,0.32478 -4.81766,-2.49003" id="svg_47"/>
   <path stroke="null" fill="#0d131a" d="m125.1078,40.51727l-0.75783,-21.11112q-0.10826,-1.94872 1.67806,-2.21937q1.78633,-0.27065 2.38177,1.94872l4.33048,18.51283l4.33048,19.10827q0.43305,2.32764 -0.7037,2.49003q-1.13675,0.1624 -1.62393,-2.16524l-7.1453,-33.72367q-0.64958,-2.81482 -1.08263,-3.1396q-0.54131,-0.32478 -0.32478,2.4359q0.81196,23.54702 1.46154,33.45301q0.10826,1.62393 -1.08263,0.92023l-1.08263,-0.54131l-0.37892,-15.96867" id="svg_48"/>
   <path stroke="null" fill="#0d131a" d="m83.91405,30.1241q-0.75783,-3.51852 1.35328,-4.33048q2.00285,-0.81196 3.78918,1.62393q1.67806,2.38177 10.98861,19.48719q8.98576,16.45585 10.60969,19.92023q0.59544,1.35328 -0.37892,2.11111q-1.02849,0.7037 -1.51567,-0.37892q-16.07693,-31.39603 -21.27351,-38.59546q-1.02849,-1.35328 -1.40741,-1.02849q-0.37892,0.27065 -0.05413,1.40741q3.62678,11.74645 12.8832,39.13677q0.81196,2.49003 -0.32478,2.65242q-1.13675,0.10826 -1.78633,-1.73219l-6.54986,-20.0285q-6.00855,-18.72935 -6.33334,-20.24503" id="svg_49"/>
   <path stroke="null" fill="#0d131a" d="m32.70605,108.07286q-2.32764,-0.05413 -2.65242,-1.73219q-0.32478,-1.5698 1.5698,-2.54416q3.89744,-1.94872 24.08833,-4.81766q19.54132,-2.76069 23.05984,-2.32764q1.73219,0.21653 1.73219,0.97436q0,0.7037 -1.62393,0.75783q-7.36183,0.21653 -24.95443,2.76069q-17.48434,2.49003 -20.13676,3.68092q-1.13675,0.48718 -1.35328,1.02849q-0.27065,0.64958 1.51567,0.7037l20.40741,-1.02849l24.35898,-1.08263q1.84046,0 2.05698,1.02849q0.1624,0.97436 -2.05698,1.13675l-46.01142,1.46154" id="svg_50"/>
   <path stroke="null" fill="#0d131a" d="m86.56648,122.25521l1.78633,0.10826q0.37892,0.64958 -0.54131,1.08263l-44.0627,17.48434q-1.62393,0.59544 -2.32764,-0.81196q-0.7037,-1.46154 0.7037,-2.76069q2.97721,-2.59829 20.67808,-11.96297q16.78063,-8.8775 20.24503,-10.12251q1.29915,-0.48718 1.62393,0.27065q0.32478,0.75783 -0.81196,1.19088q-3.62678,1.5698 -17.32194,8.60684q-15.53562,8.0114 -21.70656,11.80058q-1.29915,0.81196 -1.40741,1.46154l2.11111,-0.05413l19.00001,-7.52422q17.43021,-7.09117 22.03135,-8.76923" id="svg_51"/>
   <path stroke="null" fill="#0d131a" d="m157.36993,80.89906q-0.32478,-1.29915 0.37892,-1.08263l0.8661,0.7037q1.67806,5.79203 -1.24501,10.39317q-2.38177,3.78918 -6.17094,4.98006q-4.33048,1.40741 -8.7151,-0.43305q-4.76353,-2.00285 -6.65812,-6.71225q-0.05413,-0.21653 0.27065,-0.59544q0.32478,-0.43305 0.48718,-0.05413q2.27351,4.76353 6.54986,6.4416q3.68092,1.40741 7.74075,0.1624q3.68092,-1.08263 5.62963,-4.65528q2.11111,-3.95157 0.8661,-9.14816" id="svg_52"/>
   <path stroke="null" fill="#0d131a" d="m145.84001,102.76802q0.1624,-0.97436 0.8661,-1.08263q0.75783,-0.05413 0.64958,0.8661q-1.24501,10.17664 -5.08832,16.61824q-3.46439,5.62963 -7.95727,6.98291q-7.03704,2.11111 -15.58975,-2.27351q-8.22793,-4.1681 -13.20798,-11.69231q-0.32478,-0.48718 0.54131,-0.37892q0.81196,0.05413 1.24501,0.7037q3.46439,5.46724 11.20513,9.68946q8.93163,4.92593 15.48149,2.54416q6.06268,-2.21937 9.14816,-10.33904q1.24501,-3.302 2.70655,-11.63818" id="svg_53"/>
   <path stroke="null" fill="#0d131a" d="m150.82007,70.66828q5.62963,3.19374 7.74075,9.79772q0.21653,0.59544 -0.32478,1.02849q-0.54131,0.43305 -0.75783,-0.43305q-1.40741,-5.30484 -6.33334,-8.44445q-4.54701,-2.86895 -8.06553,-1.67806q-3.78918,1.29915 -5.57551,6.60399q-1.73219,4.98006 -0.8661,10.88035q0.10826,0.54131 -0.32478,0.64958q-0.37892,0.1624 -0.48718,-0.32478q-1.29915,-5.84616 0.64958,-12.0171q2.05698,-6.27921 5.95442,-7.63248q3.57265,-1.19088 8.39032,1.5698" id="svg_54"/>
   <path stroke="null" fill="#0d131a" d="m114.93116,98.59992q-5.08832,-6.87465 -12.0171,-8.06553q-7.74075,-1.35328 -13.37038,5.57551q-0.48718,0.54131 -0.75783,0.1624q-0.32478,-0.37892 0.05413,-1.02849q4.7094,-7.95727 13.09972,-7.03704q8.33618,0.8661 13.69516,9.68946q0.48718,0.8661 0.1624,1.08263q-0.37892,0.21653 -0.8661,-0.37892" id="svg_55"/>
   <path stroke="null" fill="#0d131a" d="m137.4497,104.39195q0.37892,-1.73219 4.43875,-2.16524q4.0057,-0.43305 4.38462,0.97436q0.37892,1.24501 -0.97436,3.89744q-1.29915,2.59829 -2.16524,2.65242q-0.75783,0.10826 -3.302,-2.27351q-2.54416,-2.38177 -2.38177,-3.08547" id="svg_56"/>
   <path stroke="null" fill="#ffffff" d="m139.12776,104.44608q0.27065,-1.13675 2.97721,-1.46154q2.65242,-0.27065 2.92307,0.64958q0.21653,0.8661 -0.64958,2.59829q-0.8661,1.73219 -1.40741,1.78633q-0.54131,0.05413 -2.21937,-1.51567q-1.73219,-1.62393 -1.62393,-2.05698" id="svg_57"/>
   <path stroke="null" fill="#0d131a" d="m106.91976,112.99879q0.05413,-1.5698 4.38462,-1.89459q4.27635,-0.37892 4.43875,0.48718q0.27065,1.29915 -1.35328,3.95157q-1.5698,2.38177 -2.38177,2.59829q-0.64958,0.10826 -2.86895,-2.11111q-2.21937,-2.27351 -2.21937,-3.03134" id="svg_58"/>
   <path stroke="null" fill="#ffffff" d="m108.38131,113.05293q0,-1.13675 2.81482,-1.46154q2.81482,-0.37892 2.92307,0.59544q0.10826,0.92023 -1.02849,2.59829q-1.08263,1.5698 -1.62393,1.67806q-0.43305,0.10826 -1.78633,-1.35328q-1.35328,-1.51567 -1.29915,-2.05698" id="svg_59"/>
   <path stroke="null" fill="#0d131a" d="m119.58644,109.04723l12.12536,-4.76353q6.71225,-2.16524 14.88605,-3.24787q2.38177,-0.32478 3.1396,-2.4359q0.21653,-0.75783 0.64958,-0.48718q0.43305,0.21653 0.27065,1.02849q-0.37892,1.5698 -1.73219,2.65242q-1.19088,0.92023 -2.16524,0.92023l-6.65812,1.19088l-8.0114,2.00285q-4.81766,2.38177 -9.74359,4.1681q-9.63533,3.46439 -15.37323,2.4359q-0.92023,-0.1624 -2.16524,-0.97436l-1.5698,-1.51567q-0.43305,-0.64958 -0.10826,-0.92023q0.27065,-0.32478 0.97436,0.1624q1.94872,1.29915 3.03134,1.46154q5.35898,0.81196 12.45015,-1.67806" id="svg_60"/>
   <path stroke="null" fill="#0d131a" d="m147.19329,84.03866q1.13675,3.51852 1.51567,6.17094q0.37892,2.65242 -0.21653,2.86895q-0.59544,0.21653 -1.84046,-2.16524q-1.24501,-2.38177 -2.38177,-5.90029q-1.13675,-3.46439 -1.51567,-6.17094q-0.37892,-2.65242 0.21653,-2.81482q0.59544,-0.21653 1.84046,2.16524q1.24501,2.32764 2.38177,5.84616" id="svg_61"/>
   <path stroke="null" fill="#ffffff" d="m144.75739,79.54579q0.7037,2.05698 0.21653,2.27351q-0.48718,0.10826 -1.19088,-1.94872q-0.64958,-2.00285 -0.1624,-2.21937q0.43305,-0.1624 1.13675,1.89459" id="svg_62"/>
   <path stroke="null" fill="#0d131a" d="m135.66337,109.75093q-4.0057,-3.302 -8.49858,-3.03134q-0.43305,0.05413 0.10826,-0.21653l1.13675,-0.43305l3.08547,0.43305q2.76069,0.7037 4.65528,2.16524q2.70655,2.16524 4.27635,5.52137q1.46154,3.1396 0.97436,5.03419l-0.54131,1.19088q-0.32478,0.27065 -0.27065,-0.43305q0.21653,-2.27351 -1.02849,-5.03419q-1.35328,-3.1396 -3.89744,-5.19658" id="svg_63"/>
   <path stroke="null" fill="#fff3c2" d="m116.66336,96.92186q-0.7037,-2.32764 -2.49003,-4.49288q-1.62393,-2.00285 -3.1396,-2.54416l-0.27065,-0.27065q0.10826,-0.21653 0.54131,-0.1624q2.27351,0.43305 3.89744,2.81482q1.35328,1.94872 1.94872,4.49288l-0.10826,0.54131q-0.21653,0.10826 -0.37892,-0.37892" id="svg_64"/>
   <path stroke="null" fill="#0d131a" d="m131.06223,64.38908q1.46154,4.43875 -0.75783,8.60684q-2.16524,4.1681 -6.65812,5.62963q-4.49288,1.46154 -8.76923,-0.7037q-4.22223,-2.16524 -5.68376,-6.71225l-5.84616,-18.13391q-1.46154,-4.49288 0.7037,-8.7151q2.11111,-4.22223 6.65812,-5.73789q4.49288,-1.46154 8.7151,0.7037q4.22223,2.16524 5.68376,6.71225l5.95442,18.35044" id="svg_65"/>
   <path stroke="null" fill="#f9be00" d="m129.2759,63.95603q1.35328,4.11396 -0.32478,7.849q-1.67806,3.8433 -5.62963,5.14245q-4.22223,1.40741 -7.90314,-0.8661q-3.51852,-2.16524 -4.8718,-6.4416l-5.30484,-16.34758q-1.35328,-4.1681 0.32478,-7.79488q1.67806,-3.73505 5.68376,-5.03419q4.0057,-1.29915 7.68662,0.75783q3.62678,2.00285 4.92593,6.17094l5.41311,16.56411" id="svg_66"/>
   <path stroke="null" fill="#0d131a" d="m122.61778,43.76514q0.7037,-0.21653 1.13675,0.75783q0.43305,0.97436 -0.10826,1.19088l-19.10827,6.49573q-0.97436,0.32478 -1.13675,-0.81196q-0.1624,-1.08263 0.75783,-1.46154l18.4587,-6.17094" id="svg_67"/>
   <path stroke="null" fill="#0d131a" d="m124.94542,50.69392q0.7037,-0.21653 1.02849,0.8661q0.32478,1.08263 -0.21653,1.35328l-19.27067,6.54986q-0.97436,0.32478 -1.19088,-0.7037q-0.1624,-1.08263 0.75783,-1.40741l9.68946,-3.46439l9.20228,-3.19374" id="svg_68"/>
   <path stroke="null" fill="#0d131a" d="m127.43544,58.164q0.7037,-0.21653 1.08263,0.64958q0.37892,0.81196 -0.1624,1.08263l-9.20228,3.41025l-9.85186,3.51852q-0.97436,0.37892 -1.40741,-0.7037q-0.37892,-1.02849 0.54131,-1.40741q5.95442,-2.21937 19.00001,-6.54986" id="svg_69"/>
   <path stroke="null" fill="#0d131a" d="m129.92547,65.36344q0.7037,-0.21653 1.02849,0.64958q0.32478,0.8661 -0.21653,1.13675l-19.10827,6.4416q-0.97436,0.37892 -1.24501,-0.59544q-0.27065,-0.92023 0.64958,-1.24501l9.68946,-3.35612l9.20228,-3.03134" id="svg_70"/>
   <path stroke="null" fill="#fff3c2" d="m169.60356,123.50022q0.75783,0.64958 0.8661,2.4359q0.10826,1.73219 -0.48718,2.81482q2.49003,0.8661 3.62678,1.89459q1.62393,1.51567 2.00285,4.49288q0.27065,2.16524 -1.35328,4.0057q-1.24501,1.46154 -2.81482,2.05698q-0.1624,0.05413 -0.21653,2.59829q-0.10826,2.76069 -1.46154,3.89744q-2.32764,1.94872 -4.8718,1.78633q-2.97721,-0.27065 -5.68376,-3.57265l-2.00285,0.1624l-3.24787,1.40741q-5.73789,2.27351 -18.4587,1.67806q-5.73789,-0.27065 -14.07409,-2.81482q-7.90314,-2.4359 -10.39317,-4.33048q-2.21937,-1.73219 2.92307,-5.57551q5.08832,-3.8433 8.11966,-3.19374l6.27921,0.75783q4.8718,0.32478 7.36183,0.10826l12.61254,-1.67806q7.1453,-1.67806 10.06838,-5.14245q2.81482,-3.35612 5.46724,-4.54701q3.19374,-1.40741 5.73789,0.75783" id="svg_71"/>
   <path stroke="null" fill="#0d131a" d="m170.36139,141.63414q-0.21653,-0.54131 0.32478,-1.02849q0.54131,-0.43305 0.8661,0.27065q1.51567,3.51852 -0.27065,6.4416q-1.62393,2.54416 -4.38462,2.97721q-5.14245,0.7037 -8.0114,-4.65528q-0.37892,-0.64958 -0.05413,-0.8661q0.27065,-0.27065 0.8661,0.37892q3.73505,3.95157 7.03704,2.92307q2.32764,-0.7037 3.41025,-2.49003q1.08263,-1.84046 0.21653,-3.95157" id="svg_72"/>
   <path stroke="null" fill="#0d131a" d="m168.57506,124.09566q-2.16524,-1.62393 -4.92593,-0.05413q-1.89459,1.08263 -3.68092,3.41025q-4.76353,6.17094 -17.15956,7.63248q-11.36753,1.29915 -22.89745,-1.84046q-0.7037,-0.21653 -0.48718,-0.75783q0.21653,-0.48718 1.24501,-0.27065q11.47579,2.65242 23.38463,0.43305q11.47579,-2.11111 14.72365,-6.92877q2.4359,-3.51852 5.84616,-4.22223q3.302,-0.7037 5.46724,1.5698q1.13675,1.19088 1.35328,2.92307q0.27065,1.89459 -0.81196,2.97721q-0.54131,0.59544 -1.40741,0.43305q-0.8661,-0.1624 -0.48718,-0.59544q1.13675,-1.29915 0.92023,-2.81482q-0.21653,-1.24501 -1.08263,-1.89459" id="svg_73"/>
   <path stroke="null" fill="#0d131a" d="m111.46678,142.55436l-0.8661,-1.13675q-0.1624,-0.59544 1.08263,0.10826q9.74359,5.19658 25.27921,6.06268q15.42735,0.8661 21.70656,-3.24787q0.43305,-0.27065 0.92023,0.43305q0.43305,0.75783 -0.37892,1.13675q-10.77209,5.46724 -26.84902,3.8433q-14.99431,-1.5698 -20.8946,-7.19943" id="svg_74"/>
   <path stroke="null" fill="#0d131a" d="m173.50099,129.50877q2.27351,1.29915 2.92307,3.78918q0.7037,2.81482 -0.54131,5.30484q-1.5698,3.24787 -5.84616,3.302q-0.92023,0.05413 -1.19088,-0.54131q-0.21653,-0.54131 0.7037,-0.59544q1.62393,0 3.1396,-1.40741q2.11111,-1.94872 1.46154,-5.46724q-0.32478,-1.73219 -1.67806,-2.76069q-1.51567,-1.08263 -4.11396,-0.97436q-0.97436,0.05413 -0.92023,-0.43305q0.05413,-0.43305 0.75783,-0.64958q2.81482,-1.08263 5.30484,0.43305" id="svg_75"/>
  </g>
 </g>
</svg>