<?xml version="1.0" encoding="utf-8"?>
<svg viewBox="25.776 -10.863 215.564 180.539" width="215.564" height="180.539" xmlns="http://www.w3.org/2000/svg" xmlns:bx="https://boxy-svg.com">
  <g>
    <path fill="#cc5d00" d="M 225.115 123.057 C 230.209 121.027 233.232 117.283 234.182 111.827 C 235.032 106.937 234.166 102.893 231.585 99.699 C 229.241 96.804 226.609 94.94 223.689 94.108 C 221.175 93.377 219.138 93.476 217.576 94.408 C 216.421 95.106 215.708 94.924 215.437 93.859 C 215.232 93.193 215.215 92.279 215.386 91.113 L 216.709 86.572 C 217.525 84.21 218.119 82.846 218.493 82.479 C 218.9 82.08 218.646 81.281 217.728 80.083 C 216.811 78.853 215.827 78.054 214.774 77.687 L 211.819 76.888 C 210.835 76.855 209.832 77.339 208.813 78.337 C 204.432 82.661 201.886 88.668 201.172 96.354 C 200.459 104.042 201.852 110.563 205.349 115.92 C 207.251 118.848 209.815 121.077 213.041 122.608 C 217.05 124.538 221.074 124.687 225.115 123.057" style="" transform="matrix(-1, 0, 0, -1, 435.488754, 201.063339)"/>
    <path fill="#fff3c2" d="M 206.097 127.319 C 212.55 127.054 217.781 128.633 221.788 132.061 C 222.637 132.759 223.775 132.044 225.2 129.915 C 226.628 127.752 226.899 126.303 226.015 125.572 C 218.816 119.616 210.037 117.286 199.679 118.585 C 189.762 119.816 182.393 123.692 177.571 130.214 C 178.216 130.013 179.455 130.23 181.289 130.862 C 183.022 131.462 184.108 131.978 184.55 132.41 C 185.535 133.308 186.485 134.473 187.402 135.903 C 192.564 130.481 198.796 127.618 206.097 127.319" style="" transform="matrix(-1, 0, 0, -1, 404.093323, 254.139252)"/>
    <path fill="#cc5d00" d="M 226.771 123.399 C 226.228 125.195 226.381 125.412 227.229 124.047 C 228.078 122.684 228.538 121.553 228.605 120.653 C 228.741 119.057 227.331 117.427 224.377 115.763 C 221.185 113.967 218.603 114.098 216.634 116.162 C 216.294 116.528 216.107 117.128 216.074 117.96 C 216.04 118.824 216.294 118.873 216.838 118.109 C 218.23 116.079 220.404 115.912 223.358 117.609 C 226.313 119.305 227.451 121.237 226.771 123.399" style="" transform="matrix(-1, 0, 0, -1, 444.684967, 239.438744)"/>
    <path fill="#fff3c2" d="M 184.822 144.529 L 180.084 140.235 L 179.575 142.481 C 179.234 143.279 178.64 144.162 177.791 145.126 C 176.704 146.358 175.007 147.29 172.697 147.922 C 170.66 148.487 168.741 148.704 166.941 148.57 C 171.628 151.432 175.669 153.678 179.065 155.309 C 181.34 156.439 183.479 156.705 185.483 156.107 C 187.996 155.376 189.134 153.312 188.896 149.918 C 188.829 149.02 187.47 147.222 184.822 144.529" style="" transform="matrix(-1, 0, 0, -1, 355.867874, 296.65242)"/>
    <path fill="#cc5d00" d="M 179.018 151.127 C 178.101 151.194 177.32 152.209 176.674 154.173 C 176.098 155.969 175.927 157.45 176.164 158.614 C 176.539 160.411 178.338 162.308 181.565 164.304 C 184.147 165.934 186.744 167.149 189.358 167.948 L 194.3 168.447 L 197.764 167.898 C 200.685 167.033 202.621 165.502 203.572 163.306 C 204.421 161.376 204.353 159.646 203.369 158.115 C 202.145 156.252 200.464 154.255 198.324 152.127 C 196.151 149.963 194.521 148.715 193.434 148.382 L 190.633 148.232 C 189.852 148.433 189.325 148.781 189.054 149.281 L 186.557 148.683 L 183.603 148.433 C 183.194 148.465 182.499 148.915 181.515 149.78 C 180.562 150.612 179.73 151.062 179.018 151.127" style="" transform="matrix(-1, 0, 0, -1, 380.222321, 316.679001)"/>
    <path fill="#cc5d00" d="M 190.718 148.688 C 190.072 152.516 187.627 154.911 183.382 155.875 L 175.894 156.075 C 175.317 155.943 175.367 156.027 176.046 156.326 L 177.677 156.924 C 180.801 157.623 183.722 157.34 186.439 156.075 C 189.393 154.679 191.125 152.415 191.634 149.287 C 191.805 148.39 191.719 147.89 191.38 147.791 C 191.041 147.657 190.819 147.957 190.718 148.688" style="" transform="matrix(-1, 0, 0, -1, 367.215439, 305.057129)"/>
    <path fill="#fbd6a0" d="M 172.413 142.828 C 175.402 141.364 176.709 140.617 176.335 140.583 C 176.098 140.549 175.724 140.167 175.215 139.434 C 174.671 138.67 174.349 137.972 174.247 137.338 C 174.077 136.273 172.634 136.141 169.916 136.94 C 167.133 137.738 166.13 138.47 166.911 139.135 C 168.406 140.499 168.915 142.08 168.44 143.877 C 168.269 144.543 169.594 144.193 172.413 142.828" style="" transform="matrix(-1, 0, 0, -1, 343.051941, 280.630341)"/>
    <path fill="#0d131a" d="M 167.815 144.783 C 168.493 145.147 169.02 145.248 169.394 145.082 C 169.734 144.915 169.58 144.633 168.936 144.234 C 167.474 143.402 166.677 142.104 166.542 140.34 C 166.508 139.775 166.287 139.459 165.879 139.391 C 165.471 139.292 165.267 139.541 165.267 140.14 C 165.267 142.269 166.117 143.817 167.815 144.783" style="" transform="matrix(-1, 0, 0, -1, 334.83667, 284.529419)"/>
    <path fill="#0d131a" d="M 191.707 160.643 C 187.767 156.916 182.944 151.409 177.239 144.121 C 175.371 141.759 173.163 140.96 170.617 141.726 C 168.579 142.358 167.271 143.339 166.694 144.67 C 166.015 146.334 166.084 148.015 166.899 149.712 C 167.68 151.275 168.715 152.29 170.006 152.756 L 171.381 152.906 C 171.484 152.707 171.245 152.457 170.669 152.158 C 169.038 151.258 168.052 150.028 167.714 148.464 C 167.442 147.067 167.697 145.785 168.478 144.62 C 169.293 143.423 170.363 142.79 171.687 142.725 C 173.215 142.691 174.692 143.473 176.118 145.07 L 182.894 153.405 C 185.916 157.165 188.447 159.977 190.484 161.84 C 191.468 162.739 192.115 163.67 192.42 164.636 C 192.896 166.032 192.572 167.33 191.453 168.528 C 191.35 168.627 191.419 168.862 191.656 169.226 L 192.165 169.676 C 193.592 168.345 194.219 166.798 194.05 165.035 C 193.881 163.437 193.099 161.974 191.707 160.643" style="" transform="matrix(-1, 0, 0, -1, 360.308441, 311.120773)"/>
    <path fill="#0d131a" d="M 192.412 157.136 C 191.359 158.801 191.12 160.714 191.698 162.876 C 192.412 165.605 194.381 167.552 197.607 168.716 L 198.779 168.766 C 199.051 168.632 198.898 168.416 198.32 168.117 C 195.094 166.487 193.328 164.407 193.022 161.878 C 192.784 160.014 193.26 158.35 194.449 156.887 C 195.196 155.955 196.182 155.439 197.403 155.34 C 198.355 155.273 199.373 155.472 200.461 155.94 C 200.936 156.138 201.275 156.138 201.479 155.94 C 201.683 155.772 201.512 155.506 200.97 155.141 C 199.883 154.475 198.592 154.192 197.097 154.292 C 195.094 154.425 193.532 155.374 192.412 157.136" style="" transform="matrix(-1, 0, 0, -1, 392.953491, 323.038437)"/>
    <path fill="#0d131a" d="M 203.726 165.704 C 203.658 166.237 203.879 166.486 204.389 166.452 C 204.899 166.42 205.153 166.087 205.153 165.454 C 205.153 163.592 204.236 161.977 202.402 160.614 L 192.163 155.573 C 185.235 152.146 181.057 149.949 179.631 148.985 C 176.438 146.821 175.131 144.259 175.709 141.298 C 176.218 138.602 177.441 137.289 179.376 137.355 C 179.58 137.355 179.801 137.188 180.039 136.856 C 180.276 136.556 180.276 136.406 180.039 136.406 C 178.137 136.341 176.592 136.871 175.403 138.004 C 174.35 139.069 173.773 140.432 173.672 142.097 C 173.4 146.09 175.25 148.951 179.223 150.68 L 200.721 161.362 L 203.065 163.109 C 203.607 163.84 203.829 164.706 203.726 165.704" style="" transform="matrix(-1, 0, 0, -1, 378.798843, 302.855743)"/>
    <path fill="#cc5d00" d="M 115.366 165.702 L 121.886 164.553 C 125.384 164.055 127.863 163.439 129.323 162.707 C 131.769 161.476 133.145 159.962 133.45 158.166 L 133.399 156.868 C 133.296 156.468 133.314 156.036 133.45 155.569 C 133.892 153.973 133.551 152.326 132.43 150.629 C 131.277 148.798 129.816 147.949 128.05 148.083 L 125.961 146.735 L 122.497 146.436 C 120.29 146.935 117.369 148.1 113.736 149.93 C 109.762 152.059 106.926 153.523 105.228 154.322 C 104.481 154.655 104.26 155.919 104.566 158.115 C 104.939 160.444 105.84 162.242 107.266 163.505 C 108.216 164.337 109.541 165.004 111.239 165.502 L 115.366 165.702" style="" transform="matrix(-1, 0, 0, -1, 238.069908, 312.138)"/>
    <path fill="#fff3c2" d="M 148.181 146.357 C 146.856 144.061 146.448 141.45 146.958 138.522 C 145.327 139.653 141.235 141.383 134.681 143.712 L 125.308 147.156 C 123.304 150.251 124.239 153.145 128.109 155.84 C 129.501 156.806 130.894 157.454 132.286 157.787 C 133.68 158.12 134.376 157.987 134.376 157.388 L 134.171 156.041 C 134.137 155.741 134.307 155.509 134.681 155.341 C 136.412 154.609 140.268 153.678 146.245 152.547 C 151.746 151.516 154.922 150.717 155.771 150.151 C 155.057 150.35 153.767 149.984 151.9 149.053 C 149.929 148.122 148.69 147.222 148.181 146.357" style="" transform="matrix(-1, 0, 0, -1, 280.053993, 296.487473)"/>
    <path fill="#cc5d00" d="M 133.195 157.149 L 128.915 156.551 C 126.877 155.985 125.418 155.136 124.534 154.004 C 122.836 151.908 122.36 149.43 123.107 146.568 C 123.176 146.201 123.023 146.068 122.649 146.168 C 122.242 146.269 121.97 146.552 121.835 147.017 C 121.563 147.816 121.511 148.881 121.682 150.212 C 121.885 151.809 122.377 153.123 123.158 154.154 C 124.245 155.553 125.758 156.551 127.692 157.149 C 129.493 157.748 131.275 157.898 133.042 157.599 L 134.112 157.349 L 133.195 157.149" style="" transform="matrix(-1, 0, 0, -1, 255.695488, 303.884155)"/>
    <path fill="#fbd6a0" d="M 152.238 143.682 C 152.136 142.219 152.374 141.203 152.95 140.638 C 153.222 140.371 153.188 140.055 152.849 139.688 C 152.475 139.324 151.949 139.058 151.27 138.891 L 147.348 138.74 C 145.785 138.873 145.072 139.124 145.208 139.49 L 145.563 140.538 C 145.735 141.104 145.735 141.536 145.563 141.835 C 145.36 142.235 146.43 142.734 148.774 143.333 C 151.117 143.931 152.272 144.048 152.238 143.682" style="" transform="matrix(-1, 0, 0, -1, 298.323074, 282.630127)"/>
    <path fill="#0d131a" d="M 112.479 166.705 C 112.92 166.606 112.936 166.473 112.529 166.306 C 110.966 165.641 110.016 164.31 109.676 162.312 C 109.337 160.284 109.931 159.07 111.459 158.67 C 115.534 157.538 121.019 155.409 127.912 152.28 C 131.853 150.517 137.405 147.855 144.57 144.296 C 148.069 142.564 151.04 142.498 153.485 144.095 C 156.067 145.76 155.779 148.304 152.62 151.731 C 152.077 152.331 151.924 152.68 152.161 152.78 C 152.433 152.846 152.943 152.53 153.69 151.832 C 155.523 150.136 156.475 148.421 156.542 146.691 C 156.611 145.094 155.999 143.763 154.709 142.698 C 153.384 141.633 151.737 141.084 149.767 141.051 C 147.627 140.984 145.522 141.55 143.451 142.748 C 128.61 150.136 117.793 154.81 111.001 156.773 C 108.895 157.371 107.927 159.07 108.097 161.864 C 108.266 164.593 109.337 166.19 111.307 166.655 L 112.479 166.705" style="" transform="matrix(-1, 0, 0, -1, 264.625214, 307.750671)"/>
    <path fill="#0d131a" d="M 128.67 151.743 C 134.681 151.145 139.113 150.029 141.966 148.398 C 145.192 146.535 146.296 144.074 145.277 141.012 C 145.04 140.347 144.786 140.114 144.514 140.313 C 144.242 140.513 144.139 140.779 144.208 141.111 C 145.023 144.006 143.341 146.22 139.165 147.75 C 137.33 148.416 133.799 149.148 128.569 149.946 L 115.833 152.491 C 109.823 153.856 105.916 154.888 104.116 155.586 C 103.946 155.652 103.845 155.935 103.811 156.434 C 103.777 156.967 103.794 157.217 103.862 157.184 C 105.22 156.485 109.262 155.437 115.986 154.039 L 128.67 151.743" style="" transform="matrix(-1, 0, 0, -1, 249.437843, 297.431137)"/>
    <path fill="#0d131a" d="M 105.1 164.387 C 108.054 163.389 109.837 161.726 110.448 159.397 C 110.891 157.665 110.686 156.051 109.837 154.554 C 109.125 153.29 108.123 152.425 106.832 151.959 L 104.489 151.56 C 104.15 151.494 103.911 151.577 103.776 151.809 C 103.639 152.043 103.809 152.225 104.284 152.358 C 106.493 152.958 107.952 153.939 108.666 155.303 C 109.379 156.734 109.447 158.181 108.869 159.646 C 108.292 161.176 107.122 162.44 105.355 163.438 C 104.98 163.639 104.709 163.889 104.54 164.188 C 104.37 164.487 104.556 164.553 105.1 164.387" style="" transform="matrix(-1, 0, 0, -1, 214.405426, 316.014099)"/>
    <path fill="#0d131a" d="M 153.921 143.732 C 154.159 143.333 154.33 142.751 154.431 141.985 C 154.534 141.054 154.431 140.239 154.125 139.539 L 153.26 138.692 C 152.955 138.626 152.869 138.874 153.006 139.441 C 153.378 140.938 153.277 142.119 152.699 142.983 C 152.462 143.35 152.546 143.7 152.955 144.032 C 153.327 144.331 153.65 144.233 153.921 143.732" style="" transform="matrix(-1, 0, 0, -1, 307.037628, 282.882187)"/>
    <path fill="#0d131a" d="M 145.986 141.692 C 145.476 140.894 145.137 140.061 144.967 139.197 C 144.729 138.032 144.848 137.1 145.324 136.402 C 145.73 135.802 145.764 135.47 145.426 135.404 C 145.086 135.336 144.729 135.519 144.356 135.953 C 143.948 136.451 143.676 137.15 143.541 138.049 C 143.404 139.147 143.608 140.078 144.151 140.843 C 144.729 141.709 145.324 142.275 145.936 142.541 C 146.512 142.841 146.53 142.558 145.986 141.692" style="" transform="matrix(-1, 0, 0, -1, 289.881088, 278.046967)"/>
    <path fill="#fff3c2" d="M 140.365 92.535 L 136.137 91.137 C 134.032 90.804 131.994 91.236 130.023 92.434 C 129.141 93 128.206 93.981 127.222 95.38 C 126.271 96.71 125.592 97.958 125.183 99.123 C 121.448 101.253 119.037 103.398 117.95 105.561 C 116.185 109.155 114.384 114.744 112.551 122.331 C 110.819 129.386 110.139 133.096 110.513 133.463 C 111.226 134.227 112.212 134.876 113.468 135.408 C 115.199 136.14 116.168 135.741 116.371 134.211 C 116.779 131.249 119.191 126.124 123.605 118.838 C 127.952 111.684 130.821 107.974 132.214 107.708 C 135.305 107.175 137.886 106.343 139.957 105.212 C 142.335 103.882 143.745 102.251 144.186 100.321 C 144.695 98.09 144.592 96.344 143.88 95.079 C 143.234 94.015 142.063 93.166 140.365 92.535" style="" transform="matrix(-1, 0, 0, -1, 254.917183, 226.791618)"/>
    <path fill="#0d131a" d="M 140.251 111.139 C 140.863 109.674 140.829 109.109 140.15 109.442 C 137.16 111.072 134.937 112.703 133.476 114.332 C 130.318 117.86 128.739 122.402 128.739 127.959 C 128.739 128.324 128.857 128.625 129.095 128.857 C 129.332 129.123 129.469 129.041 129.503 128.607 C 130.08 125.047 130.963 122.053 132.152 119.623 C 134.02 115.797 136.719 112.969 140.251 111.139" style="" transform="matrix(-1, 0, 0, -1, 269.424942, 238.358665)"/>
    <path fill="#0d131a" d="M 134.417 93.274 C 135.946 93.473 136.981 94.639 137.524 96.768 C 138.102 99.03 137.626 100.994 136.098 102.656 C 134.773 104.155 132.854 105.252 130.342 105.951 C 127.557 106.717 125.57 107.598 124.382 108.597 C 120.985 111.492 117.59 116.183 114.193 122.671 C 111.477 127.93 109.913 131.672 109.507 133.901 C 109.404 134.368 109.558 134.65 109.965 134.75 C 110.339 134.817 110.576 134.7 110.678 134.401 C 111.867 130.108 114.244 125.234 117.81 119.776 C 120.867 115.151 123.516 111.856 125.758 109.894 C 126.436 109.329 128.236 108.563 131.156 107.598 C 134.01 106.7 136.115 105.585 137.474 104.254 C 139.138 102.623 139.868 100.577 139.665 98.114 C 139.427 95.188 137.524 93.307 133.958 92.475 C 133.483 92.342 133.313 92.426 133.449 92.725 C 133.585 93.024 133.907 93.207 134.417 93.274" style="" transform="matrix(-1, 0, 0, -1, 249.174126, 227.182114)"/>
    <path fill="#fff3c2" d="M 141.904 91.989 C 137.558 95.483 135.213 99.692 134.875 104.616 C 134.738 106.58 136.488 110.956 140.121 117.743 C 144.197 125.363 146.659 131.485 147.508 136.111 C 147.881 138.174 149.648 139.638 152.806 140.503 C 154.843 141.035 157.306 141.302 160.193 141.302 C 161.992 141.302 164.693 140.187 168.292 137.958 C 171.823 135.795 174.354 133.749 175.881 131.819 C 178.327 128.724 180.162 124.448 181.384 118.99 C 183.014 111.471 182.233 104.866 179.041 99.176 C 175.881 93.554 172.18 89.91 167.935 88.246 C 165.422 87.282 161.414 86.831 155.913 86.898 C 150.717 86.931 146.047 88.628 141.904 91.989" style="" transform="matrix(-1, 0, 0, -1, 317.078033, 228.193504)"/>
    <path fill="#fbd6a0" d="M 140.94 141.813 C 142.537 139.117 145.593 136.689 150.11 134.526 C 154.593 132.43 158.957 131.315 163.202 131.181 C 167.075 131.049 170.741 131.614 174.205 132.878 C 176.99 133.91 179.401 135.291 181.439 137.021 C 175.903 130.034 169.723 126.689 162.896 126.988 C 157.191 127.221 152.334 128.72 148.327 131.481 C 144.455 134.176 141.994 137.62 140.94 141.813" style="" transform="matrix(-1, 0, 0, -1, 322.378998, 268.782578)"/>
    <path fill="#0d131a" d="M 129.593 130.222 C 129.696 127.36 128.507 125.414 126.026 124.383 C 123.513 123.351 120.865 123.584 118.08 125.081 C 115.126 126.678 113.376 129.107 112.834 132.368 C 112.765 132.9 112.884 133.216 113.19 133.317 C 113.495 133.449 113.631 133.284 113.597 132.817 C 113.528 131.154 114.717 129.341 117.163 127.376 C 119.812 125.247 122.359 124.683 124.804 125.68 C 127.283 126.678 128.302 128.391 127.86 130.821 C 127.454 133.249 125.925 134.964 123.275 135.962 C 122.766 136.162 122.631 136.344 122.869 136.511 C 123.141 136.677 123.513 136.677 123.99 136.511 C 127.623 135.346 129.491 133.249 129.593 130.222" style="" transform="matrix(-1, 0, 0, -1, 242.414169, 260.386993)"/>
    <path fill="#fbd6a0" d="M 143.367 96.773 L 151.873 97.322 C 156.492 97.354 158.836 96.906 158.903 95.974 C 159.006 94.643 158.7 93.661 157.986 93.029 C 157.239 92.397 155.949 92.048 154.116 91.981 L 148.868 92.629 L 142.959 94.178 C 141.703 94.543 141.074 94.992 141.074 95.524 C 141.074 96.056 141.838 96.473 143.367 96.773" style="" transform="matrix(-1, 0, 0, -1, 299.99646, 189.304604)"/>
    <path fill="#0d131a" d="M 135.482 100.026 C 139.964 98.261 144.616 97.779 149.439 98.577 C 154.634 99.409 158.829 101.606 162.021 105.166 C 164.875 108.293 166.76 111.588 167.676 115.049 C 169.375 121.638 168.44 129.672 164.875 139.155 C 164.161 141.119 163.94 142.201 164.212 142.4 C 164.518 142.699 165.096 141.968 165.944 140.203 C 169.204 133.284 170.733 126.528 170.529 119.939 C 170.291 113.085 168.151 107.628 164.11 103.569 C 160.408 99.909 155.943 97.664 150.713 96.832 C 145.415 95.999 140.27 96.781 135.277 99.177 C 134.598 99.51 134.293 99.792 134.36 100.026 C 134.428 100.292 134.801 100.292 135.482 100.026" style="" transform="matrix(-1, 0, 0, -1, 304.897964, 238.974831)"/>
    <path fill="#0d131a" d="M 180.097 93.086 C 180.403 92.921 180.538 92.704 180.504 92.438 C 180.438 92.206 180.2 92.155 179.791 92.288 C 176.871 93.321 174.494 94.934 172.661 97.13 C 170.758 99.393 169.738 101.922 169.604 104.716 C 169.434 109.274 170.656 113.783 173.27 118.242 C 177.074 124.698 179.825 130.919 181.524 136.91 C 181.863 138.141 182.22 138.506 182.594 138.007 C 182.967 137.507 183.104 136.975 183.001 136.409 C 181.847 130.387 179.469 124.415 175.869 118.492 C 172.949 113.734 171.608 109.241 171.845 105.015 C 172.15 99.725 174.901 95.749 180.097 93.086" style="" transform="matrix(-1, 0, 0, -1, 352.622635, 230.438858)"/>
    <path fill="#0d131a" d="M 220.157 109.891 C 220.972 110.622 221.311 110.489 221.176 109.491 C 221.006 108.493 220.648 107.827 220.106 107.495 C 215.147 104.466 210.07 102.903 204.874 102.802 C 200.155 102.703 195.825 103.835 191.884 106.197 C 188.114 108.459 185.279 111.504 183.378 115.33 C 181.441 119.29 180.864 123.466 181.645 127.859 C 181.713 128.258 181.916 128.207 182.256 127.709 C 182.631 127.176 182.816 126.478 182.816 125.613 C 182.783 120.689 184.175 116.463 186.994 112.935 C 189.507 109.807 192.869 107.544 197.081 106.147 C 201.088 104.816 205.197 104.466 209.408 105.099 C 213.721 105.764 217.304 107.361 220.157 109.891" style="" transform="matrix(-1, 0, 0, -1, 402.513016, 230.920616)"/>
    <path fill="#0d131a" d="M 190.241 134.144 C 195.843 137.704 201.448 138.053 207.052 135.192 C 212.417 132.43 215.304 128.071 215.712 122.115 C 216.085 117.191 215.032 113.147 212.553 109.986 C 210.719 107.624 208.528 105.976 205.981 105.045 C 203.299 104.047 200.548 103.998 197.728 104.895 C 194.367 105.96 192.686 108.555 192.686 112.682 C 192.686 116.642 194.096 119.637 196.915 121.666 C 197.559 122.165 198.034 122.398 198.34 122.365 C 198.646 122.297 198.425 121.832 197.679 120.966 C 195.234 118.104 194.197 115.26 194.571 112.432 C 194.944 109.87 196.286 108.039 198.594 106.942 C 200.395 106.11 202.313 106.01 204.352 106.643 C 206.661 107.374 208.732 108.955 210.567 111.384 C 213.147 114.677 214.014 118.572 213.164 123.064 C 212.315 127.621 210.006 131 206.237 133.195 C 201.549 135.957 196.643 135.641 191.515 132.247 C 186.013 128.62 183.024 122.863 182.549 114.978 C 182.04 106.892 183.55 99.837 187.082 93.814 C 190.241 88.392 194.724 84.216 200.531 81.288 C 205.965 78.592 211.754 77.345 217.903 77.543 C 224.083 77.743 229.518 79.391 234.203 82.484 C 234.95 82.984 235.476 82.984 235.782 82.484 C 236.088 82.019 235.885 81.571 235.171 81.138 C 228.888 77.378 222.25 75.532 215.252 75.597 C 208.631 75.664 202.501 77.41 196.863 80.837 C 191.192 84.298 186.845 88.941 183.822 94.763 C 180.596 100.986 179.323 107.823 180.001 115.277 C 180.782 123.994 184.196 130.283 190.241 134.144" style="" transform="matrix(-1, 0, 0, -1, 415.744202, 212.699715)"/>
    <path fill="#0d131a" d="M 190.816 64.293 C 199.885 63.097 206.881 60.998 211.806 58.004 C 212.994 57.305 209.173 51.233 200.343 39.787 C 191.445 28.341 186.743 22.933 186.232 23.565 C 183.039 27.692 180.051 34.247 177.267 43.232 C 174.142 53.413 173.769 60.217 176.146 63.645 C 177.267 65.241 182.158 65.459 190.816 64.293" style="" transform="matrix(-1, 0, 0, -1, 386.622528, 88.545601)"/>
    <path fill="#0d131a" d="M 144.538 42.434 C 146.88 41.501 148.681 36.626 149.937 27.809 C 151.228 18.691 150.821 11.722 148.715 6.896 C 148.036 5.299 141.497 7.378 129.102 13.135 C 116.639 18.957 110.745 22.303 111.426 23.167 C 115.569 28.391 121.902 33.199 130.426 37.591 C 138.034 41.518 142.738 43.132 144.538 42.434" style="" transform="matrix(-1, 0, 0, -1, 262.046219, 48.96771)"/>
    <path fill="#f29739" d="M 119.403 25.987 C 121.134 28.183 124.105 30.678 128.316 33.474 C 132.46 36.169 135.092 37.417 136.212 37.217 C 137.537 36.951 138.352 34.039 138.658 28.482 C 138.963 22.859 138.437 18.749 137.078 16.154 C 136.67 15.322 133.429 16.504 127.349 19.698 C 121.236 22.859 118.587 24.956 119.403 25.987" style="" transform="matrix(-1, 0, 0, -1, 258.000816, 53.133921)"/>
    <path fill="#f29739" d="M 191.89 55.427 C 198.546 53.796 201.909 52.531 201.978 51.633 C 202.044 50.568 200.126 47.059 196.22 41.101 C 192.213 34.978 189.683 32.35 188.63 33.215 C 187.068 34.513 185.166 38.273 182.923 44.495 C 180.615 50.918 179.903 54.843 180.784 56.275 C 181.464 57.34 185.166 57.056 191.89 55.427" style="" transform="matrix(-1, 0, 0, -1, 382.398285, 89.960186)"/>
    <path fill="#0d131a" d="M 181.675 85.144 C 187.313 87.539 190.793 88.954 192.118 89.386 C 193.477 89.851 194.394 89.618 194.869 88.688 C 195.344 87.755 194.869 86.824 193.443 85.892 C 182.88 78.838 176.072 74.197 173.015 71.967 L 174.339 68.424 C 175.188 65.861 175.409 63.133 175.002 60.238 L 187.736 59.44 C 194.36 58.939 198.808 58.391 201.084 57.792 C 202.034 57.526 202.511 56.927 202.511 55.996 C 202.477 55.063 201.933 54.498 200.88 54.299 L 172.506 51.603 C 169.992 45.913 166.171 40.922 161.044 36.63 C 155.27 31.838 148.478 28.478 140.667 26.547 C 126.709 23.12 114.55 22.554 104.193 24.851 C 92.748 27.379 85.532 33.102 82.543 42.021 C 79.283 51.57 81.303 61.453 88.604 71.667 C 95.838 81.816 105.856 88.92 118.66 92.98 C 128.576 96.141 138.187 96.34 147.493 93.578 C 156.323 90.95 163.37 86.191 168.633 79.303 C 171.012 80.535 175.358 82.481 181.675 85.144" style="" transform="matrix(-1, 0, 0, -1, 283.544426, 118.978874)"/>
    <path fill="#fff3c2" d="M 156.382 89.759 C 158.42 91.222 159.744 92.537 160.356 93.702 C 160.695 94.367 161.137 94.716 161.681 94.749 C 162.223 94.782 162.393 94.483 162.19 93.852 C 161.171 90.824 159.456 88.261 157.045 86.166 C 155.074 84.434 153.054 83.32 150.981 82.82 C 147.655 81.956 144.173 81.772 140.538 82.271 C 137.075 82.772 133.78 83.802 130.657 85.367 C 130.079 85.698 130.062 86.098 130.606 86.563 C 131.115 87.063 131.692 87.23 132.337 87.063 L 139.062 85.715 L 148.69 86.115 C 151.407 86.847 153.97 88.062 156.382 89.759" style="" transform="matrix(-1, 0, 0, -1, 292.483246, 176.748886)"/>
    <path fill="#fff3c2" d="M 191.342 87.983 C 191.819 88.184 192.157 88.133 192.362 87.834 C 192.6 87.568 192.463 87.252 191.953 86.885 L 169.335 72.461 C 169.132 72.361 169.063 72.228 169.132 72.062 C 169.913 70.365 170.491 68.901 170.863 67.669 C 171.747 65.074 171.933 62.03 171.423 58.536 L 171.729 58.337 L 186.045 57.788 L 198.881 56.589 C 199.458 56.49 199.765 56.29 199.799 55.99 C 199.833 55.658 199.561 55.474 198.983 55.442 L 170.201 53.395 L 169.947 53.195 C 167.909 47.571 164.445 42.597 159.554 38.272 C 154.019 33.381 147.379 29.987 139.636 28.09 C 126.222 24.828 114.472 24.413 104.385 26.842 C 93.721 29.404 87.013 34.762 84.264 42.913 C 81.206 52.03 83.16 61.414 90.121 71.064 C 97.014 80.68 106.541 87.417 118.699 91.278 C 128.379 94.339 137.65 94.422 146.513 91.527 C 154.903 88.798 161.491 83.942 166.278 76.953 L 166.993 76.853 C 170.966 78.783 179.082 82.493 191.342 87.983" style="" transform="matrix(-1, 0, 0, -1, 282.666344, 118.924049)"/>
    <path fill="#0d131a" d="M 156.171 94.824 C 156.41 95.191 156.697 95.307 157.037 95.174 C 157.377 95.041 157.462 94.791 157.291 94.425 C 154.846 89.601 151.042 86.406 145.882 84.842 C 141.467 83.478 136.779 83.444 131.821 84.743 L 130.598 85.341 C 130.089 85.641 130.02 85.758 130.395 85.692 C 136.235 84.526 141.415 84.759 145.931 86.39 C 150.347 87.986 153.76 90.798 156.171 94.824" style="" transform="matrix(-1, 0, 0, -1, 287.533875, 179.020493)"/>
    <path fill="#ffffff" d="M 120.914 44.761 C 120.202 46.989 120.321 49.934 121.271 53.594 C 122.392 57.954 124.379 60.516 127.232 61.28 C 129.948 61.978 132.717 61.331 135.535 59.333 C 138.626 57.171 140.595 54.059 141.444 50.001 C 141.988 47.406 141.479 44.842 139.916 42.315 C 138.489 40.019 136.843 38.671 134.974 38.271 C 132.326 37.64 129.914 37.589 127.741 38.122 C 124.379 38.986 122.103 41.2 120.914 44.761" style="" transform="matrix(-1, 0, 0, -1, 262.111244, 99.30835)"/>
    <path fill="#fff3c2" d="M 192.668 63.087 C 191.684 63.019 191.225 63.353 191.293 64.084 C 191.361 64.783 191.87 65.382 192.821 65.881 C 193.602 66.313 201.057 67.462 215.185 69.325 L 237.752 72.12 C 239.314 72.22 239.993 71.071 239.79 68.676 C 239.62 66.248 239.008 64.983 237.956 64.883 L 192.668 63.087" style="" transform="matrix(-1, 0, 0, -1, 431.11145, 135.20438)"/>
    <path fill="#fff3c2" d="M 225.734 102.217 C 227.365 102.782 228.588 101.967 229.403 99.771 C 230.218 97.608 230.184 96.261 229.3 95.728 C 228.622 95.295 221.405 92.4 207.651 87.044 L 186.204 78.858 C 184.234 78.491 183.453 78.923 183.861 80.156 C 184.132 80.888 191.077 84.73 204.695 91.685 C 217.465 98.206 224.478 101.717 225.734 102.217" style="" transform="matrix(-1, 0, 0, -1, 413.745667, 181.122086)"/>
    <path fill="#922f00" d="M 132 78.889 C 130.405 79.289 132.732 80.22 138.98 81.684 C 145.127 83.115 148.149 83.332 148.048 82.333 C 147.334 76.277 145.585 71.287 142.8 67.36 C 142.631 70.853 140.984 73.749 137.858 76.044 C 135.991 77.443 134.039 78.391 132 78.889" style="" transform="matrix(-1, 0, 0, -1, 279.563965, 150.308685)"/>
    <path fill="#ed8599" d="M 147.741 86.336 L 156.553 89.481 C 158.795 90.113 161.342 89.215 164.195 86.785 C 167.183 84.323 168.796 81.545 169.035 78.451 C 169.136 77.152 168.474 75.955 167.047 74.856 C 165.858 74.025 164.058 73.176 161.648 72.312 C 157.878 70.981 153.259 71.73 147.791 74.557 C 142.663 77.22 139.098 80.33 137.094 83.891 C 136.482 85.021 136.838 85.439 138.163 85.138 C 140.371 84.606 143.564 85.004 147.741 86.336" style="" transform="matrix(-1, 0, 0, -1, 305.848862, 161.34993)"/>
    <path fill="#fff3c2" d="M 169.062 38.667 C 170.455 39.299 174.225 33.993 180.371 22.746 C 186.248 12.032 189.253 5.992 189.389 4.627 C 189.491 3.863 188.233 2.531 185.619 0.634 C 183.038 -1.228 181.578 -1.845 181.237 -1.212 C 180.356 0.552 177.995 7.223 174.158 18.802 C 169.912 31.613 168.215 38.234 169.062 38.667" style="" transform="matrix(-1, 0, 0, -1, 358.24527, 37.264956)"/>
    <path fill="#fff3c2" d="M 143.962 -7.129 C 143.589 -6.264 143.011 -0.141 142.23 11.239 C 141.415 22.784 141.195 28.99 141.568 29.855 C 141.738 30.222 142.112 30.272 142.69 30.006 C 143.299 29.771 143.656 29.323 143.759 28.658 L 151.654 -7.928 C 151.757 -8.727 150.704 -9.225 148.497 -9.425 C 146.222 -9.624 144.709 -8.859 143.962 -7.129" style="" transform="matrix(-1, 0, 0, -1, 293.052994, 20.718052)"/>
    <path fill="#0d131a" d="M 141.19 6.417 L 140.477 25.882 C 140.41 27.08 140.936 27.763 142.055 27.928 C 143.177 28.095 143.925 27.496 144.297 26.132 L 148.373 9.062 L 152.449 -8.557 C 152.72 -9.987 152.499 -10.752 151.786 -10.853 C 151.073 -10.953 150.564 -10.287 150.258 -8.855 L 143.534 22.24 C 143.126 23.969 142.787 24.934 142.515 25.134 C 142.175 25.333 142.073 24.585 142.209 22.887 C 142.718 8.414 143.177 -1.868 143.585 -7.958 C 143.653 -8.956 143.313 -9.238 142.566 -8.806 L 141.546 -8.307 L 141.19 6.417" style="" transform="matrix(-1, 0, 0, -1, 293.032288, 17.092518)"/>
    <path fill="#0d131a" d="M 165.419 35.651 C 164.944 37.813 165.369 39.145 166.692 39.644 C 167.948 40.142 169.138 39.644 170.259 38.146 C 171.312 36.682 174.759 30.693 180.599 20.178 C 186.238 10.063 189.566 3.94 190.584 1.811 C 190.958 0.978 190.839 0.331 190.229 -0.137 C 189.582 -0.569 189.107 -0.453 188.801 0.214 C 178.714 19.513 172.042 31.374 168.782 35.8 C 168.136 36.632 167.694 36.948 167.457 36.749 C 167.219 36.582 167.202 36.15 167.406 35.451 C 169.682 28.23 173.722 16.202 179.529 -0.635 C 180.04 -2.165 179.938 -2.981 179.226 -3.081 C 178.511 -3.147 177.951 -2.615 177.544 -1.485 L 171.38 16.983 C 167.61 28.496 165.623 34.719 165.419 35.651" style="" transform="matrix(-1, 0, 0, -1, 356.027847, 36.744226)"/>
    <path fill="#0d131a" d="M 196.093 62.381 C 194.634 62.415 193.802 62.947 193.597 63.978 C 193.394 64.943 193.886 65.725 195.074 66.324 C 197.521 67.521 205.077 69.003 217.744 70.766 C 230.004 72.463 237.237 73.178 239.445 72.912 C 240.532 72.778 241.074 72.48 241.074 72.014 C 241.074 71.582 240.565 71.349 239.548 71.315 C 234.928 71.182 227.1 70.333 216.063 68.77 C 205.093 67.239 198.777 66.108 197.112 65.375 C 196.399 65.076 195.975 64.76 195.839 64.427 C 195.67 64.028 196.145 63.811 197.265 63.779 L 216.471 64.726 L 239.394 65.725 C 240.549 65.725 241.194 65.408 241.33 64.777 C 241.431 64.177 240.786 63.828 239.394 63.729 L 196.093 62.381" style="" transform="matrix(-1, 0, 0, -1, 434.892792, 135.347095)"/>
    <path fill="#0d131a" d="M 229.034 96.811 L 230.715 96.711 C 230.953 96.312 230.782 95.98 230.206 95.714 L 188.738 79.593 C 187.72 79.226 186.989 79.476 186.548 80.341 C 186.107 81.238 186.327 82.088 187.21 82.886 C 189.079 84.483 195.565 88.16 206.67 93.916 C 217.198 99.374 223.548 102.485 225.722 103.25 C 226.537 103.549 227.046 103.466 227.251 103 C 227.455 102.535 227.2 102.168 226.486 101.902 C 224.211 100.937 218.778 98.292 210.185 93.966 C 200.438 89.043 193.628 85.415 189.758 83.085 C 188.943 82.586 188.501 82.137 188.433 81.739 L 190.42 81.788 L 208.301 88.726 C 219.235 93.085 226.147 95.78 229.034 96.811" style="" transform="matrix(-1, 0, 0, -1, 417.146378, 182.854691)"/>
    <path fill="#0d131a" d="M 140.015 61.272 C 139.812 62.07 139.93 62.403 140.372 62.27 L 141.187 61.62 C 142.24 58.061 141.849 54.867 140.015 52.038 C 138.521 49.709 136.585 48.178 134.208 47.447 C 131.491 46.58 128.758 46.714 126.007 47.846 C 123.018 49.077 120.929 51.14 119.74 54.035 C 119.706 54.168 119.791 54.351 119.995 54.584 C 120.2 54.85 120.352 54.867 120.454 54.633 C 121.88 51.706 123.935 49.725 126.618 48.694 C 128.927 47.83 131.355 47.779 133.903 48.545 C 136.211 49.21 137.977 50.641 139.199 52.837 C 140.524 55.267 140.796 58.077 140.015 61.272" style="" transform="matrix(-1, 0, 0, -1, 261.495667, 109.182026)"/>
    <path fill="#0d131a" d="M 168.927 89.269 C 169.028 89.867 169.3 90.2 169.743 90.267 C 170.218 90.3 170.421 90.034 170.354 89.468 C 169.571 83.213 167.976 78.105 165.564 74.145 C 163.391 70.685 160.895 68.538 158.077 67.706 C 153.662 66.409 148.772 67.107 143.406 69.803 C 138.244 72.365 134.1 75.959 130.976 80.583 C 130.772 80.883 130.942 80.999 131.485 80.933 C 131.995 80.9 132.385 80.683 132.657 80.285 C 134.83 76.924 138.344 73.946 143.201 71.35 C 148.806 68.322 153.662 67.54 157.771 69.004 C 161.575 70.369 164.445 73.546 166.38 78.537 C 167.161 80.567 168.01 84.144 168.927 89.269" style="" transform="matrix(-1, 0, 0, -1, 301.259003, 157.343422)"/>
    <path fill="#0d131a" d="M 134.902 53.707 C 138.434 51.743 140.862 48.731 142.186 44.672 C 142.323 44.307 142.22 43.991 141.881 43.724 C 141.541 43.458 141.303 43.592 141.167 44.124 C 140.284 47.384 138.297 49.979 135.208 51.91 C 132.355 53.672 129.825 54.188 127.616 53.457 C 125.24 52.658 123.49 50.628 122.371 47.367 C 121.283 44.307 121.012 40.963 121.555 37.335 C 121.623 37.002 121.521 36.803 121.249 36.737 C 121.012 36.637 120.858 36.737 120.791 37.036 C 119.975 40.63 120.18 44.323 121.402 48.116 C 122.692 51.976 124.56 54.322 127.005 55.154 C 129.247 55.886 131.879 55.404 134.902 53.707" style="" transform="matrix(-1, 0, 0, -1, 262.546371, 92.184486)"/>
    <path fill="#0d131a" d="M 185.228 54.963 C 182.036 59.189 178.267 61.668 173.919 62.401 C 169.062 63.232 164.867 61.518 161.336 57.26 C 161.03 56.927 160.792 56.876 160.622 57.109 C 160.419 57.343 160.437 57.659 160.674 58.058 C 163.629 62.95 167.739 65.112 173.002 64.546 C 178.232 64.014 182.528 61.036 185.89 55.612 C 186.195 55.08 186.247 54.747 186.043 54.615 C 185.806 54.481 185.534 54.598 185.228 54.963" style="" transform="matrix(-1, 0, 0, -1, 346.647064, 119.195362)"/>
    <path fill="#0d131a" d="M 131.854 72.428 C 132.093 73.492 133.484 74.157 136.032 74.423 C 138.545 74.69 139.921 74.39 140.158 73.526 C 140.396 72.761 140.091 71.562 139.241 69.931 C 138.426 68.335 137.748 67.52 137.204 67.487 C 136.728 67.42 135.693 68.118 134.096 69.583 C 132.5 71.046 131.753 71.995 131.854 72.428" style="" transform="matrix(-1, 0, 0, -1, 272.081207, 141.999931)"/>
    <path fill="#ffffff" d="M 133.061 71.513 C 133.23 72.213 134.165 72.661 135.863 72.861 C 137.526 73.028 138.444 72.828 138.613 72.262 C 138.749 71.731 138.545 70.932 138.002 69.867 C 137.459 68.802 137.016 68.253 136.678 68.22 C 136.338 68.187 135.641 68.652 134.589 69.617 C 133.502 70.615 132.992 71.247 133.061 71.513" style="" transform="matrix(-1, 0, 0, -1, 271.708649, 141.136368)"/>
    <path fill="#0d131a" d="M 160.618 80.402 C 160.652 81.366 162.028 81.948 164.744 82.148 C 167.427 82.38 168.82 82.231 168.922 81.7 C 169.092 80.901 168.668 79.686 167.648 78.055 C 166.664 76.591 165.917 75.792 165.407 75.66 C 165 75.593 164.1 76.242 162.707 77.606 C 161.315 79.004 160.618 79.935 160.618 80.402" style="" transform="matrix(-1, 0, 0, -1, 329.576477, 157.909225)"/>
    <path fill="#ffffff" d="M 162.176 79.264 C 162.176 79.962 163.06 80.413 164.825 80.612 C 166.592 80.845 167.508 80.662 167.576 80.062 C 167.645 79.497 167.321 78.698 166.608 77.667 C 165.929 76.703 165.419 76.187 165.079 76.119 C 164.807 76.053 164.247 76.468 163.399 77.368 C 162.55 78.299 162.143 78.931 162.176 79.264" style="" transform="matrix(-1, 0, 0, -1, 329.759232, 156.822067)"/>
    <path fill="#0d131a" d="M 143.372 67.128 L 154.784 71.52 C 158.995 72.851 163.665 73.849 168.794 74.515 C 170.287 74.715 171.273 75.463 171.748 76.761 C 171.883 77.227 172.087 77.377 172.359 77.211 C 172.631 77.077 172.715 76.761 172.614 76.262 C 172.376 75.297 171.833 74.482 170.983 73.816 C 170.235 73.251 169.557 72.968 168.945 72.968 L 162.679 71.87 L 155.14 70.024 C 152.118 68.559 149.061 67.277 145.971 66.179 C 139.926 64.05 135.104 63.301 131.503 63.934 C 130.926 64.035 130.247 64.333 129.466 64.833 L 127.989 66.23 C 127.717 66.63 127.683 66.913 127.887 67.078 C 128.057 67.277 128.362 67.228 128.804 66.929 C 130.027 66.13 130.977 65.681 131.657 65.581 C 135.019 65.082 138.924 65.598 143.372 67.128" style="" transform="matrix(-1, 0, 0, -1, 300.411148, 140.992916)"/>
    <path fill="#0d131a" d="M 133.809 51.754 C 134.522 49.591 134.998 47.694 135.235 46.064 C 135.473 44.434 135.404 43.552 135.031 43.418 C 134.657 43.286 134.081 43.951 133.3 45.416 C 132.518 46.879 131.772 48.693 131.058 50.855 C 130.345 52.985 129.869 54.882 129.63 56.545 C 129.393 58.176 129.461 59.041 129.836 59.141 C 130.208 59.274 130.786 58.609 131.567 57.144 C 132.348 55.714 133.096 53.916 133.809 51.754" style="" transform="matrix(-1, 0, 0, -1, 264.86557, 102.559227)"/>
    <path fill="#ffffff" d="M 134.225 47.007 C 134.666 45.742 134.735 45.044 134.429 44.911 C 134.123 44.844 133.75 45.442 133.308 46.707 C 132.901 47.938 132.85 48.62 133.156 48.754 C 133.428 48.854 133.784 48.271 134.225 47.007" style="" transform="matrix(-1, 0, 0, -1, 267.575684, 93.670921)"/>
    <path fill="#0d131a" d="M 144.573 81.021 C 142.06 83.051 139.394 83.982 136.575 83.817 C 136.304 83.784 136.337 83.849 136.677 84.017 L 137.747 84.416 L 140.65 84.017 C 142.382 83.584 143.843 82.918 145.031 82.019 C 146.73 80.688 148.071 78.992 149.056 76.929 C 149.973 74.999 150.279 73.452 149.973 72.287 L 149.463 71.188 C 149.259 71.023 149.175 71.155 149.209 71.588 C 149.344 72.986 149.021 74.534 148.24 76.23 C 147.391 78.16 146.169 79.758 144.573 81.021" style="" transform="matrix(-1, 0, 0, -1, 286.481842, 155.535339)"/>
    <path fill="#fff3c2" d="M 164.884 56.155 C 164.442 57.585 163.661 58.966 162.539 60.297 C 161.521 61.528 160.536 62.311 159.585 62.642 L 159.33 62.892 C 159.398 63.026 159.567 63.076 159.839 63.042 C 161.266 62.776 162.489 61.911 163.508 60.447 C 164.357 59.248 164.968 57.867 165.341 56.304 L 165.239 55.805 C 165.103 55.738 164.984 55.854 164.884 56.155" style="" transform="matrix(-1, 0, 0, -1, 324.671005, 118.838936)"/>
    <path fill="#0d131a" d="M 172.329 22.056 C 173.245 19.327 173.008 16.682 171.615 14.12 C 170.256 11.559 168.168 9.828 165.35 8.93 C 162.53 8.031 159.779 8.247 157.097 9.578 C 154.448 10.909 152.665 12.972 151.748 15.767 L 146.247 32.488 C 145.33 35.25 145.55 37.928 146.909 40.524 C 148.233 43.119 150.322 44.883 153.175 45.815 C 155.993 46.713 158.727 46.497 161.376 45.166 C 164.025 43.835 165.808 41.771 166.725 38.977 L 172.329 22.056" style="" transform="matrix(-1, 0, 0, -1, 318.567047, 54.744211)"/>
    <path fill="#f9be00" d="M 170.538 22.637 C 171.387 20.109 171.285 17.697 170.232 15.402 C 169.179 13.039 167.413 11.459 164.933 10.66 C 162.285 9.795 159.805 10.061 157.497 11.459 C 155.289 12.789 153.761 14.769 152.912 17.397 L 147.92 32.47 C 147.07 35.033 147.172 37.428 148.225 39.659 C 149.279 41.953 151.061 43.501 153.574 44.3 C 156.087 45.098 158.498 44.866 160.808 43.601 C 163.083 42.369 164.628 40.474 165.444 37.911 L 170.538 22.637" style="" transform="matrix(-1, 0, 0, -1, 318.457169, 54.927402)"/>
    <path fill="#0d131a" d="M 171.041 21.488 C 171.483 21.621 171.84 21.388 172.11 20.789 C 172.382 20.19 172.35 19.824 172.01 19.691 L 154.026 13.701 C 153.416 13.503 153.059 13.751 152.957 14.451 C 152.855 15.116 153.093 15.565 153.671 15.797 L 171.041 21.488" style="" transform="matrix(-1, 0, 0, -1, 325.226227, 35.159388)"/>
    <path fill="#0d131a" d="M 169.427 28.184 C 169.869 28.317 170.19 28.051 170.396 27.385 C 170.599 26.721 170.53 26.304 170.19 26.137 L 152.056 20.098 C 151.444 19.9 151.071 20.115 150.935 20.748 C 150.833 21.413 151.071 21.845 151.648 22.046 L 160.767 25.239 L 169.427 28.184" style="" transform="matrix(-1, 0, 0, -1, 321.421722, 48.24412)"/>
    <path fill="#0d131a" d="M 166.981 34.985 C 167.421 35.118 167.762 34.918 167.999 34.385 C 168.237 33.887 168.185 33.553 167.846 33.387 L 159.185 30.243 L 149.914 26.998 C 149.303 26.766 148.861 26.982 148.589 27.648 C 148.352 28.28 148.522 28.712 149.099 28.946 C 152.835 30.309 158.795 32.322 166.981 34.985" style="" transform="matrix(-1, 0, 0, -1, 316.631195, 61.93277)"/>
    <path fill="#0d131a" d="M 164.674 41.231 C 165.115 41.364 165.438 41.163 165.642 40.631 C 165.845 40.098 165.777 39.75 165.438 39.583 L 147.456 33.644 C 146.844 33.412 146.453 33.594 146.284 34.193 C 146.115 34.759 146.318 35.141 146.896 35.341 L 156.014 38.435 L 164.674 41.231" style="" transform="matrix(-1, 0, 0, -1, 311.982498, 74.817303)"/>
    <path fill="#fff3c2" d="M 160.026 109.951 C 160.501 109.551 160.773 108.802 160.841 107.703 C 160.91 106.639 160.756 105.774 160.381 105.108 C 161.945 104.577 163.082 103.993 163.795 103.362 C 164.814 102.43 165.443 101.049 165.68 99.218 C 165.849 97.888 165.426 96.657 164.407 95.525 C 163.625 94.628 162.742 93.995 161.757 93.63 C 161.656 93.596 161.588 92.798 161.554 91.234 C 161.485 89.536 161.028 88.339 160.178 87.639 C 158.719 86.442 157.19 85.893 155.593 85.992 C 153.726 86.159 151.943 87.257 150.244 89.287 L 148.36 89.138 L 145.303 87.838 C 141.704 86.442 135.913 85.926 127.932 86.292 C 124.332 86.458 119.918 87.323 114.687 88.887 C 109.729 90.385 106.47 91.716 104.906 92.88 C 103.513 93.945 104.431 95.659 107.657 98.022 C 110.849 100.384 113.397 101.365 115.3 100.966 L 121.208 100.267 C 124.264 100.068 126.574 100.034 128.136 100.167 L 140.005 101.715 C 144.488 102.746 147.647 104.327 149.481 106.456 C 151.247 108.519 152.961 109.917 154.626 110.649 C 156.629 111.514 158.429 111.282 160.026 109.951" style="" transform="matrix(-1, 0, 0, -1, 269.992348, 197.141075)"/>
    <path fill="#0d131a" d="M 118.47 110.872 C 118.336 111.205 118.436 111.522 118.776 111.821 C 119.116 112.087 119.387 112.003 119.592 111.57 C 120.543 109.408 120.458 107.428 119.337 105.632 C 118.318 104.067 116.942 103.153 115.21 102.886 C 111.984 102.454 109.472 103.885 107.671 107.179 C 107.433 107.578 107.417 107.845 107.621 107.977 C 107.79 108.143 108.062 108.027 108.436 107.627 C 110.779 105.2 112.986 104.3 115.058 104.934 C 116.518 105.365 117.589 106.13 118.267 107.228 C 118.947 108.361 119.014 109.574 118.47 110.872" style="" transform="matrix(-1, 0, 0, -1, 227.726051, 214.783546)"/>
    <path fill="#0d131a" d="M 154.488 95.673 C 153.129 96.672 151.585 96.688 149.852 95.724 C 148.663 95.058 147.509 94.01 146.389 92.579 C 143.4 88.785 138.017 86.44 130.24 85.542 C 123.107 84.744 115.925 85.309 108.692 87.238 C 108.25 87.372 108.097 87.605 108.232 87.938 C 108.369 88.236 108.759 88.32 109.404 88.187 C 116.604 86.557 123.939 86.423 131.411 87.788 C 138.612 89.085 143.23 91.215 145.267 94.177 C 146.795 96.339 148.629 97.637 150.769 98.069 C 152.841 98.502 154.557 98.019 155.913 96.622 C 156.627 95.889 157.051 94.992 157.188 93.927 C 157.357 92.762 157.103 91.848 156.424 91.182 C 156.085 90.816 155.642 90.682 155.099 90.783 C 154.557 90.881 154.403 91.066 154.641 91.332 C 155.354 92.131 155.642 92.995 155.507 93.927 C 155.37 94.692 155.032 95.275 154.488 95.673" style="" transform="matrix(-1, 0, 0, -1, 265.423172, 183.414154)"/>
    <path fill="#0d131a" d="M 120.083 110.441 L 119.268 111.49 C 119.166 111.855 119.506 111.822 120.287 111.39 C 126.4 108.196 134.33 106.332 144.077 105.8 C 153.756 105.267 160.565 106.265 164.505 108.794 C 164.776 108.961 165.065 108.827 165.371 108.395 C 165.643 107.93 165.523 107.58 165.014 107.347 C 158.256 103.987 149.832 102.805 139.747 103.802 C 130.339 104.769 123.785 106.981 120.083 110.441" style="" transform="matrix(-1, 0, 0, -1, 284.763023, 215.200813)"/>
    <path fill="#0d131a" d="M 109.02 103.35 C 110.446 102.551 111.362 101.387 111.771 99.856 C 112.211 98.127 112.042 96.496 111.261 94.965 C 110.276 92.968 108.442 91.954 105.759 91.92 C 105.181 91.886 104.809 92.053 104.638 92.419 C 104.503 92.753 104.723 92.935 105.301 92.968 C 106.319 92.968 107.304 93.4 108.255 94.266 C 109.58 95.464 110.038 97.144 109.631 99.307 C 109.426 100.372 108.9 101.22 108.052 101.852 C 107.1 102.518 105.81 102.818 104.18 102.751 C 103.568 102.717 103.28 102.851 103.313 103.149 C 103.347 103.415 103.585 103.617 104.027 103.749 C 105.793 104.415 107.457 104.282 109.02 103.35" style="" transform="matrix(-1, 0, 0, -1, 215.31974, 196.081039)"/>
  </g>
  <g transform="matrix(0.364389, -0.39076, -0.39076, -0.364389, 67.13971, 206.583148)" style="">
    <path fill="#0d131a" d="M 176.407 104.956 C 177.307 107.69 177.074 110.34 175.707 112.906 C 174.374 115.473 172.324 117.206 169.557 118.106 C 166.791 119.006 164.091 118.79 161.457 117.456 C 158.857 116.123 157.107 114.056 156.207 111.256 L 150.807 94.506 C 149.907 91.74 150.124 89.056 151.457 86.456 C 152.757 83.856 154.807 82.09 157.607 81.156 C 160.374 80.256 163.057 80.473 165.657 81.806 C 168.257 83.14 170.007 85.206 170.907 88.006 L 176.407 104.956"/>
    <path fill="#f9be00" d="M 174.757 104.556 C 175.591 107.09 175.491 109.506 174.457 111.806 C 173.424 114.173 171.691 115.756 169.257 116.556 C 166.657 117.423 164.224 117.156 161.957 115.756 C 159.791 114.423 158.291 112.44 157.457 109.806 L 152.557 94.706 C 151.724 92.14 151.824 89.74 152.857 87.506 C 153.891 85.206 155.641 83.656 158.107 82.856 C 160.574 82.056 162.941 82.29 165.207 83.556 C 167.441 84.79 168.957 86.69 169.757 89.256 L 174.757 104.556"/>
    <path fill="#0d131a" d="M 168.607 85.906 C 169.041 85.773 169.391 86.006 169.657 86.606 C 169.924 87.206 169.891 87.573 169.557 87.706 L 151.907 93.706 C 151.307 93.906 150.957 93.656 150.857 92.956 C 150.757 92.29 150.991 91.84 151.557 91.606 L 168.607 85.906"/>
    <path fill="#0d131a" d="M 170.757 92.306 C 171.191 92.173 171.507 92.44 171.707 93.106 C 171.907 93.773 171.841 94.19 171.507 94.356 L 153.707 100.406 C 153.107 100.606 152.741 100.39 152.607 99.756 C 152.507 99.09 152.741 98.656 153.307 98.456 L 162.257 95.256 L 170.757 92.306"/>
    <path fill="#0d131a" d="M 173.057 99.206 C 173.491 99.073 173.824 99.273 174.057 99.806 C 174.291 100.306 174.241 100.64 173.907 100.806 L 165.407 103.956 L 156.307 107.206 C 155.707 107.44 155.274 107.223 155.007 106.556 C 154.774 105.923 154.941 105.49 155.507 105.256 C 159.174 103.89 165.024 101.873 173.057 99.206"/>
    <path fill="#0d131a" d="M 175.357 105.856 C 175.791 105.723 176.107 105.923 176.307 106.456 C 176.507 106.99 176.441 107.34 176.107 107.506 L 158.457 113.456 C 157.857 113.69 157.474 113.506 157.307 112.906 C 157.141 112.34 157.341 111.956 157.907 111.756 L 166.857 108.656 L 175.357 105.856"/>
  </g>
  <g transform="matrix(0.336243, -0.415227, -0.415227, -0.336243, 46.323064, 198.522342)" style="">
    <path fill="#0d131a" d="M 176.407 104.956 C 177.307 107.69 177.074 110.34 175.707 112.906 C 174.374 115.473 172.324 117.206 169.557 118.106 C 166.791 119.006 164.091 118.79 161.457 117.456 C 158.857 116.123 157.107 114.056 156.207 111.256 L 150.807 94.506 C 149.907 91.74 150.124 89.056 151.457 86.456 C 152.757 83.856 154.807 82.09 157.607 81.156 C 160.374 80.256 163.057 80.473 165.657 81.806 C 168.257 83.14 170.007 85.206 170.907 88.006 L 176.407 104.956"/>
    <path fill="#f9be00" d="M 174.757 104.556 C 175.591 107.09 175.491 109.506 174.457 111.806 C 173.424 114.173 171.691 115.756 169.257 116.556 C 166.657 117.423 164.224 117.156 161.957 115.756 C 159.791 114.423 158.291 112.44 157.457 109.806 L 152.557 94.706 C 151.724 92.14 151.824 89.74 152.857 87.506 C 153.891 85.206 155.641 83.656 158.107 82.856 C 160.574 82.056 162.941 82.29 165.207 83.556 C 167.441 84.79 168.957 86.69 169.757 89.256 L 174.757 104.556"/>
    <path fill="#0d131a" d="M 168.607 85.906 C 169.041 85.773 169.391 86.006 169.657 86.606 C 169.924 87.206 169.891 87.573 169.557 87.706 L 151.907 93.706 C 151.307 93.906 150.957 93.656 150.857 92.956 C 150.757 92.29 150.991 91.84 151.557 91.606 L 168.607 85.906"/>
    <path fill="#0d131a" d="M 170.757 92.306 C 171.191 92.173 171.507 92.44 171.707 93.106 C 171.907 93.773 171.841 94.19 171.507 94.356 L 153.707 100.406 C 153.107 100.606 152.741 100.39 152.607 99.756 C 152.507 99.09 152.741 98.656 153.307 98.456 L 162.257 95.256 L 170.757 92.306"/>
    <path fill="#0d131a" d="M 173.057 99.206 C 173.491 99.073 173.824 99.273 174.057 99.806 C 174.291 100.306 174.241 100.64 173.907 100.806 L 165.407 103.956 L 156.307 107.206 C 155.707 107.44 155.274 107.223 155.007 106.556 C 154.774 105.923 154.941 105.49 155.507 105.256 C 159.174 103.89 165.024 101.873 173.057 99.206"/>
    <path fill="#0d131a" d="M 175.357 105.856 C 175.791 105.723 176.107 105.923 176.307 106.456 C 176.507 106.99 176.441 107.34 176.107 107.506 L 158.457 113.456 C 157.857 113.69 157.474 113.506 157.307 112.906 C 157.141 112.34 157.341 111.956 157.907 111.756 L 166.857 108.656 L 175.357 105.856"/>
  </g>
  <g transform="matrix(0.397059, -0.357514, -0.357514, -0.397059, 42.525483, 172.774157)" style="">
    <path fill="#0d131a" d="M 176.407 104.956 C 177.307 107.69 177.074 110.34 175.707 112.906 C 174.374 115.473 172.324 117.206 169.557 118.106 C 166.791 119.006 164.091 118.79 161.457 117.456 C 158.857 116.123 157.107 114.056 156.207 111.256 L 150.807 94.506 C 149.907 91.74 150.124 89.056 151.457 86.456 C 152.757 83.856 154.807 82.09 157.607 81.156 C 160.374 80.256 163.057 80.473 165.657 81.806 C 168.257 83.14 170.007 85.206 170.907 88.006 L 176.407 104.956"/>
    <path fill="#f9be00" d="M 174.757 104.556 C 175.591 107.09 175.491 109.506 174.457 111.806 C 173.424 114.173 171.691 115.756 169.257 116.556 C 166.657 117.423 164.224 117.156 161.957 115.756 C 159.791 114.423 158.291 112.44 157.457 109.806 L 152.557 94.706 C 151.724 92.14 151.824 89.74 152.857 87.506 C 153.891 85.206 155.641 83.656 158.107 82.856 C 160.574 82.056 162.941 82.29 165.207 83.556 C 167.441 84.79 168.957 86.69 169.757 89.256 L 174.757 104.556"/>
    <path fill="#0d131a" d="M 168.607 85.906 C 169.041 85.773 169.391 86.006 169.657 86.606 C 169.924 87.206 169.891 87.573 169.557 87.706 L 151.907 93.706 C 151.307 93.906 150.957 93.656 150.857 92.956 C 150.757 92.29 150.991 91.84 151.557 91.606 L 168.607 85.906"/>
    <path fill="#0d131a" d="M 170.757 92.306 C 171.191 92.173 171.507 92.44 171.707 93.106 C 171.907 93.773 171.841 94.19 171.507 94.356 L 153.707 100.406 C 153.107 100.606 152.741 100.39 152.607 99.756 C 152.507 99.09 152.741 98.656 153.307 98.456 L 162.257 95.256 L 170.757 92.306"/>
    <path fill="#0d131a" d="M 173.057 99.206 C 173.491 99.073 173.824 99.273 174.057 99.806 C 174.291 100.306 174.241 100.64 173.907 100.806 L 165.407 103.956 L 156.307 107.206 C 155.707 107.44 155.274 107.223 155.007 106.556 C 154.774 105.923 154.941 105.49 155.507 105.256 C 159.174 103.89 165.024 101.873 173.057 99.206"/>
    <path fill="#0d131a" d="M 175.357 105.856 C 175.791 105.723 176.107 105.923 176.307 106.456 C 176.507 106.99 176.441 107.34 176.107 107.506 L 158.457 113.456 C 157.857 113.69 157.474 113.506 157.307 112.906 C 157.141 112.34 157.341 111.956 157.907 111.756 L 166.857 108.656 L 175.357 105.856"/>
  </g>
  <g transform="matrix(0.111086, -0.522621, -0.522621, -0.111086, 71.092897, 166.341601)" style="" bx:origin="0.38 0.98">
    <path fill="#0d131a" d="M 176.407 104.956 C 177.307 107.69 177.074 110.34 175.707 112.906 C 174.374 115.473 172.324 117.206 169.557 118.106 C 166.791 119.006 164.091 118.79 161.457 117.456 C 158.857 116.123 157.107 114.056 156.207 111.256 L 150.807 94.506 C 149.907 91.74 150.124 89.056 151.457 86.456 C 152.757 83.856 154.807 82.09 157.607 81.156 C 160.374 80.256 163.057 80.473 165.657 81.806 C 168.257 83.14 170.007 85.206 170.907 88.006 L 176.407 104.956"/>
    <path fill="#f9be00" d="M 174.757 104.556 C 175.591 107.09 175.491 109.506 174.457 111.806 C 173.424 114.173 171.691 115.756 169.257 116.556 C 166.657 117.423 164.224 117.156 161.957 115.756 C 159.791 114.423 158.291 112.44 157.457 109.806 L 152.557 94.706 C 151.724 92.14 151.824 89.74 152.857 87.506 C 153.891 85.206 155.641 83.656 158.107 82.856 C 160.574 82.056 162.941 82.29 165.207 83.556 C 167.441 84.79 168.957 86.69 169.757 89.256 L 174.757 104.556"/>
    <path fill="#0d131a" d="M 168.607 85.906 C 169.041 85.773 169.391 86.006 169.657 86.606 C 169.924 87.206 169.891 87.573 169.557 87.706 L 151.907 93.706 C 151.307 93.906 150.957 93.656 150.857 92.956 C 150.757 92.29 150.991 91.84 151.557 91.606 L 168.607 85.906"/>
    <path fill="#0d131a" d="M 170.757 92.306 C 171.191 92.173 171.507 92.44 171.707 93.106 C 171.907 93.773 171.841 94.19 171.507 94.356 L 153.707 100.406 C 153.107 100.606 152.741 100.39 152.607 99.756 C 152.507 99.09 152.741 98.656 153.307 98.456 L 162.257 95.256 L 170.757 92.306"/>
    <path fill="#0d131a" d="M 173.057 99.206 C 173.491 99.073 173.824 99.273 174.057 99.806 C 174.291 100.306 174.241 100.64 173.907 100.806 L 165.407 103.956 L 156.307 107.206 C 155.707 107.44 155.274 107.223 155.007 106.556 C 154.774 105.923 154.941 105.49 155.507 105.256 C 159.174 103.89 165.024 101.873 173.057 99.206"/>
    <path fill="#0d131a" d="M 175.357 105.856 C 175.791 105.723 176.107 105.923 176.307 106.456 C 176.507 106.99 176.441 107.34 176.107 107.506 L 158.457 113.456 C 157.857 113.69 157.474 113.506 157.307 112.906 C 157.141 112.34 157.341 111.956 157.907 111.756 L 166.857 108.656 L 175.357 105.856"/>
  </g>
  <g transform="matrix(0.457981, -0.275183, -0.275183, -0.457981, 2.422589, 134.95093)" style="">
    <path fill="#0d131a" d="M 176.407 104.956 C 177.307 107.69 177.074 110.34 175.707 112.906 C 174.374 115.473 172.324 117.206 169.557 118.106 C 166.791 119.006 164.091 118.79 161.457 117.456 C 158.857 116.123 157.107 114.056 156.207 111.256 L 150.807 94.506 C 149.907 91.74 150.124 89.056 151.457 86.456 C 152.757 83.856 154.807 82.09 157.607 81.156 C 160.374 80.256 163.057 80.473 165.657 81.806 C 168.257 83.14 170.007 85.206 170.907 88.006 L 176.407 104.956"/>
    <path fill="#f9be00" d="M 174.757 104.556 C 175.591 107.09 175.491 109.506 174.457 111.806 C 173.424 114.173 171.691 115.756 169.257 116.556 C 166.657 117.423 164.224 117.156 161.957 115.756 C 159.791 114.423 158.291 112.44 157.457 109.806 L 152.557 94.706 C 151.724 92.14 151.824 89.74 152.857 87.506 C 153.891 85.206 155.641 83.656 158.107 82.856 C 160.574 82.056 162.941 82.29 165.207 83.556 C 167.441 84.79 168.957 86.69 169.757 89.256 L 174.757 104.556"/>
    <path fill="#0d131a" d="M 168.607 85.906 C 169.041 85.773 169.391 86.006 169.657 86.606 C 169.924 87.206 169.891 87.573 169.557 87.706 L 151.907 93.706 C 151.307 93.906 150.957 93.656 150.857 92.956 C 150.757 92.29 150.991 91.84 151.557 91.606 L 168.607 85.906"/>
    <path fill="#0d131a" d="M 170.757 92.306 C 171.191 92.173 171.507 92.44 171.707 93.106 C 171.907 93.773 171.841 94.19 171.507 94.356 L 153.707 100.406 C 153.107 100.606 152.741 100.39 152.607 99.756 C 152.507 99.09 152.741 98.656 153.307 98.456 L 162.257 95.256 L 170.757 92.306"/>
    <path fill="#0d131a" d="M 173.057 99.206 C 173.491 99.073 173.824 99.273 174.057 99.806 C 174.291 100.306 174.241 100.64 173.907 100.806 L 165.407 103.956 L 156.307 107.206 C 155.707 107.44 155.274 107.223 155.007 106.556 C 154.774 105.923 154.941 105.49 155.507 105.256 C 159.174 103.89 165.024 101.873 173.057 99.206"/>
    <path fill="#0d131a" d="M 175.357 105.856 C 175.791 105.723 176.107 105.923 176.307 106.456 C 176.507 106.99 176.441 107.34 176.107 107.506 L 158.457 113.456 C 157.857 113.69 157.474 113.506 157.307 112.906 C 157.141 112.34 157.341 111.956 157.907 111.756 L 166.857 108.656 L 175.357 105.856"/>
  </g>
  <g transform="matrix(-0.39706, -0.357514, -0.357514, 0.39706, 179.028216, 145.829424)" style="">
    <path fill="#0d131a" d="M 176.407 104.956 C 177.307 107.69 177.074 110.34 175.707 112.906 C 174.374 115.473 172.324 117.206 169.557 118.106 C 166.791 119.006 164.091 118.79 161.457 117.456 C 158.857 116.123 157.107 114.056 156.207 111.256 L 150.807 94.506 C 149.907 91.74 150.124 89.056 151.457 86.456 C 152.757 83.856 154.807 82.09 157.607 81.156 C 160.374 80.256 163.057 80.473 165.657 81.806 C 168.257 83.14 170.007 85.206 170.907 88.006 L 176.407 104.956"/>
    <path fill="#f9be00" d="M 174.757 104.556 C 175.591 107.09 175.491 109.506 174.457 111.806 C 173.424 114.173 171.691 115.756 169.257 116.556 C 166.657 117.423 164.224 117.156 161.957 115.756 C 159.791 114.423 158.291 112.44 157.457 109.806 L 152.557 94.706 C 151.724 92.14 151.824 89.74 152.857 87.506 C 153.891 85.206 155.641 83.656 158.107 82.856 C 160.574 82.056 162.941 82.29 165.207 83.556 C 167.441 84.79 168.957 86.69 169.757 89.256 L 174.757 104.556"/>
    <path fill="#0d131a" d="M 168.607 85.906 C 169.041 85.773 169.391 86.006 169.657 86.606 C 169.924 87.206 169.891 87.573 169.557 87.706 L 151.907 93.706 C 151.307 93.906 150.957 93.656 150.857 92.956 C 150.757 92.29 150.991 91.84 151.557 91.606 L 168.607 85.906"/>
    <path fill="#0d131a" d="M 170.757 92.306 C 171.191 92.173 171.507 92.44 171.707 93.106 C 171.907 93.773 171.841 94.19 171.507 94.356 L 153.707 100.406 C 153.107 100.606 152.741 100.39 152.607 99.756 C 152.507 99.09 152.741 98.656 153.307 98.456 L 162.257 95.256 L 170.757 92.306"/>
    <path fill="#0d131a" d="M 173.057 99.206 C 173.491 99.073 173.824 99.273 174.057 99.806 C 174.291 100.306 174.241 100.64 173.907 100.806 L 165.407 103.956 L 156.307 107.206 C 155.707 107.44 155.274 107.223 155.007 106.556 C 154.774 105.923 154.941 105.49 155.507 105.256 C 159.174 103.89 165.024 101.873 173.057 99.206"/>
    <path fill="#0d131a" d="M 175.357 105.856 C 175.791 105.723 176.107 105.923 176.307 106.456 C 176.507 106.99 176.441 107.34 176.107 107.506 L 158.457 113.456 C 157.857 113.69 157.474 113.506 157.307 112.906 C 157.141 112.34 157.341 111.956 157.907 111.756 L 166.857 108.656 L 175.357 105.856"/>
  </g>
  <g transform="matrix(0.505187, 0.17395, 0.17395, -0.505187, -52.969899, 139.645312)" style="">
    <path fill="#0d131a" d="M 176.407 104.956 C 177.307 107.69 177.074 110.34 175.707 112.906 C 174.374 115.473 172.324 117.206 169.557 118.106 C 166.791 119.006 164.091 118.79 161.457 117.456 C 158.857 116.123 157.107 114.056 156.207 111.256 L 150.807 94.506 C 149.907 91.74 150.124 89.056 151.457 86.456 C 152.757 83.856 154.807 82.09 157.607 81.156 C 160.374 80.256 163.057 80.473 165.657 81.806 C 168.257 83.14 170.007 85.206 170.907 88.006 L 176.407 104.956"/>
    <path fill="#f9be00" d="M 174.757 104.556 C 175.591 107.09 175.491 109.506 174.457 111.806 C 173.424 114.173 171.691 115.756 169.257 116.556 C 166.657 117.423 164.224 117.156 161.957 115.756 C 159.791 114.423 158.291 112.44 157.457 109.806 L 152.557 94.706 C 151.724 92.14 151.824 89.74 152.857 87.506 C 153.891 85.206 155.641 83.656 158.107 82.856 C 160.574 82.056 162.941 82.29 165.207 83.556 C 167.441 84.79 168.957 86.69 169.757 89.256 L 174.757 104.556"/>
    <path fill="#0d131a" d="M 168.607 85.906 C 169.041 85.773 169.391 86.006 169.657 86.606 C 169.924 87.206 169.891 87.573 169.557 87.706 L 151.907 93.706 C 151.307 93.906 150.957 93.656 150.857 92.956 C 150.757 92.29 150.991 91.84 151.557 91.606 L 168.607 85.906"/>
    <path fill="#0d131a" d="M 170.757 92.306 C 171.191 92.173 171.507 92.44 171.707 93.106 C 171.907 93.773 171.841 94.19 171.507 94.356 L 153.707 100.406 C 153.107 100.606 152.741 100.39 152.607 99.756 C 152.507 99.09 152.741 98.656 153.307 98.456 L 162.257 95.256 L 170.757 92.306"/>
    <path fill="#0d131a" d="M 173.057 99.206 C 173.491 99.073 173.824 99.273 174.057 99.806 C 174.291 100.306 174.241 100.64 173.907 100.806 L 165.407 103.956 L 156.307 107.206 C 155.707 107.44 155.274 107.223 155.007 106.556 C 154.774 105.923 154.941 105.49 155.507 105.256 C 159.174 103.89 165.024 101.873 173.057 99.206"/>
    <path fill="#0d131a" d="M 175.357 105.856 C 175.791 105.723 176.107 105.923 176.307 106.456 C 176.507 106.99 176.441 107.34 176.107 107.506 L 158.457 113.456 C 157.857 113.69 157.474 113.506 157.307 112.906 C 157.141 112.34 157.341 111.956 157.907 111.756 L 166.857 108.656 L 175.357 105.856"/>
  </g>
</svg>