<svg id="Layer_1" data-name="Layer 1" xmlns="http://www.w3.org/2000/svg" viewBox="0 0 200 150"><defs><style>.cls-1{fill:#0d131a;}.cls-2{fill:#5dc1cf;}.cls-3{fill:#50a8b4;}.cls-4{fill:#595757;}.cls-5{fill:#3e3a39;}.cls-6{fill:#fff;}.cls-7{fill:#922f00;}.cls-8{fill:#ed8599;}.cls-9{fill:#d0801b;stroke:#0d131a;stroke-miterlimit:10;}</style></defs><path class="cls-1" d="M93.63,55.23c.75.89,1.5,3,2.18,6.43.69,2.8,1.44,6.84,2.33,12.18,1.78,10.88,3.28,18.88,4.52,23.94,2.12,8.9,4.65,15,7.52,18.48a26.1,26.1,0,0,1,4.38,7c.89,2.26,1,4,.41,5.27-.82,1.71-2.74,2.87-5.81,3.42l-6.78.41c-5.68,0-9.85-2.94-12.65-8.76-1.58-3.35-2.67-10-3.15-19.84-.14-3.21-.34-11.42-.48-24.69-.07-7.6-.27-11.84-.41-12.8a15.55,15.55,0,0,1,.41-7.46c.82-2.73,1.91-4.44,3.35-5.13s2.81-.13,4.18,1.51"/><path class="cls-2" d="M90,54.89c.82-.35,1.71,0,2.67,1.23.54.68,1.23,2.8,1.91,6.29.41,2,1.1,6,2.06,11.63q2.76,16.63,4.72,24.63c2.25,9.31,4.92,15.74,7.86,19.23,3.63,4.24,4.93,7.46,4,9.58-.61,1.36-2.32,2.32-5.06,2.8l-5.88.41a9.36,9.36,0,0,1-6.5-2.32,20.39,20.39,0,0,1-4.18-6.16c-1.64-3.29-2.73-9.65-3.35-19.09-.34-5.41-.62-13.48-.75-24.08-.07-7.32-.28-11.7-.48-13a14.63,14.63,0,0,1,.41-6.78c.68-2.39,1.5-3.9,2.6-4.37"/><path class="cls-3" d="M96.64,74l1.84,10.75c-1.16.13-2.67,3.35-4.65,9.57L88.9,110.23c-.54-4.17-.89-9.44-1.09-15.73L87.47,79c-.07-7.32-.28-11.7-.48-13a14.63,14.63,0,0,1,.41-6.78c.68-2.39,1.5-3.9,2.6-4.37.82-.35,1.71,0,2.67,1.16.54.68,1.23,2.8,1.91,6.29.41,2.06,1.1,6,2.06,11.63"/><path class="cls-1" d="M3.59,78.22C5,74.8,7.08,72.88,10,72.67c3.49-.41,6.23,1.24,8.28,4.93s3.56,9.72,4.93,18.4c.68,4,1.3,7.19,1.91,9.58a24.78,24.78,0,0,0,2.74,7,23.22,23.22,0,0,0,7.52,7.87A21.28,21.28,0,0,0,45.6,123.3H46l2.6,8.76H46.83A32.27,32.27,0,0,1,36.91,131c-5.13-1.58-11-5.07-17.72-10.34a43.58,43.58,0,0,1-12-14.84A42.85,42.85,0,0,1,2.29,89.23a25.12,25.12,0,0,1,1.3-11"/><path class="cls-4" d="M9.61,74.66l2.46-.21a4.92,4.92,0,0,1,2.19.69c1.85,1.23,3.35,3.9,4.65,8.07.69,2.26,1.65,6.57,2.88,12.86l2.12,9.79a24.26,24.26,0,0,0,10.67,15.53,22.47,22.47,0,0,0,10.47,3.08l1.85,6.22h-.14a26.78,26.78,0,0,1-8.76-.82c-4.51-1.44-10.47-4.79-17.79-10.19-5.61-4.18-10-10.2-13.2-18.13C4,94,3,87.45,4.2,81.84c.83-4.17,2.67-6.57,5.41-7.18"/><path class="cls-5" d="M13.58,74.93c-3.77,1.3-5.89,4.52-6.37,9.58q-.7,7.18,3.08,16.42A54.09,54.09,0,0,0,21.38,118,42.54,42.54,0,0,0,39.1,129.6a25.24,25.24,0,0,0,4.72.68,10.17,10.17,0,0,1,3.08.41h-.14a26.78,26.78,0,0,1-8.76-.82c-4.51-1.44-10.47-4.79-17.79-10.19-5.61-4.18-10-10.2-13.2-18.13C4,94,3,87.45,4.2,81.84c.83-4.17,2.67-6.57,5.41-7.18a6.49,6.49,0,0,1,4,.27"/><path class="cls-1" d="M85,119.4A18.79,18.79,0,0,1,87.88,130a16.08,16.08,0,0,1-3,9.1q-3.18,4.09-9,3.69a8.76,8.76,0,0,1-7.12-4.31,15.52,15.52,0,0,1-2.32-9.92A18.79,18.79,0,0,1,68,122a14.18,14.18,0,0,1,3.49-5,8.19,8.19,0,0,1,6.29-2.33c2.88.14,5.27,1.71,7.25,4.72"/><path class="cls-2" d="M69,122.55A12,12,0,0,1,72.21,118a7.26,7.26,0,0,1,5.41-2c2.46.14,4.51,1.58,6.15,4.24A16.66,16.66,0,0,1,86,129.8q-.3,6.36-3.69,9.44a8.18,8.18,0,0,1-3.15,1.65,12.5,12.5,0,0,1-3.9.41,7.33,7.33,0,0,1-6-3.84,15.43,15.43,0,0,1-1.71-8.89,17.54,17.54,0,0,1,1.44-6"/><path class="cls-3" d="M72.21,118a7.5,7.5,0,0,1,5.34-2.12c2.53.2,4.58,1.57,6.15,4.17A16.33,16.33,0,0,1,86,129.46a15.8,15.8,0,0,0-7.59,3.22,12.58,12.58,0,0,0-5.41,8,7.87,7.87,0,0,1-4.24-4.38,16.11,16.11,0,0,1-1.16-7.73,17.54,17.54,0,0,1,1.44-6A12.7,12.7,0,0,1,72.21,118"/><path class="cls-1" d="M67.28,141.78a10.38,10.38,0,0,1-8.89,3,9.18,9.18,0,0,1-7.25-4.31,15.94,15.94,0,0,1-2.26-9.93,17.63,17.63,0,0,1,1.57-6.49,14.57,14.57,0,0,1,3.7-5,8.93,8.93,0,0,1,6.5-2.33A9.14,9.14,0,0,1,68,120.91c1.91,2.73,2.87,6.36,2.87,10.94,0,4.25-1.16,7.53-3.56,9.93"/><path class="cls-2" d="M65.44,141.3a6.77,6.77,0,0,1-3.22,1.57l-4,.41A7.43,7.43,0,0,1,52,139.52c-1.44-2.33-2-5.27-1.78-8.9a17.93,17.93,0,0,1,1.44-6.09A13.06,13.06,0,0,1,55,120a7.6,7.6,0,0,1,5.54-2c2.67.13,4.79,1.57,6.43,4.24a16.82,16.82,0,0,1,2.26,9.64c-.21,4.31-1.51,7.46-3.83,9.45"/><path class="cls-3" d="M61.67,134.45c-3.76,2.33-5.74,5.07-5.74,8.42a8.43,8.43,0,0,1-4.38-4.45,15.29,15.29,0,0,1-1.23-7.73,17.92,17.92,0,0,1,1.43-6.09A13.08,13.08,0,0,1,55.11,120a7.63,7.63,0,0,1,5.54-2c2.53.14,4.65,1.51,6.29,4.11a16.18,16.18,0,0,1,2.33,9.44,21,21,0,0,0-7.6,2.87"/><path class="cls-1" d="M15,76.78a9.88,9.88,0,0,1,2.81,3,14.34,14.34,0,0,1,1.57,4.65,14.89,14.89,0,0,1-.68,7.66c-.89,2.26-2.26,3.7-4,4.18a4.59,4.59,0,0,1-3.83-.69A8.14,8.14,0,0,1,8.1,92.51a13.06,13.06,0,0,1-1.64-4.65,14.64,14.64,0,0,1,.69-7.59c.89-2.26,2.25-3.7,4-4.18a4.59,4.59,0,0,1,3.83.69"/><path class="cls-6" d="M11.52,77a3.63,3.63,0,0,1,2.81.55,7.94,7.94,0,0,1,2.33,2.74,13.08,13.08,0,0,1,1.43,4.17,13.58,13.58,0,0,1-.54,6.71c-.83,2-1.85,3.21-3.29,3.62a3.51,3.51,0,0,1-2.8-.54,6.65,6.65,0,0,1-2.4-2.67,13.88,13.88,0,0,1-1.37-4.18,13.64,13.64,0,0,1,.55-6.7c.82-2.05,1.85-3.29,3.28-3.7"/><path class="cls-1" d="M14.26,85.33a1.05,1.05,0,0,1-.07.82c-.13.28-.27.41-.48.41a.71.71,0,0,1-.54-.27l-.35-.75.07-.82.48-.42a.71.71,0,0,1,.55.28,1.31,1.31,0,0,1,.34.75"/><path class="cls-1" d="M77.07,97c3,1.23,6.5,5.34,10.53,12.32s6.23,12.58,6.78,17.24c.13,1.71.07,2.66-.28,2.87a6,6,0,0,1-2.39-.75,48.88,48.88,0,0,0-5.06-1.51l-4.18-.89a3.43,3.43,0,0,0-2.32,1.58l-1.71,2.39a9.43,9.43,0,0,1-2.6,2.46,3,3,0,0,1-2.88,0l-3.35-1.84c-1.91-1-3-1.58-3.15-1.65s-.68.35-1.3,1l-1.64,1.64-2.73,2.33a7.26,7.26,0,0,1-1.65,1.1,3.61,3.61,0,0,1-2.87-.83l-2.74-2.53-2.05-2a2.65,2.65,0,0,0-1.92-.82l-2.18.48-2.88.55a2.82,2.82,0,0,1-2-.62c-.62-.55-.75-1.57-.41-2.94l.61-3.35a108.12,108.12,0,0,1,4.18-15.81q3.69-9.54,9.44-11.08a40.19,40.19,0,0,1,10.26-1A29,29,0,0,1,77.07,97"/><path class="cls-2" d="M66.6,96.55a30.82,30.82,0,0,1,10,1.58c2.19.88,5,4.31,8.41,10.33a75.24,75.24,0,0,1,6.78,15.05,11.74,11.74,0,0,1,.61,3.14l-.06.48-.07-.06a47.1,47.1,0,0,0-5.61-1.44,26.34,26.34,0,0,0-4.86-.75,4.47,4.47,0,0,0-1.64.61l-1.23,1.3A17.8,17.8,0,0,1,75.15,131a2.37,2.37,0,0,1-2.32-.14L70,129.19a19.36,19.36,0,0,0-3.08-1.37,2,2,0,0,0-1.3.27l-2.87,2.26a22,22,0,0,1-3.83,3.08,2.38,2.38,0,0,1-2-.55L54.76,131a19,19,0,0,0-2.6-2.33,3.69,3.69,0,0,0-2.73-.82l-2.4.55-2.19.41-1.43-.14c-.28-.27-.28-.89-.07-1.78l.68-3.42a101.58,101.58,0,0,1,3.9-15.26c2.33-6.16,5.27-9.71,8.76-10.6a36.57,36.57,0,0,1,9.92-1"/><path class="cls-3" d="M63.11,101.07c-2,.61-4,4.44-5.81,11.49-2,7.46-2.4,14-1.3,19.57L54.76,131a19.51,19.51,0,0,0-2.6-2.32,3.69,3.69,0,0,0-2.73-.82l-2.4.54-2.19.41-1.43-.13c-.28-.28-.28-.89-.07-1.78l.68-3.42a101.58,101.58,0,0,1,3.9-15.26c2.33-6.16,5.27-9.71,8.76-10.6,1.44-.41,3.28-.07,5.61,1s2.6,1.85.82,2.4"/><path class="cls-2" d="M52.78,38.88a32.32,32.32,0,0,1,25.25.2C86.58,42.64,92.6,48.52,96,56.8c3.76,9.1,3.76,17.65,0,25.45-3.56,7.39-9.85,12.93-18.74,16.56L73.85,100l-6.84.68a37.58,37.58,0,0,1-12.86-1.29,31.27,31.27,0,0,1-11.29-6.85,32.38,32.38,0,0,1-7.94-11.49,30.89,30.89,0,0,1,.14-24.77A31.27,31.27,0,0,1,52.78,38.88"/><path class="cls-3" d="M33.69,60.56c.48,7,3.76,14.58,9.79,22.51a62.17,62.17,0,0,0,10.6,11.36A30.43,30.43,0,0,0,64.75,99.9l2.47.76c.27.13,0,.34-.82.54a15.82,15.82,0,0,1-6.91-.06l-5.27-1.65a31.1,31.1,0,0,1-11.29-6.84A32.17,32.17,0,0,1,32.67,70.76a32,32,0,0,1,1-10.2"/><path class="cls-1" d="M52.64,38.33c7.94-3.22,16.36-3.22,25.11.27C87,42.09,93.42,48.11,96.91,56.66q6.15,15.2-1.23,28.12c-4.59,8.15-11.84,13.48-21.62,16-.82.21-1.17.07-1.17-.27s.21-.68.76-.82c9.92-2.87,17-8.35,21.07-16.35s4.31-16.7.55-26A31,31,0,0,0,77.75,39.9a31,31,0,0,0-24.7-.34A30.71,30.71,0,0,0,35.68,57.35c-3.42,8.55-3.22,16.56.68,24a43.43,43.43,0,0,0,8.76,11.09c3.49,3.28,6.63,5.47,9.37,6.5,1.44.54,2.19,1,2.12,1.43s-1,.34-2.6-.27a35.6,35.6,0,0,1-11.49-7.18,32.39,32.39,0,0,1-8.62-11.7,31,31,0,0,1,.41-25.18A33.25,33.25,0,0,1,52.64,38.33"/><path class="cls-1" d="M88.56,55l-2.8-2.19c-1.85-1.36-2.94-2-3.15-1.77l-2.12,3.55-1.71,3.15c-.14.14-.34.14-.75-.14s-.48-.47-.41-.61a38.45,38.45,0,0,1,3.76-7.32l2.8-.07,3.08,2.39,2.19,1.92c.14.14.07.41-.2.75s-.55.48-.69.34"/><path class="cls-2" d="M34.38,66.17a3.74,3.74,0,0,1,1.84-2.87l3,.07c2.67,1.09,4.25,3.28,4.72,6.5l5.48,31.88c2.87,18.82,3.56,30,2,33.53-2,4.78-3.69,7.86-5,9.23a5.17,5.17,0,0,1-5.55,1.3c-5.95-1.57-9.3-3.21-10.19-4.92-1.09-2-.21-6,2.67-11.77,2.26-4.59,3-15.81,2.12-33.59l-1.1-18.61c-.34-6-.34-9.51-.06-10.75"/><path class="cls-3" d="M44,69.87l5.41,31.95q4.31,28.22,2,33.52c-2,4.79-3.69,7.87-5,9.24a5.17,5.17,0,0,1-5.55,1.3,8,8,0,0,0,1.85-2.19,65.79,65.79,0,0,1,3.83-7.59c2.19-3.9,2.4-12.8.55-26.62L44.5,90.67c-1.09-7.73-1.78-14.23-2.12-19.36a6.72,6.72,0,0,1,.27-2.81c.14-.55.42-.89.76-.82s.41.27.48.82L44,69.87"/><path class="cls-1" d="M35,66.24l.07,8.83.55,13.41c.68,10.81,1,18.68,1,23.53-.07,8.28-1,14.1-2.6,17.45a26.88,26.88,0,0,0-2.67,7,6.92,6.92,0,0,0,.27,4A6,6,0,0,0,34.65,143a33.48,33.48,0,0,0,6,1.78,5.34,5.34,0,0,0,5-1.1c1.3-1.3,3-4.24,4.93-8.89,1.44-3.42.75-14.92-2.19-34.49-1.5-9.92-3.15-20-5.06-30.24-.21-1.3-.07-2,.27-2.19s.69.48,1,1.92l6,33.94q4,26.06,1.85,31.67c-1.64,4.31-3.28,7.25-4.93,9a7,7,0,0,1-6.77,2.19c-6.16-1.09-9.78-2.94-11-5.47a7.44,7.44,0,0,1-.27-4.65,33.27,33.27,0,0,1,2.94-7.73c1.58-3.29,2.47-9,2.6-17,.14-5.33-.2-13.07-.82-23.19-.2-3.63-.34-8.21-.41-13.68V66.17c-.07-1,.14-1.57.55-1.64s.68.55.68,1.71"/><path class="cls-7" d="M59.07,70.69l6.57-6,9,2.87,4.51-6,6.23,3.15,4-5.07q4.53,13.56.76,23.54C87.54,89.85,83,93.61,76.25,94.57c-5.34.75-10.54-1.85-15.46-7.73a35,35,0,0,1-8.15-17.52l6.43,1.37"/><path class="cls-1" d="M53.4,69.6a33.9,33.9,0,0,0,7.8,16.83c4.72,5.74,9.78,8.21,15,7.45a15.74,15.74,0,0,0,11.83-7.45A23.47,23.47,0,0,0,91.3,74.8,32.73,32.73,0,0,0,88.84,61c-.41-.95-.41-1.57,0-1.77s.75.27,1.23,1.36a34.19,34.19,0,0,1,2.46,14.3,24.84,24.84,0,0,1-3.35,12.32c-2.81,4.58-7.05,7.25-12.73,8.07s-11-1.85-16-7.8A35.69,35.69,0,0,1,52.16,69.8l1.24-.2"/><path class="cls-1" d="M53.81,75.14q6-6.67,18.26-6.78c8.35-.13,15.06,2.26,20.12,7l.2.21v.27a23.06,23.06,0,0,1-4.72,13.55A16.61,16.61,0,0,1,76.18,95.8c-4.65.55-9.1-1.3-13.48-5.54a37.68,37.68,0,0,1-9-14.44l-.14-.41.28-.27"/><path class="cls-8" d="M70.71,69.8A35.76,35.76,0,0,1,82.4,71.37,23.26,23.26,0,0,1,91.09,76a20.53,20.53,0,0,1-4.37,12.24,15.84,15.84,0,0,1-10.47,5.61c-4.31.62-8.49-1-12.59-4.85A33.63,33.63,0,0,1,55,75.68a18.05,18.05,0,0,1,6.43-4,28.33,28.33,0,0,1,9.24-1.85"/><path class="cls-1" d="M55.93,70.48l-3.42-.75-1.3,2L49.7,74.25c-.34.41-.61.55-.75.34A2.3,2.3,0,0,1,49,73.43a11.81,11.81,0,0,1,1.3-2.81,9.08,9.08,0,0,1,1.57-2.32,13.54,13.54,0,0,1,3.42.68l3.35.82,2.81-2.87a17.94,17.94,0,0,1,3.08-2.88,44.16,44.16,0,0,1,4.92,1.3l4.66,1.37,2.32-2.8a28.6,28.6,0,0,1,2.47-2.74A13.92,13.92,0,0,1,82,62.55L85,64l1.65-2.54c1-1.64,1.71-2.53,2-2.6s1.16.21,2.67.82A16.4,16.4,0,0,1,94,61a1,1,0,0,1,.54.83c0,.27-.27.34-.75.2l-2.67-1.23c-1.23-.62-1.91-.89-2-.75L87.4,62.75a10,10,0,0,1-1.78,2.67c-.2.07-1.3-.41-3.28-1.5s-3-1.65-3.08-1.65l-2.19,2.95c-1.37,1.91-2.12,2.94-2.33,2.94l-4.86-1.44c-3-1-4.65-1.43-4.85-1.3l-2.88,2.94-2.87,2.88-3.35-.76"/><path class="cls-1" d="M57.71,54.61l7.45,5.27c.14.14.14.34-.13.75s-.48.55-.62.41l-3.62-2.25c-2.47-1.51-3.84-2.19-4-2.06L53,61,49.7,65.15,49,65.08c-.41-.27-.55-.48-.48-.62L55.24,55a2.18,2.18,0,0,1,1.23-.61,2.44,2.44,0,0,1,1.24.27"/><path class="cls-2" d="M58.94,32a85.49,85.49,0,0,1,8.82-10.68C76.18,13,83.43,9.73,89.59,11.51c4,1.16,6.57,3.15,7.8,5.88q1.74,3.8-.21,8.83a28.83,28.83,0,0,1-6.7,9.58A43.83,43.83,0,0,1,79,43.94C70.3,48.18,63.52,49,58.6,46.33A9.32,9.32,0,0,1,53.87,41a46.82,46.82,0,0,1,5.07-9"/><path class="cls-3" d="M89.18,37A40.69,40.69,0,0,1,79.12,43.8a39.46,39.46,0,0,1-8.76,3.35,14.57,14.57,0,0,1-6,.62q-6-1.12-.41-2.46A99.23,99.23,0,0,0,78.3,40.59c7.8-3.29,13.41-7.05,16.83-11.22A26.9,26.9,0,0,1,89.18,37"/><path class="cls-1" d="M53.33,40.79c2.39-5.06,6.22-10.67,11.49-16.9,6.57-7.52,12.59-12,17.93-13.41C87.19,9.32,91,9.8,94,11.92a11,11,0,0,1,4.65,8.14c.55,4.72-1.3,9.58-5.61,14.44a36.19,36.19,0,0,1-13.68,9.85,5.19,5.19,0,0,1-3,.68c-.69-.13.06-.68,2.39-1.71a34.79,34.79,0,0,0,12.93-9.71c3.76-4.59,5.54-9,5.2-13.34a8.53,8.53,0,0,0-4.38-7.12q-4.41-2.67-10.26-.61c-5.34,1.77-11.15,6.5-17.58,14-5.13,6-8.49,10.88-10.06,14.64-.41.89-.82,1.23-1.23,1.17s-.41-.62,0-1.58"/><polyline class="cls-9" points="118.88 0.05 118.88 146.38 102.22 146.38 102.22 0.05"/></svg>