<svg id="Layer_1" data-name="Layer 1" xmlns="http://www.w3.org/2000/svg" viewBox="0 0 200 150"><defs><style>.cls-1{fill:#5dc1cf;}.cls-11,.cls-2{fill:#d0801b;}.cls-12,.cls-2{stroke:#0d131a;stroke-miterlimit:10;}.cls-12,.cls-3{fill:none;}.cls-3,.cls-7{stroke:#1d1d1b;}.cls-4,.cls-7{fill:#0d131a;}.cls-5{fill:#50a8b4;}.cls-6{fill:#595757;}.cls-7{stroke-width:0.75px;}.cls-8{fill:#e37071;}.cls-9{fill:#ac3942;}.cls-10{fill:#fefefe;}</style></defs><rect class="cls-1" x="91.5" y="59.2" width="2.06" height="2.29"/><polyline class="cls-2" points="91.86 0.05 91.86 146.38 75.19 146.38 75.19 0.05"/><path class="cls-3" d="M171.6,103.3A17.11,17.11,0,0,0,173,96.24a16,16,0,0,0-.35-3,5,5,0,0,0-3.53-3.65c-2.85-1-5.65.52-7.37,2.57a38.66,38.66,0,0,0-3.41,5.43c-1,1.76-2,3.54-3.12,5.43-.42-1.54-.87-3-1.18-4.39q-1-4.56-1.81-9.15-.65-3.57-1.16-7.16A22,22,0,0,1,151,79.5a29.09,29.09,0,0,0-2.46-10.83,33.73,33.73,0,0,0-9.76-13.05c-.92-.76-1.92-1.44-2.92-2.11a1.27,1.27,0,0,1-.61-.94A52.23,52.23,0,0,0,125.49,29a25.06,25.06,0,0,0-8.31-7.28,13.92,13.92,0,0,0-6.29-1.67,10.1,10.1,0,0,0-4.75.78c-1.27.61-2.44,1.43-3.7,2.18-.16-.32-.44-.77-.63-1.25a3.82,3.82,0,0,0-2.59-2.22,24.06,24.06,0,0,0-6.77-1.38,13.07,13.07,0,0,0-5.55.87,60.3,60.3,0,0,0-7.5,4.07c-2.11,1.2-4.21,2.43-6.28,3.71a35.6,35.6,0,0,0-6.31,5,4.58,4.58,0,0,0-1.2,4.35c.7,3.85,1.49,7.68,2.23,11.52.65,3.35,1.25,6.7,2,10,.35,1.65.91,3.25,1.37,4.87.69,2.37,1.35,4.75,2.09,7.1A20.34,20.34,0,0,0,74.82,73l.26-1.76A11.26,11.26,0,0,1,74.47,70a8.29,8.29,0,0,1-.31-.83c-.59-2-1.18-4-1.75-6s-1.18-3.77-1.59-5.69c-.93-4.41-1.75-8.83-2.61-13.25-.47-2.4-.92-4.79-1.38-7.19a4.06,4.06,0,0,1,1.28-5c1.73-1.45,3.43-2.94,5.29-4.21a79.12,79.12,0,0,1,14.51-8.07,10.1,10.1,0,0,1,4.41-.6,26,26,0,0,1,6.14,1.22,3.82,3.82,0,0,1,2.79,2.41c.64,1.81,1.28,3.61,1.88,5.43.29.91.48,1.85.72,2.77a5.44,5.44,0,0,1,.09,1.2,1.1,1.1,0,0,1-.45.74,2.65,2.65,0,0,1-1.78.24c-.91-.22-1.83-.42-2.76-.55a16.36,16.36,0,0,0-6.64.44A53.13,53.13,0,0,0,77.81,40c-.09.05-.21.11-.23.2-.23.77-1,1-1.51,1.43a2.88,2.88,0,0,0-.33.43c1-.7,4.44-2.37,4.75-2.56a50.36,50.36,0,0,1,11.42-5.21,16.26,16.26,0,0,1,6.5-.64.41.41,0,0,1,.43.39c.38,1.67.7,3.37,1.23,5a32.73,32.73,0,0,0,5.66,10l1.15,1.44a.77.77,0,0,1-.13.09l-.38.15a34.18,34.18,0,0,0-12,7.48c-.15.15-4.47,6.08-6.07,8.38-.39.78-.79,1.55-1.15,2.35-.12.27-1.43,4.64-1.54,5.19a28.92,28.92,0,0,0-.51,9,32.56,32.56,0,0,0,6.28,16.12,35.19,35.19,0,0,0,6.87,7.08.67.67,0,0,1,.35.75,100.2,100.2,0,0,0-1.11,10.08,67.4,67.4,0,0,0,.14,9.1,32.55,32.55,0,0,0,2.53,10.5,11.54,11.54,0,0,0,.58,1.1c.31.58.62.64,1.18.25.12-.09.26-.17.4-.26.29.79.52,1.58.87,2.33,1.3,2.81,3.07,5.23,6,6.57a16.38,16.38,0,0,0,2,.65h1.57c.61-.1,1.21-.19,1.81-.31a6.71,6.71,0,0,0,5.54-5.74c.09-.59.17-1.19.26-1.89.66.88,1.29,1.71,1.89,2.54a9.85,9.85,0,0,0,6.19,4.06,8.56,8.56,0,0,0,8-2.36,7,7,0,0,0,1.92-4.31c.14-1.29,0-2.61,0-3.91a.66.66,0,0,1,.24-.49c2.9-1.61,5.81-3.2,8.74-4.82.75,1.45,1.5,2.87,2.21,4.32a32.26,32.26,0,0,0,5.29,7.6c.87.94,1.87,1.77,2.82,2.63a2.57,2.57,0,0,0,2.34,0l9.57-8.63.47-.42a3,3,0,0,0,.6-4.46c-.73-1-1.56-1.92-2.35-2.87a69.56,69.56,0,0,1-7.12-10.75c1-1,2.13-2,3.13-3A35.89,35.89,0,0,0,171.6,103.3ZM119,141.36a5.43,5.43,0,0,1-4,4.43,7,7,0,0,1-6.91-.86,13.34,13.34,0,0,1-4.81-7.47.68.68,0,0,1,.2-.56,22.13,22.13,0,0,0,3.28-3.14c.36-.46.73-.91,1.13-1.41.45.5.85,1,1.24,1.41.85.88,1.68,1.77,2.53,2.65a3.15,3.15,0,0,0,.7.62c1.63.84,1.18,1,2.82.07l3.44-3.14c.08.44.17,1.11.29,1.78A14.37,14.37,0,0,1,119,141.36Zm17.68-.12a5.56,5.56,0,0,1-3.09,3l-.1.09a8.28,8.28,0,0,1-9.77-2.21,31.65,31.65,0,0,1-2.81-3.78,3.14,3.14,0,0,1-.76-2.07c-.18-1.06-.31-2.13-.56-3.18a1.44,1.44,0,0,1,.61-1.5l2.16,1.94c.31.28.62.57,1,.82a17.91,17.91,0,0,0,2,1.48,1.35,1.35,0,0,0,2-.51l1.82-2.62c.6-1.2,1.21-2.39,1.82-3.59l.15,0c1.84.87,3.69,1.74,5.53,2.63a.54.54,0,0,1,.25.34c.19,1.51.43,3,.54,4.52A9.25,9.25,0,0,1,136.66,141.24Zm9.71-11.74A43.82,43.82,0,0,1,140.2,133c-.65.3-1.3.63-2,1-.11-.67-.2-1.27-.31-1.94.52,0,1-.08,1.42-.09.67,0,.89-.25.75-.91s-.32-1.29-.52-1.92a.6.6,0,0,1,.2-.72q1.77-1.68,3.47-3.42c.49-.51.89-1.1,1.37-1.69.07.16.12.25.16.34.65,1.66,1.28,3.33,1.94,5A.65.65,0,0,1,146.37,129.5Zm-7.31-1.93c-2.62-6.66-6.87-12.12-11.85-17.12,4.89-1.18,9.23-3.18,12.74-6.87.06.23.1.38.13.54.33,1.95.64,3.91,1,5.86a112.23,112.23,0,0,0,3,11.71.75.75,0,0,1-.06.51A33.45,33.45,0,0,1,139.06,127.57Zm30.11,3.35a6.43,6.43,0,0,1,1,1.54,1.58,1.58,0,0,1-.31,1.89c-.51.5-1.07,1-1.61,1.42l-7.14,6.49c-.59.54-1.2,1.07-1.77,1.64-.31.3-.61.36-.92.1-.62-.54-1.25-1.06-1.81-1.65a36,36,0,0,1-5.09-6.38,70.45,70.45,0,0,1-6.31-14.3,108.57,108.57,0,0,1-3.78-15.61c-.45-2.75-.77-5.53-1.09-8.31-.18-1.56-.23-3.13-.34-4.7a.06.06,0,0,1,0-.07c0-.15,0-.3-.05-.45-.08-1.47-.15-2.93-.23-4.4a2.22,2.22,0,0,0-.13-.49,2.77,2.77,0,0,1-.22-.65c-.07-1.22-.12-2.44-.17-3.66a1.21,1.21,0,0,0-.2.67c0,1,0,2,0,3,0,.14,0,.35,0,.41-.38.3-.26.69-.25,1.06s0,.77,0,1.15c.08,1.29.14,2.58.26,3.86.24,2.8.52,5.6.76,8.4a1.09,1.09,0,0,1-.23.72,21.93,21.93,0,0,1-11.57,6.56,30.76,30.76,0,0,1-7.89.87c-.36,0-.79,0-.8.52s.39.52.78.52a25.42,25.42,0,0,0,5.51-.45.65.65,0,0,1,.72.26c.75.83,1.53,1.62,2.26,2.47,1.48,1.72,2.93,3.46,4.4,5.19a33.77,33.77,0,0,1,6.19,12.62,2.05,2.05,0,0,1-.52,0,9.18,9.18,0,0,1-1.82-.47c-1.88-.86-3.74-1.78-5.6-2.69-.58-.29-.85-.23-1.07.35a28.66,28.66,0,0,1-3.41,6.06c-.43.63-.65.68-1.28.28a5.6,5.6,0,0,1-.68-.49l-3.93-3.55c-.59-.54-.73-.54-1.25.09-.92,1.1-1.79,2.24-2.75,3.3-.71.79-1.52,1.49-2.3,2.22a.81.81,0,0,1-1.21,0c-.37-.33-.79-.63-1.13-1-1.22-1.3-2.41-2.63-3.62-3.94-.48-.53-.8-.51-1.24,0-.64.81-1.26,1.64-1.92,2.42A17.11,17.11,0,0,1,101.5,137c-.11-.2-.2-.35-.27-.5a23.11,23.11,0,0,1-1.88-5.7,51.72,51.72,0,0,1-.85-14c.14-2.38.46-4.76.7-7.14.1-.78.21-1.57.32-2.45.27.18.45.31.65.42l3.61,2.11a.78.78,0,0,0,1-.05c.13-.44-.07-.68-.46-.87A30.77,30.77,0,0,1,96,102.94c-7.32-7.26-10.8-16-9.82-26.33a19.6,19.6,0,0,1,1.63-6.54,35.93,35.93,0,0,1,4.67-7.86c.81-1,1.43-2.09,2.31-3a32,32,0,0,1,12.45-7.8.65.65,0,0,1,.77.17,21.81,21.81,0,0,0,4.8,3.7c1.6.9,3.23,1.74,4.84,2.6l.13.06h0c.34.13.68.25,1,.39a.47.47,0,0,0,.65-.26c.17-.3,0-.5-.24-.65a2,2,0,0,0-.32-.17l-3.22-1.52a28.5,28.5,0,0,1-7.42-5.42,23.79,23.79,0,0,1-2.15-2.62h0L106,47.6l-.15-.15a31.35,31.35,0,0,1-5.52-11.08c-.2-.76-.34-1.55-.53-2.42a6.44,6.44,0,0,0,.74.16,19.19,19.19,0,0,0,2.13.21A2.18,2.18,0,0,0,105,31.89a18.72,18.72,0,0,0-.53-2.88c-.4-1.48-.9-2.94-1.33-4.41,0-.17,0-.5.09-.58a22.3,22.3,0,0,1,3-2.05,9.62,9.62,0,0,1,5.94-.78,16.23,16.23,0,0,1,7,3.08,31.85,31.85,0,0,1,8.76,10.24,51.34,51.34,0,0,1,6.64,20.36.74.74,0,0,0,.81.7c.1-.33.21-.66.32-1,0,0,0,0,0,0l.35.23a30.21,30.21,0,0,1,8,7.89c.78,1.11,1.43,2.31,2.14,3.46h0l.16.22a29.63,29.63,0,0,1,3.4,10.72c-.37-.66-.71-1.32-1-2-.18-.38-.46-.57-.83-.37s-.24.52-.09.86c.43,1,.82,2,1.22,2.93s.72,2.12.92,3.2c.51,2.77.95,5.54,1.38,8.32A91,91,0,0,0,154.77,105a84.51,84.51,0,0,0,4.66,11.47A69.6,69.6,0,0,0,169.17,130.92Zm-8.24-14.49-.24.17c-.1-.19-.2-.35-.28-.52a86.28,86.28,0,0,1-4.57-11.14,1.47,1.47,0,0,1,.16-1.32c1.37-2.32,2.71-4.65,4.06-7a18.29,18.29,0,0,1,3.21-4.57,5.44,5.44,0,0,1,5.16-1.63A4.07,4.07,0,0,1,171.52,93a8.33,8.33,0,0,1,.47,3.71c-.14,1.14-.26,2.29-.5,3.41a25.78,25.78,0,0,1-3.62,8.1A47.11,47.11,0,0,1,160.93,116.43Z"/><path class="cls-3" d="M138.27,59.86c2.24,1.81,4.51,3.58,6.76,5.37.39.3.77.63,1.15.94h0l.16.22a29.63,29.63,0,0,1,3.4,10.72c-.37-.66-.71-1.32-1-2-.18-.38-.46-.57-.83-.37s-.24.52-.09.86c.43,1,.81,2,1.22,2.93a69.53,69.53,0,0,0,.39,8.41,110.3,110.3,0,0,0,2.74,15.2,97.91,97.91,0,0,0,4.94,14.34,69.9,69.9,0,0,0,6.79,12.27c1.27,1.84,2.65,3.6,4,5.37a2.43,2.43,0,0,1,.34,1.65l-7.14,6.49a2.33,2.33,0,0,0-1.41-1.93l-.48-.3-.21-.16h0l-.22-.21h0l-1.37-1h0l-.21-.11h0l-.22-.21a17.49,17.49,0,0,1-4.29-5.17,57.7,57.7,0,0,1-5.27-12.24c-.47-1.46-1.05-2.88-1.49-4.35-.75-2.48-1.45-5-2.12-7.47s-1.28-4.85-1.85-7.29c-.63-2.69-1.18-5.4-1.77-8.1,0-.22-.14-.42-.21-.63a.06.06,0,0,1,0-.07l-.05-.45c-.08-1.47-.15-2.93-.23-4.4a2.22,2.22,0,0,0-.13-.49,2.77,2.77,0,0,1-.22-.65c-.07-1.22-.12-2.44-.17-3.66a1.21,1.21,0,0,0-.2.67c0,1,0,2,0,3,0,.14,0,.35,0,.41-.38.3-.26.69-.25,1.06s0,.77,0,1.15c-.42.92-.84,1.84-1.25,2.77a34.75,34.75,0,0,1-4.63,7.45,29,29,0,0,1-6,5.66,22.39,22.39,0,0,1-7.46,3.46,53.08,53.08,0,0,1-6,1.22,27.92,27.92,0,0,1-4.84,0c-1.26-.07-2.51-.35-3.76-.53.13-.44-.07-.68-.46-.87A30.77,30.77,0,0,1,96,102.94c-7.32-7.26-10.8-16-9.82-26.33a19.6,19.6,0,0,1,1.63-6.54,35.93,35.93,0,0,1,4.67-7.86c.81-1,1.43-2.09,2.31-3a32,32,0,0,1,12.45-7.8.65.65,0,0,1,.77.17,21.81,21.81,0,0,0,4.8,3.7c1.6.9,3.23,1.74,4.84,2.6l.13.06h0a3.37,3.37,0,0,0,2.29.95,6.5,6.5,0,0,0,4-1.15c.65-.4.67-.92.13-1.46a3.45,3.45,0,0,0-2.06-.81,24.08,24.08,0,0,1-2.43-.26,11.89,11.89,0,0,1-2.84-1.14c-3-1.77-5.88-3.63-8.82-5.42-.62-.38-1.3-.64-2-1h0L106,47.6l-.15-.15a31.35,31.35,0,0,1-5.52-11.08c-.2-.76-.34-1.55-.53-2.42a6.44,6.44,0,0,0,.74.16,19.19,19.19,0,0,0,2.13.21A2.18,2.18,0,0,0,105,31.89a18.72,18.72,0,0,0-.53-2.88c-.4-1.48-.9-2.94-1.33-4.41,0-.17,0-.5.09-.58a22.3,22.3,0,0,1,3-2.05,9.62,9.62,0,0,1,5.94-.78,16.23,16.23,0,0,1,7,3.08,31.85,31.85,0,0,1,8.76,10.24,51.34,51.34,0,0,1,6.64,20.36.74.74,0,0,0,.81.7A8.64,8.64,0,0,0,138.27,59.86Zm-18.44,43.7a15.4,15.4,0,0,0,8.28-8.62,42.17,42.17,0,0,0,1.28-4c.11-.37.25-.56.65-.58s.82-.13,1.24-.18a.51.51,0,0,0,.48-.67c0-.36-.36-.39-.65-.35l-3.88.62c-1.57.27-3.13.55-4.7.8a.76.76,0,0,1-.57-.17c-1.88-2-3.74-4-5.63-5.94a1.09,1.09,0,0,0-.82-.27c-1.71.15-3.41.36-5.11.55-1,.11-2,.25-3.07.33a.77.77,0,0,1-.57-.3c-1.57-2.11-3.12-4.22-4.65-6.35a.89.89,0,0,0-1-.44c-2.07.3-4.15.57-6.23.88a.67.67,0,0,1-.79-.37c-1.09-1.69-2.2-3.36-3.29-5-.22-.35-.47-.56-.85-.33a.51.51,0,0,0,0,.86,3.18,3.18,0,0,1,.58,3.23,24.09,24.09,0,0,0-.33,8.59A23.2,23.2,0,0,0,95.35,97.5,20.12,20.12,0,0,0,108.63,105c1,.13,2,.12,2.44.15A21,21,0,0,0,119.83,103.56Zm13.24-18.24c-.19-.52-.33-1-.56-1.51-1.24-2.56-2.47-5.12-3.75-7.66a2.39,2.39,0,0,0-2.78-1.3,11.91,11.91,0,0,0-2.63.86c-1.89.93-3.73,2-5.64,3l.51,1c1.38-.74,2.71-1.49,4.08-2.17a27.54,27.54,0,0,1,3.44-1.5c1.15-.38,1.67-.05,2.23,1a61.48,61.48,0,0,1,3.65,7.53l.41,1.08ZM92.92,69.48,94,68.83c1.47-.89,2.92-1.78,4.4-2.65a8,8,0,0,1,1.34-.58.9.9,0,0,1,1.26.5,31.49,31.49,0,0,1,2.87,6.73,3,3,0,0,0,.12.4s0,0,.09.11l1-.26c-.4-1.15-.72-2.3-1.18-3.37-.62-1.46-1.34-2.88-2.06-4.3a1.64,1.64,0,0,0-2.13-.94,12.09,12.09,0,0,0-2.39,1c-1.61.91-3.17,1.91-4.75,2.87a1.12,1.12,0,0,0-.23.18Z"/><path class="cls-3" d="M101.77,28.78a20.36,20.36,0,0,0-2.31-4.85,7.78,7.78,0,0,0-8.13-3,40.4,40.4,0,0,0-10.68,3.94,49.42,49.42,0,0,0-9.45,6.08,13.32,13.32,0,0,0-3.43,3.63A17,17,0,0,0,66.83,37c.46,2.4.91,4.79,1.38,7.19.86,4.42,1.68,8.84,2.61,13.25.41,1.92,1,3.79,1.59,5.69s1.16,4,1.75,6c.08.29.36,2,.47,2.22.36,0,.58-1.23.93-1.27a45.94,45.94,0,0,1,0-6.84,3.4,3.4,0,0,1-.12-.65c-.12-2.36-.16-4.73-.18-7.1-.09-1.14,0-2.29,0-3.45A2.47,2.47,0,0,1,75.51,51c0-1.88,0-3.75,0-5.63a2.06,2.06,0,0,1,0-.26,5,5,0,0,1-.27-1.43A3,3,0,0,1,75.8,42l-.06.05a2.75,2.75,0,0,0-.72.45.54.54,0,0,1-.89,0,1,1,0,0,1-.22-.82,2.29,2.29,0,0,1,1-1.32c.55-.39,1.08-.82,1.62-1.23a53.33,53.33,0,0,1,7.25-4.77,35.51,35.51,0,0,1,9.86-3.52,22.69,22.69,0,0,1,4.58-.17l3.92.1.47-.11Z"/><path class="cls-3" d="M99.2,109.71c-.24,2.38-.56,4.76-.7,7.14a51.72,51.72,0,0,0,.85,14,23.11,23.11,0,0,0,1.88,5.7c.07.15.16.3.27.5a17.11,17.11,0,0,0,3.82-3.16c.66-.78,1.28-1.61,1.92-2.42.44-.54.76-.56,1.24,0,1.21,1.31,2.4,2.64,3.62,3.94.34.36.76.66,1.13,1a.81.81,0,0,0,1.21,0c.78-.73,1.59-1.43,2.3-2.22,1-1.06,1.83-2.2,2.75-3.3.52-.63.66-.63,1.25-.09l3.93,3.55a5.6,5.6,0,0,0,.68.49c.63.4.85.35,1.28-.28a28.66,28.66,0,0,0,3.41-6.06c.22-.58.49-.64,1.07-.35,1.86.91,3.72,1.83,5.6,2.69a9.18,9.18,0,0,0,1.82.47,2.05,2.05,0,0,0,.52,0,33.77,33.77,0,0,0-6.19-12.62c-.05.2-.09.4-.13.61-.33,1.7-.95,2.74-3,2.71a13.09,13.09,0,0,1-6-1.69c-2-1.09-4-2.28-6-3.43a67,67,0,0,0-8-4.27,34.67,34.67,0,0,0-6.79-2.25C101.76,110,100.48,109.89,99.2,109.71Z"/><path class="cls-3" d="M99.2,109.71c1.28.18,2.56.31,3.82.55a34.67,34.67,0,0,1,6.79,2.25,67,67,0,0,1,8,4.27c2,1.15,4,2.34,6,3.43a13.09,13.09,0,0,0,6,1.69c2,0,2.64-1,3-2.71,0-.21.08-.41.13-.61-1.47-1.73-2.92-3.47-4.4-5.19-.73-.85-1.51-1.64-2.26-2.47a.65.65,0,0,0-.72-.26,25.42,25.42,0,0,1-5.51.45c-.39,0-.79,0-.78-.52s.44-.52.8-.52a30.76,30.76,0,0,0,7.89-.87,21.93,21.93,0,0,0,11.57-6.56,1.09,1.09,0,0,0,.23-.72c-.24-2.8-.52-5.6-.76-8.4-.12-1.28-.18-2.57-.26-3.86-.42.92-.84,1.84-1.25,2.77a34.75,34.75,0,0,1-4.63,7.45,29,29,0,0,1-6,5.66,22.39,22.39,0,0,1-7.46,3.46,53.08,53.08,0,0,1-6,1.22,27.92,27.92,0,0,1-4.84,0c-1.26-.07-2.51-.35-3.76-.53a.78.78,0,0,1-1,.05l-3.61-2.11c-.2-.11-.38-.24-.65-.42Z"/><path class="cls-3" d="M160.41,116.08a86.28,86.28,0,0,1-4.57-11.14,1.47,1.47,0,0,1,.16-1.32c1.37-2.32,2.71-4.65,4.06-7a18.29,18.29,0,0,1,3.21-4.57,5.44,5.44,0,0,1,5.16-1.63A4.07,4.07,0,0,1,171.52,93a8.33,8.33,0,0,1,.47,3.71c-.14,1.14-.26,2.29-.5,3.41a25.78,25.78,0,0,1-3.62,8.1,47.11,47.11,0,0,1-6.94,8.18l-.24.17C160.59,116.41,160.49,116.25,160.41,116.08Zm7.46-22.24a2.72,2.72,0,0,0-3.42-.62,7.19,7.19,0,0,0-3,2.6,21.62,21.62,0,0,0-3.54,7.36,5.12,5.12,0,0,0,0,2.27,2.07,2.07,0,0,0,2.83,1.67,9.82,9.82,0,0,0,4.47-3.17,12.86,12.86,0,0,0,3.17-6.72c0-.36.06-.73.09-1.09A3.65,3.65,0,0,0,167.87,93.84Z"/><path class="cls-3" d="M129.07,132.74l-1.82,2.62a1.35,1.35,0,0,1-2,.51,17.91,17.91,0,0,1-2-1.48c-.33-.25-.64-.54-1-.82a5,5,0,0,0-.51.52c-.58.73-1.14,1.48-1.7,2.22a3.14,3.14,0,0,0,.76,2.07,31.65,31.65,0,0,0,2.81,3.78,8.28,8.28,0,0,0,9.77,2.21l.1-.09h0c.05-.17.08-.34.14-.5a10.87,10.87,0,0,0,.89-3.79,7.06,7.06,0,0,0-2.58-5.91A5.48,5.48,0,0,0,129.07,132.74Z"/><path class="cls-3" d="M149,78.53a69.53,69.53,0,0,0,.39,8.41,110.3,110.3,0,0,0,2.74,15.2,97.91,97.91,0,0,0,4.94,14.34,69.9,69.9,0,0,0,6.79,12.27c1.27,1.84,2.65,3.6,4,5.37a2.43,2.43,0,0,1,.34,1.65c.54-.47,1.1-.92,1.61-1.42a1.58,1.58,0,0,0,.31-1.89,6.43,6.43,0,0,0-1-1.54,69.6,69.6,0,0,1-9.74-14.48A84.51,84.51,0,0,1,154.77,105a91,91,0,0,1-3.46-14.92c-.43-2.78-.87-5.55-1.38-8.32C149.73,80.65,149.32,79.6,149,78.53Z"/><path class="cls-3" d="M157,138.3a17.49,17.49,0,0,1-4.29-5.17,57.7,57.7,0,0,1-5.27-12.24c-.47-1.46-1.05-2.88-1.49-4.35-.75-2.48-1.45-5-2.12-7.47s-1.28-4.85-1.85-7.29c-.63-2.69-1.18-5.4-1.77-8.1,0-.22-.14-.42-.21-.63.11,1.57.16,3.14.34,4.7.32,2.78.64,5.56,1.09,8.31a108.57,108.57,0,0,0,3.78,15.61,70.45,70.45,0,0,0,6.31,14.3,36,36,0,0,0,5.09,6.38c.56.59,1.19,1.11,1.81,1.65.31.26.61.2.92-.1.57-.57,1.18-1.1,1.77-1.64a2.33,2.33,0,0,0-1.41-1.93l-.48-.3-.21-.16h0l-.22-.21h0l-1.37-1h0l-.21-.11h0Z"/><path class="cls-3" d="M106.78,133.76a22.13,22.13,0,0,1-3.28,3.14.68.68,0,0,0-.2.56,13.34,13.34,0,0,0,4.81,7.47,7,7,0,0,0,6.91.86c0-.13.1-.25.14-.38a17.11,17.11,0,0,0,1-3,8.53,8.53,0,0,0-.91-5.28c-1.64.91-1.19.77-2.82-.07a3.15,3.15,0,0,1-.7-.62c-.85-.88-1.68-1.77-2.53-2.65Z"/><path class="cls-3" d="M66.83,37a17,17,0,0,1,.94-2.43,13.32,13.32,0,0,1,3.43-3.63,49.42,49.42,0,0,1,9.45-6.08,40.4,40.4,0,0,1,10.68-3.94,7.78,7.78,0,0,1,8.13,3,20.36,20.36,0,0,1,2.31,4.85l.8,1.89-.47.11,1.75.21c-.24-.92-.43-1.86-.72-2.77-.6-1.82-1.24-3.62-1.88-5.43a3.82,3.82,0,0,0-2.79-2.41,26,26,0,0,0-6.14-1.22,10.1,10.1,0,0,0-4.41.6A79.12,79.12,0,0,0,73.4,27.83c-1.86,1.27-3.56,2.76-5.29,4.21A4.06,4.06,0,0,0,66.83,37Z"/><path class="cls-3" d="M103.85,31l-1.75-.21-3.92-.1a22.69,22.69,0,0,0-4.58.17,35.51,35.51,0,0,0-9.86,3.52,53.33,53.33,0,0,0-7.25,4.77c-.54.41-1.07.84-1.62,1.23a2.29,2.29,0,0,0-1,1.32,1,1,0,0,0,.22.82.54.54,0,0,0,.89,0,2.75,2.75,0,0,1,.72-.45,2.88,2.88,0,0,1,.33-.43c.52-.46,1.28-.66,1.51-1.43,0-.09.14-.15.23-.2a53.13,53.13,0,0,1,14.5-6.91A16.36,16.36,0,0,1,99,32.62c.93.13,1.85.33,2.76.55a2.65,2.65,0,0,0,1.78-.24,1.1,1.1,0,0,0,.45-.74A5.44,5.44,0,0,0,103.85,31Z"/><path class="cls-3" d="M129.07,132.74a5.48,5.48,0,0,1,3,1.34A7.06,7.06,0,0,1,134.6,140a10.87,10.87,0,0,1-.89,3.79c-.06.16-.09.33-.14.5a5.56,5.56,0,0,0,3.09-3,9.25,9.25,0,0,0,.7-4.56c-.11-1.51-.35-3-.54-4.52a.54.54,0,0,0-.25-.34c-1.84-.89-3.69-1.76-5.53-2.63l-.15,0Z"/><path class="cls-3" d="M117.75,58a3.37,3.37,0,0,0,2.29.95,6.5,6.5,0,0,0,4-1.15c.65-.4.67-.92.13-1.46a3.45,3.45,0,0,0-2.06-.81,24.08,24.08,0,0,1-2.43-.26,11.89,11.89,0,0,1-2.84-1.14c-3-1.77-5.88-3.63-8.82-5.42-.62-.38-1.3-.64-2-1a23.79,23.79,0,0,0,2.15,2.62,28.5,28.5,0,0,0,7.42,5.42l3.22,1.52a2,2,0,0,1,.32.17c.25.15.41.35.24.65a.47.47,0,0,1-.65.26C118.43,58.21,118.09,58.09,117.75,58Z"/><path class="cls-3" d="M137.87,132l.31,1.94c.72-.35,1.37-.68,2-1a43.82,43.82,0,0,0,6.17-3.45.65.65,0,0,0,.29-.94c-.66-1.65-1.29-3.32-1.94-5,0-.09-.09-.18-.16-.34-.48.59-.88,1.18-1.37,1.69q-1.69,1.74-3.47,3.42a.6.6,0,0,0-.2.72c.2.63.38,1.27.52,1.92s-.08.88-.75.91C138.84,131.91,138.39,132,137.87,132Z"/><path class="cls-3" d="M115.2,137.1a8.53,8.53,0,0,1,.91,5.28,17.11,17.11,0,0,1-1,3c0,.13-.09.25-.14.38a5.43,5.43,0,0,0,4-4.43,14.56,14.56,0,0,0,0-5.62c-.13-.67-.22-1.34-.3-1.78Z"/><path class="cls-3" d="M135.33,55.57a8.64,8.64,0,0,0,2.94,4.29c2.24,1.81,4.51,3.58,6.76,5.37.39.3.77.63,1.15.94-.71-1.15-1.36-2.35-2.14-3.46a30.21,30.21,0,0,0-8-7.89l-.35-.23s-.06,0,0,0Z"/><path class="cls-3" d="M120.13,136.31c.56-.74,1.12-1.49,1.7-2.22a5,5,0,0,1,.51-.52l-2.16-1.94a1.44,1.44,0,0,0-.61,1.5C119.82,134.18,120,135.25,120.13,136.31Z"/><path class="cls-3" d="M106.78,133.76h2.37c-.39-.46-.79-.91-1.24-1.41Z"/><path class="cls-3" d="M139.94,93l-.05-.45Z"/><path class="cls-3" d="M146.17,66.17l.16.22Z"/><path class="cls-3" d="M106.07,47.71,106,47.6Z"/><path class="cls-3" d="M117.61,57.9l.13.06Z"/><path class="cls-3" d="M133.57,144.28l-.1.09Z"/><path class="cls-3" d="M108.63,105A20.12,20.12,0,0,1,95.35,97.5a23.2,23.2,0,0,1-5.16-11.74,24.09,24.09,0,0,1,.33-8.59,3.18,3.18,0,0,0-.58-3.23.51.51,0,0,1,0-.86c.38-.23.63,0,.85.33,1.09,1.69,2.2,3.36,3.29,5a.67.67,0,0,0,.79.37c2.08-.31,4.16-.58,6.23-.88a.89.89,0,0,1,1,.44c1.53,2.13,3.08,4.24,4.65,6.35a.77.77,0,0,0,.57.3c1-.08,2-.22,3.07-.33,1.7-.19,3.4-.4,5.11-.55a1.09,1.09,0,0,1,.82.27c1.89,2,3.75,4,5.63,5.94a.76.76,0,0,0,.57.17c1.57-.25,3.13-.53,4.7-.8l3.88-.62c.29,0,.6,0,.65.35a.51.51,0,0,1-.48.67c-.42,0-.83.15-1.24.18s-.54.21-.65.58a42.17,42.17,0,0,1-1.28,4,15.4,15.4,0,0,1-8.28,8.62,21,21,0,0,1-8.76,1.56C110.58,105.09,109.59,105.1,108.63,105Zm-9.95-5.54a18.93,18.93,0,0,0,9.92,4.48,11.85,11.85,0,0,0,2.45-.07c1.78-.09,3.57-.08,5.33-.33a14.44,14.44,0,0,0,3.41-1.1,12.39,12.39,0,0,0,4-2.84,13.65,13.65,0,0,0,3.31-5.16c.48-1.21.83-2.47,1.28-3.83L126,91c-1.2.22-2.4.48-3.61.64a1.3,1.3,0,0,1-.94-.37c-1.85-1.91-3.67-3.85-5.48-5.79a.88.88,0,0,0-.84-.29c-2.56.31-5.13.6-7.69.93a1.34,1.34,0,0,1-1.49-.66c-.54-.85-1.17-1.66-1.78-2.46a.67.67,0,0,0-.48-.26,19.51,19.51,0,0,0-9,3.16c-.93.63-1.76,1.42-2.64,2.13a.58.58,0,0,0-.2.74c.23.59.43,1.18.64,1.77A22.82,22.82,0,0,0,98.68,99.43Z"/><path class="cls-3" d="M132,85.69l1-.37c-.19-.52-.33-1-.56-1.51-1.24-2.56-2.47-5.12-3.75-7.66a2.39,2.39,0,0,0-2.78-1.3,11.91,11.91,0,0,0-2.63.86c-1.89.93-3.73,2-5.64,3l.51,1c1.38-.74,2.71-1.49,4.08-2.17a27.54,27.54,0,0,1,3.44-1.5c1.15-.38,1.67-.05,2.23,1a61.48,61.48,0,0,1,3.65,7.53Z"/><path class="cls-3" d="M92.37,68.56l.55.92L94,68.83c1.47-.89,2.92-1.78,4.4-2.65a8,8,0,0,1,1.34-.58.9.9,0,0,1,1.26.5,31.49,31.49,0,0,1,2.87,6.73,3,3,0,0,0,.12.4s0,0,.09.11l1-.26c-.4-1.15-.72-2.3-1.18-3.37-.62-1.46-1.34-2.88-2.06-4.3a1.64,1.64,0,0,0-2.13-.94,12.09,12.09,0,0,0-2.39,1c-1.61.91-3.17,1.91-4.75,2.87A1.12,1.12,0,0,0,92.37,68.56Z"/><path class="cls-3" d="M157.39,138.62l1.37,1Z"/><path class="cls-3" d="M157,138.3l.22.21Z"/><path class="cls-3" d="M158.75,139.67l.22.21Z"/><path class="cls-3" d="M157.18,138.51l.21.11Z"/><path class="cls-3" d="M159,139.87l.21.16Z"/><path class="cls-3" d="M168.36,97.23a12.86,12.86,0,0,1-3.17,6.72,9.82,9.82,0,0,1-4.47,3.17,2.07,2.07,0,0,1-2.83-1.67,5.12,5.12,0,0,1,0-2.27,21.62,21.62,0,0,1,3.54-7.36,7.19,7.19,0,0,1,3-2.6,2.72,2.72,0,0,1,3.42.62,3.65,3.65,0,0,1,.58,2.3C168.42,96.5,168.41,96.87,168.36,97.23Zm-9.49,8a1.25,1.25,0,0,0,1.68.94,3.2,3.2,0,0,0,.9-.41,12.23,12.23,0,0,0,5.87-8.62,6.3,6.3,0,0,0-.09-2.12,1.28,1.28,0,0,0-1.73-1,4.28,4.28,0,0,0-2.37,1.46,19.59,19.59,0,0,0-4.2,7.73,10.15,10.15,0,0,0-.19,1.23A7.37,7.37,0,0,0,158.87,105.21Z"/><path class="cls-3" d="M92.49,90.54a22.82,22.82,0,0,0,6.19,8.89,18.93,18.93,0,0,0,9.92,4.48,11.85,11.85,0,0,0,2.45-.07c1.78-.09,3.57-.08,5.33-.33a14.44,14.44,0,0,0,3.41-1.1,12.39,12.39,0,0,0,4-2.84.38.38,0,0,0,0-.15,20.52,20.52,0,0,0-6.89-6.82,26,26,0,0,0-7.19-2.93,28.31,28.31,0,0,0-3.63-.69c-1.45-.14-2.92-.09-4.38-.14A25.39,25.39,0,0,0,92.49,90.54Z"/><path class="cls-3" d="M92.49,90.54a25.39,25.39,0,0,1,9.2-1.7c1.46,0,2.93,0,4.38.14a28.31,28.31,0,0,1,3.63.69,26,26,0,0,1,7.19,2.93,20.52,20.52,0,0,1,6.89,6.82.38.38,0,0,1,0,.15,13.65,13.65,0,0,0,3.31-5.16c.48-1.21.83-2.47,1.28-3.83L126,91c-1.2.22-2.4.48-3.61.64a1.3,1.3,0,0,1-.94-.37c-1.85-1.91-3.67-3.85-5.48-5.79a.88.88,0,0,0-.84-.29c-2.56.31-5.13.6-7.69.93a1.34,1.34,0,0,1-1.49-.66c-.54-.85-1.17-1.66-1.78-2.46a.67.67,0,0,0-.48-.26,19.51,19.51,0,0,0-9,3.16c-.93.63-1.76,1.42-2.64,2.13a.58.58,0,0,0-.2.74C92.08,89.36,92.28,90,92.49,90.54Z"/><path class="cls-3" d="M158.93,103.14a19.59,19.59,0,0,1,4.2-7.73A4.28,4.28,0,0,1,165.5,94a1.28,1.28,0,0,1,1.73,1,6.3,6.3,0,0,1,.09,2.12,12.23,12.23,0,0,1-5.87,8.62,3.2,3.2,0,0,1-.9.41,1.25,1.25,0,0,1-1.68-.94,7.37,7.37,0,0,1-.13-.84A10.15,10.15,0,0,1,158.93,103.14Zm3.28-2.6a.33.33,0,0,0,.54.26,2.27,2.27,0,0,0,.69-.79c.16-.31-.07-.48-.4-.46A1.11,1.11,0,0,0,162.21,100.54Z"/><path class="cls-3" d="M163,99.54a1.13,1.13,0,0,0-.83,1,.33.33,0,0,0,.54.26,2.27,2.27,0,0,0,.69-.79C163.6,99.7,163.37,99.53,163,99.54Z"/><path class="cls-3" d="M139.46,130.6a8.86,8.86,0,0,1-4.87-.7c-1.42-.67-2.6-1.72-4.08-2.29a.73.73,0,0,0-.84.34L128,131.34l-.78,1.62a5,5,0,0,1-.85,1.56c-.51.44-1.09-.18-1.53-.52s-.93-.74-1.37-1.13A27.9,27.9,0,0,1,121,130.3a.75.75,0,0,0-1.18.15A19.46,19.46,0,0,1,114.6,136c-1.08.68-2.44-1.37-3.08-2l-3.07-3.27a.77.77,0,0,0-1.18.15,30.74,30.74,0,0,1-5.19,5.91c-.72.64.34,1.69,1.06,1.06a31.54,31.54,0,0,0,4.85-5.41l3.24,3.44c.86.92,2,2.18,3.38,1.81a4.45,4.45,0,0,0,1.65-1.06,24,24,0,0,0,1.89-1.75A24.91,24.91,0,0,0,120.5,132a27.12,27.12,0,0,0,2.68,2.57c.88.72,2.07,2,3.33,1.61s1.76-1.92,2.26-3l1.91-3.93c1.34.66,2.5,1.68,3.92,2.22a10.06,10.06,0,0,0,4.86.58C140.4,132,140.42,130.48,139.46,130.6Z"/><path class="cls-4" d="M171.6,103.3A17.11,17.11,0,0,0,173,96.24a16,16,0,0,0-.35-3,5,5,0,0,0-3.53-3.65c-2.85-1-5.65.52-7.37,2.57a38.66,38.66,0,0,0-3.41,5.43c-1,1.76-2,3.54-3.12,5.43-.42-1.54-.87-3-1.18-4.39q-1-4.56-1.81-9.15-.65-3.57-1.16-7.16A22,22,0,0,1,151,79.5a29.09,29.09,0,0,0-2.46-10.83,33.73,33.73,0,0,0-9.76-13.05c-.92-.76-1.92-1.44-2.92-2.11a1.27,1.27,0,0,1-.61-.94A52.23,52.23,0,0,0,125.49,29a25.06,25.06,0,0,0-8.31-7.28,13.92,13.92,0,0,0-6.29-1.67,10.1,10.1,0,0,0-4.75.78c-1.27.61-2.44,1.43-3.7,2.18-.16-.32-.44-.77-.63-1.25a3.82,3.82,0,0,0-2.59-2.22,24.06,24.06,0,0,0-6.77-1.38,13.07,13.07,0,0,0-5.55.87,60.3,60.3,0,0,0-7.5,4.07c-2.11,1.2-4.21,2.43-6.28,3.71a35.6,35.6,0,0,0-6.31,5,4.58,4.58,0,0,0-1.2,4.35c.7,3.85,1.49,7.68,2.23,11.52.65,3.35,1.25,6.7,2,10,.35,1.65.91,3.25,1.37,4.87.69,2.37,1.35,4.75,2.09,7.1A20.34,20.34,0,0,0,74.82,73l.26-1.76A11.26,11.26,0,0,1,74.47,70a8.29,8.29,0,0,1-.31-.83c-.59-2-1.18-4-1.75-6s-1.18-3.77-1.59-5.69c-.93-4.41-1.75-8.83-2.61-13.25-.47-2.4-.92-4.79-1.38-7.19a4.06,4.06,0,0,1,1.28-5c1.73-1.45,3.43-2.94,5.29-4.21a79.12,79.12,0,0,1,14.51-8.07,10.1,10.1,0,0,1,4.41-.6,26,26,0,0,1,6.14,1.22,3.82,3.82,0,0,1,2.79,2.41c.64,1.81,1.28,3.61,1.88,5.43.29.91.48,1.85.72,2.77a5.44,5.44,0,0,1,.09,1.2,1.1,1.1,0,0,1-.45.74,2.65,2.65,0,0,1-1.78.24c-.91-.22-1.83-.42-2.76-.55a16.36,16.36,0,0,0-6.64.44A53.13,53.13,0,0,0,77.81,40c-.09.05-.21.11-.23.2-.23.77-1,1-1.51,1.43a2.88,2.88,0,0,0-.33.43c1-.7,4.44-2.37,4.75-2.56a50.36,50.36,0,0,1,11.42-5.21,16.26,16.26,0,0,1,6.5-.64.41.41,0,0,1,.43.39c.38,1.67.7,3.37,1.23,5a32.73,32.73,0,0,0,5.66,10l1.15,1.44a.77.77,0,0,1-.13.09l-.38.15a34.18,34.18,0,0,0-12,7.48c-.15.15-4.47,6.08-6.07,8.38-.39.78-.79,1.55-1.15,2.35-.12.27-1.43,4.64-1.54,5.19a28.92,28.92,0,0,0-.51,9,32.56,32.56,0,0,0,6.28,16.12,35.19,35.19,0,0,0,6.87,7.08.67.67,0,0,1,.35.75,100.2,100.2,0,0,0-1.11,10.08,67.4,67.4,0,0,0,.14,9.1,32.55,32.55,0,0,0,2.53,10.5,11.54,11.54,0,0,0,.58,1.1c.31.58.62.64,1.18.25.12-.09.26-.17.4-.26.29.79.52,1.58.87,2.33,1.3,2.81,3.07,5.23,6,6.57a16.38,16.38,0,0,0,2,.65h1.57c.61-.1,1.21-.19,1.81-.31a6.71,6.71,0,0,0,5.54-5.74c.09-.59.17-1.19.26-1.89.66.88,1.29,1.71,1.89,2.54a9.85,9.85,0,0,0,6.19,4.06,8.56,8.56,0,0,0,8-2.36,7,7,0,0,0,1.92-4.31c.14-1.29,0-2.61,0-3.91a.66.66,0,0,1,.24-.49c2.9-1.61,5.81-3.2,8.74-4.82.75,1.45,1.5,2.87,2.21,4.32a32.26,32.26,0,0,0,5.29,7.6c.87.94,1.87,1.77,2.82,2.63a2.57,2.57,0,0,0,2.34,0l9.57-8.63.47-.42a3,3,0,0,0,.6-4.46c-.73-1-1.56-1.92-2.35-2.87a69.56,69.56,0,0,1-7.12-10.75c1-1,2.13-2,3.13-3A35.89,35.89,0,0,0,171.6,103.3ZM119,141.36a5.43,5.43,0,0,1-4,4.43,7,7,0,0,1-6.91-.86,13.34,13.34,0,0,1-4.81-7.47.68.68,0,0,1,.2-.56,22.13,22.13,0,0,0,3.28-3.14c.36-.46.73-.91,1.13-1.41.45.5.85,1,1.24,1.41.85.88,1.68,1.77,2.53,2.65a3.15,3.15,0,0,0,.7.62c1.63.84,1.18,1,2.82.07l3.44-3.14c.08.44.17,1.11.29,1.78A14.37,14.37,0,0,1,119,141.36Zm17.68-.12a5.56,5.56,0,0,1-3.09,3l-.1.09a8.28,8.28,0,0,1-9.77-2.21,31.65,31.65,0,0,1-2.81-3.78,3.14,3.14,0,0,1-.76-2.07c-.18-1.06-.31-2.13-.56-3.18a1.44,1.44,0,0,1,.61-1.5l2.16,1.94c.31.28.62.57,1,.82a17.91,17.91,0,0,0,2,1.48,1.35,1.35,0,0,0,2-.51l1.82-2.62c.6-1.2,1.21-2.39,1.82-3.59l.15,0c1.84.87,3.69,1.74,5.53,2.63a.54.54,0,0,1,.25.34c.19,1.51.43,3,.54,4.52A9.25,9.25,0,0,1,136.66,141.24Zm9.71-11.74A43.82,43.82,0,0,1,140.2,133c-.65.3-1.3.63-2,1-.11-.67-.2-1.27-.31-1.94.52,0,1-.08,1.42-.09.67,0,.89-.25.75-.91s-.32-1.29-.52-1.92a.6.6,0,0,1,.2-.72q1.77-1.68,3.47-3.42c.49-.51.89-1.1,1.37-1.69.07.16.12.25.16.34.65,1.66,1.28,3.33,1.94,5A.65.65,0,0,1,146.37,129.5Zm-7.31-1.93c-2.62-6.66-6.87-12.12-11.85-17.12,4.89-1.18,9.23-3.18,12.74-6.87.06.23.1.38.13.54.33,1.95.64,3.91,1,5.86a112.23,112.23,0,0,0,3,11.71.75.75,0,0,1-.06.51A33.45,33.45,0,0,1,139.06,127.57Zm30.11,3.35a6.43,6.43,0,0,1,1,1.54,1.58,1.58,0,0,1-.31,1.89c-.51.5-1.07,1-1.61,1.42l-7.14,6.49c-.59.54-1.2,1.07-1.77,1.64-.31.3-.61.36-.92.1-.62-.54-1.25-1.06-1.81-1.65a36,36,0,0,1-5.09-6.38,70.45,70.45,0,0,1-6.31-14.3,108.57,108.57,0,0,1-3.78-15.61c-.45-2.75-.77-5.53-1.09-8.31-.18-1.56-.23-3.13-.34-4.7a.06.06,0,0,1,0-.07c0-.15,0-.3-.05-.45-.08-1.47-.15-2.93-.23-4.4a2.22,2.22,0,0,0-.13-.49,2.77,2.77,0,0,1-.22-.65c-.07-1.22-.12-2.44-.17-3.66a1.21,1.21,0,0,0-.2.67c0,1,0,2,0,3,0,.14,0,.35,0,.41-.38.3-.26.69-.25,1.06s0,.77,0,1.15c.08,1.29.14,2.58.26,3.86.24,2.8.52,5.6.76,8.4a1.09,1.09,0,0,1-.23.72,21.93,21.93,0,0,1-11.57,6.56,30.76,30.76,0,0,1-7.89.87c-.36,0-.79,0-.8.52s.39.52.78.52a25.42,25.42,0,0,0,5.51-.45.65.65,0,0,1,.72.26c.75.83,1.53,1.62,2.26,2.47,1.48,1.72,2.93,3.46,4.4,5.19a33.77,33.77,0,0,1,6.19,12.62,2.05,2.05,0,0,1-.52,0,9.18,9.18,0,0,1-1.82-.47c-1.88-.86-3.74-1.78-5.6-2.69-.58-.29-.85-.23-1.07.35a28.66,28.66,0,0,1-3.41,6.06c-.43.63-.65.68-1.28.28a5.6,5.6,0,0,1-.68-.49l-3.93-3.55c-.59-.54-.73-.54-1.25.09-.92,1.1-1.79,2.24-2.75,3.3-.71.79-1.52,1.49-2.3,2.22a.81.81,0,0,1-1.21,0c-.37-.33-.79-.63-1.13-1-1.22-1.3-2.41-2.63-3.62-3.94-.48-.53-.8-.51-1.24,0-.64.81-1.26,1.64-1.92,2.42A17.11,17.11,0,0,1,101.5,137c-.11-.2-.2-.35-.27-.5a23.11,23.11,0,0,1-1.88-5.7,51.72,51.72,0,0,1-.85-14c.14-2.38.46-4.76.7-7.14.1-.78.21-1.57.32-2.45.27.18.45.31.65.42l3.61,2.11a.78.78,0,0,0,1-.05c.13-.44-.07-.68-.46-.87A30.77,30.77,0,0,1,96,102.94c-7.32-7.26-10.8-16-9.82-26.33a19.6,19.6,0,0,1,1.63-6.54,35.93,35.93,0,0,1,4.67-7.86c.81-1,1.43-2.09,2.31-3a32,32,0,0,1,12.45-7.8.65.65,0,0,1,.77.17,21.81,21.81,0,0,0,4.8,3.7c1.6.9,3.23,1.74,4.84,2.6l.13.06h0c.34.13.68.25,1,.39a.47.47,0,0,0,.65-.26c.17-.3,0-.5-.24-.65a2,2,0,0,0-.32-.17l-3.22-1.52a28.5,28.5,0,0,1-7.42-5.42,23.79,23.79,0,0,1-2.15-2.62h0L106,47.6l-.15-.15a31.35,31.35,0,0,1-5.52-11.08c-.2-.76-.34-1.55-.53-2.42a6.44,6.44,0,0,0,.74.16,19.19,19.19,0,0,0,2.13.21A2.18,2.18,0,0,0,105,31.89a18.72,18.72,0,0,0-.53-2.88c-.4-1.48-.9-2.94-1.33-4.41,0-.17,0-.5.09-.58a22.3,22.3,0,0,1,3-2.05,9.62,9.62,0,0,1,5.94-.78,16.23,16.23,0,0,1,7,3.08,31.85,31.85,0,0,1,8.76,10.24,51.34,51.34,0,0,1,6.64,20.36.74.74,0,0,0,.81.7c.1-.33.21-.66.32-1,0,0,0,0,0,0l.35.23a30.21,30.21,0,0,1,8,7.89c.78,1.11,1.43,2.31,2.14,3.46h0l.16.22a29.63,29.63,0,0,1,3.4,10.72c-.37-.66-.71-1.32-1-2-.18-.38-.46-.57-.83-.37s-.24.52-.09.86c.43,1,.82,2,1.22,2.93s.72,2.12.92,3.2c.51,2.77.95,5.54,1.38,8.32A91,91,0,0,0,154.77,105a84.51,84.51,0,0,0,4.66,11.47A69.6,69.6,0,0,0,169.17,130.92Zm-8.24-14.49-.24.17c-.1-.19-.2-.35-.28-.52a86.28,86.28,0,0,1-4.57-11.14,1.47,1.47,0,0,1,.16-1.32c1.37-2.32,2.71-4.65,4.06-7a18.29,18.29,0,0,1,3.21-4.57,5.44,5.44,0,0,1,5.16-1.63A4.07,4.07,0,0,1,171.52,93a8.33,8.33,0,0,1,.47,3.71c-.14,1.14-.26,2.29-.5,3.41a25.78,25.78,0,0,1-3.62,8.1A47.11,47.11,0,0,1,160.93,116.43Z"/><path class="cls-1" d="M138.27,59.86c2.24,1.81,4.51,3.58,6.76,5.37.39.3.77.63,1.15.94h0l.16.22a29.63,29.63,0,0,1,3.4,10.72c-.37-.66-.71-1.32-1-2-.18-.38-.46-.57-.83-.37s-.24.52-.09.86c.43,1,.81,2,1.22,2.93a69.53,69.53,0,0,0,.39,8.41,110.3,110.3,0,0,0,2.74,15.2,97.91,97.91,0,0,0,4.94,14.34,69.9,69.9,0,0,0,6.79,12.27c1.27,1.84,2.65,3.6,4,5.37a2.43,2.43,0,0,1,.34,1.65l-7.14,6.49a2.33,2.33,0,0,0-1.41-1.93l-.48-.3-.21-.16h0l-.22-.21h0l-1.37-1h0l-.21-.11h0l-.22-.21a17.49,17.49,0,0,1-4.29-5.17,57.7,57.7,0,0,1-5.27-12.24c-.47-1.46-1.05-2.88-1.49-4.35-.75-2.48-1.45-5-2.12-7.47s-1.28-4.85-1.85-7.29c-.63-2.69-1.18-5.4-1.77-8.1,0-.22-.14-.42-.21-.63a.06.06,0,0,1,0-.07l-.05-.45c-.08-1.47-.15-2.93-.23-4.4a2.22,2.22,0,0,0-.13-.49,2.77,2.77,0,0,1-.22-.65c-.07-1.22-.12-2.44-.17-3.66a1.21,1.21,0,0,0-.2.67c0,1,0,2,0,3,0,.14,0,.35,0,.41-.38.3-.26.69-.25,1.06s0,.77,0,1.15c-.42.92-.84,1.84-1.25,2.77a34.75,34.75,0,0,1-4.63,7.45,29,29,0,0,1-6,5.66,22.39,22.39,0,0,1-7.46,3.46,53.08,53.08,0,0,1-6,1.22,27.92,27.92,0,0,1-4.84,0c-1.26-.07-2.51-.35-3.76-.53.13-.44-.07-.68-.46-.87A30.77,30.77,0,0,1,96,102.94c-7.32-7.26-10.8-16-9.82-26.33a19.6,19.6,0,0,1,1.63-6.54,35.93,35.93,0,0,1,4.67-7.86c.81-1,1.43-2.09,2.31-3a32,32,0,0,1,12.45-7.8.65.65,0,0,1,.77.17,21.81,21.81,0,0,0,4.8,3.7c1.6.9,3.23,1.74,4.84,2.6l.13.06h0a3.37,3.37,0,0,0,2.29.95,6.5,6.5,0,0,0,4-1.15c.65-.4.67-.92.13-1.46a3.45,3.45,0,0,0-2.06-.81,24.08,24.08,0,0,1-2.43-.26,11.89,11.89,0,0,1-2.84-1.14c-3-1.77-5.88-3.63-8.82-5.42-.62-.38-1.3-.64-2-1h0L106,47.6l-.15-.15a31.35,31.35,0,0,1-5.52-11.08c-.2-.76-.34-1.55-.53-2.42a6.44,6.44,0,0,0,.74.16,19.19,19.19,0,0,0,2.13.21A2.18,2.18,0,0,0,105,31.89a18.72,18.72,0,0,0-.53-2.88c-.4-1.48-.9-2.94-1.33-4.41,0-.17,0-.5.09-.58a22.3,22.3,0,0,1,3-2.05,9.62,9.62,0,0,1,5.94-.78,16.23,16.23,0,0,1,7,3.08,31.85,31.85,0,0,1,8.76,10.24,51.34,51.34,0,0,1,6.64,20.36.74.74,0,0,0,.81.7A8.64,8.64,0,0,0,138.27,59.86Zm-18.44,43.7a15.4,15.4,0,0,0,8.28-8.62,42.17,42.17,0,0,0,1.28-4c.11-.37.25-.56.65-.58s.82-.13,1.24-.18a.51.51,0,0,0,.48-.67c0-.36-.36-.39-.65-.35l-3.88.62c-1.57.27-3.13.55-4.7.8a.76.76,0,0,1-.57-.17c-1.88-2-3.74-4-5.63-5.94a1.09,1.09,0,0,0-.82-.27c-1.71.15-3.41.36-5.11.55-1,.11-2,.25-3.07.33a.77.77,0,0,1-.57-.3c-1.57-2.11-3.12-4.22-4.65-6.35a.89.89,0,0,0-1-.44c-2.07.3-4.15.57-6.23.88a.67.67,0,0,1-.79-.37c-1.09-1.69-2.2-3.36-3.29-5-.22-.35-.47-.56-.85-.33a.51.51,0,0,0,0,.86,3.18,3.18,0,0,1,.58,3.23,24.09,24.09,0,0,0-.33,8.59A23.2,23.2,0,0,0,95.35,97.5,20.12,20.12,0,0,0,108.63,105c1,.13,2,.12,2.44.15A21,21,0,0,0,119.83,103.56Zm13.24-18.24c-.19-.52-.33-1-.56-1.51-1.24-2.56-2.47-5.12-3.75-7.66a2.39,2.39,0,0,0-2.78-1.3,11.91,11.91,0,0,0-2.63.86c-1.89.93-3.73,2-5.64,3l.51,1c1.38-.74,2.71-1.49,4.08-2.17a27.54,27.54,0,0,1,3.44-1.5c1.15-.38,1.67-.05,2.23,1a61.48,61.48,0,0,1,3.65,7.53l.41,1.08ZM92.92,69.48,94,68.83c1.47-.89,2.92-1.78,4.4-2.65a8,8,0,0,1,1.34-.58.9.9,0,0,1,1.26.5,31.49,31.49,0,0,1,2.87,6.73,3,3,0,0,0,.12.4s0,0,.09.11l1-.26c-.4-1.15-.72-2.3-1.18-3.37-.62-1.46-1.34-2.88-2.06-4.3a1.64,1.64,0,0,0-2.13-.94,12.09,12.09,0,0,0-2.39,1c-1.61.91-3.17,1.91-4.75,2.87a1.12,1.12,0,0,0-.23.18Z"/><path class="cls-1" d="M101.77,28.78a20.36,20.36,0,0,0-2.31-4.85,7.78,7.78,0,0,0-8.13-3,40.4,40.4,0,0,0-10.68,3.94,49.42,49.42,0,0,0-9.45,6.08,13.32,13.32,0,0,0-3.43,3.63A17,17,0,0,0,66.83,37c.46,2.4.91,4.79,1.38,7.19.86,4.42,1.68,8.84,2.61,13.25.41,1.92,1,3.79,1.59,5.69s1.16,4,1.75,6c.08.29.36,2,.47,2.22.36,0,.58-1.23.93-1.27a45.94,45.94,0,0,1,0-6.84,3.4,3.4,0,0,1-.12-.65c-.12-2.36-.16-4.73-.18-7.1-.09-1.14,0-2.29,0-3.45A2.47,2.47,0,0,1,75.51,51c0-1.88,0-3.75,0-5.63a2.06,2.06,0,0,1,0-.26,5,5,0,0,1-.27-1.43A3,3,0,0,1,75.8,42l-.06.05a2.75,2.75,0,0,0-.72.45.54.54,0,0,1-.89,0,1,1,0,0,1-.22-.82,2.29,2.29,0,0,1,1-1.32c.55-.39,1.08-.82,1.62-1.23a53.33,53.33,0,0,1,7.25-4.77,35.51,35.51,0,0,1,9.86-3.52,22.69,22.69,0,0,1,4.58-.17l3.92.1.47-.11Z"/><path class="cls-1" d="M99.2,109.71c-.24,2.38-.56,4.76-.7,7.14a51.72,51.72,0,0,0,.85,14,23.11,23.11,0,0,0,1.88,5.7c.07.15.16.3.27.5a17.11,17.11,0,0,0,3.82-3.16c.66-.78,1.28-1.61,1.92-2.42.44-.54.76-.56,1.24,0,1.21,1.31,2.4,2.64,3.62,3.94.34.36.76.66,1.13,1a.81.81,0,0,0,1.21,0c.78-.73,1.59-1.43,2.3-2.22,1-1.06,1.83-2.2,2.75-3.3.52-.63.66-.63,1.25-.09l3.93,3.55a5.6,5.6,0,0,0,.68.49c.63.4.85.35,1.28-.28a28.66,28.66,0,0,0,3.41-6.06c.22-.58.49-.64,1.07-.35,1.86.91,3.72,1.83,5.6,2.69a9.18,9.18,0,0,0,1.82.47,2.05,2.05,0,0,0,.52,0,33.77,33.77,0,0,0-6.19-12.62c-.05.2-.09.4-.13.61-.33,1.7-.95,2.74-3,2.71a13.09,13.09,0,0,1-6-1.69c-2-1.09-4-2.28-6-3.43a67,67,0,0,0-8-4.27,34.67,34.67,0,0,0-6.79-2.25C101.76,110,100.48,109.89,99.2,109.71Z"/><path class="cls-5" d="M99.2,109.71c1.28.18,2.56.31,3.82.55a34.67,34.67,0,0,1,6.79,2.25,67,67,0,0,1,8,4.27c2,1.15,4,2.34,6,3.43a13.09,13.09,0,0,0,6,1.69c2,0,2.64-1,3-2.71,0-.21.08-.41.13-.61-1.47-1.73-2.92-3.47-4.4-5.19-.73-.85-1.51-1.64-2.26-2.47a.65.65,0,0,0-.72-.26,25.42,25.42,0,0,1-5.51.45c-.39,0-.79,0-.78-.52s.44-.52.8-.52a30.76,30.76,0,0,0,7.89-.87,21.93,21.93,0,0,0,11.57-6.56,1.09,1.09,0,0,0,.23-.72c-.24-2.8-.52-5.6-.76-8.4-.12-1.28-.18-2.57-.26-3.86-.42.92-.84,1.84-1.25,2.77a34.75,34.75,0,0,1-4.63,7.45,29,29,0,0,1-6,5.66,22.39,22.39,0,0,1-7.46,3.46,53.08,53.08,0,0,1-6,1.22,27.92,27.92,0,0,1-4.84,0c-1.26-.07-2.51-.35-3.76-.53a.78.78,0,0,1-1,.05l-3.61-2.11c-.2-.11-.38-.24-.65-.42Z"/><path class="cls-6" d="M160.41,116.08a86.28,86.28,0,0,1-4.57-11.14,1.47,1.47,0,0,1,.16-1.32c1.37-2.32,2.71-4.65,4.06-7a18.29,18.29,0,0,1,3.21-4.57,5.44,5.44,0,0,1,5.16-1.63A4.07,4.07,0,0,1,171.52,93a8.33,8.33,0,0,1,.47,3.71c-.14,1.14-.26,2.29-.5,3.41a25.78,25.78,0,0,1-3.62,8.1,47.11,47.11,0,0,1-6.94,8.18l-.24.17C160.59,116.41,160.49,116.25,160.41,116.08Zm7.46-22.24a2.72,2.72,0,0,0-3.42-.62,7.19,7.19,0,0,0-3,2.6,21.62,21.62,0,0,0-3.54,7.36,5.12,5.12,0,0,0,0,2.27,2.07,2.07,0,0,0,2.83,1.67,9.82,9.82,0,0,0,4.47-3.17,12.86,12.86,0,0,0,3.17-6.72c0-.36.06-.73.09-1.09A3.65,3.65,0,0,0,167.87,93.84Z"/><path class="cls-1" d="M129.07,132.74l-1.82,2.62a1.35,1.35,0,0,1-2,.51,17.91,17.91,0,0,1-2-1.48c-.33-.25-.64-.54-1-.82a5,5,0,0,0-.51.52c-.58.73-1.14,1.48-1.7,2.22a3.14,3.14,0,0,0,.76,2.07,31.65,31.65,0,0,0,2.81,3.78,8.28,8.28,0,0,0,9.77,2.21l.1-.09h0c.05-.17.08-.34.14-.5a10.87,10.87,0,0,0,.89-3.79,7.06,7.06,0,0,0-2.58-5.91A5.48,5.48,0,0,0,129.07,132.74Z"/><path class="cls-1" d="M149,78.53a69.53,69.53,0,0,0,.39,8.41,110.3,110.3,0,0,0,2.74,15.2,97.91,97.91,0,0,0,4.94,14.34,69.9,69.9,0,0,0,6.79,12.27c1.27,1.84,2.65,3.6,4,5.37a2.43,2.43,0,0,1,.34,1.65c.54-.47,1.1-.92,1.61-1.42a1.58,1.58,0,0,0,.31-1.89,6.43,6.43,0,0,0-1-1.54,69.6,69.6,0,0,1-9.74-14.48A84.51,84.51,0,0,1,154.77,105a91,91,0,0,1-3.46-14.92c-.43-2.78-.87-5.55-1.38-8.32C149.73,80.65,149.32,79.6,149,78.53Z"/><path class="cls-5" d="M157,138.3a17.49,17.49,0,0,1-4.29-5.17,57.7,57.7,0,0,1-5.27-12.24c-.47-1.46-1.05-2.88-1.49-4.35-.75-2.48-1.45-5-2.12-7.47s-1.28-4.85-1.85-7.29c-.63-2.69-1.18-5.4-1.77-8.1,0-.22-.14-.42-.21-.63.11,1.57.16,3.14.34,4.7.32,2.78.64,5.56,1.09,8.31a108.57,108.57,0,0,0,3.78,15.61,70.45,70.45,0,0,0,6.31,14.3,36,36,0,0,0,5.09,6.38c.56.59,1.19,1.11,1.81,1.65.31.26.61.2.92-.1.57-.57,1.18-1.1,1.77-1.64a2.33,2.33,0,0,0-1.41-1.93l-.48-.3-.21-.16h0l-.22-.21h0l-1.37-1h0l-.21-.11h0Z"/><path class="cls-1" d="M106.78,133.76a22.13,22.13,0,0,1-3.28,3.14.68.68,0,0,0-.2.56,13.34,13.34,0,0,0,4.81,7.47,7,7,0,0,0,6.91.86c0-.13.1-.25.14-.38a17.11,17.11,0,0,0,1-3,8.53,8.53,0,0,0-.91-5.28c-1.64.91-1.19.77-2.82-.07a3.15,3.15,0,0,1-.7-.62c-.85-.88-1.68-1.77-2.53-2.65Z"/><path class="cls-1" d="M66.83,37a17,17,0,0,1,.94-2.43,13.32,13.32,0,0,1,3.43-3.63,49.42,49.42,0,0,1,9.45-6.08,40.4,40.4,0,0,1,10.68-3.94,7.78,7.78,0,0,1,8.13,3,20.36,20.36,0,0,1,2.31,4.85l.8,1.89-.47.11,1.75.21c-.24-.92-.43-1.86-.72-2.77-.6-1.82-1.24-3.62-1.88-5.43a3.82,3.82,0,0,0-2.79-2.41,26,26,0,0,0-6.14-1.22,10.1,10.1,0,0,0-4.41.6A79.12,79.12,0,0,0,73.4,27.83c-1.86,1.27-3.56,2.76-5.29,4.21A4.06,4.06,0,0,0,66.83,37Z"/><path class="cls-5" d="M103.85,31l-1.75-.21-3.92-.1a22.69,22.69,0,0,0-4.58.17,35.51,35.51,0,0,0-9.86,3.52,53.33,53.33,0,0,0-7.25,4.77c-.54.41-1.07.84-1.62,1.23a2.29,2.29,0,0,0-1,1.32,1,1,0,0,0,.22.82.54.54,0,0,0,.89,0,2.75,2.75,0,0,1,.72-.45,2.88,2.88,0,0,1,.33-.43c.52-.46,1.28-.66,1.51-1.43,0-.09.14-.15.23-.2a53.13,53.13,0,0,1,14.5-6.91A16.36,16.36,0,0,1,99,32.62c.93.13,1.85.33,2.76.55a2.65,2.65,0,0,0,1.78-.24,1.1,1.1,0,0,0,.45-.74A5.44,5.44,0,0,0,103.85,31Z"/><path class="cls-5" d="M129.07,132.74a5.48,5.48,0,0,1,3,1.34A7.06,7.06,0,0,1,134.6,140a10.87,10.87,0,0,1-.89,3.79c-.06.16-.09.33-.14.5a5.56,5.56,0,0,0,3.09-3,9.25,9.25,0,0,0,.7-4.56c-.11-1.51-.35-3-.54-4.52a.54.54,0,0,0-.25-.34c-1.84-.89-3.69-1.76-5.53-2.63l-.15,0Z"/><path class="cls-5" d="M117.75,58a3.37,3.37,0,0,0,2.29.95,6.5,6.5,0,0,0,4-1.15c.65-.4.67-.92.13-1.46a3.45,3.45,0,0,0-2.06-.81,24.08,24.08,0,0,1-2.43-.26,11.89,11.89,0,0,1-2.84-1.14c-3-1.77-5.88-3.63-8.82-5.42-.62-.38-1.3-.64-2-1a23.79,23.79,0,0,0,2.15,2.62,28.5,28.5,0,0,0,7.42,5.42l3.22,1.52a2,2,0,0,1,.32.17c.25.15.41.35.24.65a.47.47,0,0,1-.65.26C118.43,58.21,118.09,58.09,117.75,58Z"/><path class="cls-6" d="M137.87,132l.31,1.94c.72-.35,1.37-.68,2-1a43.82,43.82,0,0,0,6.17-3.45.65.65,0,0,0,.29-.94c-.66-1.65-1.29-3.32-1.94-5,0-.09-.09-.18-.16-.34-.48.59-.88,1.18-1.37,1.69q-1.69,1.74-3.47,3.42a.6.6,0,0,0-.2.72c.2.63.38,1.27.52,1.92s-.08.88-.75.91C138.84,131.91,138.39,132,137.87,132Z"/><path class="cls-5" d="M115.2,137.1a8.53,8.53,0,0,1,.91,5.28,17.11,17.11,0,0,1-1,3c0,.13-.09.25-.14.38a5.43,5.43,0,0,0,4-4.43,14.56,14.56,0,0,0,0-5.62c-.13-.67-.22-1.34-.3-1.78Z"/><path class="cls-1" d="M135.33,55.57a8.64,8.64,0,0,0,2.94,4.29c2.24,1.81,4.51,3.58,6.76,5.37.39.3.77.63,1.15.94-.71-1.15-1.36-2.35-2.14-3.46a30.21,30.21,0,0,0-8-7.89l-.35-.23s-.06,0,0,0Z"/><path class="cls-5" d="M120.13,136.31c.56-.74,1.12-1.49,1.7-2.22a5,5,0,0,1,.51-.52l-2.16-1.94a1.44,1.44,0,0,0-.61,1.5C119.82,134.18,120,135.25,120.13,136.31Z"/><path class="cls-5" d="M106.78,133.76h2.37c-.39-.46-.79-.91-1.24-1.41Z"/><path class="cls-5" d="M139.94,93l-.05-.45Z"/><path class="cls-1" d="M146.17,66.17l.16.22Z"/><path class="cls-5" d="M106.07,47.71,106,47.6Z"/><path class="cls-5" d="M117.61,57.9l.13.06Z"/><path class="cls-5" d="M133.57,144.28l-.1.09Z"/><path class="cls-7" d="M108.63,105A20.12,20.12,0,0,1,95.35,97.5a23.2,23.2,0,0,1-5.16-11.74,24.09,24.09,0,0,1,.33-8.59,3.18,3.18,0,0,0-.58-3.23.51.51,0,0,1,0-.86c.38-.23.63,0,.85.33,1.09,1.69,2.2,3.36,3.29,5a.67.67,0,0,0,.79.37c2.08-.31,4.16-.58,6.23-.88a.89.89,0,0,1,1,.44c1.53,2.13,3.08,4.24,4.65,6.35a.77.77,0,0,0,.57.3c1-.08,2-.22,3.07-.33,1.7-.19,3.4-.4,5.11-.55a1.09,1.09,0,0,1,.82.27c1.89,2,3.75,4,5.63,5.94a.76.76,0,0,0,.57.17c1.57-.25,3.13-.53,4.7-.8l3.88-.62c.29,0,.6,0,.65.35a.51.51,0,0,1-.48.67c-.42,0-.83.15-1.24.18s-.54.21-.65.58a42.17,42.17,0,0,1-1.28,4,15.4,15.4,0,0,1-8.28,8.62,21,21,0,0,1-8.76,1.56C110.58,105.09,109.59,105.1,108.63,105Zm-9.95-5.54a18.93,18.93,0,0,0,9.92,4.48,11.85,11.85,0,0,0,2.45-.07c1.78-.09,3.57-.08,5.33-.33a14.44,14.44,0,0,0,3.41-1.1,12.39,12.39,0,0,0,4-2.84,13.65,13.65,0,0,0,3.31-5.16c.48-1.21.83-2.47,1.28-3.83L126,91c-1.2.22-2.4.48-3.61.64a1.3,1.3,0,0,1-.94-.37c-1.85-1.91-3.67-3.85-5.48-5.79a.88.88,0,0,0-.84-.29c-2.56.31-5.13.6-7.69.93a1.34,1.34,0,0,1-1.49-.66c-.54-.85-1.17-1.66-1.78-2.46a.67.67,0,0,0-.48-.26,19.51,19.51,0,0,0-9,3.16c-.93.63-1.76,1.42-2.64,2.13a.58.58,0,0,0-.2.74c.23.59.43,1.18.64,1.77A22.82,22.82,0,0,0,98.68,99.43Z"/><path class="cls-7" d="M132,85.69l1-.37c-.19-.52-.33-1-.56-1.51-1.24-2.56-2.47-5.12-3.75-7.66a2.39,2.39,0,0,0-2.78-1.3,11.91,11.91,0,0,0-2.63.86c-1.89.93-3.73,2-5.64,3l.51,1c1.38-.74,2.71-1.49,4.08-2.17a27.54,27.54,0,0,1,3.44-1.5c1.15-.38,1.67-.05,2.23,1a61.48,61.48,0,0,1,3.65,7.53Z"/><path class="cls-7" d="M92.37,68.56l.55.92L94,68.83c1.47-.89,2.92-1.78,4.4-2.65a8,8,0,0,1,1.34-.58.9.9,0,0,1,1.26.5,31.49,31.49,0,0,1,2.87,6.73,3,3,0,0,0,.12.4s0,0,.09.11l1-.26c-.4-1.15-.72-2.3-1.18-3.37-.62-1.46-1.34-2.88-2.06-4.3a1.64,1.64,0,0,0-2.13-.94,12.09,12.09,0,0,0-2.39,1c-1.61.91-3.17,1.91-4.75,2.87A1.12,1.12,0,0,0,92.37,68.56Z"/><path class="cls-1" d="M157.39,138.62l1.37,1Z"/><path class="cls-1" d="M157,138.3l.22.21Z"/><path class="cls-1" d="M158.75,139.67l.22.21Z"/><path class="cls-1" d="M157.18,138.51l.21.11Z"/><path class="cls-1" d="M159,139.87l.21.16Z"/><path class="cls-4" d="M168.36,97.23a12.86,12.86,0,0,1-3.17,6.72,9.82,9.82,0,0,1-4.47,3.17,2.07,2.07,0,0,1-2.83-1.67,5.12,5.12,0,0,1,0-2.27,21.62,21.62,0,0,1,3.54-7.36,7.19,7.19,0,0,1,3-2.6,2.72,2.72,0,0,1,3.42.62,3.65,3.65,0,0,1,.58,2.3C168.42,96.5,168.41,96.87,168.36,97.23Zm-9.49,8a1.25,1.25,0,0,0,1.68.94,3.2,3.2,0,0,0,.9-.41,12.23,12.23,0,0,0,5.87-8.62,6.3,6.3,0,0,0-.09-2.12,1.28,1.28,0,0,0-1.73-1,4.28,4.28,0,0,0-2.37,1.46,19.59,19.59,0,0,0-4.2,7.73,10.15,10.15,0,0,0-.19,1.23A7.37,7.37,0,0,0,158.87,105.21Z"/><path class="cls-8" d="M92.49,90.54a22.82,22.82,0,0,0,6.19,8.89,18.93,18.93,0,0,0,9.92,4.48,11.85,11.85,0,0,0,2.45-.07c1.78-.09,3.57-.08,5.33-.33a14.44,14.44,0,0,0,3.41-1.1,12.39,12.39,0,0,0,4-2.84.38.38,0,0,0,0-.15,20.52,20.52,0,0,0-6.89-6.82,26,26,0,0,0-7.19-2.93,28.31,28.31,0,0,0-3.63-.69c-1.45-.14-2.92-.09-4.38-.14A25.39,25.39,0,0,0,92.49,90.54Z"/><path class="cls-9" d="M92.49,90.54a25.39,25.39,0,0,1,9.2-1.7c1.46,0,2.93,0,4.38.14a28.31,28.31,0,0,1,3.63.69,26,26,0,0,1,7.19,2.93,20.52,20.52,0,0,1,6.89,6.82.38.38,0,0,1,0,.15,13.65,13.65,0,0,0,3.31-5.16c.48-1.21.83-2.47,1.28-3.83L126,91c-1.2.22-2.4.48-3.61.64a1.3,1.3,0,0,1-.94-.37c-1.85-1.91-3.67-3.85-5.48-5.79a.88.88,0,0,0-.84-.29c-2.56.31-5.13.6-7.69.93a1.34,1.34,0,0,1-1.49-.66c-.54-.85-1.17-1.66-1.78-2.46a.67.67,0,0,0-.48-.26,19.51,19.51,0,0,0-9,3.16c-.93.63-1.76,1.42-2.64,2.13a.58.58,0,0,0-.2.74C92.08,89.36,92.28,90,92.49,90.54Z"/><path class="cls-10" d="M158.93,103.14a19.59,19.59,0,0,1,4.2-7.73A4.28,4.28,0,0,1,165.5,94a1.28,1.28,0,0,1,1.73,1,6.3,6.3,0,0,1,.09,2.12,12.23,12.23,0,0,1-5.87,8.62,3.2,3.2,0,0,1-.9.41,1.25,1.25,0,0,1-1.68-.94,7.37,7.37,0,0,1-.13-.84A10.15,10.15,0,0,1,158.93,103.14Zm3.28-2.6a.33.33,0,0,0,.54.26,2.27,2.27,0,0,0,.69-.79c.16-.31-.07-.48-.4-.46A1.11,1.11,0,0,0,162.21,100.54Z"/><path class="cls-4" d="M163,99.54a1.13,1.13,0,0,0-.83,1,.33.33,0,0,0,.54.26,2.27,2.27,0,0,0,.69-.79C163.6,99.7,163.37,99.53,163,99.54Z"/><path class="cls-4" d="M139.46,130.6a8.86,8.86,0,0,1-4.87-.7c-1.42-.67-2.6-1.72-4.08-2.29a.73.73,0,0,0-.84.34L128,131.34l-.78,1.62a5,5,0,0,1-.85,1.56c-.51.44-1.09-.18-1.53-.52s-.93-.74-1.37-1.13A27.9,27.9,0,0,1,121,130.3a.75.75,0,0,0-1.18.15A19.46,19.46,0,0,1,114.6,136c-1.08.68-2.44-1.37-3.08-2l-3.07-3.27a.77.77,0,0,0-1.18.15,30.74,30.74,0,0,1-5.19,5.91c-.72.64.34,1.69,1.06,1.06a31.54,31.54,0,0,0,4.85-5.41l3.24,3.44c.86.92,2,2.18,3.38,1.81a4.45,4.45,0,0,0,1.65-1.06,24,24,0,0,0,1.89-1.75A24.91,24.91,0,0,0,120.5,132a27.12,27.12,0,0,0,2.68,2.57c.88.72,2.07,2,3.33,1.61s1.76-1.92,2.26-3l1.91-3.93c1.34.66,2.5,1.68,3.92,2.22a10.06,10.06,0,0,0,4.86.58C140.4,132,140.42,130.48,139.46,130.6Z"/><rect class="cls-11" x="75.19" y="41.46" width="16.6" height="20.03"/><line class="cls-12" x1="75.19" y1="72.99" x2="75.19" y2="41.46"/><line class="cls-12" x1="91.79" y1="36.69" x2="91.79" y2="61.49"/><path class="cls-4" d="M80.78,38.16C79.41,39,78,39.79,76.5,40.52c-.35.18-.71.36-1.08.51a3.72,3.72,0,0,0-1,.47,1,1,0,0,0,0,1.63.5.5,0,0,0,.57-.81s.16-.13.21-.15c.26-.13.54-.22.81-.34.62-.27,1.21-.58,1.8-.9,1.15-.62,2.31-1.21,3.41-1.91C81.83,38.68,81.33,37.81,80.78,38.16Z"/></svg>