<svg id="Layer_1" data-name="Layer 1" xmlns="http://www.w3.org/2000/svg" viewBox="0 0 200 150"><defs><style>.cls-1{fill:none;}.cls-2{fill:#fff3c2;}.cls-3{fill:#cc5d00;}.cls-4{fill:#f7c98c;}.cls-5{fill:#a24c19;}.cls-6{fill:#0d131a;}.cls-7{fill:#f29739;}.cls-8{fill:#ffbd00;}.cls-9{fill:#fff;}.cls-10{fill:#4a4a97;}.cls-11{fill:#d0801b;stroke:#0d131a;stroke-miterlimit:10;}</style></defs><path class="cls-1" d="M160.5,62.12c-1.37-.08-2.77-.14-4.19-.17l-.59,0c-.88,0-1.1.09-1.14.13a.43.43,0,0,0-.05.23,14.52,14.52,0,0,1-.85,4A15.2,15.2,0,0,1,159.93,65,18.1,18.1,0,0,1,160.5,62.12Z"/><path class="cls-1" d="M141.75,86.46c.91.21,1.41.33,2.12-.28.94-.8,3.26-5.84,4.13-8.65.19-.63.34-1.25.51-1.89a.52.52,0,0,1,0-.11,33.31,33.31,0,0,1-9.78,7.26q-1.09.57-2.31,1.08a17.07,17.07,0,0,0,4.86,2.49Z"/><path class="cls-1" d="M166,99l.45-.53c.26-.33.52-.66.76-1l.21-.31c.27-.4.53-.8.76-1.22,2.81-5,4.31-8.71,4.82-12.51a27.14,27.14,0,0,0-.08-7.24l-.45,0h-.24a5,5,0,0,1-2.07,2.38,5,5,0,0,1-3.46.72c-1,.73-2.59.91-5,.56-.49,2.85-2.08,6.23-4.31,10.36s-8.47,8-9.38,8.29a11.18,11.18,0,0,1-6.17-.83,57,57,0,0,1-7.7-3.9,46.78,46.78,0,0,1,2,11.79,22.66,22.66,0,0,1-.55,5.13,73.81,73.81,0,0,0,11.61-1.11C152.25,108.55,160.94,104.86,166,99Z"/><path class="cls-1" d="M91.77,87.68c1.14.67,3.29-.17,5.36-1l.86-.33a11,11,0,0,0,2-1,31.88,31.88,0,0,1-3.42-1.19,32.86,32.86,0,0,1-8.93-5.54C88.16,84.31,90.7,87.05,91.77,87.68Z"/><path class="cls-2" d="M170,101c-.86-1-2.67-1-3.48-.86-5.3,5.9-13.83,9.52-19.08,10.6a66.28,66.28,0,0,1-9.88,1.08,11.78,11.78,0,0,1,2.3,5c7.49-.08,14.25-2,20.54-4.08,3.83-1.3,7.77-4.15,11.26-7.34C172,103.56,171.29,102.37,170,101Z"/><path class="cls-3" d="M176.41,60.71a6.27,6.27,0,0,0-3.14.46c2.37.68,4.77,1.48,7,2.32A4.94,4.94,0,0,0,176.41,60.71Z"/><path class="cls-3" d="M165.57,65.64c3.83,1.06,7.44,5.83,7,9.27a.5.5,0,0,1,0,.12l.83-.06h0a9.85,9.85,0,0,0,7.08-4.27,6.82,6.82,0,0,0,.56-5.15,73,73,0,0,0-10.13-2.32,3.31,3.31,0,0,0-.29.6.58.58,0,0,1-1.1-.36,3.3,3.3,0,0,1,.19-.43q-3.87-.57-8-.85a17.34,17.34,0,0,0-.61,2.8A20,20,0,0,1,165.57,65.64Z"/><path class="cls-3" d="M177.56,53.79c-6.06-2-11.29,1.2-14.15,4.91-.08.11-.15.24-.23.35l1.24.16c1.73.24,3.62.61,5.56,1.08a3.38,3.38,0,0,1,.09-.66c.65-1.83,3.22-2.83,5-2.81A5.52,5.52,0,0,1,180,60a14.23,14.23,0,0,1,.39,1.65,7.86,7.86,0,0,1,1.13,1.75,7.29,7.29,0,0,1,.28.7c2,.8,3.88,1.62,5.48,2.42C186,60.89,182.54,55.46,177.56,53.79Z"/><path class="cls-3" d="M181.44,71.36a11.33,11.33,0,0,1-2.19,2.36,8.14,8.14,0,0,1-2.44,3.4,17.59,17.59,0,0,1-2.47,1.64c.32,5.9-1.09,10.53-5.12,17.7-.25.44-.53.88-.82,1.32s-.45.63-.69.93c-.05.07-.09.14-.15.21a4.6,4.6,0,0,1,3.34,1.28,6.66,6.66,0,0,1,2,4.08c1.44-1.38,2.88-2.89,4.23-4.43l.43-.49.44-.52.7-.83.22-.27.75-.95.23-.3.61-.79c.27-.36.53-.72.78-1.07,3.39-4.81,5.81-13.11,6.49-22.21a19.56,19.56,0,0,0-.2-4.36A48.39,48.39,0,0,0,182.3,66,7.67,7.67,0,0,1,181.44,71.36Z"/><path d="M175.5,103.31l-.35.36Z"/><path d="M172.64,106.11l.16-.15-.18.16Z"/><path d="M174.13,104.69l-.29.28Z"/><path d="M167.45,97.12l-.21.31Z"/><path d="M166.48,98.43,166,99Z"/><path d="M179.53,98.8l-.87,1Z"/><path d="M177,101.76l-.57.62Z"/><path d="M181.38,96.45c-.17.23-.36.48-.56.73Z"/><path d="M180.51,97.59l-.77,1Z"/><path d="M178.37,100.18l-.81.92Z"/><path d="M169.22,96.46c-.25.45-.53.89-.82,1.32C168.69,97.34,169,96.9,169.22,96.46Z"/><path d="M178,98.84l-.44.52Z"/><path d="M181.29,94.63c-.25.35-.51.71-.78,1.07Z"/><path d="M178.92,97.74l-.22.27A2.88,2.88,0,0,1,178.92,97.74Z"/><path d="M172.9,104.28a6.66,6.66,0,0,0-2-4.08,4.6,4.6,0,0,0-3.34-1.28c.06-.07.1-.14.15-.21-.36.48-.75,1-1.15,1.4.81-.1,2.62-.11,3.48.86,1.25,1.4,1.92,2.59,1.66,4.45a72.23,72.23,0,0,0,5.43-5.57C175.78,101.39,174.34,102.9,172.9,104.28Z"/><path d="M179.9,96.49l-.23.3Z"/><path class="cls-4" d="M135.34,111.86a22.93,22.93,0,0,1-2,4.57,45.8,45.8,0,0,0,6.53.41,11.78,11.78,0,0,0-2.3-5Z"/><path class="cls-5" d="M176.81,77.12a8.14,8.14,0,0,0,2.44-3.4A10.7,10.7,0,0,1,174.09,76c.12.94.2,1.85.25,2.72A17.59,17.59,0,0,0,176.81,77.12Z"/><path d="M147.48,110.71c5.25-1.08,13.78-4.7,19.08-10.6.4-.45.79-.92,1.15-1.4q.36-.45.69-.93c.29-.43.57-.87.82-1.32,4-7.17,5.44-11.8,5.12-17.7-.05-.87-.13-1.78-.25-2.72-.21,0-.41.07-.6.08h0a.58.58,0,0,1,0-1.15l-.83.06a5.05,5.05,0,0,1-.32,1.17h.24l.45,0a27.14,27.14,0,0,1,.08,7.24c-.51,3.8-2,7.51-4.82,12.51-.23.42-.49.82-.76,1.22l-.21.31c-.24.34-.5.67-.76,1L166,99c-5.09,5.9-13.78,9.59-18.78,10.63a73.81,73.81,0,0,1-11.61,1.11c-.1.39-.19.78-.3,1.16l2.26-.07A66.28,66.28,0,0,0,147.48,110.71Z"/><path d="M161.07,65a17.34,17.34,0,0,1,.61-2.8l-1.18-.07a18.1,18.1,0,0,0-.57,2.86Z"/><path d="M163.18,59.05c.08-.11.15-.24.23-.35,2.86-3.71,8.09-7,14.15-4.91,5,1.67,8.44,7.1,9.72,12.7q.69.35,1.32.69c-1.13-6.25-4.85-12.53-10.67-14.48C171.28,50.46,165.6,54,162.5,58a9.15,9.15,0,0,0-.59.89Z"/><path d="M187.58,68.06a19.56,19.56,0,0,1,.2,4.36c-.68,9.1-3.1,17.4-6.49,22.21l-.78,1.07-.61.79-.23.3-.75.95a2.88,2.88,0,0,0-.22.27l-.7.83-.44.52-.43.49a72.23,72.23,0,0,1-5.43,5.57c-3.49,3.19-7.43,6-11.26,7.34-6.29,2.13-13.05,4-20.54,4.08a45.8,45.8,0,0,1-6.53-.41c-.05.09-.09.19-.15.28.47.33.9.67,1.31,1a46.22,46.22,0,0,0,4.93.27c7.82,0,14.84-1.94,21.34-4.15,4-1.37,8.18-4.39,11.82-7.73l.18-.16,1-1,.29-.28,1-1,.35-.36.89-.93.57-.62.6-.66.81-.92.29-.34.87-1,.21-.25.77-1,.31-.41c.2-.25.39-.5.56-.73.31-.41.59-.8.85-1.16,3.5-5,6-13.49,6.69-22.78a20.59,20.59,0,0,0-.1-3.83C188.42,68.47,188,68.26,187.58,68.06Z"/><path class="cls-5" d="M176.5,59.57a5.68,5.68,0,0,1,3.89,2A14.23,14.23,0,0,0,180,60a5.52,5.52,0,0,0-5-3.15c-1.75,0-4.32,1-5,2.81a3.38,3.38,0,0,0-.09.66l1.71.44A7,7,0,0,1,176.5,59.57Z"/><path d="M180.49,70.7A9.85,9.85,0,0,1,173.41,75h0a.58.58,0,0,0,0,1.15h0c.19,0,.39-.05.6-.08a10.7,10.7,0,0,0,5.16-2.32,11.33,11.33,0,0,0,2.19-2.36,7.67,7.67,0,0,0,.86-5.4c-.41-.14-.82-.28-1.25-.41A6.82,6.82,0,0,1,180.49,70.7Z"/><path d="M180.39,61.62a5.68,5.68,0,0,0-3.89-2,7,7,0,0,0-4.81,1.16c.53.14,1.05.28,1.58.44a6.27,6.27,0,0,1,3.14-.46,4.94,4.94,0,0,1,3.88,2.78l1.51.58a7.29,7.29,0,0,0-.28-.7A7.86,7.86,0,0,0,180.39,61.62Z"/><path d="M169.9,64.2a.58.58,0,0,0,.73-.37,3.31,3.31,0,0,1,.29-.6l-1.2-.19a3.3,3.3,0,0,0-.19.43A.58.58,0,0,0,169.9,64.2Z"/><path class="cls-2" d="M128.59,120.56a.58.58,0,0,1-.37.48l-.36.13a6.34,6.34,0,0,1,3.89,4.49c.81,3.35.13,7.51-2.16,9.45a4,4,0,0,1-1.31,1.35l-.41.18a17.57,17.57,0,0,0-2.64,1.3,3.42,3.42,0,0,0-1,2.76c.42,2.35,5.71,3.5,13.82,4.28a3.46,3.46,0,0,1-.37-1.26,3.89,3.89,0,0,1,1.79-3.38c1.22-.88,3.86-2.37,5.66-3.36-4.9-.21-9.74-.46-9.82-.46a.55.55,0,0,1-.49-.33.59.59,0,0,1,.06-.6,15.42,15.42,0,0,0,2.82-8.26c.11-3.92-1.45-6.94-4.84-9.44A10.79,10.79,0,0,1,128.59,120.56Z"/><path class="cls-2" d="M64.43,77.06c.63,1.49,2.42,1.86,4.08,1.86A5.63,5.63,0,0,1,68.12,75,8.19,8.19,0,0,1,72,70.57a.58.58,0,0,1,.52,1,7.06,7.06,0,0,0-3.27,3.7,4.76,4.76,0,0,0,.68,3.81,4.84,4.84,0,0,0,4.68,1.39,5.68,5.68,0,0,1-1.31-3.7c-.12-3.76,3.86-5.25,4-5.31a.59.59,0,0,1,.74.35.58.58,0,0,1-.35.74c-.13,0-3.36,1.26-3.27,4.18.1,3.09,2.1,4.24,3.95,4.28s4.75-.53,5-4.88a.61.61,0,0,1,.61-.54.56.56,0,0,1,.54.6,7.91,7.91,0,0,1-.34,2,4.67,4.67,0,0,1-1,4.18c-2,2.41-3.49,3.75-6.51,3.73a25.61,25.61,0,0,0,2.87,5.53c3.18,4.7,5.39,5.77,6.68,5.84a39.26,39.26,0,0,0,15.51-3.88l1-.56a.58.58,0,0,1,.57,1l-.8.45c-.08.32-.18.67-.29,1.07-1.24,4.38-4,14.09-.17,20.1,2.15,2,6.77,4.69,16,4.55,7.46-.16,12-2.42,13.91-3.65a20.25,20.25,0,0,0,3-11,39,39,0,0,0-1.24-8.66,5.78,5.78,0,0,1-2.16-2.41,4.8,4.8,0,0,1-.61-3.17l-.48-.51a.58.58,0,0,1,.85-.78,15.7,15.7,0,0,0,2.13,2h0a59.56,59.56,0,0,0,8.78,4.57,10.15,10.15,0,0,0,5.43.79c.58-.18,6.54-3.75,8.68-7.73.93-1.71,1.73-3.28,2.4-4.73a6.66,6.66,0,0,1-5.44-3.81,6.88,6.88,0,0,1-.6-4,6.24,6.24,0,0,1-.56-2,.56.56,0,0,1,.54-.6.59.59,0,0,1,.61.54,4.27,4.27,0,0,0,4.43,4,4.6,4.6,0,0,0,3.57-1.14,3.94,3.94,0,0,0,1-2.82,4.78,4.78,0,0,0-3-4,.57.57,0,0,1,.39-1.08,5.9,5.9,0,0,1,3.71,5,5.07,5.07,0,0,1-1.32,3.68l0,0c2.06.28,3.37.11,4.07-.52h0l0,0c.9-.72,1.49-1.69,1.43-4.12-.07-2.25-3-3.9-3.07-3.92a.57.57,0,0,1-.23-.78.58.58,0,0,1,.78-.23c.14.08,3.59,2,3.67,4.9a6.41,6.41,0,0,1-1,4.13,4.23,4.23,0,0,0,1.74-.59,3.83,3.83,0,0,0,1.87-2.82c.34-2.86-3-7.14-6.19-8-3.71-1-9.24-.91-12.29,1.3-.1.22-.19.44-.3.66s-.29.6-.44.93A27.39,27.39,0,0,1,150.47,73c-.36,1-.61,2-.85,3-.16.66-.33,1.3-.52,1.94-.77,2.5-3.19,8.1-4.48,9.19a3,3,0,0,1-3.13.53l-.42-.1a17.6,17.6,0,0,1-5.52-2.85c-1.4,1.5-6.26,5.14-17.52,5.42-9.54.25-14-2.62-15.54-4l-1-.26a13.61,13.61,0,0,1-3,1.69l-.85.32c-2.34.91-4.75,1.84-6.36.89-1.86-1.09-4.53-4.91-4.78-11.15a32.76,32.76,0,0,1-6.92-9.4c-.26-.56-1-.73-7.13-.87a14.77,14.77,0,0,0-5,2.7C64.94,72.09,63.66,75.21,64.43,77.06Z"/><path class="cls-2" d="M108.48,121.1h0a13.19,13.19,0,0,1-5.29-2.79"/><path d="M103.51,93.24a.57.57,0,0,0-.78-.21l-1,.56h0a.58.58,0,0,1,.8.67,2,2,0,0,1-.07.23l.8-.45A.57.57,0,0,0,103.51,93.24Z"/><path d="M168.83,74.06c-.08-2.91-3.53-4.82-3.67-4.9a.58.58,0,0,0-.78.23.57.57,0,0,0,.23.78s3,1.67,3.07,3.92c.06,2.43-.53,3.4-1.43,4.12l0,0a.58.58,0,0,1,.58-.11,2.26,2.26,0,0,0,1,.07A6.41,6.41,0,0,0,168.83,74.06Z"/><path class="cls-3" d="M153.49,137.3H153l-5.64-.21c-.87.46-5.55,3-7.22,4.19a2.86,2.86,0,0,0-1.32,2.36,2.61,2.61,0,0,0,.62,1.44c2.75.1,12.41.45,15.84.48a43.91,43.91,0,0,0,8-.68,4.1,4.1,0,0,0,.11-1.76c-.14-1.08-1.18-2.15-3.2-2.15h-.09c-2.31,0-6.6,0-6.65,0a.58.58,0,0,1-.57-.58.61.61,0,0,1,.58-.57c.05,0,4.32,0,6.62,0,2.84,0,4.25,1.56,4.45,3.16a5.66,5.66,0,0,1,0,1.83,19.33,19.33,0,0,0,3.58-.26,4.23,4.23,0,0,0,.29-2.41c-.3-1.77-1.54-2.59-4.12-2.74s-6.36-.29-6.4-.29a.58.58,0,0,1-.56-.6.57.57,0,0,1,.6-.55s4,.15,6.42.29c1.14.06,4.61.26,5.19,3.69a5.44,5.44,0,0,1-.13,2.43c.92-.09,2.1-.29,3-.45a3.06,3.06,0,0,0,1.45-1.91,4.76,4.76,0,0,0-.82-3.58,3.86,3.86,0,0,0-2.76-1.54,73.65,73.65,0,0,0-8.85.17c-2.66.14-5.41.29-7.36.26Z"/><path class="cls-4" d="M83.2,82.37a4.67,4.67,0,0,0,1-4.18,5.59,5.59,0,0,1-5.67,4h-.17a5.35,5.35,0,0,1-2.85-.88v0a23.31,23.31,0,0,0,1.18,4.77C79.71,86.12,81.24,84.78,83.2,82.37Z"/><path class="cls-4" d="M131,91.33a4.8,4.8,0,0,0,.61,3.17,5.78,5.78,0,0,0,2.16,2.41c-.3-1.27-.65-2.61-1.07-4A15.54,15.54,0,0,1,131,91.33Z"/><path class="cls-4" d="M157.78,80.2a5.19,5.19,0,0,1-5-3.06,6.88,6.88,0,0,0,.6,4,6.66,6.66,0,0,0,5.44,3.81,22.46,22.46,0,0,0,1.77-5.19,7,7,0,0,1-2.59.46Z"/><path d="M163.52,75a5.9,5.9,0,0,0-3.71-5,.57.57,0,0,0-.39,1.08,4.78,4.78,0,0,1,3,4,3.94,3.94,0,0,1-1,2.82,4.6,4.6,0,0,1-3.57,1.14,4.27,4.27,0,0,1-4.43-4,.59.59,0,0,0-.61-.54.56.56,0,0,0-.54.6,6.24,6.24,0,0,0,.56,2,5.19,5.19,0,0,0,5,3.06H158a7,7,0,0,0,2.59-.46c0-.21.08-.42.1-.62a.55.55,0,0,1,.23-.39.58.58,0,0,1,.44-.11l.79.12,0,0A5.07,5.07,0,0,0,163.52,75Z"/><path class="cls-4" d="M118.08,120.2c-9.27.14-13.89-2.55-16-4.55a9.63,9.63,0,0,0,1.32,1.69.58.58,0,0,1,0,.81l-.15.15a13.19,13.19,0,0,0,5.29,2.79l.79-.08a.62.62,0,0,1,0-.19.58.58,0,0,1,.73-.36l.54.18h0l.5.16,1.09-.13.16.41a33,33,0,0,0,12.7-.3v-.86l1.13.58c.84-.25,1.63-.54,1.64-.54a.56.56,0,0,1,.77.59,10.79,10.79,0,0,0,4.26-2.67,7.63,7.63,0,0,0-.71-.52.59.59,0,0,1-.18-.77l0,0C130.06,117.78,125.54,120,118.08,120.2Z"/><path class="cls-4" d="M111.1,120.81c.34.09.76.19,1.25.28l-.16-.41Z"/><path class="cls-4" d="M109.36,121.28a.52.52,0,0,1-.07-.27l-.79.08h0"/><path class="cls-4" d="M131.75,125.66a6.34,6.34,0,0,0-3.89-4.49c-.29.1-.72.25-1.2.39,2.4,2.55,4.23,4.75,4.23,8.51a9,9,0,0,1-1.3,5C131.88,133.17,132.56,129,131.75,125.66Z"/><path class="cls-4" d="M126.18,120.51l-1.13-.58v.86l.39-.09h0Z"/><path class="cls-4" d="M124.22,140.7a3.42,3.42,0,0,1,1-2.76c-1.66,1-2.49,2.07-2.44,3.14.12,2.65,4.08,3.66,7,4.19l1.18.21c2,.37,4.94.92,8.51,1.29A5.34,5.34,0,0,1,138,145C129.93,144.2,124.64,143.05,124.22,140.7Z"/><path class="cls-5" d="M169.05,145.1a8.82,8.82,0,0,0,3.24-1.19c-.86.16-2,.36-3,.45A5.22,5.22,0,0,1,169.05,145.1Z"/><path class="cls-5" d="M163.24,144.87a43.91,43.91,0,0,1-8,.68c-3.43,0-13.09-.38-15.84-.48a7.77,7.77,0,0,0,2.48,1.91c1.15.08,2.3.13,3.42.16h.19c1.13,0,2.24,0,3.32,0,6.8-.22,11.29-.58,12.87-.73A2.46,2.46,0,0,0,163.24,144.87Z"/><path class="cls-5" d="M164.46,144.8a3.47,3.47,0,0,1-.71,1.51,10.42,10.42,0,0,0,3.82-.94,3.76,3.76,0,0,0,.47-.83A19.33,19.33,0,0,1,164.46,144.8Z"/><path class="cls-6" d="M85,15.75a3.33,3.33,0,0,0-1.28.22c-4.13,1.62-5.49,16.51-5.16,22.5a46.5,46.5,0,0,0,1.76,9.21,30.74,30.74,0,0,1,3.72-5,57.11,57.11,0,0,1-1-10.23c0-5.41,1-9,2.76-9.57,1.39-.46,8.28.61,14.49,8.42a38.66,38.66,0,0,1,4.65-1.47c0-.06,0-.11,0-.16C98.91,21.92,89.52,15.75,85,15.75Z"/><path d="M80.27,47.68a46.5,46.5,0,0,1-1.76-9.21c-.33-6,1-20.88,5.16-22.5A3.33,3.33,0,0,1,85,15.75c4.57,0,14,6.17,19.89,14,0-.69-.08-1.37-.13-2C98,19.55,87.7,13.14,83.24,14.9c-5.34,2.1-6.13,19-5.88,23.63a50.39,50.39,0,0,0,2.12,10.58C79.72,48.64,80,48.16,80.27,47.68Z"/><path class="cls-7" d="M86.47,24a1.62,1.62,0,0,0-.4,0c-.55.18-2,2.06-2,8.48A53.82,53.82,0,0,0,85,41.67a52.4,52.4,0,0,1,6.17-5.35,38.19,38.19,0,0,1,8-4.54C93.67,25.1,88.08,24,86.47,24Z"/><path class="cls-6" d="M147.57,13.29s-1-1-7.46,2.4a79.82,79.82,0,0,0-12,8.49c-.15,1.68-.28,3.41-.36,5.21l.06.38c.37.07.73.16,1.08.24a46.44,46.44,0,0,1,6.51-5.61c6.9-4.37,8.07-3.8,8.45-3.61,1.46.73,3.75,7.58,2,17.77a37.22,37.22,0,0,1,5.63,6.87C156.47,28.15,147.67,13.43,147.57,13.29Z"/><path d="M128.16,24.18a79.82,79.82,0,0,1,12-8.49c6.47-3.4,7.46-2.4,7.46-2.4s8.9,14.86,4,32.14l.49.76c.13.22.24.39.31.5h0c5.78-18.4-3.79-34-3.91-34.15-1-1.16-3.92-.47-8.87,2.13a75.08,75.08,0,0,0-11.24,7.87C128.27,23.08,128.22,23.63,128.16,24.18Z"/><path d="M127.78,29.75l.08,0-.06-.38C127.79,29.51,127.79,29.63,127.78,29.75Z"/><path class="cls-7" d="M143.37,21.81c-.36-.13-2.36.43-7.3,3.57a41.33,41.33,0,0,0-5.82,5A48.25,48.25,0,0,1,140,34.27a25,25,0,0,1,4.92,3.37C146.39,28,144,22.27,143.37,21.81Z"/><path d="M85.71,22.91C84,23.49,83,27.07,83,32.48a57.11,57.11,0,0,0,1,10.23c.32-.34.64-.69,1-1a53.82,53.82,0,0,1-.87-9.19c0-6.42,1.42-8.3,2-8.48a1.62,1.62,0,0,1,.4,0c1.61,0,7.2,1.14,12.62,7.82.37-.15.74-.31,1.11-.45C94,23.52,87.1,22.45,85.71,22.91Z"/><path d="M143.9,20.79c-.38-.19-1.55-.76-8.45,3.61A46.44,46.44,0,0,0,128.94,30c.44.1.88.21,1.31.33a41.33,41.33,0,0,1,5.82-5c4.94-3.14,6.94-3.7,7.3-3.57.67.46,3,6.15,1.51,15.83.35.3.69.61,1,.92C147.65,28.37,145.36,21.52,143.9,20.79Z"/><path class="cls-4" d="M135.55,84.63c-.12-.09-.24-.18-.35-.28a57.58,57.58,0,0,1-19.42,3.11A59.83,59.83,0,0,1,102.49,86c1.58,1.4,6,4.27,15.54,4C129.29,89.77,134.15,86.13,135.55,84.63Z"/><path d="M147.82,136l1.05,0Z"/><path d="M153.24,136.14l.73,0Z"/><path d="M149,136c1.75.07,3.15.11,4.17.14Z"/><path d="M103.21,118.3l.15-.15a.58.58,0,0,0,0-.81,9.63,9.63,0,0,1-1.32-1.69c-3.8-6-1.07-15.72.17-20.1.11-.4.21-.75.29-1.07a2,2,0,0,0,.07-.23.58.58,0,0,0-.8-.67h0a39.26,39.26,0,0,1-15.51,3.88c-1.29-.07-3.5-1.14-6.68-5.84a25.61,25.61,0,0,1-2.87-5.53,23.31,23.31,0,0,1-1.18-4.77v0a4.64,4.64,0,0,1-.91-.81,4.84,4.84,0,0,1-4.68-1.39l0,.06a.57.57,0,0,1-.2.79.51.51,0,0,1-.29.08.6.6,0,0,1-.5-.27c-.17-.29-.31-.57-.44-.85-1.66,0-3.45-.37-4.08-1.86-.77-1.85.51-5,2.93-7.11a14.77,14.77,0,0,1,5-2.7h-.81c-.74,0-1.49,0-2.25,0a13.07,13.07,0,0,0-2.71,1.81c-2.81,2.48-4.19,6.1-3.22,8.41.55,1.3,2,2.77,5.85,2.56a6,6,0,0,0,5.18,1.66,24.58,24.58,0,0,0,4.21,10.56c2.76,4.08,5.31,6.22,7.57,6.34a40.14,40.14,0,0,0,14.95-3.49l0,.11c-1.39,4.9-4.59,16.23,1.05,22.5"/><path d="M110.49,121.83a32.5,32.5,0,0,0,14.91.07c2.53,2.66,4.34,4.64,4.34,8.17s-1.59,5.16-2,5.36l-.33.14c-1.47.6-5.93,2.43-5.79,5.56.16,3.44,4.36,4.62,8,5.27l1.17.21a84.59,84.59,0,0,0,16,1.7h0c-1.66,0-3.37-.06-5.09-.18a.62.62,0,0,1-.23-.07,10.56,10.56,0,0,1-2-1.28c-3.57-.37-6.52-.92-8.51-1.29l-1.18-.21c-3-.53-6.93-1.54-7-4.19-.05-1.07.78-2.12,2.44-3.14a17.57,17.57,0,0,1,2.64-1.3l.41-.18a4,4,0,0,0,1.31-1.35,9,9,0,0,0,1.3-5c0-3.76-1.83-6-4.23-8.51-.31.1-.64.19-1,.26h-.13a.57.57,0,0,1-.13-1.13h0l-.39.09a33,33,0,0,1-12.7.3c-.49-.09-.91-.19-1.25-.28l-.5-.16h0a.57.57,0,0,1-.38,1.08l-.53-.18a.54.54,0,0,1-.32-.27"/><path d="M133.22,116.71c.06-.09.1-.19.15-.28a22.93,22.93,0,0,0,2-4.57c.11-.38.2-.77.3-1.16a22.66,22.66,0,0,0,.55-5.13,46.78,46.78,0,0,0-2-11.79,57,57,0,0,0,7.7,3.9,11.18,11.18,0,0,0,6.17.83c.91-.26,7.09-4.05,9.38-8.29s3.82-7.51,4.31-10.36c2.39.35,3.95.17,5-.56a5,5,0,0,0,3.46-.72A4.93,4.93,0,0,0,172.58,75a.5.5,0,0,0,0-.12c.41-3.44-3.2-8.21-7-9.27a20,20,0,0,0-4.5-.65h-1.14a15.2,15.2,0,0,0-6.25,1.32,18.21,18.21,0,0,1-.7,1.75c3.05-2.21,8.58-2.33,12.29-1.3,3.23.89,6.53,5.17,6.19,8a3.83,3.83,0,0,1-1.87,2.82,4.23,4.23,0,0,1-1.74.59,2.26,2.26,0,0,1-1-.07.58.58,0,0,0-.58.11h0c-.7.63-2,.8-4.07.52l-.79-.12a.58.58,0,0,0-.44.11.55.55,0,0,0-.23.39c0,.2-.06.41-.1.62a22.46,22.46,0,0,1-1.77,5.19c-.67,1.45-1.47,3-2.4,4.73-2.14,4-8.1,7.55-8.68,7.73a10.15,10.15,0,0,1-5.43-.79A59.56,59.56,0,0,1,133.53,92h0a.57.57,0,0,1,.19.79.58.58,0,0,1-.49.27.67.67,0,0,1-.3-.08l-.2-.14c.42,1.42.77,2.76,1.07,4a39,39,0,0,1,1.24,8.66,20.25,20.25,0,0,1-3,11l0,0a.59.59,0,0,0,.18.77,7.63,7.63,0,0,1,.71.52c3.39,2.5,5,5.52,4.84,9.44a15.42,15.42,0,0,1-2.82,8.26.59.59,0,0,0-.06.6.55.55,0,0,0,.49.33c.08,0,4.92.25,9.82.46l1.83-1a.51.51,0,0,1,.3-.06h.28c-4.26-.18-9.09-.42-11.15-.52a16.53,16.53,0,0,0,2.46-8.06,11.66,11.66,0,0,0-4.31-9.63C134.12,117.38,133.69,117,133.22,116.71Z"/><path d="M91.19,88.67c1.61,1,4,0,6.36-.89l.85-.32a13.61,13.61,0,0,0,3-1.69c-.49-.13-1-.26-1.46-.41a11,11,0,0,1-2,1l-.86.33c-2.07.8-4.22,1.64-5.36,1s-3.61-3.37-4.14-9.05c-.42-.37-.83-.74-1.22-1.11C86.66,83.76,89.33,87.58,91.19,88.67Z"/><path d="M141.07,87.48l.42.1a3,3,0,0,0,3.13-.53c1.29-1.09,3.71-6.69,4.48-9.19.19-.64.36-1.28.52-1.94.24-.94.49-1.91.85-3a20.1,20.1,0,0,1-1.94,2.56.52.52,0,0,0,0,.11c-.17.64-.32,1.26-.51,1.89-.87,2.81-3.19,7.85-4.13,8.65-.71.61-1.21.49-2.12.28l-.45-.1a17.07,17.07,0,0,1-4.86-2.49c-.41.17-.82.33-1.24.48.11.1.23.19.35.28A17.6,17.6,0,0,0,141.07,87.48Z"/><path d="M153.49,137.3h0Z"/><path d="M153,137.29h0Z"/><path d="M145.53,147.14h0Z"/><path class="cls-2" d="M127.66,35.24a.57.57,0,0,1-.57.58.58.58,0,0,1-.58-.58h-1.15a.58.58,0,0,1-.52.58.58.58,0,0,1-.62-.54c0-.05-.13-2,0-5l-1.12-.14c-.14,4.53-.5,9.71-.71,11.89-.23,2.38-2.22,3.68-5.64,3.68h-.54c-2.31-.09-5.82-1.56-6.25-5.23,0,0,0,0,0,0h0l0-.2c-.09-1.17-.08-3,0-5h0c.06-1.68.16-3.49.27-5.2l-1.56.22a39.7,39.7,0,0,1,0,4.12.59.59,0,0,1-.61.54.57.57,0,0,1-.53-.57h-1.33a.57.57,0,0,1-.57.57h0a.58.58,0,0,1-.58-.57c0-1.14,0-2.24-.07-3.32a37.37,37.37,0,0,0-13.09,6.21c-6.11,4.56-10.23,9.38-12,13.91a.57.57,0,0,1,.36.69.57.57,0,0,1-.71.4l-.37,1.36c0,.14,0,.27-.07.41h0a.56.56,0,0,1,.35.73.55.55,0,0,1-.49.37,41.4,41.4,0,0,0,0,7.4c.09,1.12.13,1.63-.44,1.77l-.53.07a141.52,141.52,0,0,0-14.12,2.36,44,44,0,0,1,7.08-.63h.63c7.28.14,8.37.25,9,1.55A32.38,32.38,0,0,0,97,83.11c11.46,4.78,30.72,4.16,41.21-1.34,9.42-4.93,11.57-9.55,13-12.61.16-.35.31-.67.46-1a15.81,15.81,0,0,0,1.73-5.9,1.39,1.39,0,0,1,.41-1.06,2.55,2.55,0,0,1,2-.45l.56,0a102.13,102.13,0,0,1,18,1.87,66.35,66.35,0,0,0-10-2.32c-4.23-.57-6.74-.78-8.24-.91-1.87-.16-2.43-.2-2.43-.95,0-.34-.4-3.35-.64-4.85-.06-.38-.16-.79-.25-1.18-.28-1.2-.55-2.34.33-2.67a102.86,102.86,0,0,1,22.17-4.86,113,113,0,0,0-12.24.59,40,40,0,0,0-9.35,2c-1.11.36-1.57.52-2,.19a4,4,0,0,1-.63-.88c-1.27-2-5.15-8.18-11.6-11.52a44.5,44.5,0,0,0-11.69-4.37C127.69,32.31,127.66,33.75,127.66,35.24Zm-42,19.29C85.8,50,90.34,43.91,94,41.84c3.16-1.8,7-.88,10.16,2.46,2.69,2.82,4.06,10.46,4.07,10.54a1.13,1.13,0,0,0,.23.51,1.23,1.23,0,0,1,.26.75h0a1.53,1.53,0,0,1-.52,1,3.14,3.14,0,0,0-.58.81c-2.54,5.19-6.47,6.28-9.37,6.28h-.1A14.62,14.62,0,0,1,88,59.88,7.58,7.58,0,0,1,85.64,54.53Zm51.44,18.08-.91,0c-.14.16-.3.34-.47.55-1,1.24-1.52,1.76-2,1.76h-.11c-.22,0-.6-.09-2.55-2.77l-2.34-.26c-3.64-.4-7.75-.85-10.27-1-3-.17-9.85.09-15.16.38-1.84,2.63-2,2.63-2.32,2.63a4.31,4.31,0,0,1-2.43-2.35l-1.29.09c-4,.33-5.54-1.16-5.72-2.65a2.45,2.45,0,0,1,1.66-2.49.58.58,0,0,1,.4,1.08s-1,.41-.92,1.27c.15,1.21,1.9,1.85,4.49,1.65,3.59-.29,16.87-1,21.36-.76,2.55.15,6.68.61,10.32,1l2.62.28c.31,0,3.53.36,4.53.43,3.32.22,5.45-.59,5.51-1.45a1.41,1.41,0,0,0-.79-1.42.58.58,0,0,1,.47-1.06,2.62,2.62,0,0,1,1.47,2.56C142.5,71.65,140.37,72.61,137.08,72.61Zm9.86-15.11c-.13,1.7-4.51,7.11-11.42,7.23h-.22c-4.35,0-8-2.17-10.79-6.45a3.22,3.22,0,0,0-1.11-1.08,1.3,1.3,0,0,1-.79-1.11,1.11,1.11,0,0,1,.63-1,.76.76,0,0,0,.45-.61l.06-.26a31.8,31.8,0,0,1,1.63-5,12.77,12.77,0,0,1,7-6.94c3.6-1.3,6.92-.35,10.79,3.08C146.76,48.57,147.06,55.86,146.94,57.5Z"/><path d="M190.09,68c-.44-.28-1-.57-1.49-.86s-.86-.46-1.32-.69c-1.6-.8-3.46-1.62-5.48-2.42l-1.51-.58c-2.25-.84-4.65-1.64-7-2.32-.53-.16-1.05-.3-1.58-.44L170,60.29c-1.94-.47-3.83-.84-5.56-1.08l-1.24-.16-1.27-.16c-2.78-.34-4.6-.49-5.78-.59-.61,0-1.13-.1-1.41-.14-.09-1-.46-3.66-.62-4.7-.07-.41-.17-.85-.27-1.26a8.26,8.26,0,0,1-.25-1.39c1.71-.6,18.65-6.37,35.08-4.93a.57.57,0,0,0,.12-1.14,109,109,0,0,0-25.93-.36,41.76,41.76,0,0,0-9.59,2l-.91.29h0c-.07-.11-.18-.28-.31-.5l-.49-.76a37.22,37.22,0,0,0-5.63-6.87c-.32-.31-.66-.62-1-.92A25,25,0,0,0,140,34.27a48.25,48.25,0,0,0-9.71-3.93c-.43-.12-.87-.23-1.31-.33s-.71-.17-1.08-.24l-.08,0c0,.39,0,.77,0,1.17a44.5,44.5,0,0,1,11.69,4.37c6.45,3.34,10.33,9.49,11.6,11.52a4,4,0,0,0,.63.88c.39.33.85.17,2-.19a40,40,0,0,1,9.35-2,113,113,0,0,1,12.24-.59A102.86,102.86,0,0,0,153,49.79c-.88.33-.61,1.47-.33,2.67.09.39.19.8.25,1.18.24,1.5.64,4.51.64,4.85,0,.75.56.79,2.43.95,1.5.13,4,.34,8.24.91a66.35,66.35,0,0,1,10,2.32,102.13,102.13,0,0,0-18-1.87l-.56,0a2.55,2.55,0,0,0-2,.45,1.39,1.39,0,0,0-.41,1.06,15.81,15.81,0,0,1-1.73,5.9c-.15.3-.3.62-.46,1-1.41,3.06-3.56,7.68-13,12.61-10.49,5.5-29.75,6.12-41.21,1.34A32.38,32.38,0,0,1,80.54,67.64c-.6-1.3-1.69-1.41-9-1.55h-.63a44,44,0,0,0-7.08.63A141.52,141.52,0,0,1,78,64.35l.53-.07c.57-.14.53-.65.44-1.77a41.4,41.4,0,0,1,0-7.4l0,0a.63.63,0,0,1-.19,0c-.28-.1-.59-.19-.89-.28a43.33,43.33,0,0,0,0,7.79c0,.21,0,.42,0,.6h0C70.2,64.1,56.22,66.28,48.41,71a.57.57,0,0,0,.49,1c4.53-1.68,12.85-4.37,20.4-4.72.76,0,1.51-.06,2.25,0h.81c6.1.14,6.87.31,7.13.87a32.76,32.76,0,0,0,6.92,9.4c.39.37.8.74,1.22,1.11a32.86,32.86,0,0,0,8.93,5.54A31.88,31.88,0,0,0,100,85.36c.48.15,1,.28,1.46.41l1,.26a59.83,59.83,0,0,0,13.29,1.43,57.58,57.58,0,0,0,19.42-3.11c.42-.15.83-.31,1.24-.48q1.22-.51,2.31-1.08a33.31,33.31,0,0,0,9.78-7.26A20.1,20.1,0,0,0,150.47,73a27.39,27.39,0,0,0,1.77-3.33c.15-.33.3-.64.44-.93s.2-.44.3-.66a18.21,18.21,0,0,0,.7-1.75,14.52,14.52,0,0,0,.85-4,.43.43,0,0,1,.05-.23s.26-.17,1.14-.13l.59,0c1.42,0,2.82.09,4.19.17l1.18.07q4.17.29,8,.85l1.2.19a73,73,0,0,1,10.13,2.32c.43.13.84.27,1.25.41a48.39,48.39,0,0,1,5.28,2.1c.42.2.84.41,1.24.62l.69.35a.57.57,0,0,0,.58-1Z"/><path d="M123.08,29.73a.42.42,0,0,1,0,.16.6.6,0,0,1-.05.24v.05l1.12.14c0-.37,0-.76,0-1.16L123.1,29C123.09,29.26,123.09,29.49,123.08,29.73Z"/><path d="M79,54h0c0-.14,0-.27.07-.41Z"/><path d="M79.81,51.13l0,0c1.74-4.53,5.86-9.35,12-13.91A37.37,37.37,0,0,1,104.91,31q0-.6-.06-1.17a38.66,38.66,0,0,0-4.65,1.47c-.37.14-.74.3-1.11.45a38.19,38.19,0,0,0-8,4.54A52.4,52.4,0,0,0,85,41.67c-.34.35-.66.7-1,1a30.74,30.74,0,0,0-3.72,5c-.28.48-.55,1-.79,1.43s-.53,1.18-.75,1.76C79.41,51,79.79,51.13,79.81,51.13Z"/><path d="M108.59,30.26l1.56-.22c0-.39,0-.78.08-1.16-.58.06-1.14.14-1.71.23C108.55,29.51,108.57,29.9,108.59,30.26Z"/><path class="cls-2" d="M79.5,52.24h0A73,73,0,0,0,56.28,50.7C63.85,51,73.14,52,79,54l.11-.4Z"/><path d="M78.68,55.1a.63.63,0,0,0,.19,0l0,0a.55.55,0,0,0,.49-.37.56.56,0,0,0-.35-.73h0c-5.88-2-15.17-3-22.74-3.3A73,73,0,0,1,79.5,52.24h0a.57.57,0,0,0,.71-.4.57.57,0,0,0-.36-.69l0,0s-.4-.11-1.08-.26a79.48,79.48,0,0,0-30.56-.25.57.57,0,0,0-.47.62.56.56,0,0,0,.59.52c7.18-.19,21.23.49,29.5,3.06C78.09,54.91,78.4,55,78.68,55.1Z"/><path class="cls-2" d="M107.46,34.31a51.42,51.42,0,0,0-2-16,56.21,56.21,0,0,0-2.24-6.11,84.64,84.64,0,0,1,2.9,22.13h1.33Z"/><path d="M104.84,29.7c0,.05,0,.1,0,.16q0,.57.06,1.17c0,1.08.07,2.18.07,3.32a.58.58,0,0,0,.58.57h0a.57.57,0,0,0,.57-.57h0a84.64,84.64,0,0,0-2.9-22.13,56.21,56.21,0,0,1,2.24,6.11,51.42,51.42,0,0,1,2,16v0a.57.57,0,0,0,.53.57.59.59,0,0,0,.61-.54,39.7,39.7,0,0,0,0-4.12c0-.36,0-.75-.07-1.15a49.94,49.94,0,0,0-2-11.12,53.67,53.67,0,0,0-6.16-13.63.57.57,0,0,0-.77-.17.58.58,0,0,0-.22.76c0,.09,4.17,8.28,5.29,22.72C104.76,28.33,104.8,29,104.84,29.7Z"/><path class="cls-2" d="M129.22,10.14c-4.73,11.59-3.86,24.91-3.85,25.06s0,0,0,0h1.15A112.63,112.63,0,0,1,129.22,10.14Z"/><path d="M124.19,30.32c-.1,3,0,4.91,0,5a.58.58,0,0,0,.62.54.58.58,0,0,0,.52-.58s0,0,0,0-.88-13.47,3.85-25.06a112.63,112.63,0,0,0-2.71,25.1h0a.58.58,0,0,0,.58.58.57.57,0,0,0,.57-.58c0-1.49,0-2.93.08-4.32,0-.4,0-.78,0-1.17,0-.12,0-.24,0-.36.08-1.8.21-3.53.36-5.21.06-.55.11-1.1.17-1.64a133.82,133.82,0,0,1,3.12-17,.58.58,0,0,0-.35-.66.57.57,0,0,0-.71.24c-4.62,8-5.87,17.82-6.16,24.05C124.21,29.56,124.2,30,124.19,30.32Z"/><path class="cls-8" d="M117.27,19.73c-3.11,0-5,1.39-5.4,4h10C121.43,20.35,120,19.73,117.27,19.73Z"/><path class="cls-8" d="M111,39.9h10.37c.09-1.17.18-2.57.27-4.08H111C111,37.44,111,38.87,111,39.9Z"/><path class="cls-8" d="M116.22,44.59c2.16.08,4.77-.31,5-2.63,0-.26.06-.57.08-.91H111.2C112,43.79,115,44.54,116.22,44.59Z"/><path class="cls-8" d="M111.05,34.67h10.67c.08-1.38.14-2.8.19-4.17l-10.66.32C111.17,32.1,111.1,33.41,111.05,34.67Z"/><path class="cls-8" d="M111.32,29.67l10.62-.32c0-1.68,0-3.22,0-4.43v0H111.72C111.59,26.08,111.45,27.78,111.32,29.67Z"/><path d="M123.12,24.3A.57.57,0,0,0,123,24c0,.18,0,.37,0,.56A.66.66,0,0,0,123.12,24.3Z"/><path d="M123.08,29.73c0,.13,0,.27,0,.4a.6.6,0,0,0,.05-.24A.42.42,0,0,0,123.08,29.73Z"/><polygon points="109.88 35.25 109.88 35.23 109.88 35.24 109.88 35.25"/><path d="M109.93,40.51v0h0S109.93,40.5,109.93,40.51Z"/><path class="cls-9" d="M101,49.18a12.66,12.66,0,0,0-.52-2.93,27.26,27.26,0,0,0-.38,4.82A11.59,11.59,0,0,0,101,49.18Z"/><path class="cls-9" d="M86.79,54.57a6.44,6.44,0,0,0,2.08,4.52,13.62,13.62,0,0,0,9.28,4c2.58,0,6.12-.92,8.4-5.58a3.9,3.9,0,0,1,.8-1.14c.16-.17.2-.22.21-.28l-.07-.11a2.31,2.31,0,0,1-.41-1c-.09-.7-1.52-7.54-3.76-9.88-1-1.06-3.27-3-6-3a5.57,5.57,0,0,0-2.8.77C91.19,44.76,86.94,50.55,86.79,54.57Zm12.14-1.69c.06-6.34.37-8,1.49-8.11a.86.86,0,0,1,.65.24c1.07,1,1.22,5.36,1.23,7.21,0,3.56-.38,7.57-1.36,8.51a.91.91,0,0,1-.64.27h0C99.14,61,98.87,59.28,98.93,52.88Z"/><path d="M98.24,64.24c2.9,0,6.83-1.09,9.37-6.28a3.14,3.14,0,0,1,.58-.81,1.53,1.53,0,0,0,.52-1h0a1.23,1.23,0,0,0-.26-.75,1.13,1.13,0,0,1-.23-.51c0-.08-1.38-7.72-4.07-10.54C101,41,97.15,40,94,41.84c-3.65,2.07-8.19,8.2-8.35,12.69A7.58,7.58,0,0,0,88,59.88a14.62,14.62,0,0,0,10.11,4.36Zm-.88-22.17c2.69,0,4.94,2,6,3,2.24,2.34,3.67,9.18,3.76,9.88a2.31,2.31,0,0,0,.41,1l.07.11c0,.06,0,.11-.21.28a3.9,3.9,0,0,0-.8,1.14c-2.28,4.66-5.82,5.59-8.4,5.58a13.62,13.62,0,0,1-9.28-4,6.44,6.44,0,0,1-2.08-4.52c.15-4,4.4-9.81,7.77-11.73A5.57,5.57,0,0,1,97.36,42.07Z"/><path class="cls-9" d="M132.72,50.65a27.38,27.38,0,0,0-.19-4.15,21.53,21.53,0,0,0-.67,5.47A7.74,7.74,0,0,0,132.72,50.65Z"/><polygon class="cls-9" points="123.76 56.09 123.76 56.09 123.18 56.09 123.18 56.09 123.76 56.09"/><path class="cls-9" d="M132.76,43.38a11.66,11.66,0,0,0-6.33,6.31,30.66,30.66,0,0,0-1.56,4.85l-.05.22a1.85,1.85,0,0,1-1,1.35h0l.17.11a4.29,4.29,0,0,1,1.4,1.34c2.67,4.08,6.07,6,10.08,6,6.15-.1,10.2-4.93,10.29-6.17s-.12-8.27-3.39-11.17C138.88,43.13,135.91,42.25,132.76,43.38Zm1.1,8.1v.76c-.13,6.67-.32,8.48-1.46,8.48-.42,0-1.69,0-1.69-8.1,0-1.81.15-7.71,2-7.78a.72.72,0,0,1,.55.22C133.41,45.27,134,45.81,133.86,51.48Z"/><path d="M132.37,42.3a12.77,12.77,0,0,0-7,6.94,31.8,31.8,0,0,0-1.63,5l-.06.26a.76.76,0,0,1-.45.61,1.11,1.11,0,0,0-.63,1,1.3,1.3,0,0,0,.79,1.11,3.22,3.22,0,0,1,1.11,1.08c2.81,4.28,6.44,6.45,10.79,6.45h.22c6.91-.12,11.29-5.53,11.42-7.23s-.18-8.93-3.78-12.12C139.29,42,136,41,132.37,42.3Zm13.42,15.11c-.09,1.24-4.14,6.07-10.29,6.17-4,0-7.41-1.93-10.08-6a4.29,4.29,0,0,0-1.4-1.34l-.17-.11h0a1.85,1.85,0,0,0,1-1.35l.05-.22a30.66,30.66,0,0,1,1.56-4.85,11.66,11.66,0,0,1,6.33-6.31c3.15-1.13,6.12-.25,9.64,2.86C145.67,49.14,145.88,56.15,145.79,57.41Zm-22.61-1.32h0Z"/><path class="cls-10" d="M100.35,59.53a21.37,21.37,0,0,0,.79-6.45c-.35.49-.72,1.06-1.07,1.66A28.51,28.51,0,0,0,100.35,59.53Z"/><path d="M100.08,52.89c0,.46,0,1.12,0,1.85.35-.6.72-1.17,1.07-1.66,0-.28,0-.55,0-.85,0-1.2-.06-2.21-.14-3a11.59,11.59,0,0,1-.9,1.89C100.09,51.79,100.08,52.44,100.08,52.89Z"/><path class="cls-10" d="M132.35,59a48.84,48.84,0,0,0,.32-5.43,16.42,16.42,0,0,0-.75,1.64A23.61,23.61,0,0,0,132.35,59Z"/><path d="M131.86,52.62c0,.9,0,1.76.06,2.54a16.42,16.42,0,0,1,.75-1.64c0-.46,0-.91,0-1.3v-.76c0-.28,0-.55,0-.81a7.74,7.74,0,0,1-.86,1.32Z"/><path d="M141.15,67.49a.58.58,0,0,0-.47,1.06,1.41,1.41,0,0,1,.79,1.42c-.06.86-2.19,1.67-5.51,1.45h0a.57.57,0,0,1,.5.36.6.6,0,0,1-.13.61l-.16.18.91,0c3.29,0,5.42-1,5.54-2.56A2.62,2.62,0,0,0,141.15,67.49Z"/><path d="M130.85,71.27a.55.55,0,0,1,.55-.28h0l-2.62-.28c-3.64-.4-7.77-.86-10.32-1-4.49-.26-17.77.47-21.36.76-2.59.2-4.34-.44-4.49-1.65-.1-.86.88-1.25.92-1.27a.58.58,0,0,0-.4-1.08A2.45,2.45,0,0,0,91.5,69c.18,1.49,1.77,3,5.72,2.65l1.29-.09a2.75,2.75,0,0,1-.17-.45.57.57,0,0,1,.08-.49.61.61,0,0,1,.44-.24l4.06-.24a.58.58,0,0,1,.53.3.56.56,0,0,1,0,.61l-.16.23c5.31-.29,12.2-.55,15.16-.38,2.52.15,6.63.6,10.27,1l2.34.26-.15-.21A.6.6,0,0,1,130.85,71.27Z"/><path class="cls-9" d="M99.75,71.43a4.35,4.35,0,0,0,1.09,1.15c.22-.28.57-.75,1-1.27Z"/><path d="M103.45,70.39a.58.58,0,0,0-.53-.3l-4.06.24a.61.61,0,0,0-.44.24.57.57,0,0,0-.08.49,2.75,2.75,0,0,0,.17.45,4.31,4.31,0,0,0,2.43,2.35c.31,0,.48,0,2.32-2.63l.16-.23A.56.56,0,0,0,103.45,70.39Zm-3.7,1,2-.12c-.38.52-.73,1-1,1.27A4.35,4.35,0,0,1,99.75,71.43Z"/><path class="cls-9" d="M134.75,72.47l-2.17-.21c.45.58.88,1.11,1.13,1.37C134,73.37,134.45,72.83,134.75,72.47Z"/><path d="M136.46,71.79a.57.57,0,0,0-.5-.36h0c-1-.07-4.22-.4-4.53-.43h0a.55.55,0,0,0-.55.28.6.6,0,0,0,0,.63l.15.21c1.95,2.68,2.33,2.74,2.55,2.77h.11c.49,0,1-.52,2-1.76.17-.21.33-.39.47-.55l.16-.18A.6.6,0,0,0,136.46,71.79Zm-3.88.47,2.17.21c-.3.36-.76.9-1,1.16C133.46,73.37,133,72.84,132.58,72.26Z"/><path d="M78.52,82.19a5.59,5.59,0,0,0,5.67-4,7.91,7.91,0,0,0,.34-2,.56.56,0,0,0-.54-.6.61.61,0,0,0-.61.54c-.25,4.35-3.22,4.93-5,4.88s-3.85-1.19-3.95-4.28c-.09-2.92,3.14-4.13,3.27-4.18a.58.58,0,0,0,.35-.74.59.59,0,0,0-.74-.35c-.17.06-4.15,1.55-4,5.31a5.68,5.68,0,0,0,1.31,3.7,4.64,4.64,0,0,0,.91.81,5.35,5.35,0,0,0,2.85.88Z"/><path d="M69.23,75.3a7.06,7.06,0,0,1,3.27-3.7.58.58,0,0,0-.52-1A8.19,8.19,0,0,0,68.12,75a5.63,5.63,0,0,0,.39,3.94c.13.28.27.56.44.85a.6.6,0,0,0,.5.27.51.51,0,0,0,.29-.08.57.57,0,0,0,.2-.79l0-.06A4.76,4.76,0,0,1,69.23,75.3Z"/><path d="M123.08,24.86a3,3,0,0,1,0-.31c0-.19,0-.38,0-.56-.37-4-1.94-5.41-5.75-5.41s-6.15,1.86-6.59,5.23c-.13,1-.3,2.91-.45,5.07,0,.38-.06.77-.08,1.16-.11,1.71-.21,3.52-.27,5.2h0c-.07,2-.08,3.85,0,5l0,.2v0c.43,3.67,3.94,5.14,6.25,5.23h.54c3.42,0,5.41-1.3,5.64-3.68.21-2.18.57-7.36.71-11.89v-.05c0-.13,0-.27,0-.4s0-.47,0-.7C123.13,27.46,123.13,26,123.08,24.86Zm-5.81-5.13c2.72,0,4.12.61,4.54,3.85q-4.91.09-9.8-.07h-.09C112.42,21.05,114.25,19.73,117.27,19.73Zm-5.56,5.21a.73.73,0,0,0,.3.07q5,.16,9.92.07c0,1.16,0,2.61,0,4.18-1.73,0-3.46,0-5.19.13-.78,0-1.57.13-2.37.18l-1.52.05a9.07,9.07,0,0,1-1.27-.11.76.76,0,0,0-.26,0C111.46,27.72,111.59,26.1,111.71,24.94Zm-.47,6a24.18,24.18,0,0,0,5.31-.06c1.78-.12,3.56-.13,5.35-.14-.05,1.26-.1,2.54-.17,3.8-3.56,0-7.11-.07-10.67-.16C111.11,33.27,111.17,32.1,111.24,31ZM111,35.9c3.55.09,7.09.14,10.64.16-.09,1.38-.17,2.66-.26,3.74H111.2a.53.53,0,0,0-.18,0C111,38.82,111,37.45,111,35.9Zm5.21,8.69c-1.19,0-4.06-.77-4.92-3.3h10c0,.24,0,.47-.06.66C121,44.28,118.38,44.67,116.22,44.59Z"/><path d="M100.27,61h0a.91.91,0,0,0,.64-.27c1-.94,1.39-4.95,1.36-8.51,0-1.85-.16-6.24-1.23-7.21a.86.86,0,0,0-.65-.24c-1.12.1-1.43,1.77-1.49,8.11S99.14,61,100.27,61Zm.22-14.75a12.66,12.66,0,0,1,.52,2.93c.08.84.13,1.85.14,3,0,.3,0,.57,0,.85a21.37,21.37,0,0,1-.79,6.45,28.51,28.51,0,0,1-.28-4.79c0-.73,0-1.39,0-1.85s0-1.1,0-1.82A27.26,27.26,0,0,1,100.49,46.25Z"/><path d="M132.65,44.84c-1.8.07-2,6-2,7.78,0,8.1,1.27,8.1,1.69,8.1,1.14,0,1.33-1.81,1.46-8.48v-.76c.11-5.67-.45-6.21-.66-6.42A.72.72,0,0,0,132.65,44.84Zm-.12,1.66a27.38,27.38,0,0,1,.19,4.15c0,.26,0,.53,0,.81v.76c0,.39,0,.84,0,1.3a48.84,48.84,0,0,1-.32,5.43,23.61,23.61,0,0,1-.43-3.79c0-.78-.06-1.64-.06-2.54V52A21.53,21.53,0,0,1,132.53,46.5Z"/><path d="M164.49,143c-.2-1.6-1.61-3.2-4.45-3.16-2.3,0-6.57,0-6.62,0a.61.61,0,0,0-.58.57.58.58,0,0,0,.57.58c.05,0,4.34,0,6.65,0h.09c2,0,3.06,1.07,3.2,2.15a4.1,4.1,0,0,1-.11,1.76,2.46,2.46,0,0,1-1.52,1.52l.63,0a12.49,12.49,0,0,0,1.4,0,3.47,3.47,0,0,0,.71-1.51A5.66,5.66,0,0,0,164.49,143Z"/><path d="M169.46,141.93c-.58-3.43-4.05-3.63-5.19-3.69-2.45-.14-6.38-.29-6.42-.29a.57.57,0,0,0-.6.55.58.58,0,0,0,.56.6s4,.14,6.4.29,3.82,1,4.12,2.74a4.23,4.23,0,0,1-.29,2.41,3.76,3.76,0,0,1-.47.83l.1-.05a.73.73,0,0,1,.21-.06,9.39,9.39,0,0,0,1.17-.16,5.22,5.22,0,0,0,.28-.74A5.44,5.44,0,0,0,169.46,141.93Z"/><path d="M147,136l-1.83,1c-1.8,1-4.44,2.48-5.66,3.36a3.89,3.89,0,0,0-1.79,3.38A3.46,3.46,0,0,0,138,145a5.34,5.34,0,0,0,1.49,1.79,10.56,10.56,0,0,0,2,1.28.62.62,0,0,0,.23.07c1.72.12,3.43.18,5.09.18h0c.7,0,1.39,0,2.08,0l2.9-.11c6.39-.27,10.17-.63,10.63-.68a12.31,12.31,0,0,0,5.67-1.08c2.85-.26,6.29-1.5,6.78-4.19a5.87,5.87,0,0,0-1-4.48,5,5,0,0,0-3.56-2,74.4,74.4,0,0,0-9,.17c-2.65.14-5.39.29-7.28.26l-.73,0h-.11c-1,0-2.42-.07-4.17-.14h-.09l-1.05,0h-.57A.51.51,0,0,0,147,136Zm14.36,1.06a73.65,73.65,0,0,1,8.85-.17,3.86,3.86,0,0,1,2.76,1.54,4.76,4.76,0,0,1,.82,3.58,3.06,3.06,0,0,1-1.45,1.91,8.82,8.82,0,0,1-3.24,1.19,9.39,9.39,0,0,1-1.17.16.73.73,0,0,0-.21.06l-.1.05a10.42,10.42,0,0,1-3.82.94,12.49,12.49,0,0,1-1.4,0l-.63,0c-1.58.15-6.07.51-12.87.73-1.08,0-2.19,0-3.32,0h-.19c-1.12,0-2.27-.08-3.42-.16a7.77,7.77,0,0,1-2.48-1.91,2.61,2.61,0,0,1-.62-1.44,2.86,2.86,0,0,1,1.32-2.36c1.67-1.21,6.35-3.73,7.22-4.19l5.64.21H154C155.9,137.34,158.65,137.19,161.31,137.05Z"/><path d="M128.22,121a.58.58,0,0,0,.37-.48.56.56,0,0,0-.77-.59s-.8.29-1.64.54l-.73.19h0a.57.57,0,0,0,.13,1.13h.13c.31-.07.64-.16,1-.26.48-.14.91-.29,1.2-.39Z"/><path d="M131.4,90a.58.58,0,0,0-.85.78l.48.51a15.54,15.54,0,0,0,1.7,1.55l.2.14a.67.67,0,0,0,.3.08.58.58,0,0,0,.49-.27.57.57,0,0,0-.19-.79h0A15.7,15.7,0,0,1,131.4,90Z"/><path d="M110,120.46a.58.58,0,0,0-.73.36.62.62,0,0,0,0,.19.52.52,0,0,0,.07.27.54.54,0,0,0,.32.27l.53.18a.57.57,0,0,0,.38-1.08h0Z"/><polyline class="cls-11" points="79.24 0.19 79.24 146.52 62.58 146.52 62.58 0.19"/><path class="cls-2" d="M103.21,118.3c-1.83,1.89-6.63,7.17-3,16h0a2.94,2.94,0,0,1,.21.84.57.57,0,0,1-.52.63h0a.57.57,0,0,1-.57-.52l0-.09c-3,.46-6.6,1-10.59,1.26,5.58,2.34,8.68,4.57,9,6.49a3.12,3.12,0,0,1-.31,1.8c1.49.06,5.41.21,7.73.13,2.9-.11,5.75-.59,6.9-1.32a2.79,2.79,0,0,0,1-1.6,7.44,7.44,0,0,0-2.63-4,9.19,9.19,0,0,1-5.39-10c.46-3.33,3.42-6.75,3.42-6.75"/><path class="cls-3" d="M67.87,142a5,5,0,0,1,4.44-4.14c1.9-.15,6.52,0,6.72,0a.57.57,0,0,1,.56.59.61.61,0,0,1-.6.56s-4.75-.14-6.6,0A3.85,3.85,0,0,0,69,142.12a3.8,3.8,0,0,0,.15,1.6,22.29,22.29,0,0,0,2.59.42,4.21,4.21,0,0,1-.13-1.08c0-2.16,2.46-3.68,4.18-3.82,1.38-.11,6.44,0,6.65,0a.58.58,0,1,1,0,1.15s-5.22-.11-6.54,0c-1,.08-3.09,1.11-3.12,2.7a3.07,3.07,0,0,0,.21,1.17c1.05.08,2.24.13,3.62.14,6,0,16.73.22,19.51.27a2.41,2.41,0,0,0,.45-1.57c-.1-.63-1.17-2.93-10.54-6.51-.65,0-1.32.06-2,.07-1.46,0-3,.06-4.55.09-4,.06-8.18.12-9.26.46-1.54.49-3.82,2.08-3.75,4.45a3.91,3.91,0,0,0,.21,1.15,6.15,6.15,0,0,0,1.21.55A6.07,6.07,0,0,1,67.87,142Z"/><path d="M99.89,135.77h0a.57.57,0,0,0,.52-.63,2.94,2.94,0,0,0-.21-.84h0a.53.53,0,0,1,0,.49.58.58,0,0,1-.41.29l-.51.08,0,.09A.57.57,0,0,0,99.89,135.77Z"/><path class="cls-5" d="M73.07,146.34a4.28,4.28,0,0,1-1.31-2.2,22.29,22.29,0,0,1-2.59-.42C69.53,144.77,70.55,145.74,73.07,146.34Z"/><path class="cls-5" d="M66.69,142.81a3.67,3.67,0,0,0,1,1.58,4.85,4.85,0,0,0,.83.62,4,4,0,0,1-.63-1.65A6.15,6.15,0,0,1,66.69,142.81Z"/><path class="cls-5" d="M95.08,145.76h.23a6.71,6.71,0,0,0,.81-1.08c-2.78,0-13.53-.24-19.51-.27-1.38,0-2.57-.06-3.62-.14a4,4,0,0,0,3.12,2.33c.84,0,1.71,0,2.66,0l8-.39Z"/><path class="cls-4" d="M112,143.52c-1.15.73-4,1.21-6.9,1.32-2.32.08-6.24-.07-7.73-.13a6.48,6.48,0,0,1-.56,1c4.9-.24,9-.43,11-.49,4.68-.16,5.16-1.42,5.25-2.69a2.88,2.88,0,0,0,0-.58A2.79,2.79,0,0,1,112,143.52Z"/><path class="cls-4" d="M108.48,121.1s-3,3.42-3.42,6.75a9.19,9.19,0,0,0,5.39,10c-.24-.19-.48-.37-.72-.53a8.57,8.57,0,0,1-4.07-8,10.92,10.92,0,0,1,3.7-8.05"/><path d="M69.13,146.58c-.14-.06-.29-.11-.42-.18C68.84,146.47,69,146.52,69.13,146.58Z"/><path d="M74.89,147.7l-.54,0Z"/><path d="M86.77,147.31H87l-8.13.4Z"/><path d="M68,146c-.1-.06-.21-.11-.31-.18C67.83,145.93,67.94,146,68,146Z"/><path d="M70.35,147l-.5-.16Z"/><path d="M102.15,117.74c-2.05,2.17-6.54,7.56-3.23,16.31a122.73,122.73,0,0,1-12.78,1.38.65.65,0,0,1,.2,0c.84.32,1.63.64,2.37.95,4-.3,7.61-.8,10.59-1.26l.51-.08a.58.58,0,0,0,.41-.29.53.53,0,0,0,0-.49h0c-3.67-8.82,1.13-14.1,3-16"/><path d="M78.82,147.7c-.73,0-1.44.05-2.11.05C77.38,147.75,78.09,147.73,78.82,147.7Z"/><path d="M73.23,147.56l-.59-.08Z"/><path d="M71.71,147.33l-.56-.12Z"/><path d="M109.36,121.28a10.92,10.92,0,0,0-3.7,8.05,8.57,8.57,0,0,0,4.07,8c.24.16.48.34.72.53a7.44,7.44,0,0,1,2.63,4,2.88,2.88,0,0,1,0,.58c-.09,1.27-.57,2.53-5.25,2.69-2,.06-6.13.25-11,.49a7,7,0,0,1-.84,1,.59.59,0,0,1-.41.21l-.51,0c5.68-.27,10.6-.5,12.83-.57,4.33-.15,6.17-1.24,6.35-3.76s-2.18-5.08-3.91-6.19a7.5,7.5,0,0,1-3.54-7,9.77,9.77,0,0,1,3.68-7.54"/><path d="M86,136.57l-.53,0c-.47,0-.94.05-1.42.06.67,0,1.34,0,2-.07Z"/><path d="M86.72,146.16l-8,.39,16.31-.79Z"/><path d="M76,147.74h0Z"/><path d="M73,144.26a3.07,3.07,0,0,1-.21-1.17c0-1.59,2.08-2.62,3.12-2.7,1.32-.11,6.49,0,6.54,0a.58.58,0,1,0,0-1.15c-.21,0-5.27-.11-6.65,0-1.72.14-4.14,1.66-4.18,3.82a4.21,4.21,0,0,0,.13,1.08,4.28,4.28,0,0,0,1.31,2.2l.47.11c.79.08,1.65.12,2.57.14A4,4,0,0,1,73,144.26Z"/><path d="M73.34,147.58h.08l-.11,0Z"/><path d="M69.17,143.72a3.8,3.8,0,0,1-.15-1.6A3.85,3.85,0,0,1,72.39,139c1.85-.14,6.56,0,6.6,0a.61.61,0,0,0,.6-.56.57.57,0,0,0-.56-.59c-.2,0-4.82-.15-6.72,0A5,5,0,0,0,67.87,142a6.07,6.07,0,0,0,0,1.34,4,4,0,0,0,.63,1.65,12.09,12.09,0,0,0,5,1.44l-.47-.11C70.55,145.74,69.53,144.77,69.17,143.72Z"/><path d="M96,146.68a7,7,0,0,0,.84-1,6.48,6.48,0,0,0,.56-1,3.12,3.12,0,0,0,.31-1.8c-.32-1.92-3.42-4.15-9-6.49-.74-.31-1.53-.63-2.37-.95a.65.65,0,0,0-.2,0l-.09,0-.66,0q-.67,0-1.38.06c-1.46,0-3,.06-4.54.09-4.48.06-8.35.12-9.59.51-1.61.52-4.64,2.34-4.56,5.58a4.89,4.89,0,0,0,1.6,3.55,6.41,6.41,0,0,0,.81.62c.1.07.21.12.31.18a7.12,7.12,0,0,0,.67.36c.13.07.28.12.42.18a7.66,7.66,0,0,0,.72.27l.5.16.8.2.56.12q.45.09.93.15l.59.08h.08l.11,0,.93.07.54,0c.35,0,.71,0,1.07,0h.75c.67,0,1.38,0,2.11-.05l8.13-.4,8.13-.39.51,0A.59.59,0,0,0,96,146.68Zm-19.89-.09c-.92,0-1.78-.06-2.57-.14a12.09,12.09,0,0,1-5-1.44,4.85,4.85,0,0,1-.83-.62,3.67,3.67,0,0,1-1-1.58,3.91,3.91,0,0,1-.21-1.15c-.07-2.37,2.21-4,3.75-4.45,1.08-.34,5.24-.4,9.26-.46,1.53,0,3.09-.05,4.55-.09.48,0,.95,0,1.42-.06l.53,0,0,0c9.37,3.58,10.44,5.88,10.54,6.51a2.41,2.41,0,0,1-.45,1.57,6.71,6.71,0,0,1-.81,1.08h-.23l-16.31.79C77.82,146.59,77,146.6,76.11,146.59Z"/></svg>