<svg id="Layer_1" data-name="Layer 1" xmlns="http://www.w3.org/2000/svg" viewBox="0 0 200 150"><defs><style>.cls-1{fill:#fff3c2;}.cls-2{fill:#0d131a;}.cls-3{fill:#d0801b;stroke:#0d131a;stroke-miterlimit:10;}.cls-4{fill:#cc5d00;}.cls-5{fill:#fbd6a0;}.cls-6{fill:#f29739;}.cls-7{fill:#fff;}.cls-8{fill:#922f00;}.cls-9{fill:#ed8599;}.cls-10{fill:#f9be00;}</style></defs><path class="cls-1" d="M101.19,113.12l-3.35,1.13a6.87,6.87,0,0,1-4.85-1,8.8,8.8,0,0,1-2.22-2.38,12.56,12.56,0,0,1-1.62-3q-4.44-2.6-5.74-5.22A72,72,0,0,1,79.13,89c-1.37-5.71-1.91-8.72-1.61-9a6.63,6.63,0,0,1,2.34-1.58c1.37-.59,2.14-.27,2.3,1q.5,3.6,5.74,12.45,5.17,8.69,6.83,9a19.42,19.42,0,0,1,6.14,2,6.22,6.22,0,0,1,3.35,4,6,6,0,0,1-.24,4.24,5.23,5.23,0,0,1-2.79,2.06"/><path class="cls-2" d="M102.57,109.81a4.49,4.49,0,0,1-2.83,4.72,7,7,0,0,1-6.31-.56,7.87,7.87,0,0,1-4.16-5.9c0-.43,0-.69.29-.77s.35,0,.32.41q-.07,2,2.83,4.4,3.15,2.58,6.06,1.37a3.47,3.47,0,0,0,2.42-4.16,5.23,5.23,0,0,0-3.63-4.16c-.41-.16-.52-.31-.33-.44a1,1,0,0,1,.89,0c2.88.94,4.37,2.64,4.45,5.09"/><path class="cls-2" d="M101,112.84c1.21-.16,2-1.11,2.47-2.83a4.94,4.94,0,0,0-1.14-4.77,9.21,9.21,0,0,0-4.56-2.67,12.72,12.72,0,0,1-4.73-2.14Q89,96.92,85,89,81.77,82.65,81.27,80c-.08-.38,0-.61.37-.69s.48,0,.56.28a44,44,0,0,0,5.66,11.84,40.64,40.64,0,0,0,6.3,8,16.27,16.27,0,0,0,4.29,1.86,12.44,12.44,0,0,1,5,2.71,6,6,0,0,1,1.73,5c-.19,2.37-1.69,3.89-4.52,4.56-.38.11-.51,0-.41-.2a.89.89,0,0,1,.77-.44"/><path class="cls-2" d="M89.6,107.42c.48,1.19.45,1.65-.08,1.38a20,20,0,0,1-5.3-4,16.16,16.16,0,0,1-3.76-11,1,1,0,0,1,.29-.73c.19-.22.29-.15.32.2a26.63,26.63,0,0,0,2.1,7.27,14.59,14.59,0,0,0,6.43,6.87"/><polyline class="cls-3" points="118.62 0.19 118.62 146.52 101.96 146.52 101.96 0.19"/><path class="cls-4" d="M25.8,72.5A11.21,11.21,0,0,1,33,81.59q1,5.94-2.06,9.82a12.63,12.63,0,0,1-6.26,4.53,5.87,5.87,0,0,1-4.85-.25c-.92-.56-1.48-.41-1.7.45a5.49,5.49,0,0,0,0,2.22L19.13,102a12.82,12.82,0,0,0,1.41,3.31c.33.32.13,1-.6,1.94a5.18,5.18,0,0,1-2.34,1.94l-2.35.65a3.32,3.32,0,0,1-2.38-1.18q-5.22-5.25-6.06-14.58t3.31-15.84a14.68,14.68,0,0,1,6.1-5.42,11.18,11.18,0,0,1,9.58-.36"/><path class="cls-1" d="M35.62,112q7.66.32,12.44-3.84c.67-.57,1.58,0,2.71,1.74s1.34,2.92.64,3.51q-8.56,7.23-20.89,5.66-11.79-1.5-17.53-9.42a5.62,5.62,0,0,0,2.95-.52,8.1,8.1,0,0,0,2.58-1.25,13.9,13.9,0,0,0,2.27-2.83,20.78,20.78,0,0,0,14.83,7"/><path class="cls-4" d="M19.82,103.29c-.43-1.45-.31-1.63.36-.53a6.67,6.67,0,0,1,1.09,2.75q.16,2-3.35,4-3.8,2.19-6.14-.32a2.3,2.3,0,0,1-.45-1.46c0-.7.18-.74.61-.12,1.1,1.65,2.83,1.78,5.17.41s3.25-2.94,2.71-4.69"/><path class="cls-1" d="M57,132.5,53.23,136l-.4-1.82A8.12,8.12,0,0,0,51.41,132a8,8,0,0,0-4-2.26,13,13,0,0,0-4.56-.53q5.58-3.48,9.61-5.45a6.66,6.66,0,0,1,5.1-.65q3,.89,2.7,5-.07,1.1-3.23,4.36"/><path class="cls-4" d="M33.07,143.37q-1.09-.08-1.86-2.46a7.43,7.43,0,0,1-.4-3.6c.29-1.45,1.72-3,4.28-4.6a25.21,25.21,0,0,1,6.18-3l3.92-.41,2.75.45a6.75,6.75,0,0,1,4.61,3.71,4.29,4.29,0,0,1-.17,4.21,31,31,0,0,1-4,4.84q-2.58,2.64-3.87,3l-2.23.13a1.9,1.9,0,0,1-1.25-.85l-2,.48-2.34.2a3.83,3.83,0,0,1-1.66-1.09,3.81,3.81,0,0,0-2-1.09"/><path class="cls-4" d="M52.67,135.94q-.77-4.65-5.82-5.82L40.91,130c-.46.11-.42,0,.12-.2l1.29-.49a10.37,10.37,0,0,1,7,.69,7,7,0,0,1,4.12,5.49c.14.73.07,1.13-.2,1.21s-.44-.13-.52-.72"/><path class="cls-5" d="M57.31,120.91c2.37,1.18,3.41,1.79,3.11,1.82s-.48.33-.88.92a4.26,4.26,0,0,0-.77,1.7c-.14.86-1.28,1-3.44.32s-3-1.23-2.38-1.77a3.68,3.68,0,0,0,1.21-3.84q-.19-.81,3.15.85"/><path class="cls-2" d="M60.18,122.48a1.51,1.51,0,0,1,1.26-.24c.26.13.14.36-.37.69a3.73,3.73,0,0,0-1.9,3.15c0,.46-.2.71-.52.77s-.49-.12-.49-.61a4,4,0,0,1,2-3.76"/><path class="cls-2" d="M58.93,131.17a126.28,126.28,0,0,0-11.48,13.37c-1.48,1.92-3.23,2.56-5.25,1.94a4.61,4.61,0,0,1-3.11-2.38,4.94,4.94,0,0,1,.16-4.08,4.58,4.58,0,0,1,2.47-2.47l1.09-.12c.08.16-.11.37-.57.61a4.44,4.44,0,0,0-2.34,3,4.05,4.05,0,0,0,.61,3.11,3.15,3.15,0,0,0,2.54,1.54,4.67,4.67,0,0,0,3.52-1.9L51.94,137a62.67,62.67,0,0,1,6-6.83,5.41,5.41,0,0,0,1.54-2.26,3,3,0,0,0-.77-3.15c-.08-.09,0-.27.16-.57l.4-.36a4.42,4.42,0,0,1,1.5,3.75,5.81,5.81,0,0,1-1.86,3.56"/><path class="cls-2" d="M33.6,143.66A5.71,5.71,0,0,1,33,139a6.82,6.82,0,0,1,4.69-4.73l.93,0c.21.11.09.28-.37.53q-3.84,2-4.2,5a5.22,5.22,0,0,0,1.13,4,3.21,3.21,0,0,0,2.35,1.25,5.14,5.14,0,0,0,2.42-.49q.57-.24.81,0c.16.14,0,.36-.41.65a5,5,0,0,1-3.07.69,4.55,4.55,0,0,1-3.71-2.3"/><path class="cls-2" d="M53.8,120.38c-.06-.43.12-.63.52-.6s.61.29.61.8a4.83,4.83,0,0,1-2.18,3.92l-8.12,4.08q-8.25,4.17-9.94,5.34c-2.54,1.75-3.57,3.82-3.11,6.22.4,2.18,1.37,3.25,2.9,3.19.17,0,.34.14.53.41s.19.36,0,.36a4.84,4.84,0,0,1-3.68-1.29A5.07,5.07,0,0,1,30,139.49q-.33-4.85,4.4-7l17-8.64,1.86-1.42a3,3,0,0,0,.53-2.1"/><path class="cls-1" d="M53.72,119.61a14.1,14.1,0,0,1-5.58-10.22Q48,107,52.3,98.76q4.86-9.24,5.86-14.86.45-2.5,4.2-3.56a23.07,23.07,0,0,1,5.86-.65c1.43,0,3.57.91,6.43,2.71a23.24,23.24,0,0,1,6,5A26,26,0,0,1,85,97.75q1.93,9.14-1.86,16t-8.81,8.84c-2,.79-5.17,1.15-9.53,1.1a17.17,17.17,0,0,1-11.11-4.13"/><path class="cls-5" d="M48.75,112.14q1.89,3.27,7.27,5.9a26,26,0,0,0,10.38,2.71,22.52,22.52,0,0,0,8.73-1.38A18.78,18.78,0,0,0,80.87,116q-6.59,8.48-14.71,8.12a21.14,21.14,0,0,1-11.55-3.64,14.21,14.21,0,0,1-5.86-8.36"/><path class="cls-5" d="M68.43,84.26l6.74-.45c3.67,0,5.53.34,5.58,1.1A2.75,2.75,0,0,1,80,87.29a5.07,5.07,0,0,1-3.07.85l-4.16-.53L68.1,86.36c-1-.3-1.49-.66-1.49-1.09s.6-.77,1.82-1"/><path class="cls-2" d="M58.28,121.84A20.29,20.29,0,0,0,69.35,123a16.29,16.29,0,0,0,10-5.34,19.2,19.2,0,0,0,4.49-8q2-8-2.22-19.51c-.57-1.59-.74-2.47-.53-2.63s.7.35,1.38,1.78a36.38,36.38,0,0,1,3.63,16.4Q85.8,114,81,119a18.82,18.82,0,0,1-10.63,5.45,20,20,0,0,1-12.24-1.9c-.54-.27-.78-.5-.73-.68s.35-.22.89,0"/><path class="cls-2" d="M55.82,120.54a.52.52,0,0,1,.32.53c0,.19-.24.23-.56.12a12.69,12.69,0,0,1-5.66-3.92,10.15,10.15,0,0,1-2.42-6.14,20.21,20.21,0,0,1,2.9-10.95A65.58,65.58,0,0,0,57,85.07c.27-1,.55-1.3.85-.89a1.65,1.65,0,0,1,.32,1.29A44.31,44.31,0,0,1,52.47,100q-3.48,5.77-3.2,10.91.38,6.42,6.55,9.65"/><path class="cls-2" d="M48,107.33c.65-.59.92-.48.81.32a2.25,2.25,0,0,1-.85,1.62,23.48,23.48,0,0,1-12.08,3.8,18.56,18.56,0,0,1-10.3-2.75,17.55,17.55,0,0,1-6.75-7.39,16.4,16.4,0,0,1-1.38-10.15c.06-.32.22-.28.49.13a2.89,2.89,0,0,1,.44,1.69,16,16,0,0,0,3.32,10.27,16.71,16.71,0,0,0,8,5.49,20.36,20.36,0,0,0,9.77.85A16.08,16.08,0,0,0,48,107.33"/><path class="cls-2" d="M13.8,73q6.66-4.33,13.33-.85A12.13,12.13,0,0,1,34,82.68q.45,6-2.51,9.82a11.58,11.58,0,0,1-5.21,4,9.54,9.54,0,0,1-6.54.12q-4-1.29-4-6.3a8.43,8.43,0,0,1,3.35-7.27c.51-.41.89-.6,1.13-.57s.07.43-.52,1.13q-2.91,3.48-2.47,6.91A5.52,5.52,0,0,0,20.42,95a6.09,6.09,0,0,0,4.57.24,10.1,10.1,0,0,0,4.93-3.84A11.42,11.42,0,0,0,32,81.92a11.44,11.44,0,0,0-5.5-8.21q-5.57-3.34-11.67.77-6.56,4.41-7.11,14a29.89,29.89,0,0,0,3.59,17.13A25.36,25.36,0,0,0,22,115.73a27.91,27.91,0,0,0,13.78,3,24.19,24.19,0,0,0,12.93-4c.59-.41,1-.41,1.25,0s.08.74-.49,1.09a29.2,29.2,0,0,1-15.79,4.48A28.29,28.29,0,0,1,8.71,104.83a30,30,0,0,1-3-16.61Q6.6,77.63,13.8,73"/><path class="cls-2" d="M37.35,29q10.8,1.45,16.65,5.1,1.41.84-9.09,14.74T33.72,62q-3.81-5-7.11-15.92-3.72-12.37-.89-16.53,1.34-1.94,11.63-.53"/><path class="cls-2" d="M99.46,14.64q2.79,1.13,4.28,11.84,1.53,11.07-1,16.93-.81,1.94-15.56-5t-14-8.12q4.94-6.34,15.07-11.68,9.06-4.77,11.2-3.92"/><path class="cls-6" d="M82.73,31.33a31,31,0,0,1,7.07-6.06c3.29-2.19,5.37-3.2,6.26-3q1.57.32,1.94,7.07c.24,4.55-.17,7.88-1.25,10q-.48,1-7.72-2.87t-6.3-5.09"/><path class="cls-6" d="M41.56,37.31c5.28,1.32,7.94,2.34,8,3.07S48.09,44.08,45,48.9,39.8,56,39,55.29q-1.86-1.57-4.53-9.13-2.74-7.8-1.69-9.54.81-1.29,8.81.69"/><path class="cls-2" d="M111.86,36.74q6.7-2.91,8.28-3.43c1.08-.38,1.81-.19,2.19.56s0,1.51-1.14,2.27Q108.64,44.71,105,47.41L106,50.28a14.62,14.62,0,0,1,.53,6.62l10.1.65a70.58,70.58,0,0,1,10.59,1.33,1.4,1.4,0,0,1,1.13,1.46,1.38,1.38,0,0,1-1.3,1.37l-22.5,2.18A33.35,33.35,0,0,1,95.5,76a39.55,39.55,0,0,1-16.17,8.16q-16.6,4.16-28.93,1.37-13.6-3.08-17.17-13.9-3.87-11.6,4.81-24A45.05,45.05,0,0,1,61.88,30.4a37.39,37.39,0,0,1,22.87-.49,32,32,0,0,1,16.77,11.56q2.82-1.5,10.34-4.73"/><path class="cls-1" d="M84.71,79.77a10.39,10.39,0,0,0,3.15-3.19,1.3,1.3,0,0,1,1-.85c.43,0,.57.22.4.73a13.88,13.88,0,0,1-4.08,6.22,11.26,11.26,0,0,1-4.8,2.71,20.69,20.69,0,0,1-8.29.44,25,25,0,0,1-7.84-2.5c-.45-.27-.47-.59,0-1a1.36,1.36,0,0,1,1.38-.4L71,83.05l7.64-.33a18.91,18.91,0,0,0,6.1-3"/><path class="cls-1" d="M120.23,34.4c.37-.16.64-.12.8.12s.08.47-.32.77L102.77,47c-.16.09-.22.19-.16.33A28,28,0,0,1,104,50.84a16.18,16.18,0,0,1,.45,7.4l.24.16,11.35.44,10.19,1c.45.08.7.25.72.49s-.19.42-.64.44L103.46,62.4l-.21.16A29.34,29.34,0,0,1,95,74.64a36.32,36.32,0,0,1-15.8,8.25q-16,4-28,1-12.69-3.12-16-13Q31.66,59.81,39.94,48.1A43,43,0,0,1,62.61,31.73a34.58,34.58,0,0,1,22.06-.2,29.55,29.55,0,0,1,15.68,11.8l.56.08q4.73-2.34,19.32-9"/><path class="cls-2" d="M88.47,77.51a.51.51,0,0,1,.68-.28q.41.17.21.6a14.52,14.52,0,0,1-9.06,7.76,19.55,19.55,0,0,1-11.15.08l-1-.48c-.4-.24-.46-.34-.16-.28a22.35,22.35,0,0,0,12.32-.57,15.32,15.32,0,0,0,8.13-6.83"/><path class="cls-7" d="M80.67,53.51c-.57-1.8-.47-4.19.28-7.15q1.33-5.3,4.73-6.22a7.62,7.62,0,0,1,6.58,1.57A11.74,11.74,0,0,1,97,49.27a8.42,8.42,0,0,1-1.21,6.22,6.38,6.38,0,0,1-3.92,3.27,11.81,11.81,0,0,1-5.74.12,7.53,7.53,0,0,1-5.41-5.37"/><path class="cls-1" d="M3.53,67.73c-.78.06-1.14-.21-1.09-.81a2,2,0,0,1,1.22-1.45q.91-.52,17.73-2.79l17.9-2.26q1.86-.12,1.62,2.79c-.14,2-.62,3-1.46,3.07L3.53,67.73"/><path class="cls-1" d="M43.54,73.23q1.93-.69,2.9,2c.65,1.75.62,2.84-.08,3.27q-.8.52-17.17,7l-17,6.63q-2.34.44-1.86-1,.33-.9,16.53-9.34Q42,73.83,43.54,73.23"/><path class="cls-8" d="M75.62,67.17c-1.27-.33.58-1.08,5.53-2.27s7.28-1.33,7.2-.52A26.24,26.24,0,0,1,84.18,76.5a9,9,0,0,0-3.92-7,12.68,12.68,0,0,0-4.64-2.3"/><path class="cls-9" d="M67.25,70.08l7-2.55q2.67-.77,6.06,2.18a9.75,9.75,0,0,1,3.84,6.75,3.38,3.38,0,0,1-1.57,2.91,18.92,18.92,0,0,1-4.29,2.06q-4.48,1.62-11-1.82-6.09-3.23-8.48-7.55c-.49-.92-.2-1.26.85-1,1.75.43,4.28.1,7.59-1"/><path class="cls-1" d="M42.61,8.22q1.65-.78,9,12.89,7,13,7.15,14.66.12.93-3,3.23t-3.48,1.5q-1-2.14-5.61-16.2-5.05-15.56-4-16.08"/><path class="cls-1" d="M74.41,31.89Q74,30.84,73,17,72.05,3,72.51,2c.13-.29.43-.33.89-.12a1.29,1.29,0,0,1,.84,1.09l6.27,29.62c.08.65-.76,1.05-2.51,1.21s-3-.46-3.59-1.86"/><path class="cls-2" d="M72.22,18,71.66,2.24A1.37,1.37,0,0,1,72.91.58C73.8.44,74.39.93,74.69,2l3.23,13.82,3.23,14.27c.22,1.15,0,1.77-.52,1.85s-1-.45-1.21-1.61L74.08,5.19a5.78,5.78,0,0,0-.81-2.35c-.27-.16-.35.45-.24,1.82q.61,17.58,1.09,25,.09,1.22-.81.69l-.8-.41L72.22,18"/><path class="cls-2" d="M41.47,10.24c-.37-1.75,0-2.83,1-3.24s1.94,0,2.83,1.22,3.57,6,8.21,14.54Q60.23,35,61.44,37.63a1.2,1.2,0,0,1-.29,1.58c-.51.35-.89.25-1.13-.29Q48,15.49,44.14,10.11c-.51-.67-.86-.92-1-.76s-.2.48,0,1.05q2.72,8.76,9.62,29.21c.4,1.24.32,1.9-.25,2s-1-.38-1.33-1.29L46.2,25.35q-4.48-14-4.73-15.11"/><path class="cls-2" d="M3.25,68.42q-1.74,0-2-1.29c-.16-.78.23-1.42,1.17-1.9q2.91-1.45,18-3.6Q35,59.58,37.64,59.89c.86.11,1.29.35,1.29.73s-.4.54-1.21.57q-5.51.16-18.63,2.06T4.06,66a1.76,1.76,0,0,0-1,.76c-.14.33.24.5,1.13.53l15.23-.77,18.19-.81c.91,0,1.42.26,1.53.77s-.43.77-1.53.85L3.25,68.42"/><path class="cls-2" d="M43.45,79l1.34.08c.19.32.05.59-.41.81L11.49,93a1.24,1.24,0,0,1-1.73-.61,1.64,1.64,0,0,1,.52-2.06q2.22-1.94,15.44-8.93,12.53-6.63,15.11-7.56c.64-.24,1.05-.17,1.21.21s0,.67-.61.88q-2.7,1.19-12.93,6.43-11.59,6-16.2,8.81c-.64.4-1,.77-1.05,1.09l1.58,0L27,85.55Q40,80.26,43.45,79"/><path class="cls-2" d="M96.31,48.14c-.17-.65-.07-.92.28-.81l.64.52a9.11,9.11,0,0,1-.92,7.76,8.36,8.36,0,0,1-4.61,3.72A9.11,9.11,0,0,1,85.19,59a8.87,8.87,0,0,1-5-5c0-.11,0-.26.21-.45s.28-.23.36,0a9.07,9.07,0,0,0,4.89,4.81,8.66,8.66,0,0,0,5.78.12A6.88,6.88,0,0,0,95.66,55a9.44,9.44,0,0,0,.65-6.82"/><path class="cls-2" d="M87.7,64.46c.08-.48.3-.75.65-.81s.53.19.48.65A31.66,31.66,0,0,1,85,76.7q-2.58,4.2-5.94,5.22-5.25,1.58-11.63-1.7a25.24,25.24,0,0,1-9.86-8.73c-.17-.24,0-.34.4-.28a1.15,1.15,0,0,1,.93.52A22.18,22.18,0,0,0,67.29,79Q74,82.65,78.85,80.86q4.53-1.65,6.83-7.71a55.44,55.44,0,0,0,2-8.69"/><path class="cls-2" d="M91.42,40.5a12.39,12.39,0,0,1,5.77,7.31.63.63,0,0,1-.24.77c-.27.22-.46.11-.56-.32A10.53,10.53,0,0,0,91.66,42q-3.39-2.13-6-1.25c-1.89.65-3.27,2.29-4.16,4.93a16.84,16.84,0,0,0-.65,8.12c0,.27,0,.43-.24.49s-.31,0-.37-.24a17.12,17.12,0,0,1,.49-9q1.53-4.7,4.44-5.7,2.67-.88,6.27,1.17"/><path class="cls-2" d="M64.63,61.35q-3.79-5.13-9-6-5.77-1-10,4.16c-.25.27-.43.31-.57.12s-.15-.44,0-.77c2.35-4,5.6-5.71,9.78-5.25s7.56,2.84,10.22,7.23c.24.43.29.7.12.81s-.4,0-.64-.28"/><path class="cls-2" d="M81.44,65.67c.18-.86,1.29-1.4,3.31-1.61s3.08,0,3.27.72a4.37,4.37,0,0,1-.73,2.91c-.64,1.3-1.18,2-1.61,2s-1.2-.51-2.47-1.69-1.85-2-1.77-2.31"/><path class="cls-7" d="M82.69,65.71c.13-.56.87-.93,2.22-1.09s2,0,2.18.49a3.13,3.13,0,0,1-.48,1.94c-.43.86-.78,1.3-1,1.33s-.82-.35-1.66-1.13-1.27-1.32-1.21-1.54"/><path class="cls-2" d="M58.65,72.1c0-.78,1.11-1.26,3.27-1.42s3.23-.06,3.31.37c.14.64-.2,1.63-1,3s-1.37,1.83-1.77,1.94-1-.48-2.15-1.58-1.65-1.89-1.65-2.26"/><path class="cls-7" d="M59.74,72.14c0-.57.7-.93,2.1-1.09S64,71,64,71.49a3.25,3.25,0,0,1-.77,1.94c-.54.78-.94,1.2-1.21,1.25s-.66-.28-1.33-1-1-1.26-1-1.53"/><path class="cls-2" d="M68.1,69.15l9.05-3.56a63.33,63.33,0,0,1,11.11-2.42,2.68,2.68,0,0,0,2.35-1.82q.17-.57.48-.36c.22.1.29.36.2.76a3.49,3.49,0,0,1-1.29,2,2.73,2.73,0,0,1-1.61.69l-5,.89-6,1.49a70.83,70.83,0,0,1-7.28,3.12Q63,72.5,58.69,71.73A4.59,4.59,0,0,1,57.07,71L55.9,69.87c-.22-.32-.24-.55-.08-.68s.38-.12.73.12a6.26,6.26,0,0,0,2.26,1.09,19.53,19.53,0,0,0,9.29-1.25"/><path class="cls-2" d="M88.71,50.48a29.08,29.08,0,0,1,1.13,4.61c.19,1.32.13,2-.16,2.14s-.76-.43-1.38-1.62a28.8,28.8,0,0,1-1.77-4.4A26,26,0,0,1,85.4,46.6c-.19-1.32-.14-2,.16-2.1s.75.43,1.37,1.62a26.93,26.93,0,0,1,1.78,4.36"/><path class="cls-7" d="M86.89,47.13c.35,1,.4,1.59.16,1.69s-.54-.43-.89-1.45-.36-1.55-.12-1.66.5.39.85,1.42"/><path class="cls-2" d="M80.1,69.67a9,9,0,0,0-6.34-2.26c-.22,0-.19,0,.08-.16l.85-.33,2.3.33a9.57,9.57,0,0,1,3.48,1.61A11.44,11.44,0,0,1,83.66,73a5.86,5.86,0,0,1,.73,3.75l-.41.89c-.16.14-.23,0-.2-.32A7.47,7.47,0,0,0,83,73.55a10,10,0,0,0-2.91-3.88"/><path class="cls-1" d="M65.92,60.1a9.7,9.7,0,0,0-1.86-3.36,5.82,5.82,0,0,0-2.34-1.9l-.2-.2c0-.11.18-.15.4-.12a4.61,4.61,0,0,1,2.91,2.1A9.62,9.62,0,0,1,66.28,60l-.08.4c-.1,0-.2,0-.28-.28"/><path class="cls-2" d="M76.67,35.81a7.88,7.88,0,0,1-.57,6.43A8.57,8.57,0,0,1,60.34,40.9L56,27.37a8.17,8.17,0,0,1,.53-6.51,8.5,8.5,0,0,1,15.71,1.26l4.45,13.69"/><path class="cls-10" d="M75.33,35.49a7.8,7.8,0,0,1-.24,5.86A7,7,0,0,1,65,44.54a8.43,8.43,0,0,1-3.64-4.81l-4-12.2a7.72,7.72,0,0,1,.25-5.82A6.7,6.7,0,0,1,61.88,18a7,7,0,0,1,5.74.57,7.62,7.62,0,0,1,3.67,4.61l4,12.36"/><path class="cls-2" d="M70.36,20.42c.35-.11.64.08.85.56s.19.79-.08.89L56.87,26.72c-.49.16-.77,0-.85-.6a.92.92,0,0,1,.57-1.1l13.77-4.6"/><path class="cls-2" d="M72.1,25.59c.35-.11.61.11.77.65s.11.87-.16,1L58.32,32.14c-.48.16-.78,0-.89-.53A.85.85,0,0,1,58,30.56L65.23,28l6.87-2.38"/><path class="cls-2" d="M74,31.17q.53-.17.81.48c.19.41.15.67-.12.81L67.78,35l-7.36,2.63c-.48.19-.83,0-1.05-.52s0-.87.41-1Q64.22,34.4,74,31.17"/><path class="cls-2" d="M75.82,36.54c.35-.11.61.05.77.48s.1.72-.16.85L62.16,42.68a.61.61,0,0,1-.93-.44.68.68,0,0,1,.49-.93L69,38.8l6.87-2.26"/><path class="cls-1" d="M105.44,79.94a2.53,2.53,0,0,1,.64,1.81,3.71,3.71,0,0,1-.36,2.1,8.28,8.28,0,0,1,2.71,1.42,5.37,5.37,0,0,1,1.49,3.35,3.65,3.65,0,0,1-1,3,5.2,5.2,0,0,1-2.1,1.54,6.49,6.49,0,0,0-.16,1.94A3.84,3.84,0,0,1,105.56,98a5.07,5.07,0,0,1-3.64,1.33,6.37,6.37,0,0,1-4.24-2.67l-1.5.12-2.42,1.06Q89.47,99.54,80,99.09A44.89,44.89,0,0,1,69.48,97c-3.94-1.22-6.52-2.29-7.76-3.24s-.38-2.24,2.18-4.16,4.55-2.7,6.06-2.38l4.69.56a39.1,39.1,0,0,0,5.49.09l9.42-1.26c3.55-.83,6.06-2.11,7.51-3.84a12,12,0,0,1,4.08-3.39,3.79,3.79,0,0,1,4.29.57"/><path class="cls-2" d="M106,93.47a.67.67,0,0,1,.24-.77c.27-.21.49-.14.65.21a4.94,4.94,0,0,1-.2,4.8,4.63,4.63,0,0,1-3.27,2.23c-2.56.35-4.56-.81-6-3.48-.19-.32-.21-.54,0-.65s.35,0,.64.29q2.79,2.94,5.26,2.18a4.29,4.29,0,0,0,2.54-1.86,3.16,3.16,0,0,0,.16-3"/><path class="cls-2" d="M104.67,80.38a3.12,3.12,0,0,0-3.68,0,9.63,9.63,0,0,0-2.75,2.55q-3.55,4.6-12.8,5.69a45.07,45.07,0,0,1-17.1-1.37q-.53-.17-.36-.57c.11-.24.42-.31.93-.2a42.22,42.22,0,0,0,17.46.32q8.56-1.58,11-5.17a7,7,0,0,1,4.36-3.15,4.1,4.1,0,0,1,4.08,1.17,3.72,3.72,0,0,1,1,2.18A2.46,2.46,0,0,1,106.2,84a1.07,1.07,0,0,1-1,.32c-.43-.08-.55-.23-.36-.44a2.57,2.57,0,0,0,.69-2.11,2.14,2.14,0,0,0-.81-1.41"/><path class="cls-2" d="M62,94.16l-.65-.85c-.08-.3.19-.27.81.08q7.27,3.89,18.87,4.53t16.2-2.43c.22-.13.45,0,.69.32a.53.53,0,0,1-.28.85q-8,4.08-20,2.87Q66.45,98.36,62,94.16"/><path class="cls-2" d="M108.35,84.42a4.47,4.47,0,0,1,2.18,2.83,5.57,5.57,0,0,1-.41,4,4.45,4.45,0,0,1-4.36,2.46c-.46,0-.75-.1-.89-.4s.07-.42.53-.45a3.43,3.43,0,0,0,2.34-1,4.17,4.17,0,0,0,1.09-4.08,3.25,3.25,0,0,0-1.25-2.06,4.8,4.8,0,0,0-3.07-.72q-.74,0-.69-.33t.57-.48a4.29,4.29,0,0,1,4,.32"/><path class="cls-4" d="M91.59,130.51l5.17.93a20.71,20.71,0,0,1,5.9,1.49c1.94,1,3,2.22,3.27,3.68l0,1a2,2,0,0,0,0,1.05,4.84,4.84,0,0,1-.81,4,3.64,3.64,0,0,1-3.47,2.06L100,145.86l-2.75.24a32,32,0,0,1-6.95-2.82c-3.15-1.73-5.4-2.91-6.75-3.56-.59-.27-.76-1.29-.52-3.07a7.15,7.15,0,0,1,2.14-4.36,8.1,8.1,0,0,1,3.15-1.62l3.28-.16"/><path class="cls-1" d="M84.31,133.5a9.35,9.35,0,0,0-1,6.34c-1.29-.91-4.54-2.32-9.74-4.2l-7.43-2.79q-2.39-3.75,2.22-7a9.85,9.85,0,0,1,3.32-1.58c1.1-.26,1.65-.16,1.65.33l-.16,1.09c0,.24.11.43.4.56a56,56,0,0,0,9.18,2.27q6.54,1.24,7.55,1.94c-.56-.17-1.59.13-3.07.89a6.84,6.84,0,0,0-3,2.18"/><path class="cls-4" d="M91.75,130.75l-3.4.48a6.42,6.42,0,0,0-3.47,2.07,6.53,6.53,0,0,0-1.13,6c0,.29-.07.4-.37.32a.87.87,0,0,1-.64-.69,5.85,5.85,0,0,1-.12-2.58,6.65,6.65,0,0,1,1.17-3.2,7,7,0,0,1,3.59-2.42,8.38,8.38,0,0,1,4.25-.36l.84.2-.72.16"/><path class="cls-2" d="M68.23,126.14c.35.08.36.19,0,.33A3.92,3.92,0,0,0,66,129.7c-.27,1.64.2,2.63,1.41,3a93.61,93.61,0,0,1,13,5.17q4.69,2.15,13.22,6.47,4.16,2.1,7.07.16c2-1.35,1.82-3.41-.69-6.18-.43-.49-.55-.77-.36-.85s.62.2,1.21.76a6.22,6.22,0,0,1,2.26,4.17,3.82,3.82,0,0,1-1.45,3.23,6.13,6.13,0,0,1-3.92,1.33,9.09,9.09,0,0,1-5-1.37q-17.65-9-25.74-11.36-2.5-.72-2.3-4.12t2.54-3.88l.93,0"/><path class="cls-2" d="M93.12,129.9q7.16.73,10.55,2.71,3.84,2.26,2.62,6c-.19.54-.39.73-.6.56a.59.59,0,0,1-.25-.64q1-3.52-4-5.38a50.73,50.73,0,0,0-8.4-1.77l-10.1-2.06a81.59,81.59,0,0,1-9.29-2.51c-.14-.05-.22-.28-.25-.69s0-.63,0-.6q1.62.84,9.62,2.54l10.06,1.86"/><path class="cls-2" d="M102.21,134.71c2.35.81,3.76,2.15,4.24,4a5.21,5.21,0,0,1-.48,3.92,4.46,4.46,0,0,1-2.38,2.1l-1.86.32a.47.47,0,0,1-.57-.2c-.11-.19,0-.33.41-.44a5.18,5.18,0,0,0,3.47-2.39,4.19,4.19,0,0,0,.16-3.51,6,6,0,0,0-2.79-3.07,1.58,1.58,0,0,1-.64-.61c-.14-.24,0-.3.44-.16"/><path class="cls-5" d="M73,123.31a5,5,0,0,0,.56,3.16.77.77,0,0,1-.08,1,2.45,2.45,0,0,1-1.25.83l-3.11.16c-1.24-.14-1.8-.4-1.7-.78l.29-1.09c.13-.59-.27-1-.4-1.35-1.08-1.67.51-1.72,2.94-1.56,1.86-.62,2.78-.74,2.75-.36"/><path class="cls-2" d="M67.46,124.61a3.77,3.77,0,0,1,.41,1.41,3.82,3.82,0,0,1-.25,2l-.68.69c-.24.05-.31-.15-.2-.61a3.6,3.6,0,0,0-.25-2.87q-.28-.43.21-.84c.29-.25.55-.17.76.24"/><path class="cls-2" d="M74.78,122.35a5.65,5.65,0,0,0-.81,2,2.92,2.92,0,0,0,.28,2.26c.32.48.35.75.08.81s-.55-.1-.85-.45a3.44,3.44,0,0,1-.64-1.69,3.17,3.17,0,0,1,.48-2.27,3.5,3.5,0,0,1,1.42-1.37c.45-.24.47,0,0,.69"/></svg>