<?xml version="1.0" encoding="utf-8"?>
<!-- Generator: Adobe Illustrator 25.2.0, SVG Export Plug-In . SVG Version: 6.00 Build 0)  -->
<svg version="1.1" id="Layer_1" xmlns:v="https://vecta.io/nano"
	 xmlns="http://www.w3.org/2000/svg" xmlns:xlink="http://www.w3.org/1999/xlink" x="0px" y="0px" viewBox="0 0 70.7 70.7"
	 style="enable-background:new 0 0 70.7 70.7;" xml:space="preserve">
<style type="text/css">
	.st0{fill:#95B4DF;}
	.st1{fill:#6D7EBD;}
	.st2{fill-rule:evenodd;clip-rule:evenodd;fill:#0D131A;}
	.st3{fill:#0D131A;}
	.st4{fill:#F29739;}
	.st5{fill:#FFF3C2;}
	.st6{fill:#FFFFFF;}
	.st7{fill:#922F00;}
	.st8{fill:#ED8599;}
	.st9{fill:#F9BE00;}
</style>
<path class="st0" d="M64.4,26.3c0.6,0.6,0.7,1.7,0.2,2.4c-9.5,13.6-21.3,25.5-34.8,35.1l-1.1,0.8c-0.8,0.6-1.9,0.5-2.5-0.2l-4.8-4.8
	c2.9-3,2.8-7.7-0.2-10.6c-2.9-2.8-7.5-2.8-10.5,0l-4.4-4.4c-0.8-0.8-0.7-2.2,0.2-2.9l1.1-0.8c13.2-9.4,24.7-21,34-34.3
	c0.6-0.8,1.7-1,2.5-0.4c0.1,0.1,0.2,0.1,0.2,0.2l4.5,4.5c-2.9,3-2.8,7.7,0.2,10.6c2.9,2.8,7.5,2.8,10.4,0L64.4,26.3L64.4,26.3z"/>
<path class="st1" d="M66.5,27.6L49.3,49.4L27.1,66.2l-4.3-4.3l-1.5-1.9l1.5-2.2l0.5-2.2l-0.3-2.4L22.2,51l-1.5-1.8L18.9,48L17,47.4
	h-2.4l-2.5,0.9l-1.5,1.3L7,45.3l5.8-0.9c18-2.7,35.1-10,49.5-21.1L66.5,27.6L66.5,27.6z"/>
<g>
	<path class="st2" d="M19.2,59.8c0-0.6,0.3-1.2,0.7-1.7l0,0c2-2,1.9-5.3-0.2-7.3c-2-1.9-5.1-1.9-7.1,0l0,0c-0.9,0.9-2.4,0.9-3.4,0
		c0,0,0,0,0,0l-4.6-4.6c-1.7-1.7-1.7-4.4,0-6.1C4.8,40,5,39.8,5.2,39.7l1.1-0.8l1.4,1.9l-1.1,0.8c-1,0.7-1.1,2.1-0.2,2.9l4.6,4.6
		l0,0c2.9-2.9,7.7-2.9,10.6,0c2.9,2.9,2.9,7.7,0,10.6l0,0l4.6,4.6c0.7,0.7,1.8,0.8,2.5,0.2l1.1-0.8c13.5-9.6,25.3-21.5,34.8-35.1
		c0.5-0.7,0.4-1.8-0.2-2.4l-4.8-4.8l-0.1,0.1c-3,2.9-7.7,2.9-10.6-0.1c-2.9-2.9-2.9-7.6,0-10.5l0.1-0.1l-4.5-4.5
		c-0.7-0.7-1.9-0.7-2.6,0c-0.1,0.1-0.1,0.2-0.2,0.2c-9.3,13.3-20.8,24.9-34,34.3l-1.4-1.9c13-9.3,24.3-20.7,33.4-33.7
		c1.3-1.9,4-2.4,5.9-1c0.2,0.1,0.4,0.3,0.6,0.5l4.5,4.5c0.9,0.9,0.9,2.4,0,3.4c0,0,0,0,0,0l0,0c-2,2-1.9,5.3,0.2,7.3
		c2,1.9,5.1,1.9,7.1,0l0,0c0.9-0.9,2.4-1,3.4,0c0,0,0,0,0,0l4.8,4.8c1.5,1.5,1.7,3.8,0.5,5.4C56.9,43.9,44.9,56,31.2,65.8l-1.1,0.8
		c-1.7,1.2-4.1,1-5.6-0.5l-4.6-4.6C19.4,61,19.2,60.4,19.2,59.8L19.2,59.8z"/>
	<g>
		<path id="A" class="st2" d="M35.4,14.6l1.1,1.1c0.5,0.5,0.5,1.2,0,1.7c-0.5,0.5-1.2,0.5-1.7,0l-1.1-1.1c-0.5-0.5-0.5-1.2,0-1.7
			S34.9,14.2,35.4,14.6z"/>
	</g>
	<g>
		<path id="A_1_" class="st2" d="M39.8,19l1.1,1.1c0.5,0.5,0.5,1.2,0,1.7c-0.5,0.5-1.2,0.5-1.7,0l-1.1-1.1c-0.5-0.5-0.5-1.2,0-1.7
			C38.6,18.6,39.3,18.6,39.8,19z"/>
	</g>
	<g>
		<path id="B" class="st2" d="M45.3,26.2c-0.5,0.5-1.2,0.5-1.7,0c0,0,0,0,0,0l-1.3-1.3c-0.5-0.5-0.5-1.2,0-1.7
			c0.5-0.5,1.2-0.5,1.7,0l1.3,1.3C45.7,25,45.7,25.7,45.3,26.2C45.3,26.2,45.3,26.2,45.3,26.2z"/>
	</g>
	<g>
		<path id="B_1_" class="st2" d="M49.7,30.6c-0.5,0.5-1.2,0.5-1.7,0c0,0,0,0,0,0l-1.3-1.3c-0.5-0.5-0.5-1.2,0-1.7
			c0.5-0.5,1.2-0.5,1.7,0l1.3,1.3C50.1,29.4,50.1,30.2,49.7,30.6C49.7,30.6,49.7,30.6,49.7,30.6z"/>
	</g>
	<path class="st2" d="M52.8,32.1l1.1,1.1c0.5,0.5,0.5,1.2,0,1.7s-1.2,0.5-1.7,0l-1.1-1.1c-0.5-0.5-0.5-1.2,0-1.7
		C51.6,31.6,52.4,31.6,52.8,32.1L52.8,32.1z"/>
	<g>
		<path id="A_2_" class="st2" d="M57.3,36.5l1.1,1.1c0.5,0.5,0.5,1.2,0,1.7s-1.2,0.5-1.7,0l-1.1-1.1c-0.5-0.5-0.5-1.2,0-1.7
			S56.8,36.1,57.3,36.5z"/>
	</g>
</g>
<g transform="matrix(0.83622, 0, 0, 0.83622, 25.770825, 29.616614)">
	<path class="st3" d="M2.4,5.3c2,0.1,3.6,0.4,4.7,1c0.3,0.1-0.4,1.6-2.2,4.3c-1.7,2.7-2.7,4-2.8,3.9c-0.8-0.9-1.6-2.3-2.3-4.2
		c-0.9-2.2-1.1-3.7-0.6-4.5C-0.6,5.4,0.5,5.2,2.4,5.3"/>
	<path class="st3" d="M19.2-0.1c0.5,0.2,1,1.2,1.5,3.2c0.5,2,0.5,3.6,0.1,4.7c-0.1,0.4-1.6,0-4.4-1c-2.8-1.1-4.2-1.7-4.1-1.9
		c0.8-1.2,2.1-2.4,3.9-3.6C17.8,0.2,18.8-0.3,19.2-0.1"/>
	<path class="st4" d="M15,4.9c0.3-0.5,0.9-1.1,1.8-1.8c0.9-0.7,1.4-1,1.7-1c0.3,0,0.5,0.7,0.7,1.9c0.2,1.3,0.1,2.2-0.1,2.8
		c-0.1,0.2-0.8,0-2.2-0.6C15.4,5.5,14.8,5.1,15,4.9"/>
	<path class="st4" d="M3.7,7.5C5.2,7.7,6,8,6,8.2c0,0.2-0.3,1.1-1.1,2.5c-0.8,1.4-1.3,2.1-1.5,1.9c-0.4-0.3-0.9-1.1-1.5-2.4
		C1.4,8.7,1.1,7.9,1.3,7.5C1.4,7.3,2.2,7.3,3.7,7.5"/>
	<path class="st3" d="M23.1,5.7c1.2-0.6,1.9-1,2.2-1.1c0.3-0.1,0.5-0.1,0.6,0.1c0.1,0.2,0,0.4-0.3,0.7c-2.2,1.8-3.6,2.9-4.2,3.5
		l0.4,0.8c0.2,0.6,0.3,1.2,0.3,1.8l2.8-0.1c1.5,0,2.4,0,3,0.1c0.2,0,0.3,0.2,0.3,0.4c0,0.2-0.1,0.3-0.3,0.4l-6.2,1.1
		c-0.4,1.3-1.2,2.5-2.2,3.6c-1.2,1.2-2.6,2.1-4.3,2.6c-3,1-5.6,1.4-8,1.1c-2.6-0.3-4.2-1.5-5.1-3.4c-0.9-2.1-0.6-4.3,0.8-6.7
		C4.4,8,6.5,6.3,9.2,5.1c2.1-0.9,4.2-1.1,6.3-0.7c2,0.4,3.6,1.3,4.9,2.8C20.9,6.9,21.8,6.4,23.1,5.7"/>
	<path class="st5" d="M16.7,18.2c0.4-0.4,0.7-0.7,0.8-1c0.1-0.2,0.2-0.2,0.3-0.3s0.2,0,0.1,0.2c-0.2,0.7-0.5,1.3-1,1.8
		c-0.4,0.4-0.8,0.7-1.3,0.9c-0.7,0.3-1.5,0.4-2.3,0.3c-0.8,0-1.5-0.2-2.2-0.5c-0.1-0.1-0.1-0.2,0-0.3c0.1-0.1,0.2-0.2,0.4-0.1
		l1.5,0.2l2.1-0.3C15.6,18.9,16.2,18.6,16.7,18.2"/>
	<path class="st5" d="M25.4,4.8c0.1-0.1,0.2,0,0.2,0c0.1,0.1,0,0.1-0.1,0.2l-4.7,3.7c0,0-0.1,0.1,0,0.1c0.2,0.4,0.4,0.7,0.5,0.9
		c0.2,0.6,0.3,1.2,0.3,2l0.1,0l3.1-0.1l2.8,0c0.1,0,0.2,0.1,0.2,0.1c0,0.1,0,0.1-0.2,0.1l-6.3,1l-0.1,0c-0.3,1.3-1,2.5-2,3.5
		c-1.1,1.2-2.5,2.1-4.2,2.7c-2.9,1-5.4,1.3-7.7,0.9c-2.4-0.4-4-1.4-4.7-3.2c-0.8-2-0.6-4.1,0.7-6.4c1.3-2.3,3.3-4,5.9-5.1
		c2.1-0.9,4.1-1.1,6.1-0.6c1.9,0.5,3.4,1.4,4.6,2.9l0.2,0C21.1,7.3,22.8,6.3,25.4,4.8"/>
	<path class="st3" d="M17.6,17.5c0-0.1,0.1-0.1,0.2-0.1c0.1,0,0.1,0.1,0.1,0.2c-0.4,1.1-1.2,1.9-2.3,2.4c-0.9,0.4-2,0.5-3.1,0.3
		l-0.3-0.1C12.1,20,12.1,20,12.2,20c1.3,0.1,2.4,0,3.4-0.5C16.5,19.1,17.2,18.4,17.6,17.5"/>
	<path class="st6" d="M14.9,11c-0.2-0.5-0.2-1.1-0.1-2c0.2-1,0.5-1.6,1.2-1.8c0.6-0.2,1.2-0.1,1.9,0.3c0.7,0.4,1.2,1.1,1.5,2
		c0.2,0.6,0.1,1.2-0.2,1.7c-0.3,0.5-0.6,0.9-1,1c-0.6,0.2-1.1,0.2-1.6,0.2C15.8,12.3,15.2,11.8,14.9,11"/>
	<path class="st5" d="M-6,16.8c-0.2,0-0.3,0-0.3-0.2c0-0.2,0.1-0.3,0.3-0.4c0.2-0.1,1.8-0.5,4.8-1.2l4.9-1.1
		c0.3-0.1,0.5,0.2,0.5,0.7c0,0.5-0.1,0.8-0.3,0.9L-6,16.8"/>
	<path class="st5" d="M5.1,17.4c0.3-0.2,0.6,0,0.9,0.5c0.2,0.5,0.2,0.8,0.1,0.9c-0.1,0.1-1.7,0.9-4.6,2.4l-4.5,2.2
		c-0.4,0.1-0.6,0-0.5-0.2c0-0.2,1.5-1.2,4.3-3C3.4,18.4,4.9,17.5,5.1,17.4"/>
	<path class="st7" d="M13.9,14.9c-0.4-0.1,0.1-0.3,1.5-0.8c1.3-0.4,2-0.5,2-0.3c0,1.4-0.3,2.5-0.9,3.4c-0.1-0.8-0.5-1.4-1.2-1.8
		C14.8,15.2,14.3,15,13.9,14.9"/>
	<path class="st8" d="M11.6,15.9l1.9-0.9c0.5-0.2,1.1,0,1.7,0.5c0.7,0.5,1.1,1.1,1.2,1.8c0,0.3-0.1,0.6-0.4,0.8
		c-0.2,0.2-0.6,0.4-1.1,0.7c-0.8,0.4-1.8,0.3-3.1-0.2c-1.2-0.5-2-1.1-2.5-1.9c-0.2-0.2-0.1-0.3,0.2-0.3C10,16.5,10.7,16.3,11.6,15.9
		"/>
	<path class="st5" d="M3.3-0.5c0.3-0.2,1.2,0.9,2.8,3.3c1.5,2.3,2.3,3.6,2.3,3.9c0,0.2-0.2,0.5-0.7,1C7.2,8.1,6.9,8.3,6.8,8.1
		C6.5,7.8,5.9,6.3,4.8,3.8C3.7,1,3.2-0.4,3.3-0.5"/>
	<path class="st5" d="M12.7,5.2c-0.1-0.2-0.3-1.5-0.7-4.1c-0.4-2.6-0.6-3.9-0.5-4.1c0-0.1,0.1-0.1,0.2-0.1c0.1,0,0.2,0.1,0.3,0.3
		l2.4,8c0,0.2-0.2,0.3-0.7,0.4C13.2,5.7,12.9,5.6,12.7,5.2"/>
	<path class="st3" d="M11.7,1.4l-0.5-4.3c0-0.3,0.1-0.4,0.3-0.5C11.8-3.4,11.9-3.3,12-3l1.2,3.7l1.2,3.9c0.1,0.3,0.1,0.5-0.1,0.5
		c-0.2,0-0.3-0.1-0.4-0.4l-2.1-6.8c-0.1-0.4-0.2-0.6-0.3-0.6c-0.1,0-0.1,0.1,0,0.5C12,1,12.3,3.3,12.5,4.6c0,0.2,0,0.3-0.2,0.2
		l-0.2-0.1L11.7,1.4"/>
	<path class="st3" d="M3.1,0C2.9-0.4,3-0.7,3.3-0.9c0.3-0.1,0.5,0,0.8,0.3C4.3-0.3,5.2,1,6.7,3.2C8.1,5.4,9,6.7,9.2,7.1
		c0.1,0.2,0.1,0.3,0,0.4C9.1,7.7,9,7.7,8.9,7.5C6.3,3.4,4.6,0.9,3.8-0.1C3.6-0.2,3.5-0.3,3.5-0.2c0,0,0,0.1,0,0.3
		c0.6,1.6,1.8,4.2,3.4,7.8C7,8.2,7,8.4,6.8,8.4c-0.2,0-0.3-0.1-0.4-0.3l-1.7-4C3.7,1.6,3.1,0.2,3.1,0"/>
	<path class="st3" d="M-6.1,17c-0.3,0-0.5-0.1-0.6-0.3c-0.1-0.2,0-0.4,0.3-0.6c0.5-0.3,2.1-0.8,4.9-1.4c2.7-0.6,4.2-0.9,4.7-0.9
		c0.2,0,0.4,0.1,0.4,0.2c0,0.1-0.1,0.2-0.3,0.2c-1,0.1-2.7,0.5-5.1,1c-2.4,0.5-3.7,0.9-4.1,1.1c-0.2,0.1-0.2,0.2-0.3,0.2
		c0,0.1,0.1,0.1,0.3,0.1l4.2-0.6l5-0.7c0.3,0,0.4,0,0.4,0.2c0,0.1-0.1,0.2-0.4,0.3L-6.1,17"/>
	<path class="st3" d="M5.3,19l0.4,0c0.1,0.1,0,0.2-0.1,0.2l-8.8,4.4c-0.2,0.1-0.4,0.1-0.5-0.1c-0.1-0.2-0.1-0.4,0.1-0.6
		c0.4-0.4,1.7-1.3,4-2.8c2.2-1.4,3.5-2.2,4-2.4c0.2-0.1,0.3-0.1,0.3,0c0.1,0.1,0,0.2-0.1,0.3c-0.5,0.3-1.6,1-3.4,2.1
		c-2,1.3-3.5,2.2-4.3,2.8c-0.2,0.1-0.3,0.2-0.3,0.3l0.4,0l3.8-1.9C3.2,20,4.6,19.3,5.3,19"/>
	<path class="st3" d="M19.1,9.2C19,9,19.1,8.9,19.2,9l0.2,0.1c0.3,0.8,0.3,1.5-0.1,2.2c-0.3,0.5-0.7,0.9-1.2,1.1
		c-0.6,0.2-1.2,0.3-1.8,0.1c-0.7-0.2-1.2-0.6-1.5-1.3c0,0,0-0.1,0-0.1c0-0.1,0.1-0.1,0.1,0c0.4,0.6,0.9,1,1.5,1.2
		c0.5,0.1,1.1,0.1,1.6-0.1c0.5-0.2,0.9-0.5,1.1-1.1C19.3,10.5,19.3,9.9,19.1,9.2"/>
	<path class="st3" d="M17.1,13.9c0-0.1,0.1-0.2,0.2-0.2c0.1,0,0.2,0,0.1,0.2c0,1.4-0.3,2.6-0.8,3.5c-0.4,0.8-0.9,1.3-1.5,1.6
		c-0.9,0.4-2,0.3-3.3-0.2c-1.2-0.5-2.2-1.2-2.9-2.2c-0.1-0.1,0-0.1,0.1-0.1c0.1,0,0.2,0,0.3,0.1c0.5,0.7,1.4,1.3,2.5,1.8
		c1.3,0.6,2.4,0.7,3.2,0.2c0.8-0.4,1.4-1.1,1.7-2.3C16.9,15.9,17,15.1,17.1,13.9"/>
	<path class="st3" d="M17.6,7.2c0.8,0.4,1.4,1,1.8,1.9c0,0.1,0,0.2,0,0.2c-0.1,0.1-0.1,0-0.2-0.1c-0.3-0.7-0.7-1.3-1.5-1.6
		C17,7.3,16.5,7.2,16,7.4c-0.5,0.2-0.8,0.7-1,1.5c-0.2,0.7-0.2,1.5,0,2.3c0,0.1,0,0.1-0.1,0.1c-0.1,0-0.1,0-0.1-0.1
		c-0.2-0.8-0.3-1.6-0.1-2.5c0.2-0.9,0.6-1.4,1.1-1.7C16.3,6.8,16.9,6.9,17.6,7.2"/>
	<path class="st3" d="M10.7,13.6c-0.8-0.9-1.7-1.4-2.6-1.4c-1.1-0.1-2,0.4-2.7,1.4c-0.1,0.1-0.1,0.1-0.2,0c0,0-0.1-0.1,0-0.2
		c0.6-1.1,1.4-1.7,2.6-1.7c1.2,0,2.2,0.6,3,1.8c0.1,0.1,0.1,0.2,0.1,0.2C10.8,13.7,10.8,13.7,10.7,13.6"/>
	<path class="st3" d="M15.4,14.4c0-0.2,0.3-0.4,0.9-0.5c0.5-0.1,0.9-0.1,0.9,0.1c0.1,0.2,0,0.4-0.1,0.8c-0.1,0.4-0.3,0.6-0.4,0.6
		c-0.1,0-0.3-0.1-0.7-0.4C15.6,14.7,15.4,14.5,15.4,14.4"/>
	<path class="st6" d="M15.8,14.4c0-0.2,0.2-0.3,0.6-0.4c0.4-0.1,0.6,0,0.6,0.1c0,0.1,0,0.3-0.1,0.5c-0.1,0.2-0.2,0.4-0.3,0.4
		c-0.1,0-0.2-0.1-0.5-0.3C15.9,14.6,15.8,14.4,15.8,14.4"/>
	<path class="st3" d="M9.3,16.7c0-0.2,0.3-0.4,0.9-0.5c0.6-0.1,0.9-0.1,0.9,0c0.1,0.2,0,0.5-0.2,0.8c-0.2,0.3-0.3,0.5-0.4,0.6
		c-0.1,0-0.3-0.1-0.6-0.4C9.5,17,9.3,16.8,9.3,16.7"/>
	<path class="st6" d="M9.6,16.7c0-0.2,0.2-0.3,0.6-0.4c0.4-0.1,0.6-0.1,0.6,0.1c0,0.1,0,0.3-0.2,0.6c-0.1,0.2-0.2,0.4-0.3,0.4
		c-0.1,0-0.2-0.1-0.4-0.2C9.7,16.9,9.6,16.8,9.6,16.7"/>
	<path class="st3" d="M11.8,15.7l2.4-1.2c0.9-0.4,1.9-0.7,3-0.9c0.3-0.1,0.5-0.3,0.6-0.6c0-0.1,0.1-0.1,0.1-0.1
		c0.1,0,0.1,0.1,0.1,0.2c0,0.2-0.1,0.4-0.3,0.6c-0.2,0.1-0.3,0.2-0.4,0.2L16,14.2l-1.6,0.6c-0.6,0.4-1.3,0.7-1.9,1
		c-1.3,0.6-2.3,0.8-3.1,0.8c-0.1,0-0.3-0.1-0.5-0.2l-0.4-0.3c-0.1-0.1-0.1-0.1,0-0.2c0,0,0.1,0,0.2,0c0.3,0.2,0.5,0.2,0.7,0.2
		C10,16.3,10.9,16.1,11.8,15.7"/>
	<path class="st3" d="M17.1,10c0.2,0.5,0.3,0.9,0.4,1.2c0.1,0.4,0.1,0.6,0,0.6c-0.1,0-0.2-0.1-0.4-0.4c-0.2-0.3-0.4-0.7-0.6-1.2
		c-0.2-0.5-0.3-0.9-0.4-1.2c-0.1-0.4-0.1-0.6,0-0.6c0.1,0,0.2,0.1,0.4,0.4C16.7,9.2,16.9,9.5,17.1,10"/>
	<path class="st6" d="M16.5,9.1c0.1,0.3,0.1,0.4,0.1,0.5c-0.1,0-0.2-0.1-0.3-0.4c-0.1-0.3-0.1-0.4-0.1-0.5
		C16.3,8.7,16.4,8.9,16.5,9.1"/>
	<path class="st3" d="M15.2,15.5C14.6,15.1,14,15,13.3,15c-0.1,0-0.1,0,0,0l0.2-0.1l0.6,0c0.4,0.1,0.7,0.2,1,0.4
		c0.4,0.3,0.7,0.6,1,1.1c0.2,0.4,0.3,0.8,0.3,1l-0.1,0.3c0,0-0.1,0-0.1-0.1c0-0.3-0.1-0.7-0.3-1C15.8,16.1,15.5,15.8,15.2,15.5"/>
	<path class="st5" d="M11,13.2c-0.1-0.3-0.3-0.6-0.6-0.9c-0.2-0.3-0.5-0.4-0.7-0.5l-0.1-0.1c0,0,0,0,0.1,0c0.3,0,0.6,0.2,0.9,0.5
		C10.8,12.5,11,12.8,11,13.2L11,13.2C11.1,13.3,11,13.3,11,13.2"/>
	<path class="st3" d="M13.4,6.3c0.3,0.6,0.3,1.2,0,1.8c-0.2,0.6-0.7,1-1.3,1.3c-0.6,0.3-1.2,0.3-1.8,0C9.7,9.1,9.3,8.7,9,8.1
		L7.5,4.4c-0.3-0.6-0.3-1.2,0-1.8c0.2-0.6,0.7-1,1.3-1.3c0.6-0.3,1.2-0.3,1.8,0c0.6,0.2,1,0.7,1.3,1.3L13.4,6.3"/>
	<path class="st9" d="M13,6.2c0.2,0.5,0.3,1.1,0.1,1.6C12.9,8.4,12.5,8.8,12,9c-0.6,0.2-1.1,0.2-1.6,0C9.9,8.7,9.5,8.3,9.3,7.7
		L7.9,4.4C7.6,3.9,7.6,3.3,7.8,2.8C8,2.3,8.3,1.9,8.9,1.7s1.1-0.2,1.6,0c0.5,0.2,0.9,0.6,1.1,1.2L13,6.2"/>
	<path class="st3" d="M11.3,2.2c0.1,0,0.2,0,0.2,0.1c0.1,0.1,0.1,0.2,0,0.2L7.7,4.2c-0.1,0.1-0.2,0-0.2-0.1c0-0.1,0-0.3,0.1-0.3
		L11.3,2.2"/>
	<path class="st3" d="M11.9,3.5c0.1,0,0.2,0,0.2,0.2c0.1,0.1,0.1,0.2,0,0.3L8.2,5.7C8.1,5.7,8,5.7,8,5.6c0-0.1,0-0.2,0.1-0.3L10,4.4
		L11.9,3.5"/>
	<path class="st3" d="M12.5,5c0.1,0,0.2,0,0.2,0.1c0.1,0.1,0.1,0.2,0,0.2l-1.8,0.9L9,7.1C8.8,7.2,8.7,7.2,8.7,7
		c-0.1-0.1,0-0.2,0.1-0.3C9.5,6.4,10.8,5.8,12.5,5"/>
	<path class="st3" d="M13.2,6.5c0.1,0,0.2,0,0.2,0.1c0.1,0.1,0,0.2,0,0.2L9.6,8.5c-0.1,0.1-0.2,0-0.3-0.1c0-0.1,0-0.2,0.1-0.3
		l1.9-0.9L13.2,6.5"/>
</g>
</svg>
