<?xml version="1.0" encoding="utf-8"?>
<!-- Generator: Adobe Illustrator 25.2.0, SVG Export Plug-In . SVG Version: 6.00 Build 0)  -->
<svg version="1.1" id="Layer_1" xmlns:v="https://vecta.io/nano" opacity="0.1"
	 xmlns="http://www.w3.org/2000/svg" xmlns:xlink="http://www.w3.org/1999/xlink" x="0px" y="0px" viewBox="0 0 193 230"
	 style="enable-background:new 0 0 193 230;" xml:space="preserve">
<style type="text/css">
	.st0{fill:#95B4DF;}
	.st1{fill:#6D7EBD;}
	.st2{fill-rule:evenodd;clip-rule:evenodd;fill:#0D131A;}
	.st3{fill:#0D131A;}
	.st4{fill:#F29739;}
	.st5{fill:#FFF3C2;}
	.st6{fill:#FFFFFF;}
	.st7{fill:#922F00;}
	.st8{fill:#ED8599;}
	.st9{fill:#F9BE00;}
</style>
<path class="st0" d="M222.6,82.4c2.2,2.2,2.5,6.1,0.7,8.6c-34.1,48.8-76.4,91.5-124.9,126l-3.9,2.9c-2.9,2.2-6.8,1.8-9-0.7
	l-17.2-17.2c10.4-10.8,10-27.6-0.7-38c-10.4-10-26.9-10-37.7,0l-15.8-15.8c-2.9-2.9-2.5-7.9,0.7-10.4l3.9-2.9
	c47.4-33.7,88.6-75.4,122-123.1c2.2-2.9,6.1-3.6,9-1.4c0.4,0.4,0.7,0.4,0.7,0.7l16.1,16.1c-10.4,10.8-10,27.6,0.7,38
	c10.4,10,26.9,10,37.3,0L222.6,82.4L222.6,82.4z"/>
<path class="st1" d="M230.2,87l-61.7,78.2l-79.7,60.3l-15.4-15.4l-5.4-6.8l5.4-7.9l1.8-7.9l-1.1-8.6l-2.9-7.9l-5.4-6.5l-6.5-4.3
	l-6.8-2.2h-8.6l-9,3.2l-5.4,4.7l-12.9-15.4l20.8-3.2c64.6-9.7,126-35.9,177.6-75.7L230.2,87L230.2,87z"/>
<g>
	<path class="st2" d="M60.4,202.6c0-2.2,1.1-4.3,2.5-6.1l0,0c7.2-7.2,6.8-19-0.7-26.2c-7.2-6.8-18.3-6.8-25.5,0l0,0
		c-3.2,3.2-8.6,3.2-12.2,0l0,0L8,153.8c-6.1-6.1-6.1-15.8,0-21.9c0.7-0.4,1.4-1.1,2.2-1.4l3.9-2.9l5,6.8l-3.9,2.9
		c-3.6,2.5-3.9,7.5-0.7,10.4L31,164.2l0,0c10.4-10.4,27.6-10.4,38,0s10.4,27.6,0,38l0,0l16.5,16.5c2.5,2.5,6.5,2.9,9,0.7l3.9-2.9
		c48.4-34.5,90.8-77.2,124.9-126c1.8-2.5,1.4-6.5-0.7-8.6l-17.2-17.2l-0.4,0.4c-10.8,10.4-27.6,10.4-38-0.4
		c-10.4-10.4-10.4-27.3,0-37.7l0.4-0.4l-16.1-16.1c-2.5-2.5-6.8-2.5-9.3,0c-0.4,0.4-0.4,0.7-0.7,0.7c-33.4,47.7-74.6,89.4-122,123.1
		l-5-6.8C60.8,94.2,101.3,53.3,134,6.7c4.7-6.8,14.4-8.6,21.2-3.6c0.7,0.4,1.4,1.1,2.2,1.8L173.5,21c3.2,3.2,3.2,8.6,0,12.2l0,0l0,0
		c-7.2,7.2-6.8,19,0.7,26.2c7.2,6.8,18.3,6.8,25.5,0l0,0c3.2-3.2,8.6-3.6,12.2,0l0,0l17.2,17.2c5.4,5.4,6.1,13.6,1.8,19.4
		c-35.2,49.5-78.2,92.9-127.4,128.1l-3.9,2.9c-6.1,4.3-14.7,3.6-20.1-1.8l-16.5-16.5C61.1,206.9,60.4,204.8,60.4,202.6L60.4,202.6z"
		/>
	<g>
		<path id="A" class="st2" d="M118.6,40.4l3.9,3.9c1.8,1.8,1.8,4.3,0,6.1s-4.3,1.8-6.1,0l-3.9-3.9c-1.8-1.8-1.8-4.3,0-6.1
			C114.3,38.6,116.8,39,118.6,40.4z"/>
	</g>
	<g>
		<path id="A_1_" class="st2" d="M134.4,56.2l3.9,3.9c1.8,1.8,1.8,4.3,0,6.1s-4.3,1.8-6.1,0l-3.9-3.9c-1.8-1.8-1.8-4.3,0-6.1
			C130.1,54.7,132.6,54.7,134.4,56.2z"/>
	</g>
	<g>
		<path id="B" class="st2" d="M154.1,82c-1.8,1.8-4.3,1.8-6.1,0l0,0l-4.7-4.7c-1.8-1.8-1.8-4.3,0-6.1c1.8-1.8,4.3-1.8,6.1,0l4.7,4.7
			C155.5,77.7,155.5,80.2,154.1,82L154.1,82z"/>
	</g>
	<g>
		<path id="B_1_" class="st2" d="M169.9,97.8c-1.8,1.8-4.3,1.8-6.1,0l0,0l-4.7-4.7c-1.8-1.8-1.8-4.3,0-6.1c1.8-1.8,4.3-1.8,6.1,0
			l4.7,4.7C171.3,93.5,171.3,96.4,169.9,97.8L169.9,97.8z"/>
	</g>
	<path class="st2" d="M181,103.2l3.9,3.9c1.8,1.8,1.8,4.3,0,6.1c-1.8,1.8-4.3,1.8-6.1,0l-3.9-3.9c-1.8-1.8-1.8-4.3,0-6.1
		C176.7,101.4,179.6,101.4,181,103.2L181,103.2z"/>
	<g>
		<path id="A_2_" class="st2" d="M197.2,119l3.9,3.9c1.8,1.8,1.8,4.3,0,6.1c-1.8,1.8-4.3,1.8-6.1,0l-3.9-3.9c-1.8-1.8-1.8-4.3,0-6.1
			S195.4,117.6,197.2,119z"/>
	</g>
</g>
<g transform="matrix(0.83622, 0, 0, 0.83622, 25.770825, 29.616614)">
	<path class="st3" d="M78.3,96.4c7.2,0.4,12.9,1.4,16.9,3.6c1.1,0.4-1.4,5.7-7.9,15.4c-6.1,9.7-9.7,14.4-10,14
		c-2.9-3.2-5.7-8.3-8.3-15.1c-3.2-7.9-3.9-13.3-2.2-16.1C67.5,96.7,71.4,96,78.3,96.4"/>
	<path class="st3" d="M138.6,77c1.8,0.7,3.6,4.3,5.4,11.5s1.8,12.9,0.4,16.9c-0.4,1.4-5.7,0-15.8-3.6c-10-3.9-15.1-6.1-14.7-6.8
		c2.9-4.3,7.5-8.6,14-12.9C133.5,78,137.1,76.3,138.6,77"/>
	<path class="st4" d="M123.5,94.9c1.1-1.8,3.2-3.9,6.5-6.5c3.2-2.5,5-3.6,6.1-3.6s1.8,2.5,2.5,6.8c0.7,4.7,0.4,7.9-0.4,10
		c-0.4,0.7-2.9,0-7.9-2.2C124.9,97.1,122.8,95.6,123.5,94.9"/>
	<path class="st4" d="M82.9,104.2c5.4,0.7,8.3,1.8,8.3,2.5s-1.1,3.9-3.9,9c-2.9,5-4.7,7.5-5.4,6.8c-1.4-1.1-3.2-3.9-5.4-8.6
		c-1.8-5.4-2.9-8.3-2.2-9.7C74.7,103.5,77.5,103.5,82.9,104.2"/>
	<path class="st3" d="M152.5,97.8c4.3-2.2,6.8-3.6,7.9-3.9s1.8-0.4,2.2,0.4c0.4,0.7,0,1.4-1.1,2.5c-7.9,6.5-12.9,10.4-15.1,12.6
		l1.4,2.9c0.7,2.2,1.1,4.3,1.1,6.5l10-0.4c5.4,0,8.6,0,10.8,0.4c0.7,0,1.1,0.7,1.1,1.4s-0.4,1.1-1.1,1.4l-22.2,3.9
		c-1.4,4.7-4.3,9-7.9,12.9c-4.3,4.3-9.3,7.5-15.4,9.3c-10.8,3.6-20.1,5-28.7,3.9c-9.3-1.1-15.1-5.4-18.3-12.2
		c-3.2-7.5-2.2-15.4,2.9-24c5.4-9.3,12.9-15.4,22.6-19.7c7.5-3.2,15.1-3.9,22.6-2.5c7.2,1.4,12.9,4.7,17.6,10
		C144.7,102.1,147.9,100.3,152.5,97.8"/>
	<path class="st5" d="M129.6,142.6c1.4-1.4,2.5-2.5,2.9-3.6c0.4-0.7,0.7-0.7,1.1-1.1c0.4-0.4,0.7,0,0.4,0.7
		c-0.7,2.5-1.8,4.7-3.6,6.5c-1.4,1.4-2.9,2.5-4.7,3.2c-2.5,1.1-5.4,1.4-8.3,1.1c-2.9,0-5.4-0.7-7.9-1.8c-0.4-0.4-0.4-0.7,0-1.1
		s0.7-0.7,1.4-0.4l5.4,0.7l7.5-1.1C125.6,145.2,127.8,144.1,129.6,142.6"/>
	<path class="st5" d="M160.8,94.6c0.4-0.4,0.7,0,0.7,0c0.4,0.4,0,0.4-0.4,0.7l-16.9,13.3c0,0-0.4,0.4,0,0.4c0.7,1.4,1.4,2.5,1.8,3.2
		c0.7,2.2,1.1,4.3,1.1,7.2h0.4l11.1-0.4h10c0.4,0,0.7,0.4,0.7,0.4c0,0.4,0,0.4-0.7,0.4l-22.6,3.6h-0.4c-1.1,4.7-3.6,9-7.2,12.6
		c-3.9,4.3-9,7.5-15.1,9.7c-10.4,3.6-19.4,4.7-27.6,3.2c-8.6-1.4-14.4-5-16.9-11.5c-2.9-7.2-2.2-14.7,2.5-23S93.3,99.9,102.7,96
		c7.5-3.2,14.7-3.9,21.9-2.2c6.8,1.8,12.2,5,16.5,10.4h0.7C145.4,103.5,151.5,99.9,160.8,94.6"/>
	<path class="st3" d="M132.8,140.1c0-0.4,0.4-0.4,0.7-0.4s0.4,0.4,0.4,0.7c-1.4,3.9-4.3,6.8-8.3,8.6c-3.2,1.4-7.2,1.8-11.1,1.1
		l-1.1-0.4c-0.4-0.7-0.4-0.7,0-0.7c4.7,0.4,8.6,0,12.2-1.8C128.9,145.9,131.4,143.4,132.8,140.1"/>
	<path class="st6" d="M123.1,116.8c-0.7-1.8-0.7-3.9-0.4-7.2c0.7-3.6,1.8-5.7,4.3-6.5c2.2-0.7,4.3-0.4,6.8,1.1
		c2.5,1.4,4.3,3.9,5.4,7.2c0.7,2.2,0.4,4.3-0.7,6.1c-1.1,1.8-2.2,3.2-3.6,3.6c-2.2,0.7-3.9,0.7-5.7,0.7
		C126.4,121.5,124.2,119.7,123.1,116.8"/>
	<path class="st5" d="M48.1,137.6c-0.7,0-1.1,0-1.1-0.7c0-0.7,0.4-1.1,1.1-1.4s6.5-1.8,17.2-4.3l17.6-3.9c1.1-0.4,1.8,0.7,1.8,2.5
		c0,1.8-0.4,2.9-1.1,3.2L48.1,137.6"/>
	<path class="st5" d="M88,139.8c1.1-0.7,2.2,0,3.2,1.8c0.7,1.8,0.7,2.9,0.4,3.2s-6.1,3.2-16.5,8.6l-16.1,7.9c-1.4,0.4-2.2,0-1.8-0.7
		c0-0.7,5.4-4.3,15.4-10.8C81.9,143.4,87.2,140.1,88,139.8"/>
	<path class="st7" d="M119.5,130.8c-1.4-0.4,0.4-1.1,5.4-2.9c4.7-1.4,7.2-1.8,7.2-1.1c0,5-1.1,9-3.2,12.2c-0.4-2.9-1.8-5-4.3-6.5
		C122.8,131.9,121,131.2,119.5,130.8"/>
	<path class="st8" d="M111.3,134.4l6.8-3.2c1.8-0.7,3.9,0,6.1,1.8c2.5,1.8,3.9,3.9,4.3,6.5c0,1.1-0.4,2.2-1.4,2.9
		c-0.7,0.7-2.2,1.4-3.9,2.5c-2.9,1.4-6.5,1.1-11.1-0.7c-4.3-1.8-7.2-3.9-9-6.8c-0.7-0.7-0.4-1.1,0.7-1.1
		C105.5,136.5,108,135.8,111.3,134.4"/>
	<path class="st5" d="M81.5,75.5c1.1-0.7,4.3,3.2,10,11.8c5.4,8.3,8.3,12.9,8.3,14c0,0.7-0.7,1.8-2.5,3.6c-1.8,1.4-2.9,2.2-3.2,1.4
		c-1.1-1.1-3.2-6.5-7.2-15.4C82.9,80.9,81.1,75.9,81.5,75.5"/>
	<path class="st5" d="M115.2,96c-0.4-0.7-1.1-5.4-2.5-14.7c-1.4-9.3-2.2-14-1.8-14.7c0-0.4,0.4-0.4,0.7-0.4s0.7,0.4,1.1,1.1
		l8.6,28.7c0,0.7-0.7,1.1-2.5,1.4C117,97.8,115.9,97.4,115.2,96"/>
	<path class="st3" d="M111.6,82.4l-1.8-15.4c0-1.1,0.4-1.4,1.1-1.8c1.1,0,1.4,0.4,1.8,1.4l4.3,13.3l4.3,14c0.4,1.1,0.4,1.8-0.4,1.8
		s-1.1-0.4-1.4-1.4L112,69.8c-0.4-1.4-0.7-2.2-1.1-2.2s-0.4,0.4,0,1.8c1.8,11.5,2.9,19.7,3.6,24.4c0,0.7,0,1.1-0.7,0.7l-0.7-0.4
		L111.6,82.4"/>
	<path class="st3" d="M80.8,77.3c-0.7-1.4-0.4-2.5,0.7-3.2c1.1-0.4,1.8,0,2.9,1.1c0.7,1.1,3.9,5.7,9.3,13.6c5,7.9,8.3,12.6,9,14
		c0.4,0.7,0.4,1.1,0,1.4c-0.4,0.7-0.7,0.7-1.1,0C92.3,89.5,86.2,80.6,83.3,77c-0.7-0.4-1.1-0.7-1.1-0.4c0,0,0,0.4,0,1.1
		c2.2,5.7,6.5,15.1,12.2,28c0.4,1.1,0.4,1.8-0.4,1.8s-1.1-0.4-1.4-1.1L86.5,92C82.9,83.1,80.8,78,80.8,77.3"/>
	<path class="st3" d="M47.8,138.3c-1.1,0-1.8-0.4-2.2-1.1c-0.4-0.7,0-1.4,1.1-2.2c1.8-1.1,7.5-2.9,17.6-5c9.7-2.2,15.1-3.2,16.9-3.2
		c0.7,0,1.4,0.4,1.4,0.7s-0.4,0.7-1.1,0.7c-3.6,0.4-9.7,1.8-18.3,3.6c-8.6,1.8-13.3,3.2-14.7,3.9c-0.7,0.4-0.7,0.7-1.1,0.7
		c0,0.4,0.4,0.4,1.1,0.4l15.1-2.2l17.9-2.5c1.1,0,1.4,0,1.4,0.7c0,0.4-0.4,0.7-1.4,1.1L47.8,138.3"/>
	<path class="st3" d="M88.7,145.5h1.4c0.4,0.4,0,0.7-0.4,0.7L58.2,162c-0.7,0.4-1.4,0.4-1.8-0.4s-0.4-1.4,0.4-2.2
		c1.4-1.4,6.1-4.7,14.4-10c7.9-5,12.6-7.9,14.4-8.6c0.7-0.4,1.1-0.4,1.1,0c0.4,0.4,0,0.7-0.4,1.1c-1.8,1.1-5.7,3.6-12.2,7.5
		c-7.2,4.7-12.6,7.9-15.4,10c-0.7,0.4-1.1,0.7-1.1,1.1h1.4l13.6-6.8C81.1,149.1,86.2,146.6,88.7,145.5"/>
	<path class="st3" d="M138.2,110.3c-0.4-0.7,0-1.1,0.4-0.7l0.7,0.4c1.1,2.9,1.1,5.4-0.4,7.9c-1.1,1.8-2.5,3.2-4.3,3.9
		c-2.2,0.7-4.3,1.1-6.5,0.4c-2.5-0.7-4.3-2.2-5.4-4.7v-0.4c0-0.4,0.4-0.4,0.4,0c1.4,2.2,3.2,3.6,5.4,4.3c1.8,0.4,3.9,0.4,5.7-0.4
		s3.2-1.8,3.9-3.9C138.9,115,138.9,112.9,138.2,110.3"/>
	<path class="st3" d="M131,127.2c0-0.4,0.4-0.7,0.7-0.7s0.7,0,0.4,0.7c0,5-1.1,9.3-2.9,12.6c-1.4,2.9-3.2,4.7-5.4,5.7
		c-3.2,1.4-7.2,1.1-11.8-0.7c-4.3-1.8-7.9-4.3-10.4-7.9c-0.4-0.4,0-0.4,0.4-0.4s0.7,0,1.1,0.4c1.8,2.5,5,4.7,9,6.5
		c4.7,2.2,8.6,2.5,11.5,0.7c2.9-1.4,5-3.9,6.1-8.3C130.3,134.4,130.7,131.5,131,127.2"/>
	<path class="st3" d="M132.8,103.2c2.9,1.4,5,3.6,6.5,6.8c0,0.4,0,0.7,0,0.7c-0.4,0.4-0.4,0-0.7-0.4c-1.1-2.5-2.5-4.7-5.4-5.7
		c-2.5-1.1-4.3-1.4-6.1-0.7c-1.8,0.7-2.9,2.5-3.6,5.4c-0.7,2.5-0.7,5.4,0,8.3c0,0.4,0,0.4-0.4,0.4c-0.4,0-0.4,0-0.4-0.4
		c-0.7-2.9-1.1-5.7-0.4-9c0.7-3.2,2.2-5,3.9-6.1C128.1,101.7,130.3,102.1,132.8,103.2"/>
	<path class="st3" d="M108,126.1c-2.9-3.2-6.1-5-9.3-5c-3.9-0.4-7.2,1.4-9.7,5c-0.4,0.4-0.4,0.4-0.7,0c0,0-0.4-0.4,0-0.7
		c2.2-3.9,5-6.1,9.3-6.1s7.9,2.2,10.8,6.5c0.4,0.4,0.4,0.7,0.4,0.7C108.4,126.5,108.4,126.5,108,126.1"/>
	<path class="st3" d="M124.9,129c0-0.7,1.1-1.4,3.2-1.8c1.8-0.4,3.2-0.4,3.2,0.4c0.4,0.7,0,1.4-0.4,2.9c-0.4,1.4-1.1,2.2-1.4,2.2
		s-1.1-0.4-2.5-1.4C125.6,130.1,124.9,129.4,124.9,129"/>
	<path class="st6" d="M126.4,129c0-0.7,0.7-1.1,2.2-1.4c1.4-0.4,2.2,0,2.2,0.4s0,1.1-0.4,1.8s-0.7,1.4-1.1,1.4s-0.7-0.4-1.8-1.1
		C126.7,129.7,126.4,129,126.4,129"/>
	<path class="st3" d="M103,137.3c0-0.7,1.1-1.4,3.2-1.8c2.2-0.4,3.2-0.4,3.2,0c0.4,0.7,0,1.8-0.7,2.9c-0.7,1.1-1.1,1.8-1.4,2.2
		c-0.4,0-1.1-0.4-2.2-1.4C103.7,138.3,103,137.6,103,137.3"/>
	<path class="st6" d="M104.1,137.3c0-0.7,0.7-1.1,2.2-1.4c1.4-0.4,2.2-0.4,2.2,0.4c0,0.4,0,1.1-0.7,2.2c-0.4,0.7-0.7,1.4-1.1,1.4
		s-0.7-0.4-1.4-0.7C104.5,138,104.1,137.6,104.1,137.3"/>
	<path class="st3" d="M112,133.7l8.6-4.3c3.2-1.4,6.8-2.5,10.8-3.2c1.1-0.4,1.8-1.1,2.2-2.2c0-0.4,0.4-0.4,0.4-0.4
		c0.4,0,0.4,0.4,0.4,0.7c0,0.7-0.4,1.4-1.1,2.2c-0.7,0.4-1.1,0.7-1.4,0.7l-4.7,1.1l-5.7,2.2c-2.2,1.4-4.7,2.5-6.8,3.6
		c-4.7,2.2-8.3,2.9-11.1,2.9c-0.4,0-1.1-0.4-1.8-0.7l-1.4-1.1c-0.4-0.4-0.4-0.4,0-0.7c0,0,0.4,0,0.7,0c1.1,0.7,1.8,0.7,2.5,0.7
		C105.5,135.8,108.8,135.1,112,133.7"/>
	<path class="st3" d="M131,113.2c0.7,1.8,1.1,3.2,1.4,4.3c0.4,1.4,0.4,2.2,0,2.2s-0.7-0.4-1.4-1.4c-0.7-1.1-1.4-2.5-2.2-4.3
		c-0.7-1.8-1.1-3.2-1.4-4.3c-0.4-1.4-0.4-2.2,0-2.2s0.7,0.4,1.4,1.4C129.6,110.3,130.3,111.4,131,113.2"/>
	<path class="st6" d="M128.9,110c0.4,1.1,0.4,1.4,0.4,1.8c-0.4,0-0.7-0.4-1.1-1.4c-0.4-1.1-0.4-1.4-0.4-1.8
		C128.1,108.6,128.5,109.3,128.9,110"/>
	<path class="st3" d="M124.2,133c-2.2-1.4-4.3-1.8-6.8-1.8c-0.4,0-0.4,0,0,0l0.7-0.4h2.2c1.4,0.4,2.5,0.7,3.6,1.4
		c1.4,1.1,2.5,2.2,3.6,3.9c0.7,1.4,1.1,2.9,1.1,3.6l-0.4,1.1c0,0-0.4,0-0.4-0.4c0-1.1-0.4-2.5-1.1-3.6
		C126.4,135.1,125.3,134,124.2,133"/>
	<path class="st5" d="M109.1,124.7c-0.4-1.1-1.1-2.2-2.2-3.2c-0.7-1.1-1.8-1.4-2.5-1.8l-0.4-0.4c0,0,0,0,0.4,0
		c1.1,0,2.2,0.7,3.2,1.8C108.4,122.2,109.1,123.3,109.1,124.7L109.1,124.7C109.5,125.1,109.1,125.1,109.1,124.7"/>
	<path class="st3" d="M117.7,99.9c1.1,2.2,1.1,4.3,0,6.5c-0.7,2.2-2.5,3.6-4.7,4.7c-2.2,1.1-4.3,1.1-6.5,0c-2.2-1.1-3.6-2.5-4.7-4.7
		l-5.4-13.3c-1.1-2.2-1.1-4.3,0-6.5c0.7-2.2,2.5-3.6,4.7-4.7c2.2-1.1,4.3-1.1,6.5,0c2.2,0.7,3.6,2.5,4.7,4.7L117.7,99.9"/>
	<path class="st9" d="M116.3,99.6c0.7,1.8,1.1,3.9,0.4,5.7c-0.7,2.2-2.2,3.6-3.9,4.3c-2.2,0.7-3.9,0.7-5.7,0
		c-1.8-1.1-3.2-2.5-3.9-4.7l-5-11.8c-1.1-1.8-1.1-3.9-0.4-5.7s1.8-3.2,3.9-3.9s3.9-0.7,5.7,0s3.2,2.2,3.9,4.3L116.3,99.6"/>
	<path class="st3" d="M110.2,85.2c0.4,0,0.7,0,0.7,0.4c0.4,0.4,0.4,0.7,0,0.7l-13.6,6.1c-0.4,0.4-0.7,0-0.7-0.4s0-1.1,0.4-1.1
		L110.2,85.2"/>
	<path class="st3" d="M112.4,89.9c0.4,0,0.7,0,0.7,0.7c0.4,0.4,0.4,0.7,0,1.1l-14,6.1c-0.4,0-0.7,0-0.7-0.4s0-0.7,0.4-1.1l6.8-3.2
		L112.4,89.9"/>
	<path class="st3" d="M114.5,95.3c0.4,0,0.7,0,0.7,0.4c0.4,0.4,0.4,0.7,0,0.7l-6.5,3.2l-6.8,3.2c-0.7,0.4-1.1,0.4-1.1-0.4
		c-0.4-0.4,0-0.7,0.4-1.1C103.7,100.3,108.4,98.1,114.5,95.3"/>
	<path class="st3" d="M117,100.7c0.4,0,0.7,0,0.7,0.4c0.4,0.4,0,0.7,0,0.7l-13.6,6.1c-0.4,0.4-0.7,0-1.1-0.4c0-0.4,0-0.7,0.4-1.1
		l6.8-3.2L117,100.7"/>
</g>
</svg>
