<?xml version="1.0" encoding="utf-8"?>
<svg viewBox="-7.324 -18.439 181.616 151.313" width="181.616" height="151.313" xmlns="http://www.w3.org/2000/svg">
  <g transform="matrix(0.965926, 0.258818, -0.258818, 0.965926, 22.29562, -18.413863)">
    <path fill="#0d131a" d="M 44.701 35.15 C 53.601 36.35 60.468 38.45 65.301 41.45 C 66.468 42.15 62.718 48.233 54.051 59.7 C 45.318 71.166 40.701 76.583 40.201 75.95 C 37.068 71.816 34.134 65.25 31.401 56.25 C 28.334 46.05 27.968 39.233 30.301 35.8 C 31.401 34.2 36.201 33.983 44.701 35.15"/>
    <path fill="#0d131a" d="M 121.55 17.4 C 123.85 18.333 125.617 23.216 126.85 32.05 C 128.117 41.183 127.717 48.166 125.65 53 C 124.983 54.6 118.567 52.516 106.4 46.75 C 94.167 40.916 88.383 37.566 89.05 36.7 C 93.117 31.466 99.333 26.65 107.7 22.25 C 115.167 18.316 119.783 16.7 121.55 17.4"/>
    <path fill="#f29739" d="M 100.85 38.05 C 102.55 35.85 105.467 33.35 109.6 30.55 C 113.667 27.85 116.25 26.6 117.35 26.8 C 118.65 27.066 119.45 29.983 119.75 35.55 C 120.05 41.183 119.533 45.3 118.2 47.9 C 117.8 48.733 114.617 47.55 108.65 44.35 C 102.65 41.183 100.05 39.083 100.85 38.05"/>
    <path fill="#f29739" d="M 49.9 45.45 C 56.434 47.083 59.734 48.35 59.8 49.25 C 59.867 50.316 57.984 53.833 54.15 59.8 C 50.217 65.933 47.734 68.566 46.7 67.7 C 45.167 66.4 43.3 62.633 41.1 56.4 C 38.834 49.966 38.134 46.033 39 44.6 C 39.667 43.533 43.3 43.816 49.9 45.45"/>
    <path fill="#0d131a" d="M 136.901 44.75 C 142.434 42.35 145.851 40.933 147.151 40.5 C 148.484 40.033 149.384 40.266 149.851 41.2 C 150.318 42.133 149.851 43.066 148.451 44 C 138.084 51.066 131.401 55.716 128.401 57.95 L 129.701 61.5 C 130.534 64.066 130.751 66.8 130.351 69.7 L 142.851 70.5 C 149.351 71 153.718 71.55 155.951 72.15 C 156.884 72.416 157.351 73.016 157.351 73.95 C 157.318 74.883 156.784 75.45 155.751 75.65 L 127.901 78.35 C 125.434 84.05 121.684 89.05 116.651 93.35 C 110.984 98.15 104.318 101.516 96.651 103.45 C 82.951 106.883 71.018 107.45 60.851 105.15 C 49.618 102.616 42.534 96.883 39.601 87.95 C 36.401 78.383 38.384 68.483 45.551 58.25 C 52.651 48.083 62.484 40.966 75.051 36.9 C 84.784 33.733 94.218 33.533 103.351 36.3 C 112.018 38.933 118.934 43.7 124.101 50.6 C 126.434 49.366 130.701 47.416 136.901 44.75"/>
    <path fill="#fff3c2" d="M 103.302 98.001 C 105.302 96.535 106.602 95.218 107.202 94.051 C 107.535 93.385 107.969 93.035 108.502 93.001 C 109.035 92.968 109.202 93.268 109.002 93.901 C 108.002 96.935 106.319 99.501 103.952 101.601 C 102.019 103.335 100.035 104.451 98.002 104.951 C 94.735 105.818 91.319 106.001 87.752 105.501 C 84.352 105.001 81.119 103.968 78.052 102.401 C 77.485 102.068 77.469 101.668 78.002 101.201 C 78.502 100.701 79.069 100.535 79.702 100.701 L 86.302 102.051 L 95.752 101.651 C 98.419 100.918 100.935 99.701 103.302 98.001"/>
    <path fill="#fff3c2" d="M 147.251 41.85 C 147.718 41.65 148.051 41.7 148.251 42 C 148.484 42.267 148.351 42.584 147.851 42.95 L 125.651 57.4 C 125.451 57.5 125.384 57.634 125.451 57.8 C 126.218 59.5 126.784 60.967 127.151 62.2 C 128.018 64.8 128.201 67.85 127.701 71.35 L 128.001 71.55 L 142.051 72.1 L 154.651 73.3 C 155.218 73.4 155.518 73.6 155.551 73.9 C 155.584 74.234 155.318 74.417 154.751 74.45 L 126.501 76.5 L 126.251 76.7 C 124.251 82.334 120.851 87.317 116.051 91.65 C 110.618 96.55 104.101 99.95 96.501 101.85 C 83.334 105.117 71.801 105.534 61.901 103.1 C 51.434 100.534 44.851 95.167 42.151 87 C 39.151 77.867 41.068 68.467 47.901 58.8 C 54.668 49.167 64.018 42.417 75.951 38.55 C 85.451 35.484 94.551 35.4 103.251 38.3 C 111.484 41.034 117.951 45.9 122.651 52.9 L 123.351 53 C 127.251 51.067 135.218 47.35 147.251 41.85"/>
    <path fill="#0d131a" d="M 107.951 95.2 C 108.185 94.834 108.468 94.717 108.801 94.85 C 109.135 94.984 109.218 95.234 109.051 95.6 C 106.651 100.434 102.918 103.634 97.851 105.2 C 93.518 106.567 88.918 106.6 84.051 105.3 L 82.851 104.7 C 82.351 104.4 82.285 104.284 82.651 104.35 C 88.385 105.517 93.468 105.284 97.901 103.65 C 102.235 102.05 105.585 99.234 107.951 95.2"/>
    <path fill="#ffffff" d="M 98.301 65.5 C 97.601 63.267 97.718 60.317 98.651 56.65 C 99.751 52.284 101.701 49.717 104.501 48.95 C 107.168 48.25 109.885 48.9 112.651 50.9 C 115.685 53.067 117.618 56.184 118.451 60.25 C 118.985 62.85 118.485 65.417 116.951 67.95 C 115.551 70.25 113.935 71.6 112.101 72 C 109.501 72.634 107.135 72.684 105.001 72.15 C 101.701 71.284 99.468 69.067 98.301 65.5"/>
    <path fill="#fff3c2" d="M 2.851 83.1 C 1.884 83.167 1.434 82.833 1.501 82.1 C 1.568 81.4 2.068 80.8 3.001 80.3 C 3.768 79.867 11.084 78.717 24.951 76.85 L 47.101 74.05 C 48.634 73.95 49.301 75.1 49.101 77.5 C 48.934 79.933 48.334 81.2 47.301 81.3 L 2.851 83.1"/>
    <path fill="#fff3c2" d="M 52.351 89.9 C 53.951 89.333 55.151 90.15 55.951 92.35 C 56.751 94.516 56.718 95.866 55.851 96.4 C 55.185 96.833 48.101 99.733 34.601 105.1 L 13.551 113.3 C 11.618 113.666 10.851 113.233 11.251 112 C 11.518 111.266 18.335 107.416 31.701 100.45 C 44.235 93.916 51.118 90.4 52.351 89.9"/>
    <path fill="#922f00" d="M 92.051 82.401 C 90.484 82.001 92.767 81.068 98.901 79.601 C 104.934 78.168 107.901 77.951 107.801 78.951 C 107.101 85.018 105.384 90.018 102.651 93.951 C 102.484 90.451 100.867 87.551 97.801 85.251 C 95.967 83.851 94.051 82.901 92.051 82.401"/>
    <path fill="#ed8599" d="M 81.701 86 L 90.351 82.85 C 92.551 82.217 95.051 83.117 97.851 85.55 C 100.784 88.017 102.368 90.8 102.601 93.9 C 102.701 95.2 102.051 96.4 100.651 97.5 C 99.484 98.334 97.718 99.184 95.351 100.05 C 91.651 101.384 87.118 100.634 81.751 97.8 C 76.718 95.134 73.218 92.017 71.251 88.45 C 70.651 87.317 71.001 86.9 72.301 87.2 C 74.468 87.734 77.601 87.334 81.701 86"/>
    <path fill="#fff3c2" d="M 51.201 9.45 C 52.568 8.816 56.268 14.133 62.301 25.4 C 68.068 36.133 71.018 42.183 71.151 43.55 C 71.251 44.316 70.018 45.65 67.451 47.55 C 64.918 49.416 63.485 50.033 63.151 49.4 C 62.285 47.633 59.968 40.95 56.201 29.35 C 52.035 16.516 50.368 9.883 51.201 9.45"/>
    <path fill="#fff3c2" d="M 90.551 38.75 C 90.185 37.883 89.618 31.75 88.851 20.35 C 88.051 8.783 87.835 2.567 88.201 1.7 C 88.368 1.333 88.735 1.283 89.301 1.55 C 89.901 1.783 90.251 2.233 90.351 2.9 L 98.101 39.55 C 98.201 40.35 97.168 40.85 95.001 41.05 C 92.768 41.25 91.285 40.483 90.551 38.75"/>
    <path fill="#0d131a" d="M 87.85 21.55 L 87.15 2.05 C 87.083 0.85 87.6 0.166 88.7 0 C 89.8 -0.167 90.533 0.433 90.9 1.8 L 94.9 18.9 L 98.9 36.55 C 99.167 37.983 98.95 38.75 98.25 38.85 C 97.55 38.95 97.05 38.283 96.75 36.85 L 90.15 5.7 C 89.75 3.966 89.417 3 89.15 2.8 C 88.817 2.6 88.717 3.35 88.85 5.05 C 89.35 19.55 89.8 29.85 90.2 35.95 C 90.267 36.95 89.933 37.233 89.2 36.8 L 88.2 36.3 L 87.85 21.55"/>
    <path fill="#0d131a" d="M 49.802 11.951 C 49.335 9.785 49.752 8.451 51.052 7.951 C 52.285 7.451 53.452 7.951 54.552 9.451 C 55.585 10.918 58.969 16.918 64.702 27.451 C 70.235 37.585 73.502 43.718 74.502 45.851 C 74.869 46.685 74.752 47.335 74.152 47.801 C 73.519 48.235 73.052 48.118 72.752 47.451 C 62.852 28.118 56.302 16.235 53.102 11.801 C 52.469 10.968 52.035 10.651 51.802 10.851 C 51.569 11.018 51.552 11.451 51.752 12.151 C 53.985 19.385 57.952 31.435 63.652 48.301 C 64.152 49.835 64.052 50.651 63.352 50.751 C 62.652 50.818 62.102 50.285 61.702 49.151 L 55.652 30.651 C 51.952 19.118 50.002 12.885 49.802 11.951"/>
    <path fill="#0d131a" d="M 2.5 83.95 C 1.066 83.917 0.25 83.384 0.05 82.35 C -0.15 81.384 0.333 80.6 1.5 80 C 3.9 78.8 11.316 77.317 23.75 75.55 C 35.783 73.85 42.883 73.134 45.05 73.4 C 46.116 73.534 46.65 73.834 46.65 74.3 C 46.65 74.734 46.15 74.967 45.15 75 C 40.616 75.134 32.933 75.984 22.1 77.55 C 11.333 79.084 5.133 80.217 3.5 80.95 C 2.8 81.25 2.383 81.567 2.25 81.9 C 2.083 82.3 2.55 82.517 3.65 82.55 L 22.5 81.6 L 45 80.6 C 46.133 80.6 46.766 80.917 46.9 81.55 C 47 82.15 46.366 82.5 45 82.6 L 2.5 83.95"/>
    <path fill="#0d131a" d="M 52.25 97.05 L 53.9 97.15 C 54.133 97.55 53.967 97.883 53.4 98.15 L 12.7 114.3 C 11.7 114.666 10.983 114.416 10.55 113.55 C 10.117 112.65 10.333 111.8 11.2 111 C 13.033 109.4 19.4 105.716 30.3 99.95 C 40.633 94.483 46.867 91.366 49 90.6 C 49.8 90.3 50.3 90.383 50.5 90.85 C 50.7 91.316 50.45 91.683 49.75 91.95 C 47.517 92.916 42.183 95.566 33.75 99.9 C 24.183 104.833 17.5 108.466 13.7 110.8 C 12.9 111.3 12.467 111.75 12.4 112.15 L 14.35 112.1 L 31.9 105.15 C 42.633 100.783 49.417 98.083 52.25 97.05"/>
    <path fill="#0d131a" d="M 117.65 58.85 C 117.45 58.05 117.567 57.716 118 57.85 L 118.8 58.5 C 119.834 62.066 119.45 65.266 117.65 68.1 C 116.184 70.433 114.284 71.966 111.95 72.7 C 109.284 73.566 106.6 73.433 103.9 72.3 C 100.967 71.066 98.917 69 97.75 66.1 C 97.717 65.966 97.8 65.783 98 65.55 C 98.2 65.283 98.35 65.266 98.45 65.5 C 99.85 68.433 101.867 70.416 104.5 71.45 C 106.767 72.316 109.15 72.366 111.65 71.6 C 113.917 70.933 115.65 69.5 116.85 67.3 C 118.15 64.866 118.417 62.05 117.65 58.85"/>
    <path fill="#0d131a" d="M 107.002 79.051 C 107.102 78.451 107.369 78.118 107.802 78.051 C 108.269 78.018 108.469 78.285 108.402 78.851 C 107.635 85.118 106.069 90.235 103.702 94.201 C 101.569 97.668 99.119 99.818 96.352 100.651 C 92.019 101.951 87.219 101.251 81.952 98.551 C 76.885 95.985 72.819 92.385 69.752 87.751 C 69.552 87.451 69.719 87.335 70.252 87.401 C 70.752 87.435 71.135 87.651 71.402 88.051 C 73.535 91.418 76.985 94.401 81.752 97.001 C 87.252 100.035 92.019 100.818 96.052 99.351 C 99.785 97.985 102.602 94.801 104.502 89.801 C 105.269 87.768 106.102 84.185 107.002 79.051"/>
    <path fill="#0d131a" d="M 111.601 49.4 C 115.068 51.366 117.451 54.383 118.751 58.45 C 118.885 58.816 118.785 59.133 118.451 59.4 C 118.118 59.666 117.885 59.533 117.751 59 C 116.885 55.733 114.935 53.133 111.901 51.2 C 109.101 49.433 106.618 48.916 104.451 49.65 C 102.118 50.45 100.401 52.483 99.301 55.75 C 98.235 58.816 97.968 62.166 98.501 65.8 C 98.568 66.133 98.468 66.333 98.201 66.4 C 97.968 66.5 97.818 66.4 97.751 66.1 C 96.951 62.5 97.151 58.8 98.351 55 C 99.618 51.133 101.451 48.783 103.851 47.95 C 106.051 47.216 108.635 47.7 111.601 49.4"/>
    <path fill="#0d131a" d="M 78.45 75.2 C 75.316 70.967 71.616 68.483 67.35 67.75 C 62.583 66.917 58.466 68.633 55 72.9 C 54.7 73.233 54.466 73.283 54.3 73.05 C 54.1 72.817 54.116 72.5 54.35 72.1 C 57.25 67.2 61.283 65.033 66.45 65.6 C 71.583 66.133 75.8 69.117 79.1 74.55 C 79.4 75.083 79.45 75.417 79.25 75.55 C 79.016 75.683 78.75 75.567 78.45 75.2"/>
    <path fill="#0d131a" d="M 99.251 80.55 C 99.485 79.484 100.851 78.817 103.351 78.55 C 105.818 78.284 107.168 78.584 107.401 79.45 C 107.635 80.217 107.335 81.417 106.501 83.05 C 105.701 84.65 105.035 85.467 104.501 85.5 C 104.035 85.567 103.018 84.867 101.451 83.4 C 99.885 81.934 99.151 80.984 99.251 80.55"/>
    <path fill="#ffffff" d="M 100.8 80.6 C 100.967 79.9 101.884 79.45 103.55 79.25 C 105.184 79.083 106.084 79.283 106.25 79.85 C 106.384 80.383 106.184 81.183 105.65 82.25 C 105.117 83.316 104.684 83.866 104.35 83.9 C 104.017 83.933 103.334 83.466 102.3 82.5 C 101.234 81.5 100.734 80.866 100.8 80.6"/>
    <path fill="#0d131a" d="M 71.051 88.5 C 71.084 87.534 72.434 86.95 75.101 86.75 C 77.734 86.517 79.101 86.667 79.201 87.2 C 79.368 88 78.951 89.217 77.951 90.85 C 76.984 92.317 76.251 93.117 75.751 93.25 C 75.351 93.317 74.468 92.667 73.101 91.3 C 71.734 89.9 71.051 88.967 71.051 88.5"/>
    <path fill="#ffffff" d="M 72.402 88.551 C 72.402 87.851 73.269 87.401 75.002 87.201 C 76.735 86.968 77.635 87.151 77.702 87.751 C 77.769 88.318 77.452 89.118 76.752 90.151 C 76.085 91.118 75.585 91.635 75.252 91.701 C 74.985 91.768 74.435 91.351 73.602 90.451 C 72.769 89.518 72.369 88.885 72.402 88.551"/>
    <path fill="#0d131a" d="M 82.751 84.85 L 93.951 80.45 C 98.084 79.117 102.667 78.117 107.701 77.45 C 109.167 77.25 110.134 76.5 110.601 75.2 C 110.734 74.734 110.934 74.584 111.201 74.75 C 111.467 74.884 111.551 75.2 111.451 75.7 C 111.217 76.667 110.684 77.484 109.851 78.15 C 109.117 78.717 108.451 79 107.851 79 L 101.701 80.1 L 94.301 81.95 C 91.334 83.417 88.334 84.7 85.301 85.8 C 79.367 87.934 74.634 88.684 71.101 88.05 C 70.534 87.95 69.867 87.65 69.101 87.15 L 67.651 85.75 C 67.384 85.35 67.351 85.067 67.551 84.9 C 67.717 84.7 68.017 84.75 68.451 85.05 C 69.651 85.85 70.584 86.3 71.251 86.4 C 74.551 86.9 78.384 86.384 82.751 84.85"/>
    <path fill="#0d131a" d="M 108.251 61.75 C 108.951 63.917 109.418 65.817 109.651 67.45 C 109.884 69.084 109.818 69.967 109.451 70.1 C 109.084 70.234 108.518 69.567 107.751 68.1 C 106.984 66.634 106.251 64.817 105.551 62.65 C 104.851 60.517 104.384 58.617 104.151 56.95 C 103.918 55.317 103.984 54.45 104.351 54.35 C 104.718 54.217 105.284 54.884 106.051 56.35 C 106.818 57.784 107.551 59.584 108.251 61.75"/>
    <path fill="#ffffff" d="M 106.001 57.6 C 106.435 58.866 106.501 59.566 106.201 59.7 C 105.901 59.766 105.535 59.166 105.101 57.9 C 104.701 56.666 104.651 55.983 104.951 55.85 C 105.218 55.75 105.568 56.333 106.001 57.6"/>
    <path fill="#0d131a" d="M 97.601 85.5 C 95.135 83.467 92.518 82.533 89.751 82.7 C 89.485 82.733 89.518 82.667 89.851 82.5 L 90.901 82.1 L 93.751 82.5 C 95.451 82.933 96.885 83.6 98.051 84.5 C 99.718 85.833 101.035 87.533 102.001 89.6 C 102.901 91.533 103.201 93.083 102.901 94.25 L 102.401 95.35 C 102.201 95.517 102.118 95.383 102.151 94.95 C 102.285 93.55 101.968 92 101.201 90.3 C 100.368 88.367 99.168 86.767 97.601 85.5"/>
    <path fill="#fff3c2" d="M 80.051 73.65 C 79.618 72.217 78.851 70.833 77.751 69.5 C 76.751 68.267 75.784 67.483 74.851 67.15 L 74.601 66.9 C 74.668 66.767 74.834 66.717 75.101 66.75 C 76.501 67.017 77.701 67.883 78.701 69.35 C 79.534 70.55 80.134 71.933 80.501 73.5 L 80.401 74 C 80.268 74.067 80.151 73.95 80.051 73.65"/>
    <path fill="#0d131a" d="M 93.35 43.6 C 94.25 46.334 94.017 48.984 92.65 51.55 C 91.317 54.117 89.267 55.85 86.5 56.75 C 83.733 57.65 81.033 57.434 78.4 56.1 C 75.8 54.767 74.05 52.7 73.15 49.9 L 67.75 33.15 C 66.85 30.384 67.067 27.7 68.4 25.1 C 69.7 22.5 71.75 20.734 74.55 19.8 C 77.317 18.9 80 19.117 82.6 20.45 C 85.2 21.784 86.95 23.85 87.85 26.65 L 93.35 43.6"/>
    <path fill="#f9be00" d="M 91.701 43.2 C 92.534 45.733 92.434 48.15 91.401 50.45 C 90.368 52.817 88.634 54.4 86.201 55.2 C 83.601 56.067 81.168 55.8 78.901 54.4 C 76.734 53.067 75.234 51.083 74.401 48.45 L 69.501 33.35 C 68.668 30.783 68.768 28.383 69.801 26.15 C 70.834 23.85 72.584 22.3 75.051 21.5 C 77.518 20.7 79.884 20.933 82.151 22.2 C 84.384 23.433 85.901 25.333 86.701 27.9 L 91.701 43.2"/>
    <path fill="#0d131a" d="M 85.551 24.55 C 85.985 24.417 86.335 24.65 86.601 25.25 C 86.868 25.85 86.835 26.217 86.501 26.35 L 68.851 32.35 C 68.251 32.55 67.901 32.3 67.801 31.6 C 67.701 30.934 67.935 30.484 68.501 30.25 L 85.551 24.55"/>
    <path fill="#0d131a" d="M 87.701 30.95 C 88.135 30.817 88.451 31.083 88.651 31.75 C 88.851 32.417 88.785 32.833 88.451 33 L 70.651 39.05 C 70.051 39.25 69.685 39.033 69.551 38.4 C 69.451 37.733 69.685 37.3 70.251 37.1 L 79.201 33.9 L 87.701 30.95"/>
    <path fill="#0d131a" d="M 90 37.85 C 90.434 37.717 90.767 37.917 91 38.45 C 91.234 38.95 91.184 39.283 90.85 39.45 L 82.35 42.6 L 73.25 45.85 C 72.65 46.083 72.217 45.867 71.95 45.2 C 71.717 44.567 71.884 44.133 72.45 43.9 C 76.117 42.533 81.967 40.517 90 37.85"/>
    <path fill="#0d131a" d="M 92.302 44.501 C 92.735 44.368 93.052 44.568 93.252 45.101 C 93.452 45.635 93.385 45.985 93.052 46.151 L 75.402 52.101 C 74.802 52.335 74.419 52.151 74.252 51.551 C 74.085 50.985 74.285 50.601 74.852 50.401 L 83.802 47.301 L 92.302 44.501"/>
  </g>
</svg>